<?xml version="1.0" encoding="UTF-8"?>
<svg version="1.1" xmlns="http://www.w3.org/2000/svg" width="500" height="500">
<path d="M0 0 C0.66 0 1.32 0 2 0 C2.03092239 1.57162651 2.03092239 1.57162651 2.06246948 3.17500305 C2.25944245 13.1321004 2.46502714 23.08898917 2.67867851 33.04574299 C2.78820656 38.16250057 2.89487831 43.27928196 2.99462891 48.39624023 C3.09131291 53.35015929 3.19601327 58.30385424 3.3058815 63.25749779 C3.34610704 65.13130165 3.38362068 67.00516611 3.41814804 68.87908363 C3.93498515 96.64535736 5.39082213 126.10548025 23.30078125 148.765625 C24.83808459 150.78709055 25.95776531 152.6933283 27 155 C27.66 155 28.32 155 29 155 C29 155.66 29 156.32 29 157 C29.56203125 157.26039063 30.1240625 157.52078125 30.703125 157.7890625 C33.23482932 159.12380457 35.43806651 160.68890838 37.75 162.375 C63.04242417 180.1829313 95.48682388 178.30250096 125.03704834 178.60089111 C128.87959713 178.64160372 132.72201336 178.69238079 136.56445312 178.7421875 C144.04287624 178.83770327 151.52136625 178.9224852 159 179 C158.67 179.99 158.34 180.98 158 182 C157.33110748 182.00808685 156.66221497 182.01617371 155.97305298 182.02450562 C149.53534905 182.10384891 143.09781137 182.19149997 136.66033363 182.28752708 C133.35414784 182.33657765 130.04801493 182.38196474 126.74169922 182.421875 C78.27157666 181.57464645 78.27157666 181.57464645 35.07421875 200.4609375 C33 202 33 202 31 202 C31 202.66 31 203.32 31 204 C30.34 204 29.68 204 29 204 C28.74605469 204.58007812 28.49210938 205.16015625 28.23046875 205.7578125 C26.86847005 208.2396768 25.30198958 209.8659673 23.3125 211.875 C10.85999588 225.63829403 7.28535394 244.19141463 5 262 C4.8713858 262.99661652 4.8713858 262.99661652 4.74017334 264.0133667 C3.75633029 272.65966856 3.66712111 281.34797844 3.46484375 290.0390625 C3.42175881 291.77355753 3.37834212 293.50804436 3.33460999 295.24252319 C3.22117582 299.77643335 3.11220771 304.31043992 3.00421143 308.84448242 C2.89290695 313.4836287 2.77732089 318.12266815 2.66210938 322.76171875 C2.43724711 331.84104708 2.2171091 340.92048319 2 350 C1.34 349.67 0.68 349.34 0 349 C-0.03092239 347.49354919 -0.03092239 347.49354919 -0.06246948 345.95666504 C-0.25920609 336.42538744 -0.46477565 326.89433443 -0.67867851 317.36342621 C-0.78833466 312.46518333 -0.89503203 307.56691559 -0.99462891 302.66845703 C-1.09111753 297.92850596 -1.19582026 293.18879709 -1.3058815 288.44914246 C-1.34619254 286.65380501 -1.38369615 284.85840194 -1.41814804 283.0629425 C-1.80815495 262.94907469 -2.83253257 242.29310368 -12.828125 224.35546875 C-14 222 -14 222 -14 219 C-14.66 219 -15.32 219 -16 219 C-17.28818776 217.33572064 -18.50566226 215.61641121 -19.6875 213.875 C-23.06234587 209.08111473 -26.4771945 205.67477947 -31 202 C-31 201.34 -31 200.68 -31 200 C-31.72832031 199.72929687 -32.45664063 199.45859375 -33.20703125 199.1796875 C-35.91582335 198.03555433 -38.21261741 196.704016 -40.6875 195.125 C-65.90406193 179.8838133 -99.76237624 182.71106664 -128.125 182.375 C-130.84898291 182.3375981 -133.57292795 182.29773026 -136.296875 182.2578125 C-142.86448974 182.16339848 -149.43217018 182.07794463 -156 182 C-156.33 181.01 -156.66 180.02 -157 179 C-156.20725174 178.99191315 -155.41450348 178.98382629 -154.59773254 178.97549438 C-147.02533277 178.89665646 -139.45310163 178.80912125 -131.88090992 178.71247292 C-127.9905464 178.66310707 -124.10020258 178.61678731 -120.2097168 178.578125 C-99.04049665 178.42960834 -99.04049665 178.42960834 -77.921875 177.1015625 C-77.13412186 177.02757233 -76.34636871 176.95358215 -75.53474426 176.87734985 C-54.93029721 174.64150108 -35.8433112 166.15214192 -21.8125 150.625 C-3.44530016 127.34804948 -1.86431319 97.88111722 -1.3671875 69.43359375 C-1.32592286 67.4176335 -1.28392727 65.4016881 -1.24124146 63.38575745 C-1.13209334 58.140149 -1.03271813 52.89440172 -0.93554688 47.64855957 C-0.83415742 42.27144362 -0.72329191 36.89452338 -0.61328125 31.51757812 C-0.39970619 21.01188686 -0.19648013 10.50602393 0 0 Z " fill="#1E1E1E" transform="translate(249,65)"/>
<path d="M0 0 C1.85431641 0.01353516 1.85431641 0.01353516 3.74609375 0.02734375 C5.14021484 0.04474609 5.14021484 0.04474609 6.5625 0.0625 C5.758125 0.68125 4.95375 1.3 4.125 1.9375 C1.52375481 3.80414041 1.52375481 3.80414041 0.5625 6.0625 C1.5525 6.5575 1.5525 6.5575 2.5625 7.0625 C-3.1392892 7.16533788 -8.76327777 7.08272543 -14.44604492 6.57836914 C-21.50345172 6.01353371 -28.53591188 5.84277109 -35.61328125 5.74609375 C-36.90445358 5.72531265 -38.19562592 5.70453156 -39.52592468 5.68312073 C-42.91066931 5.62868798 -46.29546608 5.57894133 -49.68029785 5.53027344 C-53.15344725 5.47947184 -56.62652366 5.42409632 -60.09960938 5.36914062 C-66.87884269 5.26252742 -73.65814233 5.16087972 -80.4375 5.0625 C-80.7675 4.0725 -81.0975 3.0825 -81.4375 2.0625 C-80.61366318 2.05219254 -79.78982635 2.04188507 -78.94102478 2.03126526 C-71.15829728 1.93308577 -63.37564504 1.83054325 -55.59303951 1.72316074 C-51.59240777 1.66811327 -47.59176851 1.61472353 -43.59106445 1.56518555 C-39.72659384 1.51727239 -35.86220598 1.46492207 -31.99783516 1.40955925 C-30.52715695 1.38925712 -29.05645616 1.370525 -27.58573723 1.35342598 C-25.51793177 1.3291107 -23.45027873 1.29909674 -21.38256836 1.26782227 C-20.20786484 1.25227798 -19.03316132 1.2367337 -17.82286072 1.22071838 C-11.81309322 0.9398456 -6.04608606 -0.05758177 0 0 Z " fill="#282828" transform="translate(173.4375,241.9375)"/>
<path d="M0 0 C0.66 0 1.32 0 2 0 C2.94857515 28.33868258 3.12123056 56.64696881 3 85 C1.68 84.67 0.36 84.34 -1 84 C-1.20022293 55.9903525 -0.62018414 28.00176276 0 0 Z " fill="#6C6C6C" transform="translate(249,65)"/>
<path d="M0 0 C1.18868179 0.0028299 2.37736359 0.00565979 3.60206604 0.00857544 C7.38195043 0.01973044 11.16159401 0.04482684 14.94140625 0.0703125 C17.51106428 0.08034833 20.08072603 0.08947313 22.65039062 0.09765625 C28.93497738 0.11965449 35.2194246 0.15308561 41.50390625 0.1953125 C41.17390625 1.1853125 40.84390625 2.1753125 40.50390625 3.1953125 C39.80614578 3.20561996 39.10838531 3.21592743 38.38948059 3.22654724 C31.75648169 3.32524847 25.12355538 3.42785365 18.49068165 3.53465176 C15.08211322 3.5894017 11.67353585 3.64273481 8.26489258 3.69262695 C4.33016643 3.75028554 0.39555872 3.81447183 -3.5390625 3.87890625 C-5.34143623 3.90397499 -5.34143623 3.90397499 -7.18022156 3.92955017 C-13.99226535 4.04665513 -20.73947894 4.38039619 -27.52656555 4.98158264 C-32.18319774 5.31674071 -36.83056447 5.27946032 -41.49609375 5.1953125 C-41.49609375 4.8653125 -41.49609375 4.5353125 -41.49609375 4.1953125 C-40.86630615 4.1452002 -40.23651855 4.09508789 -39.58764648 4.04345703 C-36.70231811 3.80970488 -33.81800645 3.56509483 -30.93359375 3.3203125 C-29.44762695 3.20236328 -29.44762695 3.20236328 -27.93164062 3.08203125 C-26.96162109 2.99824219 -25.99160156 2.91445312 -24.9921875 2.828125 C-24.10716553 2.75480957 -23.22214355 2.68149414 -22.31030273 2.60595703 C-19.4127551 2.26832971 -19.4127551 2.26832971 -16.43359375 1.16796875 C-11.07963284 -0.42675475 -5.53428 -0.04989105 0 0 Z " fill="#606060" transform="translate(366.49609375,243.8046875)"/>
<path d="M0 0 C0.33 0 0.66 0 1 0 C1.33 3.96 1.66 7.92 2 12 C2.66 11.67 3.32 11.34 4 11 C4.14959965 32.0245041 3.75538679 52.98980038 3 74 C2.34 73.67 1.68 73.34 1 73 C-0.20900322 21.61093248 -0.20900322 21.61093248 0 0 Z " fill="#A0A0A0" transform="translate(248,341)"/>
<path d="M0 0 C17.16 0 34.32 0 52 0 C52 0.33 52 0.66 52 1 C50.35 1.33 48.7 1.66 47 2 C47 2.33 47 2.66 47 3 C31.82 3 16.64 3 1 3 C0.67 2.01 0.34 1.02 0 0 Z " fill="#DEDEDE" transform="translate(92,244)"/>
<path d="M0 0 C17.82 0 35.64 0 54 0 C53.67 0.99 53.34 1.98 53 3 C41.45 3 29.9 3 18 3 C18 2.67 18 2.34 18 2 C12.06 1.67 6.12 1.34 0 1 C0 0.67 0 0.34 0 0 Z " fill="#E5E5E5" transform="translate(354,244)"/>
<path d="M0 0 C0.33 0 0.66 0 1 0 C1 15.51 1 31.02 1 47 C-0.32 46.67 -1.64 46.34 -3 46 C-3 35.11 -3 24.22 -3 13 C-2.67 13 -2.34 13 -2 13 C-1.67 22.24 -1.34 31.48 -1 41 C-0.67 27.47 -0.34 13.94 0 0 Z " fill="#B6B6B6" transform="translate(251,103)"/>
<path d="M0 0 C-0.804375 0.61875 -1.60875 1.2375 -2.4375 1.875 C-5.03874519 3.74164041 -5.03874519 3.74164041 -6 6 C-5.34 6.33 -4.68 6.66 -4 7 C-12.05358138 7.14525497 -19.97875848 6.71413279 -28 6 C-28 5.67 -28 5.34 -28 5 C-18.1 4.505 -18.1 4.505 -8 4 C-7.67 3.34 -7.34 2.68 -7 2 C-11.62 2 -16.24 2 -21 2 C-21 1.67 -21 1.34 -21 1 C-14.03220597 -0.32719886 -7.07011089 -0.08825381 0 0 Z " fill="#959595" transform="translate(180,242)"/>
<path d="M0 0 C1.32 0.33 2.64 0.66 4 1 C4 5.62 4 10.24 4 15 C2.66666667 15 1.33333333 15 0 15 C0 10.05 0 5.1 0 0 Z " fill="#151515" transform="translate(248,149)"/>
<path d="M0 0 C0.74507812 0.00451172 1.49015625 0.00902344 2.2578125 0.01367188 C4.0885764 0.02540754 5.91929873 0.0433415 7.75 0.0625 C7.42 1.0525 7.09 2.0425 6.75 3.0625 C0.81 3.0625 -5.13 3.0625 -11.25 3.0625 C-11.58 2.4025 -11.91 1.7425 -12.25 1.0625 C-8.15996141 -0.08732602 -4.21822949 -0.04844256 0 0 Z " fill="#111111" transform="translate(165.25,243.9375)"/>
<path d="M0 0 C0.33 0 0.66 0 1 0 C0.9278125 0.61488281 0.855625 1.22976562 0.78125 1.86328125 C0.6884375 2.67152344 0.595625 3.47976562 0.5 4.3125 C0.4071875 5.11300781 0.314375 5.91351563 0.21875 6.73828125 C-0.04813463 9.11896555 -0.04813463 9.11896555 0 12 C-0.99 11.67 -1.98 11.34 -3 11 C-3 11.99 -3 12.98 -3 14 C-3 14.66 -3 15.32 -3 16 C-3.5775 16.12375 -4.155 16.2475 -4.75 16.375 C-7.02335767 17.00648824 -8.9253529 17.88858191 -11 19 C-9.58653605 16.01076046 -7.93825606 13.34556222 -6.0625 10.625 C-3.73033484 7.17522024 -1.74341217 3.77739303 0 0 Z " fill="#777777" transform="translate(237,199)"/>
<path d="M0 0 C4.29 0 8.58 0 13 0 C10 3 10 3 6.42578125 3.29296875 C5.05438087 3.27309338 3.68313595 3.23741111 2.3125 3.1875 C1.61060547 3.17396484 0.90871094 3.16042969 0.18554688 3.14648438 C-1.54329829 3.11120182 -3.27174765 3.05739583 -5 3 C-5 2.67 -5 2.34 -5 2 C-3.35 1.67 -1.7 1.34 0 1 C0 0.67 0 0.34 0 0 Z " fill="#3E3E3E" transform="translate(144,244)"/>
<path d="M0 0 C0.66 0.33 1.32 0.66 2 1 C-0.86698342 4.49413605 -2.84150148 6.28836874 -7.3125 6.8125 C-9.1378125 6.9053125 -9.1378125 6.9053125 -11 7 C-7.53252172 4.22601737 -3.93597489 2.04087587 0 0 Z " fill="#868686" transform="translate(211,229)"/>
<path d="M0 0 C0 3.77910478 -0.99703962 4.46106101 -3.5 7.1875 C-4.1496875 7.90292969 -4.799375 8.61835938 -5.46875 9.35546875 C-5.9740625 9.89816406 -6.479375 10.44085938 -7 11 C-7.66 10.01 -8.32 9.02 -9 8 C-6.86447403 4.79671105 -5.26767874 3.87891527 -2 2 C-1.34 1.34 -0.68 0.68 0 0 Z " fill="#A0A0A0" transform="translate(277,269)"/>
<path d="M0 0 C0.763125 0.20625 1.52625 0.4125 2.3125 0.625 C0.05064546 2.88685454 -1.65733561 3.66421617 -4.6875 4.625 C-5.6775 4.295 -6.6675 3.965 -7.6875 3.625 C-7.0275 3.625 -6.3675 3.625 -5.6875 3.625 C-5.6875 2.965 -5.6875 2.305 -5.6875 1.625 C-2.6875 -0.375 -2.6875 -0.375 0 0 Z " fill="#909090" transform="translate(305.6875,251.375)"/>
<path d="M0 0 C0.99 0.33 1.98 0.66 3 1 C3 1.66 3 2.32 3 3 C2.4225 3.12375 1.845 3.2475 1.25 3.375 C-1.02335767 4.00648824 -2.9253529 4.88858191 -5 6 C-3.63016497 2.83884224 -3.0109362 2.0072908 0 0 Z " fill="#535353" transform="translate(231,212)"/>
<path d="M0 0 C0.99 0.33 1.98 0.66 3 1 C3 1.99 3 2.98 3 4 C3.99 4.33 4.98 4.66 6 5 C5.34 6.32 4.68 7.64 4 9 C2.5393715 6.35261084 2 5.10551666 2 2 C1.34 2 0.68 2 0 2 C0 1.34 0 0.68 0 0 Z " fill="#868686" transform="translate(233,282)"/>
<path d="M0 0 C2.97 1.65 5.94 3.3 9 5 C8.01 5.66 7.02 6.32 6 7 C3.95880212 5.38405168 1.95927063 3.7143618 0 2 C0 1.34 0 0.68 0 0 Z " fill="#999999" transform="translate(285,227)"/>
</svg>
