<?xml version="1.0" encoding="UTF-8"?>
<!DOCTYPE svg PUBLIC "-//W3C//DTD SVG 1.1//EN" "http://www.w3.org/Graphics/SVG/1.1/DTD/svg11.dtd">
<svg xmlns="http://www.w3.org/2000/svg" version="1.1" width="500px" height="500px" style="shape-rendering:geometricPrecision; text-rendering:geometricPrecision; image-rendering:optimizeQuality; fill-rule:evenodd; clip-rule:evenodd" xmlns:xlink="http://www.w3.org/1999/xlink">
<g><path style="opacity:1" fill="#b9b9b9" d="M 191.5,177.5 C 191.5,177.833 191.5,178.167 191.5,178.5C 191.167,178.5 190.833,178.5 190.5,178.5C 183.167,170.5 175.5,162.833 167.5,155.5C 159.369,146.868 151.036,138.368 142.5,130C 141.423,129.53 140.423,129.697 139.5,130.5C 139.5,130.167 139.5,129.833 139.5,129.5C 140.601,128.402 141.934,128.235 143.5,129C 159.702,145.035 175.702,161.201 191.5,177.5 Z"/></g>
<g><path style="opacity:1" fill="#bebebe" d="M 139.5,129.5 C 139.5,129.833 139.5,130.167 139.5,130.5C 147.11,139.447 155.11,148.114 163.5,156.5C 154.922,149.426 146.755,141.76 139,133.5C 138.235,131.934 138.402,130.601 139.5,129.5 Z"/></g>
<g><path style="opacity:1" fill="#040404" d="M 356.5,129.5 C 357.995,129.415 358.995,130.081 359.5,131.5C 356.478,134.853 353.478,138.187 350.5,141.5C 349.167,142.5 347.833,143.5 346.5,144.5C 346.631,143.761 346.464,143.094 346,142.5C 345.31,143.738 344.81,143.738 344.5,142.5C 348.5,138.167 352.5,133.833 356.5,129.5 Z"/></g>
<g><path style="opacity:1" fill="#040404" d="M 167.5,155.5 C 166.596,156.209 166.263,157.209 166.5,158.5C 165.609,157.89 164.609,157.557 163.5,157.5C 163.5,157.167 163.5,156.833 163.5,156.5C 155.11,148.114 147.11,139.447 139.5,130.5C 140.423,129.697 141.423,129.53 142.5,130C 151.036,138.368 159.369,146.868 167.5,155.5 Z"/></g>
<g><path style="opacity:1" fill="#dbdbdb" d="M 355.5,129.5 C 359.494,127.651 360.994,128.985 360,133.5C 357.234,136.777 354.067,139.443 350.5,141.5C 353.478,138.187 356.478,134.853 359.5,131.5C 358.995,130.081 357.995,129.415 356.5,129.5C 356.167,129.5 355.833,129.5 355.5,129.5 Z"/></g>
<g><path style="opacity:1" fill="#838383" d="M 355.5,129.5 C 355.833,129.5 356.167,129.5 356.5,129.5C 352.5,133.833 348.5,138.167 344.5,142.5C 341.833,144.833 339.167,147.167 336.5,149.5C 336.5,149.167 336.5,148.833 336.5,148.5C 342.5,141.833 348.833,135.5 355.5,129.5 Z"/></g>
<g><path style="opacity:1" fill="#020202" d="M 344.5,142.5 C 344.81,143.738 345.31,143.738 346,142.5C 346.464,143.094 346.631,143.761 346.5,144.5C 343.5,148.167 340.167,151.5 336.5,154.5C 335.833,153.833 335.167,153.167 334.5,152.5C 335.167,151.5 335.833,150.5 336.5,149.5C 339.167,147.167 341.833,144.833 344.5,142.5 Z"/></g>
<g><path style="opacity:1" fill="#d6d6d6" d="M 350.5,141.5 C 346.5,147.5 341.5,152.5 335.5,156.5C 335.833,155.833 336.167,155.167 336.5,154.5C 340.167,151.5 343.5,148.167 346.5,144.5C 347.833,143.5 349.167,142.5 350.5,141.5 Z"/></g>
<g><path style="opacity:1" fill="#020202" d="M 167.5,155.5 C 175.5,162.833 183.167,170.5 190.5,178.5C 190.53,179.497 190.03,180.164 189,180.5C 187.862,180.011 186.695,179.678 185.5,179.5C 179.558,172.221 173.225,165.221 166.5,158.5C 166.263,157.209 166.596,156.209 167.5,155.5 Z"/></g>
<g><path style="opacity:1" fill="#aeaeae" d="M 163.5,157.5 C 164.609,157.557 165.609,157.89 166.5,158.5C 173.225,165.221 179.558,172.221 185.5,179.5C 177.833,172.5 170.5,165.167 163.5,157.5 Z"/></g>
<g><path style="opacity:1" fill="#8b8b8b" d="M 336.5,148.5 C 336.5,148.833 336.5,149.167 336.5,149.5C 335.833,150.5 335.167,151.5 334.5,152.5C 330.833,155.5 327.5,158.833 324.5,162.5C 321.5,164.833 318.833,167.5 316.5,170.5C 315.167,171.5 313.833,172.5 312.5,173.5C 312.5,173.167 312.5,172.833 312.5,172.5C 320.167,164.167 328.167,156.167 336.5,148.5 Z"/></g>
<g><path style="opacity:1" fill="#010101" d="M 334.5,152.5 C 335.167,153.167 335.833,153.833 336.5,154.5C 336.167,155.167 335.833,155.833 335.5,156.5C 331.833,159.833 328.167,163.167 324.5,166.5C 324.5,165.167 324.5,163.833 324.5,162.5C 327.5,158.833 330.833,155.5 334.5,152.5 Z"/></g>
<g><path style="opacity:1" fill="#020202" d="M 324.5,162.5 C 324.5,163.833 324.5,165.167 324.5,166.5C 322.5,169.167 320.167,171.5 317.5,173.5C 316.89,172.609 316.557,171.609 316.5,170.5C 318.833,167.5 321.5,164.833 324.5,162.5 Z"/></g>
<g><path style="opacity:1" fill="#d2d2d2" d="M 335.5,156.5 C 328.556,165.112 320.889,173.112 312.5,180.5C 312.5,180.167 312.5,179.833 312.5,179.5C 314.167,177.5 315.833,175.5 317.5,173.5C 320.167,171.5 322.5,169.167 324.5,166.5C 328.167,163.167 331.833,159.833 335.5,156.5 Z"/></g>
<g><path style="opacity:1" fill="#101010" d="M 316.5,170.5 C 316.557,171.609 316.89,172.609 317.5,173.5C 315.833,175.5 314.167,177.5 312.5,179.5C 311.5,179.5 310.5,179.5 309.5,179.5C 309.5,180.833 309.5,182.167 309.5,183.5C 308.833,184.833 307.833,185.833 306.5,186.5C 303.833,187.167 302.167,188.833 301.5,191.5C 301.5,192.167 301.167,192.5 300.5,192.5C 298.167,192.833 296.833,194.167 296.5,196.5C 294.167,196.833 292.833,198.167 292.5,200.5C 290.347,201.573 288.347,201.573 286.5,200.5C 295.167,191.5 303.833,182.5 312.5,173.5C 313.833,172.5 315.167,171.5 316.5,170.5 Z"/></g>
<g><path style="opacity:1" fill="#c5c5c5" d="M 191.5,177.5 C 210.632,196.132 229.632,214.965 248.5,234C 249.094,234.464 249.761,234.631 250.5,234.5C 250.5,234.833 250.5,235.167 250.5,235.5C 250.158,236.338 249.492,236.672 248.5,236.5C 239.5,226.833 230.167,217.5 220.5,208.5C 217.833,205.167 214.833,202.167 211.5,199.5C 205.833,193.167 199.833,187.167 193.5,181.5C 192.833,180.5 192.167,179.5 191.5,178.5C 191.5,178.167 191.5,177.833 191.5,177.5 Z"/></g>
<g><path style="opacity:1" fill="#626262" d="M 312.5,179.5 C 312.5,179.833 312.5,180.167 312.5,180.5C 311.833,181.833 310.833,182.833 309.5,183.5C 309.5,182.167 309.5,180.833 309.5,179.5C 310.5,179.5 311.5,179.5 312.5,179.5 Z"/></g>
<g><path style="opacity:1" fill="#323232" d="M 190.5,178.5 C 190.833,178.5 191.167,178.5 191.5,178.5C 192.167,179.5 192.833,180.5 193.5,181.5C 190.519,181.794 189.852,183.128 191.5,185.5C 189.167,183.833 187.167,181.833 185.5,179.5C 186.695,179.678 187.862,180.011 189,180.5C 190.03,180.164 190.53,179.497 190.5,178.5 Z"/></g>
<g><path style="opacity:1" fill="#a8a8a8" d="M 191.5,185.5 C 198.5,190.5 204.5,196.5 209.5,203.5C 203.167,197.833 197.167,191.833 191.5,185.5 Z"/></g>
<g><path style="opacity:1" fill="#040404" d="M 193.5,181.5 C 199.833,187.167 205.833,193.167 211.5,199.5C 210.766,200.708 210.433,202.041 210.5,203.5C 210.167,203.5 209.833,203.5 209.5,203.5C 204.5,196.5 198.5,190.5 191.5,185.5C 189.852,183.128 190.519,181.794 193.5,181.5 Z"/></g>
<g><path style="opacity:1" fill="#d1d1d1" d="M 306.5,186.5 C 305.167,188.5 303.5,190.167 301.5,191.5C 302.167,188.833 303.833,187.167 306.5,186.5 Z"/></g>
<g><path style="opacity:1" fill="#9f9f9f" d="M 312.5,172.5 C 312.5,172.833 312.5,173.167 312.5,173.5C 303.833,182.5 295.167,191.5 286.5,200.5C 285.5,200.833 284.833,201.5 284.5,202.5C 281.5,204.833 278.833,207.5 276.5,210.5C 273.167,213.167 270.167,216.167 267.5,219.5C 264.5,221.833 261.833,224.5 259.5,227.5C 256.5,229.833 253.833,232.5 251.5,235.5C 251.167,235.5 250.833,235.5 250.5,235.5C 250.5,235.167 250.5,234.833 250.5,234.5C 270.833,213.5 291.5,192.833 312.5,172.5 Z"/></g>
<g><path style="opacity:1" fill="#cfcfcf" d="M 300.5,192.5 C 299.5,194.167 298.167,195.5 296.5,196.5C 296.833,194.167 298.167,192.833 300.5,192.5 Z"/></g>
<g><path style="opacity:1" fill="#c7c7c7" d="M 296.5,196.5 C 295.5,198.167 294.167,199.5 292.5,200.5C 292.833,198.167 294.167,196.833 296.5,196.5 Z"/></g>
<g><path style="opacity:1" fill="#050505" d="M 211.5,199.5 C 214.833,202.167 217.833,205.167 220.5,208.5C 218.007,208.131 217.34,208.797 218.5,210.5C 217.833,210.5 217.167,210.5 216.5,210.5C 215.243,207.573 213.243,205.239 210.5,203.5C 210.433,202.041 210.766,200.708 211.5,199.5 Z"/></g>
<g><path style="opacity:1" fill="#555555" d="M 286.5,200.5 C 288.347,201.573 290.347,201.573 292.5,200.5C 291.167,202.5 289.5,204.167 287.5,205.5C 287.167,205.5 286.833,205.5 286.5,205.5C 286.573,203.973 285.906,202.973 284.5,202.5C 284.833,201.5 285.5,200.833 286.5,200.5 Z"/></g>
<g><path style="opacity:1" fill="#a2a2a2" d="M 209.5,203.5 C 209.833,203.5 210.167,203.5 210.5,203.5C 213.243,205.239 215.243,207.573 216.5,210.5C 213.833,208.5 211.5,206.167 209.5,203.5 Z"/></g>
<g><path style="opacity:1" fill="#020202" d="M 284.5,202.5 C 285.906,202.973 286.573,203.973 286.5,205.5C 283.5,208.167 280.5,210.833 277.5,213.5C 277.443,212.391 277.11,211.391 276.5,210.5C 278.833,207.5 281.5,204.833 284.5,202.5 Z"/></g>
<g><path style="opacity:1" fill="#a7a7a7" d="M 216.5,210.5 C 217.167,210.5 217.833,210.5 218.5,210.5C 224.892,216.888 230.892,223.555 236.5,230.5C 229.5,224.167 222.833,217.5 216.5,210.5 Z"/></g>
<g><path style="opacity:1" fill="#0e0e0e" d="M 276.5,210.5 C 277.11,211.391 277.443,212.391 277.5,213.5C 275.42,215.573 273.754,217.907 272.5,220.5C 272.5,221.167 272.167,221.5 271.5,221.5C 270.833,221.5 270.167,221.5 269.5,221.5C 268.833,220.833 268.167,220.167 267.5,219.5C 270.167,216.167 273.167,213.167 276.5,210.5 Z"/></g>
<g><path style="opacity:1" fill="#030303" d="M 220.5,208.5 C 230.167,217.5 239.5,226.833 248.5,236.5C 247.391,236.557 246.391,236.89 245.5,237.5C 242.767,234.761 239.767,232.427 236.5,230.5C 230.892,223.555 224.892,216.888 218.5,210.5C 217.34,208.797 218.007,208.131 220.5,208.5 Z"/></g>
<g><path style="opacity:1" fill="#cacaca" d="M 286.5,205.5 C 286.833,205.5 287.167,205.5 287.5,205.5C 282.833,210.833 277.833,215.833 272.5,220.5C 273.754,217.907 275.42,215.573 277.5,213.5C 280.5,210.833 283.5,208.167 286.5,205.5 Z"/></g>
<g><path style="opacity:1" fill="#272727" d="M 267.5,219.5 C 268.167,220.167 268.833,220.833 269.5,221.5C 269.5,222.167 269.5,222.833 269.5,223.5C 269.5,224.167 269.167,224.5 268.5,224.5C 267.167,224.5 266.5,225.167 266.5,226.5C 265.5,228.167 264.167,229.5 262.5,230.5C 262.19,228.856 261.19,227.856 259.5,227.5C 261.833,224.5 264.5,221.833 267.5,219.5 Z"/></g>
<g><path style="opacity:1" fill="#d7d7d7" d="M 269.5,221.5 C 270.167,221.5 270.833,221.5 271.5,221.5C 271.167,222.5 270.5,223.167 269.5,223.5C 269.5,222.833 269.5,222.167 269.5,221.5 Z"/></g>
<g><path style="opacity:1" fill="#cfcfcf" d="M 268.5,224.5 C 268.167,225.5 267.5,226.167 266.5,226.5C 266.5,225.167 267.167,224.5 268.5,224.5 Z"/></g>
<g><path style="opacity:1" fill="#2f2f2f" d="M 259.5,227.5 C 261.19,227.856 262.19,228.856 262.5,230.5C 260.167,233.5 257.5,236.167 254.5,238.5C 254.167,238.5 253.833,238.5 253.5,238.5C 252.833,237.5 252.167,236.5 251.5,235.5C 253.833,232.5 256.5,229.833 259.5,227.5 Z"/></g>
<g><path style="opacity:1" fill="#1c1c1c" d="M 250.5,235.5 C 250.833,235.5 251.167,235.5 251.5,235.5C 252.167,236.5 252.833,237.5 253.5,238.5C 253.389,239.117 253.056,239.617 252.5,240C 255.704,243.036 258.704,246.203 261.5,249.5C 260.167,249.5 258.833,249.5 257.5,249.5C 256.609,248.89 255.609,248.557 254.5,248.5C 252.852,247.19 251.186,245.857 249.5,244.5C 247.481,246.19 245.481,247.856 243.5,249.5C 241.167,249.833 239.833,251.167 239.5,253.5C 238.728,252.306 237.728,251.306 236.5,250.5C 236.5,250.167 236.5,249.833 236.5,249.5C 239.797,246.704 242.964,243.704 246,240.5C 246.47,239.423 246.303,238.423 245.5,237.5C 246.391,236.89 247.391,236.557 248.5,236.5C 249.492,236.672 250.158,236.338 250.5,235.5 Z"/></g>
<g><path style="opacity:1" fill="#dedede" d="M 253.5,238.5 C 253.833,238.5 254.167,238.5 254.5,238.5C 257.167,242.167 259.833,245.833 262.5,249.5C 262.167,249.5 261.833,249.5 261.5,249.5C 258.704,246.203 255.704,243.036 252.5,240C 253.056,239.617 253.389,239.117 253.5,238.5 Z"/></g>
<g><path style="opacity:1" fill="#bebebe" d="M 236.5,230.5 C 239.767,232.427 242.767,234.761 245.5,237.5C 246.303,238.423 246.47,239.423 246,240.5C 242.964,243.704 239.797,246.704 236.5,249.5C 236.167,249.5 235.833,249.5 235.5,249.5C 238.478,246.187 241.478,242.853 244.5,239.5C 241.811,236.48 239.144,233.48 236.5,230.5 Z"/></g>
<g><path style="opacity:1" fill="#a3a3a3" d="M 254.5,248.5 C 255.609,248.557 256.609,248.89 257.5,249.5C 260.239,252.233 262.573,255.233 264.5,258.5C 260.833,255.5 257.5,252.167 254.5,248.5 Z"/></g>
<g><path style="opacity:1" fill="#040404" d="M 257.5,249.5 C 258.833,249.5 260.167,249.5 261.5,249.5C 261.833,249.5 262.167,249.5 262.5,249.5C 267.833,255.167 273.167,260.833 278.5,266.5C 277.292,267.234 275.959,267.567 274.5,267.5C 272.761,264.757 270.427,262.757 267.5,261.5C 267.5,259.5 266.5,258.5 264.5,258.5C 262.573,255.233 260.239,252.233 257.5,249.5 Z"/></g>
<g><path style="opacity:1" fill="#c9c9c9" d="M 262.5,249.5 C 272.079,257.575 281.246,266.242 290,275.5C 290.464,276.094 290.631,276.761 290.5,277.5C 288.167,275.5 285.833,273.5 283.5,271.5C 282.167,269.5 280.5,267.833 278.5,266.5C 273.167,260.833 267.833,255.167 262.5,249.5 Z"/></g>
<g><path style="opacity:1" fill="#d1d1d1" d="M 243.5,249.5 C 242.5,251.167 241.167,252.5 239.5,253.5C 239.833,251.167 241.167,249.833 243.5,249.5 Z"/></g>
<g><path style="opacity:1" fill="#2d2d2d" d="M 236.5,250.5 C 237.728,251.306 238.728,252.306 239.5,253.5C 236.167,257.5 232.5,261.167 228.5,264.5C 228.167,264.5 227.833,264.5 227.5,264.5C 226.833,263.5 226.167,262.5 225.5,261.5C 228.833,257.5 232.5,253.833 236.5,250.5 Z"/></g>
<g><path style="opacity:1" fill="#a3a3a3" d="M 264.5,258.5 C 266.5,258.5 267.5,259.5 267.5,261.5C 266.167,260.833 265.167,259.833 264.5,258.5 Z"/></g>
<g><path style="opacity:1" fill="#aaaaaa" d="M 235.5,249.5 C 235.833,249.5 236.167,249.5 236.5,249.5C 236.5,249.833 236.5,250.167 236.5,250.5C 232.5,253.833 228.833,257.5 225.5,261.5C 220.167,266.167 215.167,271.167 210.5,276.5C 208.167,278.5 205.833,280.5 203.5,282.5C 203.5,282.167 203.5,281.833 203.5,281.5C 213.833,270.5 224.5,259.833 235.5,249.5 Z"/></g>
<g><path style="opacity:1" fill="#9a9a9a" d="M 267.5,261.5 C 270.427,262.757 272.761,264.757 274.5,267.5C 274.5,267.833 274.5,268.167 274.5,268.5C 271.833,266.5 269.5,264.167 267.5,261.5 Z"/></g>
<g><path style="opacity:1" fill="#717171" d="M 227.5,264.5 C 227.833,264.5 228.167,264.5 228.5,264.5C 227.833,265.833 226.833,266.833 225.5,267.5C 225.586,266.504 225.252,265.671 224.5,265C 225.448,264.517 226.448,264.351 227.5,264.5 Z"/></g>
<g><path style="opacity:1" fill="#252525" d="M 278.5,266.5 C 280.5,267.833 282.167,269.5 283.5,271.5C 283.5,273.5 283.5,275.5 283.5,277.5C 281.167,275.833 279.167,273.833 277.5,271.5C 277.5,269.5 276.5,268.5 274.5,268.5C 274.5,268.167 274.5,267.833 274.5,267.5C 275.959,267.567 277.292,267.234 278.5,266.5 Z"/></g>
<g><path style="opacity:1" fill="#191919" d="M 225.5,261.5 C 226.167,262.5 226.833,263.5 227.5,264.5C 226.448,264.351 225.448,264.517 224.5,265C 225.252,265.671 225.586,266.504 225.5,267.5C 225.167,268.5 224.5,269.167 223.5,269.5C 222.778,269.082 222.278,268.416 222,267.5C 220.562,268.9 219.729,270.567 219.5,272.5C 216.09,272.384 214.756,274.05 215.5,277.5C 215.167,278.5 214.5,279.167 213.5,279.5C 212.167,278.833 211.167,277.833 210.5,276.5C 215.167,271.167 220.167,266.167 225.5,261.5 Z"/></g>
<g><path style="opacity:1" fill="#9d9d9d" d="M 274.5,268.5 C 276.5,268.5 277.5,269.5 277.5,271.5C 276.167,270.833 275.167,269.833 274.5,268.5 Z"/></g>
<g><path style="opacity:1" fill="#575757" d="M 223.5,269.5 C 221.167,272.5 218.5,275.167 215.5,277.5C 214.756,274.05 216.09,272.384 219.5,272.5C 219.729,270.567 220.562,268.9 222,267.5C 222.278,268.416 222.778,269.082 223.5,269.5 Z"/></g>
<g><path style="opacity:1" fill="#141414" d="M 283.5,271.5 C 285.833,273.5 288.167,275.5 290.5,277.5C 291.5,278.833 292.5,280.167 293.5,281.5C 292.609,282.11 291.609,282.443 290.5,282.5C 289.833,282.5 289.167,282.5 288.5,282.5C 287.5,282.167 286.833,281.5 286.5,280.5C 286.5,278.5 285.5,277.5 283.5,277.5C 283.5,275.5 283.5,273.5 283.5,271.5 Z"/></g>
<g><path style="opacity:1" fill="#323232" d="M 210.5,276.5 C 211.167,277.833 212.167,278.833 213.5,279.5C 209.5,284.167 205.167,288.5 200.5,292.5C 200.935,290.297 200.935,288.297 200.5,286.5C 201.5,285.167 202.5,283.833 203.5,282.5C 205.833,280.5 208.167,278.5 210.5,276.5 Z"/></g>
<g><path style="opacity:1" fill="#9c9c9c" d="M 283.5,277.5 C 285.5,277.5 286.5,278.5 286.5,280.5C 285.167,279.833 284.167,278.833 283.5,277.5 Z"/></g>
<g><path style="opacity:1" fill="#c9c9c9" d="M 290.5,277.5 C 295.833,280.833 300.167,285.167 303.5,290.5C 302.833,290.167 302.167,289.833 301.5,289.5C 299.167,286.5 296.5,283.833 293.5,281.5C 292.5,280.167 291.5,278.833 290.5,277.5 Z"/></g>
<g><path style="opacity:1" fill="#191919" d="M 293.5,281.5 C 296.5,283.833 299.167,286.5 301.5,289.5C 300.766,290.708 300.433,292.041 300.5,293.5C 300.167,293.5 299.833,293.5 299.5,293.5C 298.5,293.167 297.833,292.5 297.5,291.5C 297.167,289.167 295.833,287.833 293.5,287.5C 292.5,287.167 291.833,286.5 291.5,285.5C 291.443,284.391 291.11,283.391 290.5,282.5C 291.609,282.443 292.609,282.11 293.5,281.5 Z"/></g>
<g><path style="opacity:1" fill="#9c9c9c" d="M 288.5,282.5 C 289.167,282.5 289.833,282.5 290.5,282.5C 291.11,283.391 291.443,284.391 291.5,285.5C 290.167,284.833 289.167,283.833 288.5,282.5 Z"/></g>
<g><path style="opacity:1" fill="#979797" d="M 293.5,287.5 C 295.833,287.833 297.167,289.167 297.5,291.5C 295.833,290.5 294.5,289.167 293.5,287.5 Z"/></g>
<g><path style="opacity:1" fill="#202020" d="M 200.5,286.5 C 200.935,288.297 200.935,290.297 200.5,292.5C 199.167,294.5 197.5,296.167 195.5,297.5C 195.631,296.624 195.298,295.957 194.5,295.5C 193.286,297.38 191.952,297.713 190.5,296.5C 193.5,292.833 196.833,289.5 200.5,286.5 Z"/></g>
<g><path style="opacity:1" fill="#d7d7d7" d="M 303.5,290.5 C 309.5,294.5 314.5,299.5 318.5,305.5C 315.5,302.833 312.5,300.167 309.5,297.5C 307.5,295.167 305.5,292.833 303.5,290.5 Z"/></g>
<g><path style="opacity:1" fill="#c0c0c0" d="M 203.5,281.5 C 203.5,281.833 203.5,282.167 203.5,282.5C 202.5,283.833 201.5,285.167 200.5,286.5C 196.833,289.5 193.5,292.833 190.5,296.5C 187.167,299.5 183.833,302.5 180.5,305.5C 187.444,296.888 195.111,288.888 203.5,281.5 Z"/></g>
<g><path style="opacity:1" fill="#121212" d="M 301.5,289.5 C 302.167,289.833 302.833,290.167 303.5,290.5C 305.5,292.833 307.5,295.167 309.5,297.5C 309.167,298.167 308.833,298.833 308.5,299.5C 307.167,299.167 305.833,298.833 304.5,298.5C 303.5,298.167 302.833,297.5 302.5,296.5C 302.573,294.973 301.906,293.973 300.5,293.5C 300.433,292.041 300.766,290.708 301.5,289.5 Z"/></g>
<g><path style="opacity:1" fill="#8f8f8f" d="M 299.5,293.5 C 299.833,293.5 300.167,293.5 300.5,293.5C 301.906,293.973 302.573,294.973 302.5,296.5C 301.167,295.833 300.167,294.833 299.5,293.5 Z"/></g>
<g><path style="opacity:1" fill="#252525" d="M 195.5,297.5 C 192.5,301.167 189.167,304.5 185.5,307.5C 183.47,306.728 181.637,307.394 180,309.5C 179.617,308.944 179.117,308.611 178.5,308.5C 179.167,307.5 179.833,306.5 180.5,305.5C 183.833,302.5 187.167,299.5 190.5,296.5C 191.952,297.713 193.286,297.38 194.5,295.5C 195.298,295.957 195.631,296.624 195.5,297.5 Z"/></g>
<g><path style="opacity:1" fill="#585858" d="M 304.5,298.5 C 305.833,298.833 307.167,299.167 308.5,299.5C 308.5,300.5 308.5,301.5 308.5,302.5C 306.833,301.5 305.5,300.167 304.5,298.5 Z"/></g>
<g><path style="opacity:1" fill="#181818" d="M 309.5,297.5 C 312.5,300.167 315.5,302.833 318.5,305.5C 318.833,306.5 319.5,307.167 320.5,307.5C 320.5,307.833 320.5,308.167 320.5,308.5C 318.158,309.211 317.825,310.544 319.5,312.5C 319.167,312.5 318.833,312.5 318.5,312.5C 316.167,310.833 314.167,308.833 312.5,306.5C 312.512,303.858 311.179,302.525 308.5,302.5C 308.5,301.5 308.5,300.5 308.5,299.5C 308.833,298.833 309.167,298.167 309.5,297.5 Z"/></g>
<g><path style="opacity:1" fill="#5a5a5a" d="M 308.5,302.5 C 311.179,302.525 312.512,303.858 312.5,306.5C 310.833,305.5 309.5,304.167 308.5,302.5 Z"/></g>
<g><path style="opacity:1" fill="#e8e8e8" d="M 318.5,305.5 C 319.833,305.5 320.5,306.167 320.5,307.5C 319.5,307.167 318.833,306.5 318.5,305.5 Z"/></g>
<g><path style="opacity:1" fill="#2e2e2e" d="M 185.5,307.5 C 179.167,314.5 172.5,321.167 165.5,327.5C 164.962,325.883 164.629,324.216 164.5,322.5C 164.833,321.833 165.167,321.167 165.5,320.5C 166.5,320.167 167.167,319.5 167.5,318.5C 170.5,316.167 173.167,313.5 175.5,310.5C 176.5,309.833 177.5,309.167 178.5,308.5C 179.117,308.611 179.617,308.944 180,309.5C 181.637,307.394 183.47,306.728 185.5,307.5 Z"/></g>
<g><path style="opacity:1" fill="#e9e9e9" d="M 320.5,308.5 C 320.5,308.167 320.5,307.833 320.5,307.5C 322.5,307.5 323.5,308.5 323.5,310.5C 322.5,309.833 321.5,309.167 320.5,308.5 Z"/></g>
<g><path style="opacity:1" fill="#d8d8d8" d="M 180.5,305.5 C 179.833,306.5 179.167,307.5 178.5,308.5C 177.5,309.167 176.5,309.833 175.5,310.5C 176.167,307.833 177.833,306.167 180.5,305.5 Z"/></g>
<g><path style="opacity:1" fill="#161616" d="M 320.5,308.5 C 321.5,309.167 322.5,309.833 323.5,310.5C 325.167,312.5 326.833,314.5 328.5,316.5C 326.462,317.856 326.128,319.523 327.5,321.5C 325.833,320.5 324.5,319.167 323.5,317.5C 322.167,315.833 320.833,314.167 319.5,312.5C 317.825,310.544 318.158,309.211 320.5,308.5 Z"/></g>
<g><path style="opacity:1" fill="#dddddd" d="M 323.5,310.5 C 327.167,312.167 329.833,314.833 331.5,318.5C 330.5,317.833 329.5,317.167 328.5,316.5C 326.833,314.5 325.167,312.5 323.5,310.5 Z"/></g>
<g><path style="opacity:1" fill="#c6c6c6" d="M 175.5,310.5 C 173.167,313.5 170.5,316.167 167.5,318.5C 169.167,314.833 171.833,312.167 175.5,310.5 Z"/></g>
<g><path style="opacity:1" fill="#ededed" d="M 318.5,312.5 C 318.833,312.5 319.167,312.5 319.5,312.5C 320.833,314.167 322.167,315.833 323.5,317.5C 320.833,316.833 319.167,315.167 318.5,312.5 Z"/></g>
<g><path style="opacity:1" fill="#cbcbcb" d="M 167.5,318.5 C 167.167,319.5 166.5,320.167 165.5,320.5C 165.5,319.167 166.167,318.5 167.5,318.5 Z"/></g>
<g><path style="opacity:1" fill="#dadada" d="M 331.5,318.5 C 332.833,318.5 333.5,319.167 333.5,320.5C 332.5,320.167 331.833,319.5 331.5,318.5 Z"/></g>
<g><path style="opacity:1" fill="#e0e0e0" d="M 333.5,320.5 C 334.833,320.5 335.5,321.167 335.5,322.5C 334.5,322.167 333.833,321.5 333.5,320.5 Z"/></g>
<g><path style="opacity:1" fill="#ededed" d="M 327.5,321.5 C 328.5,321.833 329.167,322.5 329.5,323.5C 328.167,323.5 327.5,322.833 327.5,321.5 Z"/></g>
<g><path style="opacity:1" fill="#dfdfdf" d="M 335.5,322.5 C 338.167,323.167 339.833,324.833 340.5,327.5C 338.5,326.167 336.833,324.5 335.5,322.5 Z"/></g>
<g><path style="opacity:1" fill="#101010" d="M 328.5,316.5 C 329.5,317.167 330.5,317.833 331.5,318.5C 331.833,319.5 332.5,320.167 333.5,320.5C 333.833,321.5 334.5,322.167 335.5,322.5C 336.833,324.5 338.5,326.167 340.5,327.5C 340.833,328.5 341.5,329.167 342.5,329.5C 342.833,330.5 343.5,331.167 344.5,331.5C 345.5,331.833 346.167,332.5 346.5,333.5C 346.631,334.239 346.464,334.906 346,335.5C 344.586,334.587 343.086,334.587 341.5,335.5C 340.5,333.833 339.167,332.5 337.5,331.5C 336.833,330.167 335.833,329.167 334.5,328.5C 334.167,327.5 333.5,326.833 332.5,326.5C 332.167,325.5 331.5,324.833 330.5,324.5C 329.833,324.5 329.5,324.167 329.5,323.5C 329.167,322.5 328.5,321.833 327.5,321.5C 326.128,319.523 326.462,317.856 328.5,316.5 Z"/></g>
<g><path style="opacity:1" fill="#d2d2d2" d="M 165.5,320.5 C 165.167,321.167 164.833,321.833 164.5,322.5C 161.167,325.167 158.167,328.167 155.5,331.5C 155.167,331.5 154.833,331.5 154.5,331.5C 157.167,326.833 160.833,323.167 165.5,320.5 Z"/></g>
<g><path style="opacity:1" fill="#ededed" d="M 330.5,324.5 C 331.5,324.833 332.167,325.5 332.5,326.5C 331.167,326.5 330.5,325.833 330.5,324.5 Z"/></g>
<g><path style="opacity:1" fill="#171717" d="M 164.5,322.5 C 164.629,324.216 164.962,325.883 165.5,327.5C 165.167,328.5 164.5,329.167 163.5,329.5C 162.5,329.833 161.833,330.5 161.5,331.5C 160.833,331.833 160.167,332.167 159.5,332.5C 158.207,332.125 156.874,331.792 155.5,331.5C 158.167,328.167 161.167,325.167 164.5,322.5 Z"/></g>
<g><path style="opacity:1" fill="#ebebeb" d="M 332.5,326.5 C 333.5,326.833 334.167,327.5 334.5,328.5C 333.167,328.5 332.5,327.833 332.5,326.5 Z"/></g>
<g><path style="opacity:1" fill="#e3e3e3" d="M 340.5,327.5 C 341.833,327.5 342.5,328.167 342.5,329.5C 341.5,329.167 340.833,328.5 340.5,327.5 Z"/></g>
<g><path style="opacity:1" fill="#ededed" d="M 334.5,328.5 C 335.833,329.167 336.833,330.167 337.5,331.5C 335.5,331.5 334.5,330.5 334.5,328.5 Z"/></g>
<g><path style="opacity:1" fill="#e0e0e0" d="M 342.5,329.5 C 343.833,329.5 344.5,330.167 344.5,331.5C 343.5,331.167 342.833,330.5 342.5,329.5 Z"/></g>
<g><path style="opacity:1" fill="#ededed" d="M 163.5,329.5 C 163.5,330.833 162.833,331.5 161.5,331.5C 161.833,330.5 162.5,329.833 163.5,329.5 Z"/></g>
<g><path style="opacity:1" fill="#cacaca" d="M 154.5,331.5 C 154.167,332.5 153.5,333.167 152.5,333.5C 152.5,332.167 153.167,331.5 154.5,331.5 Z"/></g>
<g><path style="opacity:1" fill="#161616" d="M 154.5,331.5 C 154.833,331.5 155.167,331.5 155.5,331.5C 156.874,331.792 158.207,332.125 159.5,332.5C 159.5,332.833 159.5,333.167 159.5,333.5C 158.5,333.833 157.833,334.5 157.5,335.5C 157.5,336.167 157.167,336.5 156.5,336.5C 155.5,336.833 154.833,337.5 154.5,338.5C 153.5,338.833 152.833,339.5 152.5,340.5C 152.167,340.5 151.833,340.5 151.5,340.5C 151.573,338.973 150.906,337.973 149.5,337.5C 149.833,336.833 150.167,336.167 150.5,335.5C 151.5,335.167 152.167,334.5 152.5,333.5C 153.5,333.167 154.167,332.5 154.5,331.5 Z"/></g>
<g><path style="opacity:1" fill="#f1f1f1" d="M 161.5,331.5 C 161.5,332.833 160.833,333.5 159.5,333.5C 159.5,333.167 159.5,332.833 159.5,332.5C 160.167,332.167 160.833,331.833 161.5,331.5 Z"/></g>
<g><path style="opacity:1" fill="#eaeaea" d="M 337.5,331.5 C 339.167,332.5 340.5,333.833 341.5,335.5C 339.167,335.167 337.833,333.833 337.5,331.5 Z"/></g>
<g><path style="opacity:1" fill="#f0f0f0" d="M 159.5,333.5 C 159.5,334.833 158.833,335.5 157.5,335.5C 157.833,334.5 158.5,333.833 159.5,333.5 Z"/></g>
<g><path style="opacity:1" fill="#d0d0d0" d="M 152.5,333.5 C 152.167,334.5 151.5,335.167 150.5,335.5C 150.5,334.167 151.167,333.5 152.5,333.5 Z"/></g>
<g><path style="opacity:1" fill="#252525" d="M 346.5,333.5 C 348.167,334.5 349.5,335.833 350.5,337.5C 350.833,338.5 351.5,339.167 352.5,339.5C 354.167,340.5 355.5,341.833 356.5,343.5C 355.305,343.322 354.138,342.989 353,342.5C 351.97,342.836 351.47,343.503 351.5,344.5C 350.833,344.167 350.167,343.833 349.5,343.5C 348.833,342.167 347.833,341.167 346.5,340.5C 346.167,339.5 345.5,338.833 344.5,338.5C 344.167,337.5 343.5,336.833 342.5,336.5C 341.833,336.5 341.5,336.167 341.5,335.5C 343.086,334.587 344.586,334.587 346,335.5C 346.464,334.906 346.631,334.239 346.5,333.5 Z"/></g>
<g><path style="opacity:1" fill="#dadada" d="M 150.5,335.5 C 150.167,336.167 149.833,336.833 149.5,337.5C 149.167,337.5 148.833,337.5 148.5,337.5C 148.5,336.167 149.167,335.5 150.5,335.5 Z"/></g>
<g><path style="opacity:1" fill="#ededed" d="M 156.5,336.5 C 156.5,337.833 155.833,338.5 154.5,338.5C 154.833,337.5 155.5,336.833 156.5,336.5 Z"/></g>
<g><path style="opacity:1" fill="#eeeeee" d="M 342.5,336.5 C 343.5,336.833 344.167,337.5 344.5,338.5C 343.167,338.5 342.5,337.833 342.5,336.5 Z"/></g>
<g><path style="opacity:1" fill="#e8e8e8" d="M 350.5,337.5 C 351.833,337.5 352.5,338.167 352.5,339.5C 351.5,339.167 350.833,338.5 350.5,337.5 Z"/></g>
<g><path style="opacity:1" fill="#181818" d="M 148.5,337.5 C 148.833,337.5 149.167,337.5 149.5,337.5C 150.906,337.973 151.573,338.973 151.5,340.5C 150.833,341.5 150.167,342.5 149.5,343.5C 148.5,343.833 147.833,344.5 147.5,345.5C 146.5,345.833 145.833,346.5 145.5,347.5C 144.5,347.833 143.833,348.5 143.5,349.5C 142.167,350.833 140.833,350.833 139.5,349.5C 139.5,348.5 139.5,347.5 139.5,346.5C 141.167,345.5 142.5,344.167 143.5,342.5C 145.5,341.167 147.167,339.5 148.5,337.5 Z"/></g>
<g><path style="opacity:1" fill="#f1f1f1" d="M 154.5,338.5 C 154.5,339.833 153.833,340.5 152.5,340.5C 152.833,339.5 153.5,338.833 154.5,338.5 Z"/></g>
<g><path style="opacity:1" fill="#eaeaea" d="M 344.5,338.5 C 345.5,338.833 346.167,339.5 346.5,340.5C 345.167,340.5 344.5,339.833 344.5,338.5 Z"/></g>
<g><path style="opacity:1" fill="#d9d9d9" d="M 148.5,337.5 C 147.167,339.5 145.5,341.167 143.5,342.5C 144.167,339.833 145.833,338.167 148.5,337.5 Z"/></g>
<g><path style="opacity:1" fill="#e8e8e8" d="M 346.5,340.5 C 347.833,341.167 348.833,342.167 349.5,343.5C 347.5,343.5 346.5,342.5 346.5,340.5 Z"/></g>
<g><path style="opacity:1" fill="#efefef" d="M 151.5,340.5 C 151.833,340.5 152.167,340.5 152.5,340.5C 152.5,342.5 151.5,343.5 149.5,343.5C 150.167,342.5 150.833,341.5 151.5,340.5 Z"/></g>
<g><path style="opacity:1" fill="#dedede" d="M 143.5,342.5 C 142.5,344.167 141.167,345.5 139.5,346.5C 139.833,344.167 141.167,342.833 143.5,342.5 Z"/></g>
<g><path style="opacity:1" fill="#2c2c2c" d="M 356.5,343.5 C 359.711,344.823 360.711,346.99 359.5,350C 357.934,350.765 356.601,350.598 355.5,349.5C 355.167,348.5 354.5,347.833 353.5,347.5C 353.167,346.5 352.5,345.833 351.5,345.5C 351.5,345.167 351.5,344.833 351.5,344.5C 351.47,343.503 351.97,342.836 353,342.5C 354.138,342.989 355.305,343.322 356.5,343.5 Z"/></g>
<g><path style="opacity:1" fill="#f0f0f0" d="M 149.5,343.5 C 149.5,344.833 148.833,345.5 147.5,345.5C 147.833,344.5 148.5,343.833 149.5,343.5 Z"/></g>
<g><path style="opacity:1" fill="#e7e7e7" d="M 349.5,343.5 C 350.167,343.833 350.833,344.167 351.5,344.5C 351.5,344.833 351.5,345.167 351.5,345.5C 350.167,345.5 349.5,344.833 349.5,343.5 Z"/></g>
<g><path style="opacity:1" fill="#f9faf9" d="M 139.5,346.5 C 139.5,347.5 139.5,348.5 139.5,349.5C 136.833,348.5 136.833,347.5 139.5,346.5 Z"/></g>
<g><path style="opacity:1" fill="#ededed" d="M 147.5,345.5 C 147.5,346.833 146.833,347.5 145.5,347.5C 145.833,346.5 146.5,345.833 147.5,345.5 Z"/></g>
<g><path style="opacity:1" fill="#e7e7e7" d="M 351.5,345.5 C 352.5,345.833 353.167,346.5 353.5,347.5C 352.167,347.5 351.5,346.833 351.5,345.5 Z"/></g>
<g><path style="opacity:1" fill="#eeeeee" d="M 145.5,347.5 C 145.5,348.833 144.833,349.5 143.5,349.5C 143.833,348.5 144.5,347.833 145.5,347.5 Z"/></g>
<g><path style="opacity:1" fill="#e8e8e8" d="M 353.5,347.5 C 354.5,347.833 355.167,348.5 355.5,349.5C 354.167,349.5 353.5,348.833 353.5,347.5 Z"/></g>
</svg>
