<?xml version="1.0" encoding="UTF-8"?>
<!DOCTYPE svg PUBLIC "-//W3C//DTD SVG 1.1//EN" "http://www.w3.org/Graphics/SVG/1.1/DTD/svg11.dtd">
<svg xmlns="http://www.w3.org/2000/svg" version="1.1" width="500px" height="500px" style="shape-rendering:geometricPrecision; text-rendering:geometricPrecision; image-rendering:optimizeQuality; fill-rule:evenodd; clip-rule:evenodd" xmlns:xlink="http://www.w3.org/1999/xlink">
<g><path style="opacity:1" fill="#7c7c7c" d="M 320.5,138.5 C 318.898,140.074 316.898,140.741 314.5,140.5C 314.167,140.5 313.833,140.5 313.5,140.5C 315.515,139.076 317.848,138.41 320.5,138.5 Z"/></g>
<g><path style="opacity:1" fill="#3e3e3e" d="M 313.5,140.5 C 313.833,140.5 314.167,140.5 314.5,140.5C 314.369,141.239 314.536,141.906 315,142.5C 316.616,141.199 318.116,141.199 319.5,142.5C 318.833,142.5 318.5,142.833 318.5,143.5C 316.473,143.338 314.473,143.505 312.5,144C 305.829,146.28 299.162,148.446 292.5,150.5C 291.178,150.33 290.011,150.663 289,151.5C 288.536,150.906 288.369,150.239 288.5,149.5C 296.4,145.531 304.733,142.531 313.5,140.5 Z"/></g>
<g><path style="opacity:1" fill="#232323" d="M 328.5,148.5 C 327.5,147.833 326.5,147.167 325.5,146.5C 325.196,144.204 324.196,143.871 322.5,145.5C 321.167,145.5 320.5,146.167 320.5,147.5C 320.167,147.5 319.833,147.5 319.5,147.5C 318.89,146.609 318.557,145.609 318.5,144.5C 318.5,144.167 318.5,143.833 318.5,143.5C 319.167,143.5 319.5,143.167 319.5,142.5C 318.116,141.199 316.616,141.199 315,142.5C 314.536,141.906 314.369,141.239 314.5,140.5C 316.898,140.741 318.898,140.074 320.5,138.5C 323.627,137.419 326.96,136.753 330.5,136.5C 331.163,140.564 330.497,144.564 328.5,148.5 Z"/></g>
<g><path style="opacity:1" fill="#e8e8e8" d="M 322.5,145.5 C 322.167,146.5 321.5,147.167 320.5,147.5C 320.5,146.167 321.167,145.5 322.5,145.5 Z"/></g>
<g><path style="opacity:1" fill="#373737" d="M 318.5,144.5 C 318.557,145.609 318.89,146.609 319.5,147.5C 317.761,150.243 315.427,152.243 312.5,153.5C 311.167,153.167 309.833,152.833 308.5,152.5C 311.539,149.46 314.873,146.794 318.5,144.5 Z"/></g>
<g><path style="opacity:1" fill="#383838" d="M 308.5,152.5 C 309.833,152.833 311.167,153.167 312.5,153.5C 307.193,158.472 301.86,163.472 296.5,168.5C 296.715,166.821 296.048,165.821 294.5,165.5C 298.814,160.856 303.48,156.522 308.5,152.5 Z"/></g>
<g><path style="opacity:1" fill="#3c3c3c" d="M 288.5,149.5 C 288.369,150.239 288.536,150.906 289,151.5C 290.011,150.663 291.178,150.33 292.5,150.5C 286.535,153.818 280.535,157.151 274.5,160.5C 274.649,159.448 274.483,158.448 274,157.5C 273.329,158.252 272.496,158.586 271.5,158.5C 276.43,154.267 282.097,151.267 288.5,149.5 Z"/></g>
<g><path style="opacity:1" fill="#2d2d2d" d="M 325.5,146.5 C 326.5,147.167 327.5,147.833 328.5,148.5C 325.979,157.878 321.646,166.211 315.5,173.5C 315.768,171.901 315.434,170.568 314.5,169.5C 316.742,166.021 318.742,162.354 320.5,158.5C 321.906,158.027 322.573,157.027 322.5,155.5C 323.265,152.33 324.265,149.33 325.5,146.5 Z"/></g>
<g><path style="opacity:1" fill="#a0a0a0" d="M 322.5,155.5 C 322.573,157.027 321.906,158.027 320.5,158.5C 320.427,156.973 321.094,155.973 322.5,155.5 Z"/></g>
<g><path style="opacity:1" fill="#313131" d="M 274.5,160.5 C 270.341,162.317 267.674,165.317 266.5,169.5C 267.084,166.715 266.084,165.048 263.5,164.5C 265.443,161.529 268.109,159.529 271.5,158.5C 272.496,158.586 273.329,158.252 274,157.5C 274.483,158.448 274.649,159.448 274.5,160.5 Z"/></g>
<g><path style="opacity:1" fill="#737373" d="M 262.5,167.5 C 263.239,167.369 263.906,167.536 264.5,168C 263.601,169.652 262.601,171.152 261.5,172.5C 261.5,172.167 261.5,171.833 261.5,171.5C 261.833,170.167 262.167,168.833 262.5,167.5 Z"/></g>
<g><path style="opacity:1" fill="#292929" d="M 294.5,165.5 C 296.048,165.821 296.715,166.821 296.5,168.5C 291.446,174.221 286.113,179.554 280.5,184.5C 279.778,183.449 278.778,182.782 277.5,182.5C 282.833,176.5 288.5,170.833 294.5,165.5 Z"/></g>
<g><path style="opacity:1" fill="#303030" d="M 262.5,165.5 C 262.5,166.167 262.5,166.833 262.5,167.5C 262.167,168.833 261.833,170.167 261.5,171.5C 257.131,175.351 254.131,179.685 252.5,184.5C 252.573,182.973 251.906,181.973 250.5,181.5C 251.354,179.965 251.354,178.632 250.5,177.5C 252.129,175.804 251.796,174.804 249.5,174.5C 250.542,173.209 251.708,173.209 253,174.5C 255.853,171.948 258.353,169.115 260.5,166C 261.094,165.536 261.761,165.369 262.5,165.5 Z"/></g>
<g><path style="opacity:1" fill="#bababa" d="M 265.5,171.5 C 266.261,173.259 265.928,174.926 264.5,176.5C 264.216,174.585 264.549,172.919 265.5,171.5 Z"/></g>
<g><path style="opacity:1" fill="#212121" d="M 249.5,174.5 C 251.796,174.804 252.129,175.804 250.5,177.5C 249.89,178.391 249.557,179.391 249.5,180.5C 248.662,180.842 248.328,181.508 248.5,182.5C 248.5,183.167 248.5,183.833 248.5,184.5C 247.596,185.209 247.263,186.209 247.5,187.5C 246.662,187.842 246.328,188.508 246.5,189.5C 246.167,189.5 245.833,189.5 245.5,189.5C 245.381,187.817 245.048,186.15 244.5,184.5C 243.652,183.375 242.652,183.375 241.5,184.5C 240.5,184.167 239.833,183.5 239.5,182.5C 241.937,178.731 245.271,176.064 249.5,174.5 Z"/></g>
<g><path style="opacity:1" fill="#4f4f4f" d="M 316.5,177.5 C 315.193,178.802 315.193,180.135 316.5,181.5C 316.145,182.522 315.478,183.189 314.5,183.5C 314.167,183.5 313.833,183.5 313.5,183.5C 314.914,181.402 314.248,180.402 311.5,180.5C 311.5,180.167 311.5,179.833 311.5,179.5C 313.167,178.833 314.833,178.167 316.5,177.5 Z"/></g>
<g><path style="opacity:1" fill="#d2d2d2" d="M 261.5,174.5 C 261.492,177.545 261.159,180.545 260.5,183.5C 260.672,184.492 260.338,185.158 259.5,185.5C 259.43,181.575 260.097,177.909 261.5,174.5 Z"/></g>
<g><path style="opacity:1" fill="#101010" d="M 263.5,164.5 C 266.084,165.048 267.084,166.715 266.5,169.5C 266.672,170.492 266.338,171.158 265.5,171.5C 264.549,172.919 264.216,174.585 264.5,176.5C 264.483,178.565 264.15,180.565 263.5,182.5C 262.609,183.11 261.609,183.443 260.5,183.5C 261.159,180.545 261.492,177.545 261.5,174.5C 261.5,173.833 261.5,173.167 261.5,172.5C 262.601,171.152 263.601,169.652 264.5,168C 263.906,167.536 263.239,167.369 262.5,167.5C 262.5,166.833 262.5,166.167 262.5,165.5C 262.5,164.833 262.833,164.5 263.5,164.5 Z"/></g>
<g><path style="opacity:1" fill="#292929" d="M 314.5,169.5 C 315.434,170.568 315.768,171.901 315.5,173.5C 314.559,175.772 313.226,177.772 311.5,179.5C 310.833,179.5 310.5,179.833 310.5,180.5C 309.833,180.5 309.5,180.833 309.5,181.5C 309.5,182.167 309.167,182.5 308.5,182.5C 306.811,183.304 305.145,184.304 303.5,185.5C 301.929,184.691 300.262,184.357 298.5,184.5C 304.463,180.205 309.796,175.205 314.5,169.5 Z"/></g>
<g><path style="opacity:1" fill="#f9faf9" d="M 249.5,180.5 C 249.5,181.167 249.833,181.5 250.5,181.5C 250.5,182.167 250.167,182.5 249.5,182.5C 249.167,182.5 248.833,182.5 248.5,182.5C 248.328,181.508 248.662,180.842 249.5,180.5 Z"/></g>
<g><path style="opacity:1" fill="#313131" d="M 300.5,207.5 C 299.791,206.596 298.791,206.263 297.5,206.5C 300.796,202.702 304.296,199.036 308,195.5C 310.446,191.606 312.612,187.606 314.5,183.5C 315.478,183.189 316.145,182.522 316.5,181.5C 315.193,180.135 315.193,178.802 316.5,177.5C 318.365,172.532 319.698,172.532 320.5,177.5C 320.088,182.236 318.588,186.57 316,190.5C 313.089,193.99 310.422,197.656 308,201.5C 305.894,204.118 303.394,206.118 300.5,207.5 Z"/></g>
<g><path style="opacity:1" fill="#424242" d="M 277.5,182.5 C 278.778,182.782 279.778,183.449 280.5,184.5C 278.167,187.5 275.5,190.167 272.5,192.5C 272.196,190.204 271.196,189.871 269.5,191.5C 271.43,187.9 274.097,184.9 277.5,182.5 Z"/></g>
<g><path style="opacity:1" fill="#2a2a2a" d="M 310.5,180.5 C 310.833,180.5 311.167,180.5 311.5,180.5C 314.248,180.402 314.914,181.402 313.5,183.5C 308.025,186.063 302.359,188.397 296.5,190.5C 298.066,186.883 297.566,186.216 295,188.5C 294.329,187.748 293.496,187.414 292.5,187.5C 294.181,185.992 296.181,184.992 298.5,184.5C 300.262,184.357 301.929,184.691 303.5,185.5C 305.145,184.304 306.811,183.304 308.5,182.5C 309.167,182.5 309.5,182.167 309.5,181.5C 310.167,181.5 310.5,181.167 310.5,180.5 Z"/></g>
<g><path style="opacity:1" fill="#212121" d="M 263.5,182.5 C 263.938,182.435 264.272,182.601 264.5,183C 262.925,187.671 262.258,192.504 262.5,197.5C 261.833,197.5 261.5,197.833 261.5,198.5C 260.903,198.735 260.57,199.235 260.5,200C 261.414,201.406 262.08,202.906 262.5,204.5C 261.167,204.5 259.833,204.5 258.5,204.5C 258.737,203.209 258.404,202.209 257.5,201.5C 258.167,196.167 258.833,190.833 259.5,185.5C 260.338,185.158 260.672,184.492 260.5,183.5C 261.609,183.443 262.609,183.11 263.5,182.5 Z"/></g>
<g><path style="opacity:1" fill="#191919" d="M 296.5,190.5 C 295.833,190.5 295.167,190.5 294.5,190.5C 292.821,190.285 291.821,190.952 291.5,192.5C 289.5,193.167 287.5,193.833 285.5,194.5C 283.801,194.66 282.134,194.494 280.5,194C 281.381,193.292 282.047,192.458 282.5,191.5C 285.947,190.353 289.28,189.02 292.5,187.5C 293.496,187.414 294.329,187.748 295,188.5C 297.566,186.216 298.066,186.883 296.5,190.5 Z"/></g>
<g><path style="opacity:1" fill="#c3c3c3" d="M 294.5,190.5 C 293.71,191.401 292.71,192.068 291.5,192.5C 291.821,190.952 292.821,190.285 294.5,190.5 Z"/></g>
<g><path style="opacity:1" fill="#e4e4e4" d="M 245.5,189.5 C 245.833,189.5 246.167,189.5 246.5,189.5C 246.833,189.5 247.167,189.5 247.5,189.5C 247.556,191.98 247.222,194.646 246.5,197.5C 245.527,195.052 245.194,192.385 245.5,189.5 Z"/></g>
<g><path style="opacity:1" fill="#303030" d="M 239.5,182.5 C 239.833,183.5 240.5,184.167 241.5,184.5C 235.767,190.228 230.433,196.228 225.5,202.5C 225.715,200.821 225.048,199.821 223.5,199.5C 227.819,192.849 233.152,187.182 239.5,182.5 Z"/></g>
<g><path style="opacity:1" fill="#2a2a2a" d="M 272.5,192.5 C 269.537,196.798 266.203,200.798 262.5,204.5C 262.08,202.906 261.414,201.406 260.5,200C 260.57,199.235 260.903,198.735 261.5,198.5C 262.206,199.557 262.539,199.224 262.5,197.5C 264.833,195.5 267.167,193.5 269.5,191.5C 271.196,189.871 272.196,190.204 272.5,192.5 Z"/></g>
<g><path style="opacity:1" fill="#545454" d="M 282.5,191.5 C 282.047,192.458 281.381,193.292 280.5,194C 282.134,194.494 283.801,194.66 285.5,194.5C 283.287,196.004 281.12,197.004 279,197.5C 276.954,197.549 274.787,197.215 272.5,196.5C 275.511,194.328 278.844,192.661 282.5,191.5 Z"/></g>
<g><path style="opacity:1" fill="#2c2c2c" d="M 244.5,184.5 C 245.048,186.15 245.381,187.817 245.5,189.5C 245.194,192.385 245.527,195.052 246.5,197.5C 246.938,197.435 247.272,197.601 247.5,198C 244.976,199.883 243.642,202.383 243.5,205.5C 243.5,206.5 243.5,207.5 243.5,208.5C 240.655,200.383 240.988,192.383 244.5,184.5 Z"/></g>
<g><path style="opacity:1" fill="#222222" d="M 250.5,181.5 C 251.906,181.973 252.573,182.973 252.5,184.5C 250.309,192.313 248.976,200.313 248.5,208.5C 247.531,206.337 246.698,204.004 246,201.5C 245.392,203.066 244.558,204.4 243.5,205.5C 243.642,202.383 244.976,199.883 247.5,198C 247.272,197.601 246.938,197.435 246.5,197.5C 247.222,194.646 247.556,191.98 247.5,189.5C 247.5,188.833 247.5,188.167 247.5,187.5C 248.404,186.791 248.737,185.791 248.5,184.5C 249.338,184.158 249.672,183.492 249.5,182.5C 250.167,182.5 250.5,182.167 250.5,181.5 Z"/></g>
<g><path style="opacity:1" fill="#1b1b1b" d="M 248.5,208.5 C 248.808,210.924 248.474,213.257 247.5,215.5C 244.875,213.919 243.542,211.585 243.5,208.5C 243.5,207.5 243.5,206.5 243.5,205.5C 244.558,204.4 245.392,203.066 246,201.5C 246.698,204.004 247.531,206.337 248.5,208.5 Z"/></g>
<g><path style="opacity:1" fill="#2a2a2a" d="M 223.5,199.5 C 225.048,199.821 225.715,200.821 225.5,202.5C 221.777,208.705 218.443,215.039 215.5,221.5C 215.179,219.952 214.179,219.285 212.5,219.5C 215.425,212.361 219.091,205.694 223.5,199.5 Z"/></g>
<g><path style="opacity:1" fill="#212121" d="M 297.5,206.5 C 298.791,206.263 299.791,206.596 300.5,207.5C 296.143,212.348 290.81,215.681 284.5,217.5C 285.527,215.816 286.527,214.149 287.5,212.5C 290.833,210.5 294.167,208.5 297.5,206.5 Z"/></g>
<g><path style="opacity:1" fill="#303030" d="M 257.5,201.5 C 258.404,202.209 258.737,203.209 258.5,204.5C 259.833,204.5 261.167,204.5 262.5,204.5C 258.469,209.857 254.469,215.19 250.5,220.5C 248.821,220.715 247.821,220.048 247.5,218.5C 252.126,213.581 255.459,207.914 257.5,201.5 Z"/></g>
<g><path style="opacity:1" fill="#252525" d="M 287.5,212.5 C 286.527,214.149 285.527,215.816 284.5,217.5C 283.41,218.857 282.076,219.857 280.5,220.5C 279.167,220.833 277.833,221.167 276.5,221.5C 276.167,221.5 275.833,221.5 275.5,221.5C 275.631,220.761 275.464,220.094 275,219.5C 273.989,220.337 272.822,220.67 271.5,220.5C 276.799,217.85 282.132,215.184 287.5,212.5 Z"/></g>
<g><path style="opacity:1" fill="#d4d4d4" d="M 275.5,221.5 C 275.833,221.5 276.167,221.5 276.5,221.5C 276.5,221.833 276.5,222.167 276.5,222.5C 275.432,223.434 274.099,223.768 272.5,223.5C 273.29,222.599 274.29,221.932 275.5,221.5 Z"/></g>
<g><path style="opacity:1" fill="#272727" d="M 295.5,229.5 C 293.973,229.573 292.973,228.906 292.5,227.5C 293.833,225.167 295.167,222.833 296.5,220.5C 297.043,220.44 297.376,220.107 297.5,219.5C 296.743,218.227 296.077,218.227 295.5,219.5C 289.851,222.494 283.851,224.494 277.5,225.5C 275.833,225.5 274.167,225.5 272.5,225.5C 271.391,224.71 270.058,224.21 268.5,224C 269.793,223.51 271.127,223.343 272.5,223.5C 274.099,223.768 275.432,223.434 276.5,222.5C 278.38,222.771 279.713,222.104 280.5,220.5C 282.199,220.66 283.866,220.494 285.5,220C 292.265,216.958 298.598,213.458 304.5,209.5C 303.346,217.051 300.346,223.718 295.5,229.5 Z"/></g>
<g><path style="opacity:1" fill="#f9faf9" d="M 295.5,219.5 C 296.077,218.227 296.743,218.227 297.5,219.5C 297.376,220.107 297.043,220.44 296.5,220.5C 296.5,219.833 296.167,219.5 295.5,219.5 Z"/></g>
<g><path style="opacity:1" fill="#242424" d="M 275.5,221.5 C 274.29,221.932 273.29,222.599 272.5,223.5C 271.127,223.343 269.793,223.51 268.5,224C 270.058,224.21 271.391,224.71 272.5,225.5C 272.5,226.167 272.5,226.833 272.5,227.5C 270.097,227.448 267.764,227.781 265.5,228.5C 264.871,226.003 263.204,224.67 260.5,224.5C 263.8,222.358 267.467,221.025 271.5,220.5C 272.822,220.67 273.989,220.337 275,219.5C 275.464,220.094 275.631,220.761 275.5,221.5 Z"/></g>
<g><path style="opacity:1" fill="#131313" d="M 206.5,234.5 C 206.631,235.239 206.464,235.906 206,236.5C 205.329,235.748 204.496,235.414 203.5,235.5C 203.5,234.833 203.5,234.167 203.5,233.5C 202.241,232.021 201.241,230.354 200.5,228.5C 201.295,225.45 202.295,222.45 203.5,219.5C 204.325,218.614 205.325,218.281 206.5,218.5C 206.5,223.833 206.5,229.167 206.5,234.5 Z"/></g>
<g><path style="opacity:1" fill="#3c3c3c" d="M 247.5,218.5 C 247.821,220.048 248.821,220.715 250.5,220.5C 248.063,223.857 245.73,227.357 243.5,231C 243.728,231.399 244.062,231.565 244.5,231.5C 243.878,232.627 243.045,233.627 242,234.5C 241.862,232.568 242.362,230.734 243.5,229C 242.552,228.517 241.552,228.351 240.5,228.5C 242.846,225.129 245.179,221.796 247.5,218.5 Z"/></g>
<g><path style="opacity:1" fill="#1e1e1e" d="M 260.5,224.5 C 263.204,224.67 264.871,226.003 265.5,228.5C 262.546,229.271 259.546,229.938 256.5,230.5C 255.5,230.5 254.5,230.5 253.5,230.5C 253.5,229.5 253.5,228.5 253.5,227.5C 255.426,225.707 257.759,224.707 260.5,224.5 Z"/></g>
<g><path style="opacity:1" fill="#d6d6d6" d="M 272.5,225.5 C 274.167,225.5 275.833,225.5 277.5,225.5C 275.972,226.309 274.306,226.976 272.5,227.5C 272.5,226.833 272.5,226.167 272.5,225.5 Z"/></g>
<g><path style="opacity:1" fill="#2e2e2e" d="M 253.5,227.5 C 253.5,228.5 253.5,229.5 253.5,230.5C 254.5,230.5 255.5,230.5 256.5,230.5C 250.94,233.186 245.106,235.519 239,237.5C 231.73,249.858 224.563,262.192 217.5,274.5C 219.354,271.163 218.687,270.163 215.5,271.5C 215.992,269.181 216.992,267.181 218.5,265.5C 219.906,265.027 220.573,264.027 220.5,262.5C 221.714,259.07 223.214,255.736 225,252.5C 229.928,244.302 235.095,236.302 240.5,228.5C 241.552,228.351 242.552,228.517 243.5,229C 242.362,230.734 241.862,232.568 242,234.5C 243.045,233.627 243.878,232.627 244.5,231.5C 247.378,229.895 250.378,228.561 253.5,227.5 Z"/></g>
<g><path style="opacity:1" fill="#353535" d="M 292.5,227.5 C 292.973,228.906 293.973,229.573 295.5,229.5C 290.603,238.064 284.27,245.397 276.5,251.5C 275.167,251.5 274.5,252.167 274.5,253.5C 271.614,255.442 268.614,257.108 265.5,258.5C 264.448,258.649 263.448,258.483 262.5,258C 263.381,257.292 264.047,256.458 264.5,255.5C 275.861,248.139 285.194,238.806 292.5,227.5 Z"/></g>
<g><path style="opacity:1" fill="#323232" d="M 200.5,228.5 C 201.241,230.354 202.241,232.021 203.5,233.5C 202.883,233.611 202.383,233.944 202,234.5C 199.706,244.778 199.206,255.112 200.5,265.5C 199.508,265.328 198.842,265.662 198.5,266.5C 197.833,266.5 197.5,266.167 197.5,265.5C 196.949,262.193 196.616,258.86 196.5,255.5C 197.833,253.167 197.833,250.833 196.5,248.5C 196.287,244.484 196.954,240.65 198.5,237C 198.043,236.586 197.709,236.086 197.5,235.5C 198.661,233.115 199.661,230.781 200.5,228.5 Z"/></g>
<g><path style="opacity:1" fill="#242424" d="M 212.5,219.5 C 214.179,219.285 215.179,219.952 215.5,221.5C 214.974,226.055 214.307,230.889 213.5,236C 213.798,238.848 214.131,241.681 214.5,244.5C 213.596,243.791 213.263,242.791 213.5,241.5C 212.5,241.5 211.5,241.5 210.5,241.5C 209.943,234.199 210.609,226.865 212.5,219.5 Z"/></g>
<g><path style="opacity:1" fill="#1d1d1d" d="M 206.5,234.5 C 207.461,237.055 208.794,239.388 210.5,241.5C 211.5,241.5 212.5,241.5 213.5,241.5C 213.263,242.791 213.596,243.791 214.5,244.5C 215.331,248.344 216.331,252.177 217.5,256C 216.423,257.543 215.089,257.543 213.5,256C 212.035,254.226 210.702,252.392 209.5,250.5C 209.771,248.62 209.104,247.287 207.5,246.5C 207.88,244.302 207.213,242.635 205.5,241.5C 204.637,239.579 203.971,237.579 203.5,235.5C 204.496,235.414 205.329,235.748 206,236.5C 206.464,235.906 206.631,235.239 206.5,234.5 Z"/></g>
<g><path style="opacity:1" fill="#a6a6a6" d="M 205.5,241.5 C 207.213,242.635 207.88,244.302 207.5,246.5C 206.463,245.07 205.796,243.403 205.5,241.5 Z"/></g>
<g><path style="opacity:1" fill="#868686" d="M 207.5,246.5 C 209.104,247.287 209.771,248.62 209.5,250.5C 208.326,249.486 207.66,248.153 207.5,246.5 Z"/></g>
<g><path style="opacity:1" fill="#b5b5b5" d="M 196.5,248.5 C 197.833,250.833 197.833,253.167 196.5,255.5C 196.386,253.271 196.386,250.938 196.5,248.5 Z"/></g>
<g><path style="opacity:1" fill="#f9faf9" d="M 276.5,251.5 C 276.167,252.5 275.5,253.167 274.5,253.5C 274.5,252.167 275.167,251.5 276.5,251.5 Z"/></g>
<g><path style="opacity:1" fill="#2e2e2e" d="M 196.5,265.5 C 196.328,266.492 196.662,267.158 197.5,267.5C 198.091,268.151 198.757,268.818 199.5,269.5C 198.726,270.711 197.893,270.711 197,269.5C 196.283,270.044 195.783,270.711 195.5,271.5C 194.662,271.158 194.328,270.492 194.5,269.5C 193.305,265.714 192.638,265.714 192.5,269.5C 191.1,268.9 190.1,267.9 189.5,266.5C 189.019,259.242 190.019,252.242 192.5,245.5C 194.791,246.896 195.125,248.729 193.5,251C 194.642,255.847 195.642,260.68 196.5,265.5 Z"/></g>
<g><path style="opacity:1" fill="#3a3a3a" d="M 264.5,255.5 C 264.047,256.458 263.381,257.292 262.5,258C 263.448,258.483 264.448,258.649 265.5,258.5C 259.241,262.382 252.574,265.715 245.5,268.5C 244.448,266.744 242.781,266.077 240.5,266.5C 248.462,262.854 256.462,259.187 264.5,255.5 Z"/></g>
<g><path style="opacity:1" fill="#232323" d="M 275.5,258.5 C 276.5,258.5 277.5,258.5 278.5,258.5C 278.719,259.675 278.386,260.675 277.5,261.5C 275.604,262.275 273.937,263.275 272.5,264.5C 270.62,264.229 269.287,264.896 268.5,266.5C 266.412,267.939 264.079,268.606 261.5,268.5C 260.957,268.44 260.624,268.107 260.5,267.5C 261.77,266.712 262.77,265.712 263.5,264.5C 267.435,262.533 271.435,260.533 275.5,258.5 Z"/></g>
<g><path style="opacity:1" fill="#323232" d="M 273.5,268.5 C 271.507,267.528 271.174,266.195 272.5,264.5C 273.937,263.275 275.604,262.275 277.5,261.5C 278.386,260.675 278.719,259.675 278.5,258.5C 277.5,258.5 276.5,258.5 275.5,258.5C 277.123,257.221 278.79,255.887 280.5,254.5C 281.87,257.485 281.37,260.151 279,262.5C 276.932,264.396 275.099,266.396 273.5,268.5 Z"/></g>
<g><path style="opacity:1" fill="#868686" d="M 220.5,262.5 C 220.573,264.027 219.906,265.027 218.5,265.5C 218.427,263.973 219.094,262.973 220.5,262.5 Z"/></g>
<g><path style="opacity:1" fill="#f9faf9" d="M 196.5,265.5 C 196.833,265.5 197.167,265.5 197.5,265.5C 197.5,266.167 197.833,266.5 198.5,266.5C 198.5,267.167 198.167,267.5 197.5,267.5C 196.662,267.158 196.328,266.492 196.5,265.5 Z"/></g>
<g><path style="opacity:1" fill="#3d3d3d" d="M 263.5,264.5 C 262.77,265.712 261.77,266.712 260.5,267.5C 260.624,268.107 260.957,268.44 261.5,268.5C 259.067,269.413 256.567,270.413 254,271.5C 251.842,271.605 249.675,271.605 247.5,271.5C 246.833,270.833 246.167,270.167 245.5,269.5C 251.483,267.835 257.483,266.169 263.5,264.5 Z"/></g>
<g><path style="opacity:1" fill="#e9e9e9" d="M 194.5,269.5 C 193.833,269.5 193.5,269.833 193.5,270.5C 192.833,270.5 192.5,270.167 192.5,269.5C 192.638,265.714 193.305,265.714 194.5,269.5 Z"/></g>
<g><path style="opacity:1" fill="#262626" d="M 240.5,266.5 C 242.781,266.077 244.448,266.744 245.5,268.5C 245.5,268.833 245.5,269.167 245.5,269.5C 246.167,270.167 246.833,270.833 247.5,271.5C 241.386,273.112 235.386,274.446 229.5,275.5C 228.047,274.175 228.381,273.342 230.5,273C 229.263,272.768 228.263,272.268 227.5,271.5C 231.915,269.982 236.248,268.316 240.5,266.5 Z"/></g>
<g><path style="opacity:1" fill="#101010" d="M 200.5,265.5 C 201.738,267.214 202.405,269.214 202.5,271.5C 202.435,273.696 201.768,275.696 200.5,277.5C 199.787,275.565 198.787,275.232 197.5,276.5C 196.559,274.95 195.893,273.284 195.5,271.5C 195.783,270.711 196.283,270.044 197,269.5C 197.893,270.711 198.726,270.711 199.5,269.5C 198.757,268.818 198.091,268.151 197.5,267.5C 198.167,267.5 198.5,267.167 198.5,266.5C 198.842,265.662 199.508,265.328 200.5,265.5 Z"/></g>
<g><path style="opacity:1" fill="#3d3d3d" d="M 272.5,264.5 C 271.174,266.195 271.507,267.528 273.5,268.5C 270.393,272.215 266.727,275.215 262.5,277.5C 262.649,276.448 262.483,275.448 262,274.5C 261.329,275.252 260.496,275.586 259.5,275.5C 262.948,272.922 266.281,270.089 269.5,267C 269.272,266.601 268.938,266.435 268.5,266.5C 269.287,264.896 270.62,264.229 272.5,264.5 Z"/></g>
<g><path style="opacity:1" fill="#333333" d="M 189.5,266.5 C 190.1,267.9 191.1,268.9 192.5,269.5C 192.5,270.167 192.833,270.5 193.5,270.5C 195.047,278.721 198.047,286.388 202.5,293.5C 202.833,294.5 203.5,295.167 204.5,295.5C 203.833,296.167 203.167,296.833 202.5,297.5C 198.008,293.862 195.008,289.195 193.5,283.5C 193.715,281.821 193.048,280.821 191.5,280.5C 190.204,275.938 189.538,271.271 189.5,266.5 Z"/></g>
<g><path style="opacity:1" fill="#494949" d="M 202.5,271.5 C 204.025,274.583 205.025,277.916 205.5,281.5C 202.324,280.66 199.658,278.993 197.5,276.5C 198.787,275.232 199.787,275.565 200.5,277.5C 201.768,275.696 202.435,273.696 202.5,271.5 Z"/></g>
<g><path style="opacity:1" fill="#2f2f2f" d="M 217.5,274.5 C 217.735,275.097 218.235,275.43 219,275.5C 221.815,274.065 224.649,272.732 227.5,271.5C 228.263,272.268 229.263,272.768 230.5,273C 228.381,273.342 228.047,274.175 229.5,275.5C 227.333,276.269 225.166,277.269 223,278.5C 222.667,278.167 222.333,277.833 222,277.5C 220.871,279.141 219.371,280.141 217.5,280.5C 215.821,280.285 214.821,280.952 214.5,282.5C 213.711,282.783 213.044,283.283 212.5,284C 213.171,284.986 213.171,286.153 212.5,287.5C 211.833,287.5 211.5,287.833 211.5,288.5C 211.167,288.5 210.833,288.5 210.5,288.5C 209.791,287.596 208.791,287.263 207.5,287.5C 209.659,281.849 212.326,276.516 215.5,271.5C 218.687,270.163 219.354,271.163 217.5,274.5 Z"/></g>
<g><path style="opacity:1" fill="#8c8c8c" d="M 260.5,278.5 C 259.71,279.401 258.71,280.068 257.5,280.5C 257.821,278.952 258.821,278.285 260.5,278.5 Z"/></g>
<g><path style="opacity:1" fill="#919191" d="M 217.5,280.5 C 216.71,281.401 215.71,282.068 214.5,282.5C 214.821,280.952 215.821,280.285 217.5,280.5 Z"/></g>
<g><path style="opacity:1" fill="#e7e7e7" d="M 191.5,280.5 C 193.048,280.821 193.715,281.821 193.5,283.5C 192.599,282.71 191.932,281.71 191.5,280.5 Z"/></g>
<g><path style="opacity:1" fill="#373737" d="M 262.5,277.5 C 262.158,278.338 261.492,278.672 260.5,278.5C 258.821,278.285 257.821,278.952 257.5,280.5C 251.849,283.32 245.849,284.986 239.5,285.5C 237.721,283.656 235.388,282.99 232.5,283.5C 237.629,282.854 242.963,281.687 248.5,280C 252.036,278.209 255.703,276.709 259.5,275.5C 260.496,275.586 261.329,275.252 262,274.5C 262.483,275.448 262.649,276.448 262.5,277.5 Z"/></g>
<g><path style="opacity:1" fill="#151515" d="M 232.5,283.5 C 235.388,282.99 237.721,283.656 239.5,285.5C 236.946,286.388 234.279,286.721 231.5,286.5C 230.015,285.065 228.682,285.232 227.5,287C 228.833,287.667 228.833,288.333 227.5,289C 228.094,289.464 228.761,289.631 229.5,289.5C 228.708,291.745 227.375,292.078 225.5,290.5C 225.167,290.5 224.833,290.5 224.5,290.5C 224.414,289.504 224.748,288.671 225.5,288C 223.744,287.86 222.078,288.36 220.5,289.5C 219.5,289.167 218.833,288.5 218.5,287.5C 220.544,286.935 222.21,285.935 223.5,284.5C 226.391,283.597 229.391,283.264 232.5,283.5 Z"/></g>
<g><path style="opacity:1" fill="#363636" d="M 223.5,284.5 C 222.21,285.935 220.544,286.935 218.5,287.5C 218.833,288.5 219.5,289.167 220.5,289.5C 222.078,288.36 223.744,287.86 225.5,288C 224.748,288.671 224.414,289.504 224.5,290.5C 222.052,291.473 219.385,291.806 216.5,291.5C 215.992,289.767 215.159,289.434 214,290.5C 212.698,289.915 211.531,289.249 210.5,288.5C 210.833,288.5 211.167,288.5 211.5,288.5C 212.167,288.5 212.5,288.167 212.5,287.5C 216.111,286.347 219.777,285.347 223.5,284.5 Z"/></g>
<g><path style="opacity:1" fill="#878787" d="M 231.5,286.5 C 230.833,287.167 230.167,287.833 229.5,288.5C 229.5,288.833 229.5,289.167 229.5,289.5C 228.761,289.631 228.094,289.464 227.5,289C 228.833,288.333 228.833,287.667 227.5,287C 228.682,285.232 230.015,285.065 231.5,286.5 Z"/></g>
<g><path style="opacity:1" fill="#252525" d="M 207.5,287.5 C 208.791,287.263 209.791,287.596 210.5,288.5C 211.531,289.249 212.698,289.915 214,290.5C 215.159,289.434 215.992,289.767 216.5,291.5C 212.821,291.667 210.154,293.334 208.5,296.5C 207.167,297.167 207.167,297.833 208.5,298.5C 209.167,299.5 209.833,300.5 210.5,301.5C 208.645,302.69 206.812,304.023 205,305.5C 203.691,309.254 202.525,312.921 201.5,316.5C 200.922,314.557 199.922,314.223 198.5,315.5C 197.614,314.675 197.281,313.675 197.5,312.5C 197.5,311.833 197.5,311.167 197.5,310.5C 198.906,310.027 199.573,309.027 199.5,307.5C 200.5,304.167 201.5,300.833 202.5,297.5C 203.167,296.833 203.833,296.167 204.5,295.5C 205.11,294.609 205.443,293.609 205.5,292.5C 205.893,290.716 206.559,289.05 207.5,287.5 Z"/></g>
<g><path style="opacity:1" fill="#292929" d="M 229.5,288.5 C 233.035,289.052 236.368,290.218 239.5,292C 241.439,292.908 242.439,294.408 242.5,296.5C 236.82,295.353 231.153,295.353 225.5,296.5C 223.737,295.046 222.403,295.38 221.5,297.5C 219.299,298.566 216.965,299.233 214.5,299.5C 212.821,299.285 211.821,299.952 211.5,301.5C 211.167,301.5 210.833,301.5 210.5,301.5C 209.833,300.5 209.167,299.5 208.5,298.5C 209.167,298.5 209.5,298.167 209.5,297.5C 214.905,294.976 220.572,293.143 226.5,292C 225.944,291.617 225.611,291.117 225.5,290.5C 227.375,292.078 228.708,291.745 229.5,289.5C 229.5,289.167 229.5,288.833 229.5,288.5 Z"/></g>
<g><path style="opacity:1" fill="#a5a5a5" d="M 205.5,292.5 C 205.443,293.609 205.11,294.609 204.5,295.5C 203.5,295.167 202.833,294.5 202.5,293.5C 203.609,293.443 204.609,293.11 205.5,292.5 Z"/></g>
<g><path style="opacity:1" fill="#c7c7c7" d="M 225.5,296.5 C 224.432,297.434 223.099,297.768 221.5,297.5C 222.403,295.38 223.737,295.046 225.5,296.5 Z"/></g>
<g><path style="opacity:1" fill="#f9faf9" d="M 208.5,296.5 C 208.5,297.167 208.833,297.5 209.5,297.5C 209.5,298.167 209.167,298.5 208.5,298.5C 207.167,297.833 207.167,297.167 208.5,296.5 Z"/></g>
<g><path style="opacity:1" fill="#9c9c9c" d="M 214.5,299.5 C 213.71,300.401 212.71,301.068 211.5,301.5C 211.821,299.952 212.821,299.285 214.5,299.5 Z"/></g>
<g><path style="opacity:1" fill="#a4a4a4" d="M 199.5,307.5 C 199.573,309.027 198.906,310.027 197.5,310.5C 197.427,308.973 198.094,307.973 199.5,307.5 Z"/></g>
<g><path style="opacity:1" fill="#212121" d="M 197.5,312.5 C 197.281,313.675 197.614,314.675 198.5,315.5C 199.922,314.223 200.922,314.557 201.5,316.5C 199.983,324.571 196.649,331.738 191.5,338C 189.393,338.854 188.059,338.188 187.5,336C 189.981,327.698 193.315,319.864 197.5,312.5 Z"/></g>
</svg>
