<?xml version="1.0" encoding="UTF-8"?>
<!DOCTYPE svg PUBLIC "-//W3C//DTD SVG 1.1//EN" "http://www.w3.org/Graphics/SVG/1.1/DTD/svg11.dtd">
<svg xmlns="http://www.w3.org/2000/svg" version="1.1" width="500px" height="500px" style="shape-rendering:geometricPrecision; text-rendering:geometricPrecision; image-rendering:optimizeQuality; fill-rule:evenodd; clip-rule:evenodd" xmlns:xlink="http://www.w3.org/1999/xlink">
<g><path style="opacity:1" fill="#545456" d="M 245.5,192.5 C 247.857,192.337 250.19,192.503 252.5,193C 250.618,193.198 248.952,193.698 247.5,194.5C 245.958,195.301 244.292,195.634 242.5,195.5C 240.302,195.591 239.969,194.925 241.5,193.5C 242.568,192.566 243.901,192.232 245.5,192.5 Z"/></g>
<g><path style="opacity:1" fill="#9d9d9f" d="M 245.5,192.5 C 249.598,191.177 253.598,191.511 257.5,193.5C 256.127,193.343 254.793,193.51 253.5,194C 254.416,194.278 255.082,194.778 255.5,195.5C 252.873,194.908 250.206,194.575 247.5,194.5C 248.952,193.698 250.618,193.198 252.5,193C 250.19,192.503 247.857,192.337 245.5,192.5 Z"/></g>
<g><path style="opacity:1" fill="#2a2a2b" d="M 257.5,193.5 C 259.031,194.925 258.698,195.591 256.5,195.5C 256.167,195.5 255.833,195.5 255.5,195.5C 255.082,194.778 254.416,194.278 253.5,194C 254.793,193.51 256.127,193.343 257.5,193.5 Z"/></g>
<g><path style="opacity:1" fill="#7f7f7f" d="M 257.5,193.5 C 259.017,193.511 260.184,194.177 261,195.5C 261.333,195.167 261.667,194.833 262,194.5C 263.741,196.396 265.241,198.396 266.5,200.5C 264.323,199.496 263.989,200.162 265.5,202.5C 262.711,199.934 259.711,197.6 256.5,195.5C 258.698,195.591 259.031,194.925 257.5,193.5 Z"/></g>
<g><path style="opacity:1" fill="#7a7a7a" d="M 241.5,193.5 C 239.969,194.925 240.302,195.591 242.5,195.5C 236.689,198.642 232.689,203.309 230.5,209.5C 230.5,208.167 229.833,207.5 228.5,207.5C 230.394,199.955 234.727,195.288 241.5,193.5 Z"/></g>
<g><path style="opacity:1" fill="#636364" d="M 253.5,197.5 C 254.66,199.203 253.993,199.869 251.5,199.5C 249.194,199.993 246.861,200.326 244.5,200.5C 242.973,200.427 241.973,201.094 241.5,202.5C 240.167,202.5 239.5,201.833 239.5,200.5C 243.672,197.291 248.339,196.291 253.5,197.5 Z"/></g>
<g><path style="opacity:1" fill="#aaaaaa" d="M 253.5,197.5 C 255.153,197.66 256.486,198.326 257.5,199.5C 256.761,199.369 256.094,199.536 255.5,200C 256.381,200.708 257.047,201.542 257.5,202.5C 255.181,202.008 253.181,201.008 251.5,199.5C 253.993,199.869 254.66,199.203 253.5,197.5 Z"/></g>
<g><path style="opacity:1" fill="#ebebeb" d="M 244.5,200.5 C 244.027,201.906 243.027,202.573 241.5,202.5C 241.973,201.094 242.973,200.427 244.5,200.5 Z"/></g>
<g><path style="opacity:1" fill="#e2e2e2" d="M 265.5,203.5 C 266.906,203.973 267.573,204.973 267.5,206.5C 266.094,206.027 265.427,205.027 265.5,203.5 Z"/></g>
<g><path style="opacity:1" fill="#797979" d="M 257.5,199.5 C 261.688,201.025 264.021,204.025 264.5,208.5C 263.508,208.328 262.842,208.662 262.5,209.5C 261.091,207.028 259.424,204.695 257.5,202.5C 257.047,201.542 256.381,200.708 255.5,200C 256.094,199.536 256.761,199.369 257.5,199.5 Z"/></g>
<g><path style="opacity:1" fill="#7f7f80" d="M 239.5,200.5 C 239.5,201.833 240.167,202.5 241.5,202.5C 238.704,205.761 236.704,209.427 235.5,213.5C 235.657,212.127 235.49,210.793 235,209.5C 234.722,210.416 234.222,211.082 233.5,211.5C 233.693,206.777 235.693,203.11 239.5,200.5 Z"/></g>
<g><path style="opacity:1" fill="#a5a5a7" d="M 268.5,210.5 C 269.489,215.975 269.822,221.642 269.5,227.5C 267.901,227.768 266.568,227.434 265.5,226.5C 266.5,226.5 267.5,226.5 268.5,226.5C 267.949,221.313 267.949,215.98 268.5,210.5 Z"/></g>
<g><path style="opacity:1" fill="#b6b6b6" d="M 262.5,209.5 C 263.49,215.31 263.823,221.31 263.5,227.5C 262.167,227.5 260.833,227.5 259.5,227.5C 251.097,228.134 243.097,227.467 235.5,225.5C 244.416,226.471 253.416,226.804 262.5,226.5C 262.5,220.833 262.5,215.167 262.5,209.5 Z"/></g>
<g><path style="opacity:1" fill="#5e5f5f" d="M 266.5,200.5 C 268.746,202.649 270.246,205.316 271,208.5C 271.499,214.491 271.666,220.491 271.5,226.5C 273.028,227.309 274.694,227.976 276.5,228.5C 279.451,229.809 280.784,232.143 280.5,235.5C 279.833,236.167 279.167,236.833 278.5,237.5C 278.768,235.901 278.434,234.568 277.5,233.5C 276.657,231.827 275.324,230.66 273.5,230C 257.503,229.5 241.503,229.333 225.5,229.5C 236.654,228.505 247.988,228.172 259.5,228.5C 263.621,228.837 266.955,228.504 269.5,227.5C 269.822,221.642 269.489,215.975 268.5,210.5C 267.566,209.432 267.232,208.099 267.5,206.5C 267.573,204.973 266.906,203.973 265.5,203.5C 265.5,203.167 265.5,202.833 265.5,202.5C 263.989,200.162 264.323,199.496 266.5,200.5 Z"/></g>
<g><path style="opacity:1" fill="#c6c6c6" d="M 271.5,226.5 C 273.781,226.077 275.448,226.744 276.5,228.5C 274.694,227.976 273.028,227.309 271.5,226.5 Z"/></g>
<g><path style="opacity:1" fill="#2a2a2b" d="M 228.5,207.5 C 229.833,207.5 230.5,208.167 230.5,209.5C 230.5,209.833 230.5,210.167 230.5,210.5C 229.511,215.975 229.178,221.642 229.5,227.5C 230.833,227.5 232.167,227.5 233.5,227.5C 233.5,222.833 233.5,218.167 233.5,213.5C 233.5,212.833 233.5,212.167 233.5,211.5C 234.222,211.082 234.722,210.416 235,209.5C 235.49,210.793 235.657,212.127 235.5,213.5C 236.366,217.601 236.366,221.601 235.5,225.5C 243.097,227.467 251.097,228.134 259.5,227.5C 259.5,227.833 259.5,228.167 259.5,228.5C 247.988,228.172 236.654,228.505 225.5,229.5C 224.957,229.44 224.624,229.107 224.5,228.5C 225.689,227.571 227.022,227.238 228.5,227.5C 228.5,221.167 228.5,214.833 228.5,208.5C 228.5,208.167 228.5,207.833 228.5,207.5 Z"/></g>
<g><path style="opacity:1" fill="#b6b6b8" d="M 230.5,210.5 C 230.301,215.662 230.634,220.995 231.5,226.5C 232.167,222.018 232.834,217.684 233.5,213.5C 233.5,218.167 233.5,222.833 233.5,227.5C 232.167,227.5 230.833,227.5 229.5,227.5C 229.178,221.642 229.511,215.975 230.5,210.5 Z"/></g>
<g><path style="opacity:1" fill="#3d3e3f" d="M 262.5,209.5 C 262.842,208.662 263.508,208.328 264.5,208.5C 266.06,214.663 266.393,220.663 265.5,226.5C 266.568,227.434 267.901,227.768 269.5,227.5C 266.955,228.504 263.621,228.837 259.5,228.5C 259.5,228.167 259.5,227.833 259.5,227.5C 260.833,227.5 262.167,227.5 263.5,227.5C 263.823,221.31 263.49,215.31 262.5,209.5 Z"/></g>
<g><path style="opacity:1" fill="#7d7d7d" d="M 228.5,208.5 C 228.5,214.833 228.5,221.167 228.5,227.5C 227.022,227.238 225.689,227.571 224.5,228.5C 224.624,229.107 224.957,229.44 225.5,229.5C 223.833,230.5 222.5,231.833 221.5,233.5C 221.443,232.391 221.11,231.391 220.5,230.5C 221.809,227.549 224.143,226.216 227.5,226.5C 227.177,220.31 227.51,214.31 228.5,208.5 Z"/></g>
<g><path style="opacity:1" fill="#5d5d5e" d="M 220.5,230.5 C 221.11,231.391 221.443,232.391 221.5,233.5C 221.333,244.172 221.5,254.839 222,265.5C 222.69,267.35 223.856,268.684 225.5,269.5C 224.209,269.263 223.209,269.596 222.5,270.5C 220.665,269.878 219.498,268.544 219,266.5C 218.333,254.833 218.333,243.167 219,231.5C 219.383,230.944 219.883,230.611 220.5,230.5 Z"/></g>
<g><path style="opacity:1" fill="#b2b2b2" d="M 243.5,241.5 C 243.5,244.167 243.5,246.833 243.5,249.5C 242.733,248.828 242.066,247.995 241.5,247C 241.602,245.208 242.268,243.375 243.5,241.5 Z"/></g>
<g><path style="opacity:1" fill="#6a6a6a" d="M 254.5,250.5 C 254.5,249.833 254.167,249.5 253.5,249.5C 253.5,248.833 253.5,248.167 253.5,247.5C 253.631,242.291 251.297,240.625 246.5,242.5C 244.943,245.273 245.443,247.607 248,249.5C 248.494,251.134 248.66,252.801 248.5,254.5C 248.5,255.833 248.5,257.167 248.5,258.5C 247.93,255.562 247.263,253.228 246.5,251.5C 246.167,251.5 245.833,251.5 245.5,251.5C 244.5,251.167 243.833,250.5 243.5,249.5C 243.5,246.833 243.5,244.167 243.5,241.5C 246.183,237.184 249.516,236.351 253.5,239C 256.925,242.749 257.259,246.582 254.5,250.5 Z"/></g>
<g><path style="opacity:1" fill="#b7b7b7" d="M 253.5,247.5 C 253.5,248.167 253.5,248.833 253.5,249.5C 252.883,249.611 252.383,249.944 252,250.5C 251.73,253.224 251.23,255.891 250.5,258.5C 249.743,259.773 249.077,259.773 248.5,258.5C 248.5,257.167 248.5,255.833 248.5,254.5C 249.239,254.631 249.906,254.464 250.5,254C 249.289,250.99 250.289,248.823 253.5,247.5 Z"/></g>
<g><path style="opacity:1" fill="#e9e9e9" d="M 253.5,251.5 C 253.665,254.518 253.498,257.518 253,260.5C 251.057,261.807 249.223,261.807 247.5,260.5C 249.144,260.714 250.644,260.38 252,259.5C 252.183,256.635 252.683,253.969 253.5,251.5 Z"/></g>
<g><path style="opacity:1" fill="#f3f3f3" d="M 245.5,251.5 C 245.833,251.5 246.167,251.5 246.5,251.5C 246.264,254.609 246.597,257.609 247.5,260.5C 245.612,258.012 244.945,255.012 245.5,251.5 Z"/></g>
<g><path style="opacity:1" fill="#2d2d2d" d="M 253.5,249.5 C 254.167,249.5 254.5,249.833 254.5,250.5C 254.5,251.167 254.167,251.5 253.5,251.5C 252.683,253.969 252.183,256.635 252,259.5C 250.644,260.38 249.144,260.714 247.5,260.5C 246.597,257.609 246.264,254.609 246.5,251.5C 247.263,253.228 247.93,255.562 248.5,258.5C 249.077,259.773 249.743,259.773 250.5,258.5C 251.23,255.891 251.73,253.224 252,250.5C 252.383,249.944 252.883,249.611 253.5,249.5 Z"/></g>
<g><path style="opacity:1" fill="#333335" d="M 280.5,235.5 C 281.156,244.911 281.156,254.578 280.5,264.5C 279.883,264.611 279.383,264.944 279,265.5C 278.5,256.173 278.334,246.839 278.5,237.5C 279.167,236.833 279.833,236.167 280.5,235.5 Z"/></g>
<g><path style="opacity:1" fill="#a8a8a9" d="M 277.5,233.5 C 278.434,234.568 278.768,235.901 278.5,237.5C 278.334,246.839 278.5,256.173 279,265.5C 279.383,264.944 279.883,264.611 280.5,264.5C 280.253,269.076 277.919,271.743 273.5,272.5C 257.693,270.838 241.693,269.838 225.5,269.5C 242.262,269.971 258.928,269.471 275.5,268C 276.126,267.25 276.626,266.416 277,265.5C 277.5,254.839 277.667,244.172 277.5,233.5 Z"/></g>
<g><path style="opacity:1" fill="#555555" d="M 225.5,269.5 C 241.693,269.838 257.693,270.838 273.5,272.5C 257.908,273.65 242.241,273.817 226.5,273C 224.68,272.8 223.347,271.966 222.5,270.5C 223.209,269.596 224.209,269.263 225.5,269.5 Z"/></g>
</svg>
