<?xml version="1.0" encoding="UTF-8"?>
<!DOCTYPE svg PUBLIC "-//W3C//DTD SVG 1.1//EN" "http://www.w3.org/Graphics/SVG/1.1/DTD/svg11.dtd">
<svg xmlns="http://www.w3.org/2000/svg" version="1.1" width="500px" height="500px" style="shape-rendering:geometricPrecision; text-rendering:geometricPrecision; image-rendering:optimizeQuality; fill-rule:evenodd; clip-rule:evenodd" xmlns:xlink="http://www.w3.org/1999/xlink">
<g><path style="opacity:1" fill="#cecece" d="M 285.5,124.5 C 280.167,124.5 274.833,124.5 269.5,124.5C 267.833,124.5 266.167,124.5 264.5,124.5C 262.167,124.5 259.833,124.5 257.5,124.5C 266.833,121.833 276.167,121.833 285.5,124.5 Z"/></g>
<g><path style="opacity:1" fill="#313231" d="M 264.5,124.5 C 266.167,124.5 267.833,124.5 269.5,124.5C 269.611,125.117 269.944,125.617 270.5,126C 268.292,126.191 266.292,126.691 264.5,127.5C 263.833,127.5 263.167,127.5 262.5,127.5C 261.5,127.5 260.5,127.5 259.5,127.5C 260.913,126.065 262.58,125.065 264.5,124.5 Z"/></g>
<g><path style="opacity:1" fill="#494949" d="M 269.5,124.5 C 274.833,124.5 280.167,124.5 285.5,124.5C 287.735,124.205 289.735,124.539 291.5,125.5C 290.5,125.5 289.5,125.5 288.5,125.5C 286.214,125.595 284.214,126.262 282.5,127.5C 276.5,127.5 270.5,127.5 264.5,127.5C 266.292,126.691 268.292,126.191 270.5,126C 269.944,125.617 269.611,125.117 269.5,124.5 Z"/></g>
<g><path style="opacity:1" fill="#393939" d="M 255.5,124.5 C 256.167,124.5 256.833,124.5 257.5,124.5C 259.833,124.5 262.167,124.5 264.5,124.5C 262.58,125.065 260.913,126.065 259.5,127.5C 256.904,128.265 254.237,128.599 251.5,128.5C 251.5,127.5 251.5,126.5 251.5,125.5C 253.099,125.768 254.432,125.434 255.5,124.5 Z"/></g>
<g><path style="opacity:1" fill="#343434" d="M 288.5,125.5 C 288.296,127.685 287.63,129.685 286.5,131.5C 286.167,131.5 285.833,131.5 285.5,131.5C 284.833,131.5 284.167,131.5 283.5,131.5C 282.5,131.167 281.833,130.5 281.5,129.5C 283.105,128.994 283.439,128.327 282.5,127.5C 284.214,126.262 286.214,125.595 288.5,125.5 Z"/></g>
<g><path style="opacity:1" fill="#3e3e3e" d="M 288.5,125.5 C 289.5,125.5 290.5,125.5 291.5,125.5C 291.5,126.167 291.833,126.5 292.5,126.5C 291.89,127.391 291.557,128.391 291.5,129.5C 289.833,130.167 288.167,130.833 286.5,131.5C 287.63,129.685 288.296,127.685 288.5,125.5 Z"/></g>
<g><path style="opacity:1" fill="#e2e2e2" d="M 291.5,125.5 C 294.829,125.215 297.829,125.882 300.5,127.5C 297.833,127.167 295.167,126.833 292.5,126.5C 291.833,126.5 291.5,126.167 291.5,125.5 Z"/></g>
<g><path style="opacity:1" fill="#545454" d="M 255.5,124.5 C 254.432,125.434 253.099,125.768 251.5,125.5C 251.5,126.5 251.5,127.5 251.5,128.5C 250.167,129.167 248.833,129.833 247.5,130.5C 245.435,130.517 243.435,130.85 241.5,131.5C 240.5,130.833 239.5,130.167 238.5,129.5C 240.75,128.87 242.75,127.87 244.5,126.5C 247.998,125.083 251.665,124.417 255.5,124.5 Z"/></g>
<g><path style="opacity:1" fill="#eaeaea" d="M 262.5,128.5 C 262.5,128.167 262.5,127.833 262.5,127.5C 263.167,127.5 263.833,127.5 264.5,127.5C 270.5,127.5 276.5,127.5 282.5,127.5C 283.439,128.327 283.105,128.994 281.5,129.5C 280.833,129.5 280.167,129.5 279.5,129.5C 274.025,128.511 268.358,128.178 262.5,128.5 Z"/></g>
<g><path style="opacity:1" fill="#3b3b3b" d="M 292.5,126.5 C 295.167,126.833 297.833,127.167 300.5,127.5C 297.781,128.913 294.781,129.58 291.5,129.5C 291.557,128.391 291.89,127.391 292.5,126.5 Z"/></g>
<g><path style="opacity:1" fill="#d5d5d5" d="M 259.5,127.5 C 260.5,127.5 261.5,127.5 262.5,127.5C 262.5,127.833 262.5,128.167 262.5,128.5C 257.537,129.426 252.537,130.092 247.5,130.5C 248.833,129.833 250.167,129.167 251.5,128.5C 254.237,128.599 256.904,128.265 259.5,127.5 Z"/></g>
<g><path style="opacity:1" fill="#9a9a9a" d="M 244.5,126.5 C 242.75,127.87 240.75,128.87 238.5,129.5C 236.883,130.038 235.216,130.371 233.5,130.5C 232.833,130.5 232.167,130.5 231.5,130.5C 235.501,128.411 239.835,127.078 244.5,126.5 Z"/></g>
<g><path style="opacity:1" fill="#e3e3e3" d="M 300.5,127.5 C 301.289,127.783 301.956,128.283 302.5,129C 296.786,130.029 291.119,131.196 285.5,132.5C 285.5,132.167 285.5,131.833 285.5,131.5C 285.833,131.5 286.167,131.5 286.5,131.5C 288.167,130.833 289.833,130.167 291.5,129.5C 294.781,129.58 297.781,128.913 300.5,127.5 Z"/></g>
<g><path style="opacity:1" fill="#d2d2d2" d="M 279.5,129.5 C 278.486,130.674 277.153,131.34 275.5,131.5C 276.287,129.896 277.62,129.229 279.5,129.5 Z"/></g>
<g><path style="opacity:1" fill="#333333" d="M 238.5,129.5 C 239.5,130.167 240.5,130.833 241.5,131.5C 239.167,132.167 236.833,132.833 234.5,133.5C 234.082,132.778 233.416,132.278 232.5,132C 233.056,131.617 233.389,131.117 233.5,130.5C 235.216,130.371 236.883,130.038 238.5,129.5 Z"/></g>
<g><path style="opacity:1" fill="#e6e6e6" d="M 247.5,130.5 C 242.453,132.767 237.12,134.434 231.5,135.5C 232.29,134.599 233.29,133.932 234.5,133.5C 236.833,132.833 239.167,132.167 241.5,131.5C 243.435,130.85 245.435,130.517 247.5,130.5 Z"/></g>
<g><path style="opacity:1" fill="#414141" d="M 279.5,129.5 C 280.167,129.5 280.833,129.5 281.5,129.5C 281.833,130.5 282.5,131.167 283.5,131.5C 279.705,133.231 276.038,135.231 272.5,137.5C 272.027,138.906 271.027,139.573 269.5,139.5C 267.973,139.427 266.973,140.094 266.5,141.5C 266.167,141.5 265.833,141.5 265.5,141.5C 265.631,140.761 265.464,140.094 265,139.5C 264.329,140.252 263.496,140.586 262.5,140.5C 263.167,139.5 263.833,138.5 264.5,137.5C 266.027,137.573 267.027,136.906 267.5,135.5C 269.153,135.34 270.486,134.674 271.5,133.5C 273.027,133.573 274.027,132.906 274.5,131.5C 274.833,131.5 275.167,131.5 275.5,131.5C 277.153,131.34 278.486,130.674 279.5,129.5 Z"/></g>
<g><path style="opacity:1" fill="#c1c1c1" d="M 229.5,131.5 C 228.833,132.167 228.167,132.833 227.5,133.5C 226.833,133.5 226.167,133.5 225.5,133.5C 226.287,131.896 227.62,131.229 229.5,131.5 Z"/></g>
<g><path style="opacity:1" fill="#4b4b4b" d="M 231.5,130.5 C 232.167,130.5 232.833,130.5 233.5,130.5C 233.389,131.117 233.056,131.617 232.5,132C 233.416,132.278 234.082,132.778 234.5,133.5C 233.29,133.932 232.29,134.599 231.5,135.5C 230.833,135.5 230.167,135.5 229.5,135.5C 229.167,134.5 228.5,133.833 227.5,133.5C 228.167,132.833 228.833,132.167 229.5,131.5C 229.842,130.662 230.508,130.328 231.5,130.5 Z"/></g>
<g><path style="opacity:1" fill="#c0c0c0" d="M 274.5,131.5 C 274.027,132.906 273.027,133.573 271.5,133.5C 271.973,132.094 272.973,131.427 274.5,131.5 Z"/></g>
<g><path style="opacity:1" fill="#d4d4d4" d="M 224.5,133.5 C 224.5,134.167 224.167,134.5 223.5,134.5C 222.609,135.11 221.609,135.443 220.5,135.5C 221.287,133.896 222.62,133.229 224.5,133.5 Z"/></g>
<g><path style="opacity:1" fill="#363636" d="M 224.5,133.5 C 224.833,133.5 225.167,133.5 225.5,133.5C 226.167,133.5 226.833,133.5 227.5,133.5C 228.5,133.833 229.167,134.5 229.5,135.5C 228.29,135.932 227.29,136.599 226.5,137.5C 225.833,137.5 225.167,137.5 224.5,137.5C 223.89,136.609 223.557,135.609 223.5,134.5C 224.167,134.5 224.5,134.167 224.5,133.5 Z"/></g>
<g><path style="opacity:1" fill="#d6d6d6" d="M 271.5,133.5 C 270.486,134.674 269.153,135.34 267.5,135.5C 268.287,133.896 269.62,133.229 271.5,133.5 Z"/></g>
<g><path style="opacity:1" fill="#dddddd" d="M 283.5,131.5 C 284.167,131.5 284.833,131.5 285.5,131.5C 285.5,131.833 285.5,132.167 285.5,132.5C 281.271,134.448 276.938,136.115 272.5,137.5C 276.038,135.231 279.705,133.231 283.5,131.5 Z"/></g>
<g><path style="opacity:1" fill="#dadada" d="M 219.5,135.5 C 219.167,136.167 218.833,136.833 218.5,137.5C 217.833,137.5 217.167,137.5 216.5,137.5C 216.973,136.094 217.973,135.427 219.5,135.5 Z"/></g>
<g><path style="opacity:1" fill="#e2e2e2" d="M 229.5,135.5 C 230.167,135.5 230.833,135.5 231.5,135.5C 230.22,136.931 228.553,137.598 226.5,137.5C 227.29,136.599 228.29,135.932 229.5,135.5 Z"/></g>
<g><path style="opacity:1" fill="#bfbfbf" d="M 267.5,135.5 C 267.027,136.906 266.027,137.573 264.5,137.5C 264.973,136.094 265.973,135.427 267.5,135.5 Z"/></g>
<g><path style="opacity:1" fill="#525252" d="M 223.5,134.5 C 223.557,135.609 223.89,136.609 224.5,137.5C 223.29,137.932 222.29,138.599 221.5,139.5C 221.027,140.906 220.027,141.573 218.5,141.5C 217.595,140.036 217.595,138.702 218.5,137.5C 218.833,136.833 219.167,136.167 219.5,135.5C 219.833,135.5 220.167,135.5 220.5,135.5C 221.609,135.443 222.609,135.11 223.5,134.5 Z"/></g>
<g><path style="opacity:1" fill="#cacaca" d="M 224.5,137.5 C 225.167,137.5 225.833,137.5 226.5,137.5C 225.22,138.931 223.553,139.598 221.5,139.5C 222.29,138.599 223.29,137.932 224.5,137.5 Z"/></g>
<g><path style="opacity:1" fill="#525252" d="M 216.5,137.5 C 217.167,137.5 217.833,137.5 218.5,137.5C 217.595,138.702 217.595,140.036 218.5,141.5C 217.486,142.674 216.153,143.34 214.5,143.5C 213.833,143.5 213.167,143.5 212.5,143.5C 212.5,142.5 212.5,141.5 212.5,140.5C 213.5,140.167 214.167,139.5 214.5,138.5C 214.842,137.662 215.508,137.328 216.5,137.5 Z"/></g>
<g><path style="opacity:1" fill="#bbbbbb" d="M 264.5,137.5 C 263.833,138.5 263.167,139.5 262.5,140.5C 261.833,140.5 261.167,140.5 260.5,140.5C 261.262,138.738 262.596,137.738 264.5,137.5 Z"/></g>
<g><path style="opacity:1" fill="#c3c3c3" d="M 214.5,138.5 C 214.167,139.5 213.5,140.167 212.5,140.5C 212.167,140.5 211.833,140.5 211.5,140.5C 211.973,139.094 212.973,138.427 214.5,138.5 Z"/></g>
<g><path style="opacity:1" fill="#353535" d="M 265.5,141.5 C 264.5,141.833 263.833,142.5 263.5,143.5C 261.425,143.698 259.425,143.865 257.5,144C 258.71,142.961 259.71,141.794 260.5,140.5C 261.167,140.5 261.833,140.5 262.5,140.5C 263.496,140.586 264.329,140.252 265,139.5C 265.464,140.094 265.631,140.761 265.5,141.5 Z"/></g>
<g><path style="opacity:1" fill="#eaeaea" d="M 269.5,139.5 C 269.027,140.906 268.027,141.573 266.5,141.5C 266.973,140.094 267.973,139.427 269.5,139.5 Z"/></g>
<g><path style="opacity:1" fill="#4f4f4f" d="M 211.5,140.5 C 211.833,140.5 212.167,140.5 212.5,140.5C 212.5,141.5 212.5,142.5 212.5,143.5C 212.167,144.167 211.833,144.833 211.5,145.5C 210.833,145.5 210.167,145.5 209.5,145.5C 209.443,144.391 209.11,143.391 208.5,142.5C 208.973,141.094 209.973,140.427 211.5,140.5 Z"/></g>
<g><path style="opacity:1" fill="#e8e8e8" d="M 265.5,141.5 C 265.833,141.5 266.167,141.5 266.5,141.5C 266.027,142.906 265.027,143.573 263.5,143.5C 263.833,142.5 264.5,141.833 265.5,141.5 Z"/></g>
<g><path style="opacity:1" fill="#525252" d="M 208.5,142.5 C 209.11,143.391 209.443,144.391 209.5,145.5C 209.167,146.167 208.833,146.833 208.5,147.5C 206.973,147.427 205.973,148.094 205.5,149.5C 205.5,150.167 205.167,150.5 204.5,150.5C 203.892,147.366 202.226,146.699 199.5,148.5C 200.436,147.026 201.77,146.026 203.5,145.5C 205.027,145.573 206.027,144.906 206.5,143.5C 206.842,142.662 207.508,142.328 208.5,142.5 Z"/></g>
<g><path style="opacity:1" fill="#c1c1c1" d="M 206.5,143.5 C 206.027,144.906 205.027,145.573 203.5,145.5C 203.973,144.094 204.973,143.427 206.5,143.5 Z"/></g>
<g><path style="opacity:1" fill="#e0e0e0" d="M 212.5,143.5 C 213.167,143.5 213.833,143.5 214.5,143.5C 214.027,144.906 213.027,145.573 211.5,145.5C 211.833,144.833 212.167,144.167 212.5,143.5 Z"/></g>
<g><path style="opacity:1" fill="#656565" d="M 260.5,140.5 C 259.71,141.794 258.71,142.961 257.5,144C 259.425,143.865 261.425,143.698 263.5,143.5C 263.5,144.167 263.167,144.5 262.5,144.5C 260.596,144.738 259.262,145.738 258.5,147.5C 258.5,148.167 258.167,148.5 257.5,148.5C 257.715,146.821 257.048,145.821 255.5,145.5C 255.5,145.167 255.5,144.833 255.5,144.5C 256.585,142.413 258.251,141.08 260.5,140.5 Z"/></g>
<g><path style="opacity:1" fill="#393939" d="M 255.5,145.5 C 257.048,145.821 257.715,146.821 257.5,148.5C 255.938,148.733 254.605,149.4 253.5,150.5C 252.609,149.89 251.609,149.557 250.5,149.5C 250.5,149.167 250.5,148.833 250.5,148.5C 252.411,147.925 254.078,146.925 255.5,145.5 Z"/></g>
<g><path style="opacity:1" fill="#ededed" d="M 262.5,144.5 C 261.738,146.262 260.404,147.262 258.5,147.5C 259.262,145.738 260.596,144.738 262.5,144.5 Z"/></g>
<g><path style="opacity:1" fill="#ededed" d="M 209.5,145.5 C 210.167,145.5 210.833,145.5 211.5,145.5C 211.027,146.906 210.027,147.573 208.5,147.5C 208.833,146.833 209.167,146.167 209.5,145.5 Z"/></g>
<g><path style="opacity:1" fill="#414141" d="M 204.5,150.5 C 202.973,150.427 201.973,151.094 201.5,152.5C 201.5,153.167 201.167,153.5 200.5,153.5C 200.167,153.5 199.833,153.5 199.5,153.5C 199.737,152.209 199.404,151.209 198.5,150.5C 198.833,149.833 199.167,149.167 199.5,148.5C 202.226,146.699 203.892,147.366 204.5,150.5 Z"/></g>
<g><path style="opacity:1" fill="#b6b6b6" d="M 255.5,144.5 C 255.5,144.833 255.5,145.167 255.5,145.5C 254.078,146.925 252.411,147.925 250.5,148.5C 251.585,146.413 253.251,145.08 255.5,144.5 Z"/></g>
<g><path style="opacity:1" fill="#e8e8e8" d="M 208.5,147.5 C 208.027,148.906 207.027,149.573 205.5,149.5C 205.973,148.094 206.973,147.427 208.5,147.5 Z"/></g>
<g><path style="opacity:1" fill="#b2b2b2" d="M 199.5,148.5 C 199.167,149.167 198.833,149.833 198.5,150.5C 197.167,151.5 195.833,152.5 194.5,153.5C 194.167,153.5 193.833,153.5 193.5,153.5C 194.911,151.086 196.911,149.419 199.5,148.5 Z"/></g>
<g><path style="opacity:1" fill="#ebebeb" d="M 204.5,150.5 C 204.027,151.906 203.027,152.573 201.5,152.5C 201.973,151.094 202.973,150.427 204.5,150.5 Z"/></g>
<g><path style="opacity:1" fill="#e1e1e1" d="M 257.5,148.5 C 255.761,151.243 253.427,153.243 250.5,154.5C 251.5,153.167 252.5,151.833 253.5,150.5C 254.605,149.4 255.938,148.733 257.5,148.5 Z"/></g>
<g><path style="opacity:1" fill="#313131" d="M 198.5,150.5 C 199.404,151.209 199.737,152.209 199.5,153.5C 198.5,153.5 197.5,153.5 196.5,153.5C 196.5,154.5 196.5,155.5 196.5,156.5C 195.5,157.167 194.5,157.833 193.5,158.5C 192.903,158.265 192.57,157.765 192.5,157C 192.978,155.697 193.645,154.531 194.5,153.5C 195.833,152.5 197.167,151.5 198.5,150.5 Z"/></g>
<g><path style="opacity:1" fill="#8e8e8e" d="M 199.5,153.5 C 199.833,153.5 200.167,153.5 200.5,153.5C 199.738,155.262 198.404,156.262 196.5,156.5C 196.5,155.5 196.5,154.5 196.5,153.5C 197.5,153.5 198.5,153.5 199.5,153.5 Z"/></g>
<g><path style="opacity:1" fill="#c1c1c1" d="M 250.5,148.5 C 250.5,148.833 250.5,149.167 250.5,149.5C 248.5,151.833 246.5,154.167 244.5,156.5C 243.5,157.167 242.5,157.833 241.5,158.5C 243.766,154.564 246.766,151.231 250.5,148.5 Z"/></g>
<g><path style="opacity:1" fill="#313131" d="M 250.5,149.5 C 251.609,149.557 252.609,149.89 253.5,150.5C 252.5,151.833 251.5,153.167 250.5,154.5C 249.167,155.167 248.167,156.167 247.5,157.5C 246.391,157.443 245.391,157.11 244.5,156.5C 246.5,154.167 248.5,151.833 250.5,149.5 Z"/></g>
<g><path style="opacity:1" fill="#686868" d="M 193.5,153.5 C 193.833,153.5 194.167,153.5 194.5,153.5C 193.645,154.531 192.978,155.697 192.5,157C 192.57,157.765 192.903,158.265 193.5,158.5C 193.5,158.833 193.5,159.167 193.5,159.5C 193.167,160.5 192.5,161.167 191.5,161.5C 191.167,161.5 190.833,161.5 190.5,161.5C 190.768,159.901 190.434,158.568 189.5,157.5C 190.326,155.736 191.659,154.402 193.5,153.5 Z"/></g>
<g><path style="opacity:1" fill="#dddddd" d="M 250.5,154.5 C 250.262,156.404 249.262,157.738 247.5,158.5C 247.5,158.167 247.5,157.833 247.5,157.5C 248.167,156.167 249.167,155.167 250.5,154.5 Z"/></g>
<g><path style="opacity:1" fill="#dbdbdb" d="M 189.5,157.5 C 189.167,158.5 188.5,159.167 187.5,159.5C 187.5,158.167 188.167,157.5 189.5,157.5 Z"/></g>
<g><path style="opacity:1" fill="#f0f0f0" d="M 196.5,156.5 C 196.5,158.5 195.5,159.5 193.5,159.5C 193.5,159.167 193.5,158.833 193.5,158.5C 194.5,157.833 195.5,157.167 196.5,156.5 Z"/></g>
<g><path style="opacity:1" fill="#4a4a4a" d="M 244.5,156.5 C 245.391,157.11 246.391,157.443 247.5,157.5C 247.5,157.833 247.5,158.167 247.5,158.5C 246.833,159.833 245.833,160.833 244.5,161.5C 243.5,161.833 242.833,162.5 242.5,163.5C 241.365,162.897 240.365,162.564 239.5,162.5C 240.167,161.167 240.833,159.833 241.5,158.5C 242.5,157.833 243.5,157.167 244.5,156.5 Z"/></g>
<g><path style="opacity:1" fill="#3f3f3f" d="M 189.5,157.5 C 190.434,158.568 190.768,159.901 190.5,161.5C 189.833,162.5 189.167,163.5 188.5,164.5C 186.738,165.262 185.738,166.596 185.5,168.5C 185.5,169.167 185.167,169.5 184.5,169.5C 184.768,167.901 184.434,166.568 183.5,165.5C 184.11,164.609 184.443,163.609 184.5,162.5C 186.144,162.19 187.144,161.19 187.5,159.5C 188.5,159.167 189.167,158.5 189.5,157.5 Z"/></g>
<g><path style="opacity:1" fill="#a7a7a7" d="M 187.5,159.5 C 187.144,161.19 186.144,162.19 184.5,162.5C 184.856,160.81 185.856,159.81 187.5,159.5 Z"/></g>
<g><path style="opacity:1" fill="#cfcfcf" d="M 241.5,158.5 C 240.833,159.833 240.167,161.167 239.5,162.5C 238.833,162.833 238.167,163.167 237.5,163.5C 238.136,161.205 239.469,159.539 241.5,158.5 Z"/></g>
<g><path style="opacity:1" fill="#5c5c5c" d="M 239.5,162.5 C 240.365,162.564 241.365,162.897 242.5,163.5C 242.5,163.833 242.5,164.167 242.5,164.5C 241.396,166.389 240.063,168.055 238.5,169.5C 238.715,167.821 238.048,166.821 236.5,166.5C 237.11,165.609 237.443,164.609 237.5,163.5C 238.167,163.167 238.833,162.833 239.5,162.5 Z"/></g>
<g><path style="opacity:1" fill="#e5e5e5" d="M 244.5,161.5 C 244.573,163.027 243.906,164.027 242.5,164.5C 242.5,164.167 242.5,163.833 242.5,163.5C 242.833,162.5 243.5,161.833 244.5,161.5 Z"/></g>
<g><path style="opacity:1" fill="#bdbdbd" d="M 184.5,162.5 C 184.443,163.609 184.11,164.609 183.5,165.5C 182.5,166.167 181.5,166.833 180.5,167.5C 181.08,165.251 182.413,163.585 184.5,162.5 Z"/></g>
<g><path style="opacity:1" fill="#f1f1f1" d="M 190.5,161.5 C 190.833,161.5 191.167,161.5 191.5,161.5C 191.5,163.5 190.5,164.5 188.5,164.5C 189.167,163.5 189.833,162.5 190.5,161.5 Z"/></g>
<g><path style="opacity:1" fill="#c2c2c2" d="M 237.5,163.5 C 237.443,164.609 237.11,165.609 236.5,166.5C 235.833,166.833 235.167,167.167 234.5,167.5C 234.738,165.596 235.738,164.262 237.5,163.5 Z"/></g>
<g><path style="opacity:1" fill="#e5e5e5" d="M 188.5,164.5 C 188.262,166.404 187.262,167.738 185.5,168.5C 185.738,166.596 186.738,165.262 188.5,164.5 Z"/></g>
<g><path style="opacity:1" fill="#333333" d="M 183.5,165.5 C 184.434,166.568 184.768,167.901 184.5,169.5C 183.5,169.833 182.833,170.5 182.5,171.5C 182.167,171.5 181.833,171.5 181.5,171.5C 180.662,171.158 180.328,170.492 180.5,169.5C 180.5,168.833 180.5,168.167 180.5,167.5C 181.5,166.833 182.5,166.167 183.5,165.5 Z"/></g>
<g><path style="opacity:1" fill="#d3d3d3" d="M 234.5,167.5 C 234.573,169.027 233.906,170.027 232.5,170.5C 232.427,168.973 233.094,167.973 234.5,167.5 Z"/></g>
<g><path style="opacity:1" fill="#f1f1f1" d="M 184.5,169.5 C 184.5,170.833 183.833,171.5 182.5,171.5C 182.833,170.5 183.5,169.833 184.5,169.5 Z"/></g>
<g><path style="opacity:1" fill="#e2e2e2" d="M 238.5,169.5 C 238.573,171.027 237.906,172.027 236.5,172.5C 236.427,170.973 237.094,169.973 238.5,169.5 Z"/></g>
<g><path style="opacity:1" fill="#bfbfbf" d="M 180.5,167.5 C 180.5,168.167 180.5,168.833 180.5,169.5C 179.167,170.5 177.833,171.5 176.5,172.5C 177.08,170.251 178.413,168.585 180.5,167.5 Z"/></g>
<g><path style="opacity:1" fill="#3e3e3e" d="M 236.5,166.5 C 238.048,166.821 238.715,167.821 238.5,169.5C 237.094,169.973 236.427,170.973 236.5,172.5C 235.094,172.973 234.427,173.973 234.5,175.5C 232.95,176.441 231.284,177.107 229.5,177.5C 229.5,176.833 229.5,176.167 229.5,175.5C 229.328,174.508 229.662,173.842 230.5,173.5C 231.906,173.027 232.573,172.027 232.5,170.5C 233.906,170.027 234.573,169.027 234.5,167.5C 235.167,167.167 235.833,166.833 236.5,166.5 Z"/></g>
<g><path style="opacity:1" fill="#454545" d="M 180.5,169.5 C 180.328,170.492 180.662,171.158 181.5,171.5C 180.89,172.391 180.557,173.391 180.5,174.5C 180.068,175.71 179.401,176.71 178.5,177.5C 177.036,176.595 175.702,176.595 174.5,177.5C 174.5,176.833 174.5,176.167 174.5,175.5C 175.906,175.027 176.573,174.027 176.5,172.5C 177.833,171.5 179.167,170.5 180.5,169.5 Z"/></g>
<g><path style="opacity:1" fill="#d9d9d9" d="M 181.5,171.5 C 181.833,171.5 182.167,171.5 182.5,171.5C 182.573,173.027 181.906,174.027 180.5,174.5C 180.557,173.391 180.89,172.391 181.5,171.5 Z"/></g>
<g><path style="opacity:1" fill="#dadada" d="M 232.5,170.5 C 232.573,172.027 231.906,173.027 230.5,173.5C 230.427,171.973 231.094,170.973 232.5,170.5 Z"/></g>
<g><path style="opacity:1" fill="#bcbcbc" d="M 176.5,172.5 C 176.573,174.027 175.906,175.027 174.5,175.5C 174.427,173.973 175.094,172.973 176.5,172.5 Z"/></g>
<g><path style="opacity:1" fill="#dbdbdb" d="M 236.5,172.5 C 236.573,174.027 235.906,175.027 234.5,175.5C 234.427,173.973 235.094,172.973 236.5,172.5 Z"/></g>
<g><path style="opacity:1" fill="#8d8d8d" d="M 234.5,175.5 C 233.193,178.78 231.527,181.78 229.5,184.5C 229.821,183.183 230.154,181.849 230.5,180.5C 230.253,179.287 229.586,178.62 228.5,178.5C 228.5,177.833 228.833,177.5 229.5,177.5C 231.284,177.107 232.95,176.441 234.5,175.5 Z"/></g>
<g><path style="opacity:1" fill="#bfbfbf" d="M 174.5,175.5 C 174.5,176.167 174.5,176.833 174.5,177.5C 173.833,177.833 173.167,178.167 172.5,178.5C 172.427,176.973 173.094,175.973 174.5,175.5 Z"/></g>
<g><path style="opacity:1" fill="#5f5f5f" d="M 178.5,177.5 C 176.735,180.709 174.735,183.709 172.5,186.5C 171.62,184.389 171.62,182.389 172.5,180.5C 172.5,179.833 172.5,179.167 172.5,178.5C 173.167,178.167 173.833,177.833 174.5,177.5C 175.702,176.595 177.036,176.595 178.5,177.5 Z"/></g>
<g><path style="opacity:1" fill="#d6d6d6" d="M 229.5,175.5 C 229.5,176.167 229.5,176.833 229.5,177.5C 228.833,177.5 228.5,177.833 228.5,178.5C 227.974,180.23 226.974,181.564 225.5,182.5C 226.079,179.669 227.412,177.336 229.5,175.5 Z"/></g>
<g><path style="opacity:1" fill="#c8c8c8" d="M 172.5,178.5 C 172.5,179.167 172.5,179.833 172.5,180.5C 171.833,180.833 171.167,181.167 170.5,181.5C 170.427,179.973 171.094,178.973 172.5,178.5 Z"/></g>
<g><path style="opacity:1" fill="#4f4f4f" d="M 228.5,178.5 C 229.586,178.62 230.253,179.287 230.5,180.5C 230.154,181.849 229.821,183.183 229.5,184.5C 228.326,185.514 227.66,186.847 227.5,188.5C 227.02,191.443 226.02,194.11 224.5,196.5C 222.554,195.965 221.554,194.632 221.5,192.5C 221.263,191.209 221.596,190.209 222.5,189.5C 224.818,187.815 225.818,185.481 225.5,182.5C 226.974,181.564 227.974,180.23 228.5,178.5 Z"/></g>
<g><path style="opacity:1" fill="#e4e4e4" d="M 170.5,181.5 C 170.573,183.027 169.906,184.027 168.5,184.5C 168.427,182.973 169.094,181.973 170.5,181.5 Z"/></g>
<g><path style="opacity:1" fill="#4b4b4b" d="M 172.5,180.5 C 171.62,182.389 171.62,184.389 172.5,186.5C 172.672,187.492 172.338,188.158 171.5,188.5C 170.5,188.833 169.833,189.5 169.5,190.5C 168.5,190.167 167.833,189.5 167.5,188.5C 167.5,187.833 167.5,187.167 167.5,186.5C 167.328,185.508 167.662,184.842 168.5,184.5C 169.906,184.027 170.573,183.027 170.5,181.5C 171.167,181.167 171.833,180.833 172.5,180.5 Z"/></g>
<g><path style="opacity:1" fill="#e1e1e1" d="M 229.5,184.5 C 229.771,186.38 229.104,187.713 227.5,188.5C 227.66,186.847 228.326,185.514 229.5,184.5 Z"/></g>
<g><path style="opacity:1" fill="#d8d8d8" d="M 167.5,186.5 C 167.5,187.167 167.5,187.833 167.5,188.5C 166.833,189.167 166.167,189.833 165.5,190.5C 165.229,188.62 165.896,187.287 167.5,186.5 Z"/></g>
<g><path style="opacity:1" fill="#c5c5c5" d="M 225.5,182.5 C 225.818,185.481 224.818,187.815 222.5,189.5C 222.707,186.759 223.707,184.426 225.5,182.5 Z"/></g>
<g><path style="opacity:1" fill="#4f4f4f" d="M 167.5,188.5 C 167.833,189.5 168.5,190.167 169.5,190.5C 169.5,191.167 169.5,191.833 169.5,192.5C 169.34,194.153 168.674,195.486 167.5,196.5C 166.833,197.167 166.167,197.833 165.5,198.5C 164.508,198.672 163.842,198.338 163.5,197.5C 163.5,196.833 163.5,196.167 163.5,195.5C 163.5,195.167 163.5,194.833 163.5,194.5C 164.401,193.71 165.068,192.71 165.5,191.5C 165.5,191.167 165.5,190.833 165.5,190.5C 166.167,189.833 166.833,189.167 167.5,188.5 Z"/></g>
<g><path style="opacity:1" fill="#d3d3d3" d="M 171.5,188.5 C 171.34,190.153 170.674,191.486 169.5,192.5C 169.5,191.833 169.5,191.167 169.5,190.5C 169.833,189.5 170.5,188.833 171.5,188.5 Z"/></g>
<g><path style="opacity:1" fill="#dcdcdc" d="M 165.5,191.5 C 165.068,192.71 164.401,193.71 163.5,194.5C 163.285,192.821 163.952,191.821 165.5,191.5 Z"/></g>
<g><path style="opacity:1" fill="#5f5f5f" d="M 221.5,192.5 C 221.554,194.632 222.554,195.965 224.5,196.5C 224.672,197.492 224.338,198.158 223.5,198.5C 222.833,198.5 222.5,198.833 222.5,199.5C 221.391,199.443 220.391,199.11 219.5,198.5C 219.5,198.167 219.5,197.833 219.5,197.5C 219.402,195.447 220.069,193.78 221.5,192.5 Z"/></g>
<g><path style="opacity:1" fill="#cbcbcb" d="M 163.5,195.5 C 163.5,196.167 163.5,196.833 163.5,197.5C 162.833,198.167 162.167,198.833 161.5,199.5C 161.229,197.62 161.896,196.287 163.5,195.5 Z"/></g>
<g><path style="opacity:1" fill="#d7d7d7" d="M 167.5,196.5 C 167.293,199.241 166.293,201.574 164.5,203.5C 164.629,201.784 164.962,200.117 165.5,198.5C 166.167,197.833 166.833,197.167 167.5,196.5 Z"/></g>
<g><path style="opacity:1" fill="#3a3a3a" d="M 219.5,198.5 C 220.391,199.11 221.391,199.443 222.5,199.5C 222.371,201.216 222.038,202.883 221.5,204.5C 221.5,204.833 221.5,205.167 221.5,205.5C 220.533,206.806 219.199,207.473 217.5,207.5C 217.5,206.5 217.5,205.5 217.5,204.5C 217.5,204.167 217.5,203.833 217.5,203.5C 218.931,202.22 219.598,200.553 219.5,198.5 Z"/></g>
<g><path style="opacity:1" fill="#333333" d="M 163.5,197.5 C 163.842,198.338 164.508,198.672 165.5,198.5C 164.962,200.117 164.629,201.784 164.5,203.5C 163.5,204.833 162.5,204.833 161.5,203.5C 161.5,202.167 161.5,200.833 161.5,199.5C 162.167,198.833 162.833,198.167 163.5,197.5 Z"/></g>
<g><path style="opacity:1" fill="#bbbbbb" d="M 219.5,197.5 C 219.5,197.833 219.5,198.167 219.5,198.5C 219.598,200.553 218.931,202.22 217.5,203.5C 217.595,201.214 218.262,199.214 219.5,197.5 Z"/></g>
<g><path style="opacity:1" fill="#dddddd" d="M 223.5,198.5 C 223.946,201.01 223.28,203.01 221.5,204.5C 222.038,202.883 222.371,201.216 222.5,199.5C 222.5,198.833 222.833,198.5 223.5,198.5 Z"/></g>
<g><path style="opacity:1" fill="#aeaeae" d="M 161.5,199.5 C 161.5,200.833 161.5,202.167 161.5,203.5C 160.5,204.833 159.5,206.167 158.5,207.5C 158.733,204.458 159.733,201.792 161.5,199.5 Z"/></g>
<g><path style="opacity:1" fill="#4e4e4e" d="M 161.5,203.5 C 162.5,204.833 163.5,204.833 164.5,203.5C 164.405,205.786 163.738,207.786 162.5,209.5C 161.5,211.5 160.5,213.5 159.5,215.5C 159.737,214.209 159.404,213.209 158.5,212.5C 158.5,210.833 158.5,209.167 158.5,207.5C 159.5,206.167 160.5,204.833 161.5,203.5 Z"/></g>
<g><path style="opacity:1" fill="#b9b9b9" d="M 217.5,204.5 C 217.5,205.5 217.5,206.5 217.5,207.5C 217.34,209.153 216.674,210.486 215.5,211.5C 215.41,208.848 216.076,206.515 217.5,204.5 Z"/></g>
<g><path style="opacity:1" fill="#535353" d="M 221.5,205.5 C 221.567,206.959 221.234,208.292 220.5,209.5C 219.343,212.273 218.676,215.273 218.5,218.5C 218.5,218.833 218.5,219.167 218.5,219.5C 217.833,221.833 217.167,224.167 216.5,226.5C 216.762,225.022 216.429,223.689 215.5,222.5C 214.893,222.624 214.56,222.957 214.5,223.5C 214.167,223.5 213.833,223.5 213.5,223.5C 213.53,219.382 214.197,215.382 215.5,211.5C 216.674,210.486 217.34,209.153 217.5,207.5C 219.199,207.473 220.533,206.806 221.5,205.5 Z"/></g>
<g><path style="opacity:1" fill="#a6a6a6" d="M 158.5,207.5 C 158.5,209.167 158.5,210.833 158.5,212.5C 157.349,214.779 156.349,217.112 155.5,219.5C 155.308,215.098 156.308,211.098 158.5,207.5 Z"/></g>
<g><path style="opacity:1" fill="#d5d5d5" d="M 162.5,209.5 C 159.008,222.922 157.342,236.589 157.5,250.5C 157.167,250.5 156.833,250.5 156.5,250.5C 156.5,249.833 156.5,249.167 156.5,248.5C 156.5,243.5 156.5,238.5 156.5,233.5C 157.388,230.946 157.721,228.279 157.5,225.5C 158.793,222.321 159.46,218.988 159.5,215.5C 160.5,213.5 161.5,211.5 162.5,209.5 Z"/></g>
<g><path style="opacity:1" fill="#3d3d3d" d="M 158.5,212.5 C 159.404,213.209 159.737,214.209 159.5,215.5C 159.46,218.988 158.793,222.321 157.5,225.5C 156.935,227.42 155.935,229.087 154.5,230.5C 154.5,228.167 154.5,225.833 154.5,223.5C 154.232,221.901 154.566,220.568 155.5,219.5C 156.349,217.112 157.349,214.779 158.5,212.5 Z"/></g>
<g><path style="opacity:1" fill="#dfdfdf" d="M 220.5,209.5 C 220.785,212.829 220.118,215.829 218.5,218.5C 218.676,215.273 219.343,212.273 220.5,209.5 Z"/></g>
<g><path style="opacity:1" fill="#2c2c2c" d="M 216.5,226.5 C 216.5,227.833 216.5,229.167 216.5,230.5C 215.883,230.611 215.383,230.944 215,231.5C 214.503,228.854 214.336,226.187 214.5,223.5C 214.56,222.957 214.893,222.624 215.5,222.5C 216.429,223.689 216.762,225.022 216.5,226.5 Z"/></g>
<g><path style="opacity:1" fill="#3d3d3d" d="M 157.5,225.5 C 157.721,228.279 157.388,230.946 156.5,233.5C 155.391,233.557 154.391,233.89 153.5,234.5C 153.833,233.167 154.167,231.833 154.5,230.5C 155.935,229.087 156.935,227.42 157.5,225.5 Z"/></g>
<g><path style="opacity:1" fill="#737373" d="M 213.5,223.5 C 213.833,223.5 214.167,223.5 214.5,223.5C 214.336,226.187 214.503,228.854 215,231.5C 215.383,230.944 215.883,230.611 216.5,230.5C 216.5,232.5 216.5,234.5 216.5,236.5C 214.55,241.735 213.883,247.402 214.5,253.5C 212.471,243.689 212.137,233.689 213.5,223.5 Z"/></g>
<g><path style="opacity:1" fill="#a9a9a9" d="M 218.5,219.5 C 218.5,229.5 218.5,239.5 218.5,249.5C 217.291,245.382 216.624,241.049 216.5,236.5C 216.5,234.5 216.5,232.5 216.5,230.5C 216.5,229.167 216.5,227.833 216.5,226.5C 217.167,224.167 217.833,221.833 218.5,219.5 Z"/></g>
<g><path style="opacity:1" fill="#303030" d="M 156.5,233.5 C 156.5,238.5 156.5,243.5 156.5,248.5C 155.71,247.391 155.21,246.058 155,244.5C 154.802,246.382 154.302,248.048 153.5,249.5C 153.5,244.5 153.5,239.5 153.5,234.5C 154.391,233.89 155.391,233.557 156.5,233.5 Z"/></g>
<g><path style="opacity:1" fill="#373737" d="M 216.5,236.5 C 216.624,241.049 217.291,245.382 218.5,249.5C 218.5,250.167 218.5,250.833 218.5,251.5C 218.493,256.849 217.16,257.516 214.5,253.5C 213.883,247.402 214.55,241.735 216.5,236.5 Z"/></g>
<g><path style="opacity:1" fill="#c2c2c2" d="M 154.5,223.5 C 154.5,225.833 154.5,228.167 154.5,230.5C 154.167,231.833 153.833,233.167 153.5,234.5C 153.5,239.5 153.5,244.5 153.5,249.5C 153.205,251.735 153.539,253.735 154.5,255.5C 154.5,257.833 154.5,260.167 154.5,262.5C 155.341,264.379 155.675,266.379 155.5,268.5C 154.075,265.097 153.242,261.43 153,257.5C 152.833,253 152.667,248.5 152.5,244C 152.339,236.936 153.006,230.103 154.5,223.5 Z"/></g>
<g><path style="opacity:1" fill="#3a3a3a" d="M 156.5,248.5 C 156.5,249.167 156.5,249.833 156.5,250.5C 156.5,251.167 156.5,251.833 156.5,252.5C 155.094,252.973 154.427,253.973 154.5,255.5C 153.539,253.735 153.205,251.735 153.5,249.5C 154.302,248.048 154.802,246.382 155,244.5C 155.21,246.058 155.71,247.391 156.5,248.5 Z"/></g>
<g><path style="opacity:1" fill="#323232" d="M 156.5,252.5 C 157.244,256.119 157.577,259.785 157.5,263.5C 156.609,262.89 155.609,262.557 154.5,262.5C 154.5,260.167 154.5,257.833 154.5,255.5C 154.427,253.973 155.094,252.973 156.5,252.5 Z"/></g>
<g><path style="opacity:1" fill="#8d8d8d" d="M 218.5,251.5 C 219.913,254.219 220.58,257.219 220.5,260.5C 219.603,259.402 218.77,259.402 218,260.5C 217.505,262.473 217.338,264.473 217.5,266.5C 215.763,262.458 214.763,258.124 214.5,253.5C 217.16,257.516 218.493,256.849 218.5,251.5 Z"/></g>
<g><path style="opacity:1" fill="#b2b2b2" d="M 156.5,250.5 C 156.833,250.5 157.167,250.5 157.5,250.5C 158.297,255.803 158.964,261.136 159.5,266.5C 158.833,265.5 158.167,264.5 157.5,263.5C 157.577,259.785 157.244,256.119 156.5,252.5C 156.5,251.833 156.5,251.167 156.5,250.5 Z"/></g>
<g><path style="opacity:1" fill="#676767" d="M 154.5,262.5 C 155.609,262.557 156.609,262.89 157.5,263.5C 158.167,264.5 158.833,265.5 159.5,266.5C 160.434,267.568 160.768,268.901 160.5,270.5C 159.603,269.402 158.77,269.402 158,270.5C 157.505,272.473 157.338,274.473 157.5,276.5C 155.96,274.162 155.294,271.495 155.5,268.5C 155.675,266.379 155.341,264.379 154.5,262.5 Z"/></g>
<g><path style="opacity:1" fill="#3f3f3f" d="M 220.5,260.5 C 221.341,262.379 221.675,264.379 221.5,266.5C 221.59,268.696 221.923,270.863 222.5,273C 222.001,276.007 221.001,276.174 219.5,273.5C 219.5,273.167 219.5,272.833 219.5,272.5C 219.405,270.214 218.738,268.214 217.5,266.5C 217.338,264.473 217.505,262.473 218,260.5C 218.77,259.402 219.603,259.402 220.5,260.5 Z"/></g>
<g><path style="opacity:1" fill="#d1d1d1" d="M 217.5,266.5 C 218.738,268.214 219.405,270.214 219.5,272.5C 217.926,270.898 217.259,268.898 217.5,266.5 Z"/></g>
<g><path style="opacity:1" fill="#777777" d="M 221.5,266.5 C 223.435,270.213 224.768,274.213 225.5,278.5C 224.167,278.5 222.833,278.5 221.5,278.5C 220.069,277.22 219.402,275.553 219.5,273.5C 221.001,276.174 222.001,276.007 222.5,273C 221.923,270.863 221.59,268.696 221.5,266.5 Z"/></g>
<g><path style="opacity:1" fill="#4a4a4a" d="M 160.5,270.5 C 160.5,270.833 160.5,271.167 160.5,271.5C 160.32,275.286 161.32,278.619 163.5,281.5C 164.404,282.209 164.737,283.209 164.5,284.5C 165.057,286.949 165.057,289.282 164.5,291.5C 163.859,290.007 162.859,289.007 161.5,288.5C 160.662,288.158 160.328,287.492 160.5,286.5C 160.741,284.102 160.074,282.102 158.5,280.5C 157.566,279.432 157.232,278.099 157.5,276.5C 157.338,274.473 157.505,272.473 158,270.5C 158.77,269.402 159.603,269.402 160.5,270.5 Z"/></g>
<g><path style="opacity:1" fill="#acacac" d="M 160.5,271.5 C 162.101,274.55 163.101,277.884 163.5,281.5C 161.32,278.619 160.32,275.286 160.5,271.5 Z"/></g>
<g><path style="opacity:1" fill="#cecece" d="M 225.5,278.5 C 227.104,279.287 227.771,280.62 227.5,282.5C 226.326,281.486 225.66,280.153 225.5,278.5 Z"/></g>
<g><path style="opacity:1" fill="#595959" d="M 221.5,278.5 C 222.833,278.5 224.167,278.5 225.5,278.5C 225.66,280.153 226.326,281.486 227.5,282.5C 227.557,283.609 227.89,284.609 228.5,285.5C 227.532,287.607 227.198,289.941 227.5,292.5C 225.992,290.819 224.992,288.819 224.5,286.5C 224.598,284.447 223.931,282.78 222.5,281.5C 221.596,280.791 221.263,279.791 221.5,278.5 Z"/></g>
<g><path style="opacity:1" fill="#e0e0e0" d="M 222.5,281.5 C 223.931,282.78 224.598,284.447 224.5,286.5C 223.069,285.22 222.402,283.553 222.5,281.5 Z"/></g>
<g><path style="opacity:1" fill="#c8c8c8" d="M 158.5,280.5 C 160.074,282.102 160.741,284.102 160.5,286.5C 159.262,284.786 158.595,282.786 158.5,280.5 Z"/></g>
<g><path style="opacity:1" fill="#e1e1e1" d="M 227.5,282.5 C 229.104,283.287 229.771,284.62 229.5,286.5C 228.833,286.5 228.5,286.167 228.5,285.5C 227.89,284.609 227.557,283.609 227.5,282.5 Z"/></g>
<g><path style="opacity:1" fill="#515151" d="M 228.5,285.5 C 228.5,286.167 228.833,286.5 229.5,286.5C 231.008,288.181 232.008,290.181 232.5,292.5C 232.557,293.609 232.89,294.609 233.5,295.5C 232.791,296.404 231.791,296.737 230.5,296.5C 230.167,295.5 229.5,294.833 228.5,294.5C 227.662,294.158 227.328,293.492 227.5,292.5C 227.198,289.941 227.532,287.607 228.5,285.5 Z"/></g>
<g><path style="opacity:1" fill="#5f5f5f" d="M 164.5,284.5 C 166.02,286.89 167.02,289.557 167.5,292.5C 167.427,294.027 168.094,295.027 169.5,295.5C 170.338,295.842 170.672,296.508 170.5,297.5C 170.657,298.873 170.49,300.207 170,301.5C 169.329,300.748 168.496,300.414 167.5,300.5C 167.068,299.29 166.401,298.29 165.5,297.5C 163.777,294.66 162.443,291.66 161.5,288.5C 162.859,289.007 163.859,290.007 164.5,291.5C 165.057,289.282 165.057,286.949 164.5,284.5 Z"/></g>
<g><path style="opacity:1" fill="#dcdcdc" d="M 167.5,292.5 C 168.906,292.973 169.573,293.973 169.5,295.5C 168.094,295.027 167.427,294.027 167.5,292.5 Z"/></g>
<g><path style="opacity:1" fill="#dedede" d="M 232.5,292.5 C 233.906,292.973 234.573,293.973 234.5,295.5C 234.167,295.5 233.833,295.5 233.5,295.5C 232.89,294.609 232.557,293.609 232.5,292.5 Z"/></g>
<g><path style="opacity:1" fill="#e3e3e3" d="M 228.5,294.5 C 229.5,294.833 230.167,295.5 230.5,296.5C 230.5,296.833 230.5,297.167 230.5,297.5C 229.094,297.027 228.427,296.027 228.5,294.5 Z"/></g>
<g><path style="opacity:1" fill="#626262" d="M 233.5,295.5 C 233.833,295.5 234.167,295.5 234.5,295.5C 235.674,296.514 236.34,297.847 236.5,299.5C 236.5,299.833 236.5,300.167 236.5,300.5C 234.296,302.063 234.63,303.563 237.5,305C 236.944,305.383 236.611,305.883 236.5,306.5C 235.026,305.564 234.026,304.23 233.5,302.5C 233.573,300.973 232.906,299.973 231.5,299.5C 230.662,299.158 230.328,298.492 230.5,297.5C 230.5,297.167 230.5,296.833 230.5,296.5C 231.791,296.737 232.791,296.404 233.5,295.5 Z"/></g>
<g><path style="opacity:1" fill="#e2e2e2" d="M 165.5,297.5 C 166.401,298.29 167.068,299.29 167.5,300.5C 167.5,300.833 167.5,301.167 167.5,301.5C 165.896,300.713 165.229,299.38 165.5,297.5 Z"/></g>
<g><path style="opacity:1" fill="#e6e6e6" d="M 231.5,299.5 C 232.906,299.973 233.573,300.973 233.5,302.5C 232.094,302.027 231.427,301.027 231.5,299.5 Z"/></g>
<g><path style="opacity:1" fill="#848484" d="M 170.5,297.5 C 172.008,299.181 173.008,301.181 173.5,303.5C 172.5,303.5 171.5,303.5 170.5,303.5C 170.5,304.5 170.5,305.5 170.5,306.5C 168.75,305.341 167.75,303.674 167.5,301.5C 167.5,301.167 167.5,300.833 167.5,300.5C 168.496,300.414 169.329,300.748 170,301.5C 170.49,300.207 170.657,298.873 170.5,297.5 Z"/></g>
<g><path style="opacity:1" fill="#b8b8b8" d="M 236.5,299.5 C 238.262,300.262 239.262,301.596 239.5,303.5C 238.167,302.833 237.167,301.833 236.5,300.5C 236.5,300.167 236.5,299.833 236.5,299.5 Z"/></g>
<g><path style="opacity:1" fill="#353535" d="M 236.5,300.5 C 237.167,301.833 238.167,302.833 239.5,303.5C 239.879,306.567 238.879,307.567 236.5,306.5C 236.611,305.883 236.944,305.383 237.5,305C 234.63,303.563 234.296,302.063 236.5,300.5 Z"/></g>
<g><path style="opacity:1" fill="#383838" d="M 173.5,303.5 C 173.427,305.027 174.094,306.027 175.5,306.5C 175.427,308.027 176.094,309.027 177.5,309.5C 178.218,311.137 178.384,312.803 178,314.5C 176.008,313.335 174.175,312.002 172.5,310.5C 172.5,310.167 172.5,309.833 172.5,309.5C 172.068,308.29 171.401,307.29 170.5,306.5C 170.5,305.5 170.5,304.5 170.5,303.5C 171.5,303.5 172.5,303.5 173.5,303.5 Z"/></g>
<g><path style="opacity:1" fill="#d1d1d1" d="M 173.5,303.5 C 174.906,303.973 175.573,304.973 175.5,306.5C 174.094,306.027 173.427,305.027 173.5,303.5 Z"/></g>
<g><path style="opacity:1" fill="#888888" d="M 239.5,303.5 C 241.9,305.296 243.567,307.63 244.5,310.5C 243.542,310.047 242.708,309.381 242,308.5C 241.049,308.884 240.216,309.217 239.5,309.5C 239.167,309.5 238.833,309.5 238.5,309.5C 237.094,309.027 236.427,308.027 236.5,306.5C 238.879,307.567 239.879,306.567 239.5,303.5 Z"/></g>
<g><path style="opacity:1" fill="#dddddd" d="M 170.5,306.5 C 171.401,307.29 172.068,308.29 172.5,309.5C 170.952,309.179 170.285,308.179 170.5,306.5 Z"/></g>
<g><path style="opacity:1" fill="#e3e3e3" d="M 175.5,306.5 C 176.906,306.973 177.573,307.973 177.5,309.5C 176.094,309.027 175.427,308.027 175.5,306.5 Z"/></g>
<g><path style="opacity:1" fill="#d7d7d7" d="M 238.5,309.5 C 238.833,309.5 239.167,309.5 239.5,309.5C 241.226,311.228 242.559,313.228 243.5,315.5C 241.14,314.135 239.473,312.135 238.5,309.5 Z"/></g>
<g><path style="opacity:1" fill="#ebebeb" d="M 244.5,310.5 C 245.833,310.5 246.5,311.167 246.5,312.5C 245.5,312.167 244.833,311.5 244.5,310.5 Z"/></g>
<g><path style="opacity:1" fill="#494949" d="M 244.5,310.5 C 244.833,311.5 245.5,312.167 246.5,312.5C 248.262,313.262 249.262,314.596 249.5,316.5C 247.544,314.825 246.211,315.158 245.5,317.5C 244.167,317.5 243.5,316.833 243.5,315.5C 242.559,313.228 241.226,311.228 239.5,309.5C 240.216,309.217 241.049,308.884 242,308.5C 242.708,309.381 243.542,310.047 244.5,310.5 Z"/></g>
<g><path style="opacity:1" fill="#9e9e9e" d="M 177.5,309.5 C 179.409,311.649 181.076,313.982 182.5,316.5C 177.808,315.23 177.142,316.564 180.5,320.5C 177.375,317.61 174.708,314.277 172.5,310.5C 174.175,312.002 176.008,313.335 178,314.5C 178.384,312.803 178.218,311.137 177.5,309.5 Z"/></g>
<g><path style="opacity:1" fill="#d5d5d5" d="M 249.5,316.5 C 250.833,316.5 251.5,317.167 251.5,318.5C 250.5,318.167 249.833,317.5 249.5,316.5 Z"/></g>
<g><path style="opacity:1" fill="#a7a7a7" d="M 182.5,316.5 C 183.906,316.973 184.573,317.973 184.5,319.5C 183.094,319.027 182.427,318.027 182.5,316.5 Z"/></g>
<g><path style="opacity:1" fill="#dbdbdb" d="M 245.5,317.5 C 247.587,318.585 248.92,320.251 249.5,322.5C 247.413,321.415 246.08,319.749 245.5,317.5 Z"/></g>
<g><path style="opacity:1" fill="#cecece" d="M 251.5,318.5 C 254.764,320.094 257.431,322.427 259.5,325.5C 258.833,325.5 258.167,325.5 257.5,325.5C 255.5,323.167 253.5,320.833 251.5,318.5 Z"/></g>
<g><path style="opacity:1" fill="#353535" d="M 182.5,316.5 C 182.427,318.027 183.094,319.027 184.5,319.5C 184.833,320.5 185.5,321.167 186.5,321.5C 186.649,322.552 186.483,323.552 186,324.5C 184.008,323.335 182.175,322.002 180.5,320.5C 177.142,316.564 177.808,315.23 182.5,316.5 Z"/></g>
<g><path style="opacity:1" fill="#d6d6d6" d="M 184.5,319.5 C 185.833,319.5 186.5,320.167 186.5,321.5C 185.5,321.167 184.833,320.5 184.5,319.5 Z"/></g>
<g><path style="opacity:1" fill="#353535" d="M 249.5,316.5 C 249.833,317.5 250.5,318.167 251.5,318.5C 253.5,320.833 255.5,323.167 257.5,325.5C 256.508,325.328 255.842,325.662 255.5,326.5C 255.167,326.5 254.833,326.5 254.5,326.5C 253.415,324.413 251.749,323.08 249.5,322.5C 248.92,320.251 247.587,318.585 245.5,317.5C 246.211,315.158 247.544,314.825 249.5,316.5 Z"/></g>
<g><path style="opacity:1" fill="#bebebe" d="M 249.5,322.5 C 251.749,323.08 253.415,324.413 254.5,326.5C 252.251,325.92 250.585,324.587 249.5,322.5 Z"/></g>
<g><path style="opacity:1" fill="#898989" d="M 180.5,320.5 C 182.175,322.002 184.008,323.335 186,324.5C 186.483,323.552 186.649,322.552 186.5,321.5C 188.167,322.5 189.5,323.833 190.5,325.5C 188.5,325.5 187.5,326.5 187.5,328.5C 184.244,326.664 181.911,323.997 180.5,320.5 Z"/></g>
<g><path style="opacity:1" fill="#dcdcdc" d="M 259.5,325.5 C 261.749,326.08 263.415,327.413 264.5,329.5C 262.251,328.92 260.585,327.587 259.5,325.5 Z"/></g>
<g><path style="opacity:1" fill="#353535" d="M 190.5,325.5 C 191.259,327.436 192.259,329.269 193.5,331C 192.824,332.683 191.824,332.85 190.5,331.5C 189.833,330.167 188.833,329.167 187.5,328.5C 187.5,326.5 188.5,325.5 190.5,325.5 Z"/></g>
<g><path style="opacity:1" fill="#dddddd" d="M 254.5,326.5 C 254.833,326.5 255.167,326.5 255.5,326.5C 255.833,327.167 256.167,327.833 256.5,328.5C 255.167,328.5 254.5,327.833 254.5,326.5 Z"/></g>
<g><path style="opacity:1" fill="#cdcdcd" d="M 187.5,328.5 C 188.833,329.167 189.833,330.167 190.5,331.5C 188.5,331.5 187.5,330.5 187.5,328.5 Z"/></g>
<g><path style="opacity:1" fill="#ebebeb" d="M 256.5,328.5 C 257.5,328.833 258.167,329.5 258.5,330.5C 257.167,330.5 256.5,329.833 256.5,328.5 Z"/></g>
<g><path style="opacity:1" fill="#3d3d3d" d="M 257.5,325.5 C 258.167,325.5 258.833,325.5 259.5,325.5C 260.585,327.587 262.251,328.92 264.5,329.5C 266.247,333.331 269.247,335.331 273.5,335.5C 273.577,336.75 274.244,337.583 275.5,338C 274.956,338.717 274.289,339.217 273.5,339.5C 272.833,339.5 272.167,339.5 271.5,339.5C 270.508,339.672 269.842,339.338 269.5,338.5C 268.738,336.738 267.404,335.738 265.5,335.5C 265.027,334.094 264.027,333.427 262.5,333.5C 261.738,331.738 260.404,330.738 258.5,330.5C 258.167,329.5 257.5,328.833 256.5,328.5C 256.167,327.833 255.833,327.167 255.5,326.5C 255.842,325.662 256.508,325.328 257.5,325.5 Z"/></g>
<g><path style="opacity:1" fill="#888888" d="M 190.5,325.5 C 193.5,327.833 196.167,330.5 198.5,333.5C 197.417,333.461 196.417,333.127 195.5,332.5C 194.614,333.325 194.281,334.325 194.5,335.5C 192.659,334.598 191.326,333.264 190.5,331.5C 191.824,332.85 192.824,332.683 193.5,331C 192.259,329.269 191.259,327.436 190.5,325.5 Z"/></g>
<g><path style="opacity:1" fill="#cccccc" d="M 258.5,330.5 C 260.404,330.738 261.738,331.738 262.5,333.5C 260.596,333.262 259.262,332.262 258.5,330.5 Z"/></g>
<g><path style="opacity:1" fill="#dddddd" d="M 198.5,333.5 C 200.027,333.427 201.027,334.094 201.5,335.5C 201.167,335.5 200.833,335.5 200.5,335.5C 199.5,335.167 198.833,334.5 198.5,333.5 Z"/></g>
<g><path style="opacity:1" fill="#a1a1a1" d="M 264.5,329.5 C 267.68,331.255 270.68,333.255 273.5,335.5C 269.247,335.331 266.247,333.331 264.5,329.5 Z"/></g>
<g><path style="opacity:1" fill="#363636" d="M 198.5,333.5 C 198.833,334.5 199.5,335.167 200.5,335.5C 200.5,336.833 199.833,337.5 198.5,337.5C 197.395,336.4 196.062,335.733 194.5,335.5C 194.281,334.325 194.614,333.325 195.5,332.5C 196.417,333.127 197.417,333.461 198.5,333.5 Z"/></g>
<g><path style="opacity:1" fill="#c8c8c8" d="M 262.5,333.5 C 264.027,333.427 265.027,334.094 265.5,335.5C 263.973,335.573 262.973,334.906 262.5,333.5 Z"/></g>
<g><path style="opacity:1" fill="#cecece" d="M 201.5,335.5 C 203.754,336.124 205.421,337.457 206.5,339.5C 204.205,338.864 202.539,337.531 201.5,335.5 Z"/></g>
<g><path style="opacity:1" fill="#c0c0c0" d="M 265.5,335.5 C 267.404,335.738 268.738,336.738 269.5,338.5C 267.596,338.262 266.262,337.262 265.5,335.5 Z"/></g>
<g><path style="opacity:1" fill="#c2c2c2" d="M 194.5,335.5 C 196.062,335.733 197.395,336.4 198.5,337.5C 199.167,338.5 199.833,339.5 200.5,340.5C 197.911,339.581 195.911,337.914 194.5,335.5 Z"/></g>
<g><path style="opacity:1" fill="#3d3d3d" d="M 200.5,335.5 C 200.833,335.5 201.167,335.5 201.5,335.5C 202.539,337.531 204.205,338.864 206.5,339.5C 206.5,339.833 206.5,340.167 206.5,340.5C 205.375,341.348 205.375,342.348 206.5,343.5C 205.833,343.5 205.167,343.5 204.5,343.5C 203.738,341.738 202.404,340.738 200.5,340.5C 199.833,339.5 199.167,338.5 198.5,337.5C 199.833,337.5 200.5,336.833 200.5,335.5 Z"/></g>
<g><path style="opacity:1" fill="#717171" d="M 273.5,335.5 C 276.032,336.596 278.365,337.929 280.5,339.5C 278.62,339.229 277.287,339.896 276.5,341.5C 275.833,341.5 275.167,341.5 274.5,341.5C 274.167,340.833 273.833,340.167 273.5,339.5C 274.289,339.217 274.956,338.717 275.5,338C 274.244,337.583 273.577,336.75 273.5,335.5 Z"/></g>
<g><path style="opacity:1" fill="#e4e4e4" d="M 206.5,340.5 C 206.5,340.167 206.5,339.833 206.5,339.5C 208.027,339.427 209.027,340.094 209.5,341.5C 208.391,341.443 207.391,341.11 206.5,340.5 Z"/></g>
<g><path style="opacity:1" fill="#d5d5d5" d="M 271.5,339.5 C 272.167,339.5 272.833,339.5 273.5,339.5C 273.833,340.167 274.167,340.833 274.5,341.5C 272.973,341.573 271.973,340.906 271.5,339.5 Z"/></g>
<g><path style="opacity:1" fill="#525252" d="M 280.5,339.5 C 281.492,339.328 282.158,339.662 282.5,340.5C 282.843,342.483 282.176,343.817 280.5,344.5C 279.508,344.672 278.842,344.338 278.5,343.5C 277.833,342.833 277.167,342.167 276.5,341.5C 277.287,339.896 278.62,339.229 280.5,339.5 Z"/></g>
<g><path style="opacity:1" fill="#cacaca" d="M 200.5,340.5 C 202.404,340.738 203.738,341.738 204.5,343.5C 202.596,343.262 201.262,342.262 200.5,340.5 Z"/></g>
<g><path style="opacity:1" fill="#343434" d="M 206.5,340.5 C 207.391,341.11 208.391,341.443 209.5,341.5C 209.721,342.735 210.388,343.735 211.5,344.5C 210.39,344.376 209.056,344.709 207.5,345.5C 207.167,344.833 206.833,344.167 206.5,343.5C 205.375,342.348 205.375,341.348 206.5,340.5 Z"/></g>
<g><path style="opacity:1" fill="#e2e2e2" d="M 274.5,341.5 C 275.167,341.5 275.833,341.5 276.5,341.5C 277.167,342.167 277.833,342.833 278.5,343.5C 276.62,343.771 275.287,343.104 274.5,341.5 Z"/></g>
<g><path style="opacity:1" fill="#989898" d="M 282.5,340.5 C 284.027,340.427 285.027,341.094 285.5,342.5C 283.158,343.211 282.825,344.544 284.5,346.5C 282.847,346.34 281.514,345.674 280.5,344.5C 282.176,343.817 282.843,342.483 282.5,340.5 Z"/></g>
<g><path style="opacity:1" fill="#dbdbdb" d="M 285.5,342.5 C 287.698,342.12 289.365,342.787 290.5,344.5C 288.597,344.204 286.93,343.537 285.5,342.5 Z"/></g>
<g><path style="opacity:1" fill="#d6d6d6" d="M 204.5,343.5 C 205.167,343.5 205.833,343.5 206.5,343.5C 206.833,344.167 207.167,344.833 207.5,345.5C 205.973,345.573 204.973,344.906 204.5,343.5 Z"/></g>
<g><path style="opacity:1" fill="#717171" d="M 209.5,341.5 C 210.71,341.932 211.71,342.599 212.5,343.5C 211.929,345.36 211.929,347.027 212.5,348.5C 210.566,347.89 208.899,346.89 207.5,345.5C 209.056,344.709 210.39,344.376 211.5,344.5C 210.388,343.735 209.721,342.735 209.5,341.5 Z"/></g>
<g><path style="opacity:1" fill="#e5e5e5" d="M 214.5,344.5 C 216.027,344.427 217.027,345.094 217.5,346.5C 215.973,346.573 214.973,345.906 214.5,344.5 Z"/></g>
<g><path style="opacity:1" fill="#3b3b3b" d="M 285.5,342.5 C 286.93,343.537 288.597,344.204 290.5,344.5C 289.082,346.308 287.082,346.975 284.5,346.5C 282.825,344.544 283.158,343.211 285.5,342.5 Z"/></g>
<g><path style="opacity:1" fill="#dadada" d="M 291.5,345.5 C 291.5,345.167 291.5,344.833 291.5,344.5C 293.553,344.402 295.22,345.069 296.5,346.5C 294.784,346.371 293.117,346.038 291.5,345.5 Z"/></g>
<g><path style="opacity:1" fill="#818181" d="M 290.5,344.5 C 290.833,344.5 291.167,344.5 291.5,344.5C 291.5,344.833 291.5,345.167 291.5,345.5C 291.586,346.496 291.252,347.329 290.5,348C 292.491,348.374 294.158,349.207 295.5,350.5C 291.467,349.975 287.8,348.642 284.5,346.5C 287.082,346.975 289.082,346.308 290.5,344.5 Z"/></g>
<g><path style="opacity:1" fill="#dbdbdb" d="M 296.5,346.5 C 300.837,346.584 304.837,347.584 308.5,349.5C 307.5,349.5 306.5,349.5 305.5,349.5C 303.883,348.962 302.216,348.629 300.5,348.5C 299.167,347.833 297.833,347.167 296.5,346.5 Z"/></g>
<g><path style="opacity:1" fill="#3b3b3b" d="M 291.5,345.5 C 293.117,346.038 294.784,346.371 296.5,346.5C 297.833,347.167 299.167,347.833 300.5,348.5C 300.062,348.435 299.728,348.601 299.5,349C 300.381,349.708 301.047,350.542 301.5,351.5C 299.565,350.85 297.565,350.517 295.5,350.5C 294.158,349.207 292.491,348.374 290.5,348C 291.252,347.329 291.586,346.496 291.5,345.5 Z"/></g>
<g><path style="opacity:1" fill="#5d5d5d" d="M 212.5,343.5 C 213.167,343.833 213.833,344.167 214.5,344.5C 214.973,345.906 215.973,346.573 217.5,346.5C 221.151,347.659 224.485,349.326 227.5,351.5C 227.5,351.833 227.5,352.167 227.5,352.5C 227.5,353.5 227.5,354.5 227.5,355.5C 226.609,354.89 225.609,354.557 224.5,354.5C 223.448,352.744 221.781,352.077 219.5,352.5C 217.847,352.34 216.514,351.674 215.5,350.5C 215.027,349.094 214.027,348.427 212.5,348.5C 211.929,347.027 211.929,345.36 212.5,343.5 Z"/></g>
<g><path style="opacity:1" fill="#dcdcdc" d="M 212.5,348.5 C 214.027,348.427 215.027,349.094 215.5,350.5C 213.973,350.573 212.973,349.906 212.5,348.5 Z"/></g>
<g><path style="opacity:1" fill="#3a3a3a" d="M 300.5,348.5 C 302.216,348.629 303.883,348.962 305.5,349.5C 305.5,350.5 305.5,351.5 305.5,352.5C 304.833,352.5 304.167,352.5 303.5,352.5C 303.167,352.5 302.833,352.5 302.5,352.5C 302.5,351.833 302.167,351.5 301.5,351.5C 301.047,350.542 300.381,349.708 299.5,349C 299.728,348.601 300.062,348.435 300.5,348.5 Z"/></g>
<g><path style="opacity:1" fill="#3f3f3f" d="M 305.5,349.5 C 306.5,349.5 307.5,349.5 308.5,349.5C 308.833,349.5 309.167,349.5 309.5,349.5C 310.209,350.404 311.209,350.737 312.5,350.5C 313.456,351.659 314.456,352.826 315.5,354C 313.902,355.726 314.235,356.559 316.5,356.5C 315.833,357.167 315.167,357.833 314.5,358.5C 314.167,358.5 313.833,358.5 313.5,358.5C 311.214,358.595 309.214,359.262 307.5,360.5C 306.791,361.404 305.791,361.737 304.5,361.5C 304.918,360.778 305.584,360.278 306.5,360C 305.402,359.23 305.402,358.397 306.5,357.5C 317.282,354.43 316.949,352.763 305.5,352.5C 305.5,351.5 305.5,350.5 305.5,349.5 Z"/></g>
<g><path style="opacity:1" fill="#bbbbbb" d="M 309.5,349.5 C 316.175,349.334 322.842,349.5 329.5,350C 330.609,351.813 329.942,352.646 327.5,352.5C 325.393,351.532 323.059,351.198 320.5,351.5C 317.794,351.425 315.127,351.092 312.5,350.5C 311.209,350.737 310.209,350.404 309.5,349.5 Z"/></g>
<g><path style="opacity:1" fill="#dfdfdf" d="M 227.5,352.5 C 227.5,352.167 227.5,351.833 227.5,351.5C 229.698,351.12 231.365,351.787 232.5,353.5C 230.784,353.371 229.117,353.038 227.5,352.5 Z"/></g>
<g><path style="opacity:1" fill="#cccccc" d="M 295.5,350.5 C 297.565,350.517 299.565,350.85 301.5,351.5C 302.167,351.5 302.5,351.833 302.5,352.5C 299.848,352.59 297.515,351.924 295.5,350.5 Z"/></g>
<g><path style="opacity:1" fill="#353535" d="M 312.5,350.5 C 315.127,351.092 317.794,351.425 320.5,351.5C 321.602,353.092 320.935,353.925 318.5,354C 319.252,354.671 319.586,355.504 319.5,356.5C 318.5,356.5 317.5,356.5 316.5,356.5C 314.235,356.559 313.902,355.726 315.5,354C 314.456,352.826 313.456,351.659 312.5,350.5 Z"/></g>
<g><path style="opacity:1" fill="#8d8d8d" d="M 219.5,352.5 C 221.781,352.077 223.448,352.744 224.5,354.5C 222.447,354.598 220.78,353.931 219.5,352.5 Z"/></g>
<g><path style="opacity:1" fill="#dadada" d="M 232.5,353.5 C 234.698,353.12 236.365,353.787 237.5,355.5C 236.5,355.5 235.5,355.5 234.5,355.5C 233.833,354.833 233.167,354.167 232.5,353.5 Z"/></g>
<g><path style="opacity:1" fill="#555555" d="M 320.5,351.5 C 323.059,351.198 325.393,351.532 327.5,352.5C 325.847,352.66 324.514,353.326 323.5,354.5C 322.486,355.674 321.153,356.34 319.5,356.5C 319.586,355.504 319.252,354.671 318.5,354C 320.935,353.925 321.602,353.092 320.5,351.5 Z"/></g>
<g><path style="opacity:1" fill="#d2d2d2" d="M 327.5,352.5 C 326.713,354.104 325.38,354.771 323.5,354.5C 324.514,353.326 325.847,352.66 327.5,352.5 Z"/></g>
<g><path style="opacity:1" fill="#d0d0d0" d="M 224.5,354.5 C 225.609,354.557 226.609,354.89 227.5,355.5C 228.167,355.5 228.5,355.833 228.5,356.5C 226.62,356.771 225.287,356.104 224.5,354.5 Z"/></g>
<g><path style="opacity:1" fill="#383838" d="M 227.5,352.5 C 229.117,353.038 230.784,353.371 232.5,353.5C 233.167,354.167 233.833,354.833 234.5,355.5C 232.621,356.341 230.621,356.675 228.5,356.5C 228.5,355.833 228.167,355.5 227.5,355.5C 227.5,354.5 227.5,353.5 227.5,352.5 Z"/></g>
<g><path style="opacity:1" fill="#6c6c6c" d="M 234.5,355.5 C 235.5,355.5 236.5,355.5 237.5,355.5C 237.833,355.5 238.167,355.5 238.5,355.5C 238.5,355.833 238.5,356.167 238.5,356.5C 236.897,356.312 235.563,356.812 234.5,358C 236.491,358.374 238.158,359.207 239.5,360.5C 235.463,359.935 231.797,358.601 228.5,356.5C 230.621,356.675 232.621,356.341 234.5,355.5 Z"/></g>
<g><path style="opacity:1" fill="#c1c1c1" d="M 238.5,356.5 C 238.5,356.167 238.5,355.833 238.5,355.5C 240.786,355.595 242.786,356.262 244.5,357.5C 242.435,357.483 240.435,357.15 238.5,356.5 Z"/></g>
<g><path style="opacity:1" fill="#b8b8b8" d="M 303.5,352.5 C 304.167,352.5 304.833,352.5 305.5,352.5C 316.949,352.763 317.282,354.43 306.5,357.5C 303.873,358.092 301.206,358.425 298.5,358.5C 301.961,357.07 305.628,355.904 309.5,355C 307.389,354.155 305.389,353.322 303.5,352.5 Z"/></g>
<g><path style="opacity:1" fill="#333333" d="M 238.5,356.5 C 240.435,357.15 242.435,357.483 244.5,357.5C 244.218,358.778 243.551,359.778 242.5,360.5C 241.5,360.5 240.5,360.5 239.5,360.5C 238.158,359.207 236.491,358.374 234.5,358C 235.563,356.812 236.897,356.312 238.5,356.5 Z"/></g>
<g><path style="opacity:1" fill="#e8e8e8" d="M 316.5,356.5 C 317.5,356.5 318.5,356.5 319.5,356.5C 318.22,357.931 316.553,358.598 314.5,358.5C 315.167,357.833 315.833,357.167 316.5,356.5 Z"/></g>
<g><path style="opacity:1" fill="#747474" d="M 244.5,357.5 C 247.495,357.294 250.162,357.96 252.5,359.5C 248.437,359.616 247.77,360.949 250.5,363.5C 248.901,363.768 247.568,363.434 246.5,362.5C 245.486,361.326 244.153,360.66 242.5,360.5C 243.551,359.778 244.218,358.778 244.5,357.5 Z"/></g>
<g><path style="opacity:1" fill="#353535" d="M 306.5,357.5 C 305.402,358.397 305.402,359.23 306.5,360C 305.584,360.278 304.918,360.778 304.5,361.5C 304.167,361.5 303.833,361.5 303.5,361.5C 301.139,361.674 298.806,362.007 296.5,362.5C 296.196,361.85 295.863,361.183 295.5,360.5C 296.602,359.824 297.602,359.158 298.5,358.5C 301.206,358.425 303.873,358.092 306.5,357.5 Z"/></g>
<g><path style="opacity:1" fill="#d7d7d7" d="M 313.5,358.5 C 311.898,360.074 309.898,360.741 307.5,360.5C 309.214,359.262 311.214,358.595 313.5,358.5 Z"/></g>
<g><path style="opacity:1" fill="#a7a7a7" d="M 239.5,360.5 C 240.5,360.5 241.5,360.5 242.5,360.5C 244.153,360.66 245.486,361.326 246.5,362.5C 243.933,362.279 241.599,361.612 239.5,360.5 Z"/></g>
<g><path style="opacity:1" fill="#4c4c4c" d="M 252.5,359.5 C 252.833,359.5 253.167,359.5 253.5,359.5C 255.167,360.167 256.833,360.833 258.5,361.5C 255.233,362.031 254.9,363.031 257.5,364.5C 255.139,364.326 252.806,363.993 250.5,363.5C 247.77,360.949 248.437,359.616 252.5,359.5 Z"/></g>
<g><path style="opacity:1" fill="#d2d2d2" d="M 253.5,359.5 C 266.502,360.808 279.502,360.808 292.5,359.5C 290.343,360.407 288.01,361.073 285.5,361.5C 282.833,361.5 280.167,361.5 277.5,361.5C 274.5,361.5 271.5,361.5 268.5,361.5C 266.5,361.5 264.5,361.5 262.5,361.5C 261.167,361.5 259.833,361.5 258.5,361.5C 256.833,360.833 255.167,360.167 253.5,359.5 Z"/></g>
<g><path style="opacity:1" fill="#6d6d6d" d="M 298.5,358.5 C 297.602,359.158 296.602,359.824 295.5,360.5C 295.863,361.183 296.196,361.85 296.5,362.5C 296.5,362.833 296.5,363.167 296.5,363.5C 283.437,365.715 270.437,366.048 257.5,364.5C 259.167,364.5 260.833,364.5 262.5,364.5C 264.167,364.5 265.833,364.5 267.5,364.5C 270.167,364.5 272.833,364.5 275.5,364.5C 278.518,364.665 281.518,364.498 284.5,364C 284.167,363.667 283.833,363.333 283.5,363C 284.416,362.722 285.082,362.222 285.5,361.5C 288.01,361.073 290.343,360.407 292.5,359.5C 294.435,358.85 296.435,358.517 298.5,358.5 Z"/></g>
<g><path style="opacity:1" fill="#3a3a3a" d="M 258.5,361.5 C 259.833,361.5 261.167,361.5 262.5,361.5C 263.833,362.5 263.833,363.5 262.5,364.5C 260.833,364.5 259.167,364.5 257.5,364.5C 254.9,363.031 255.233,362.031 258.5,361.5 Z"/></g>
<g><path style="opacity:1" fill="#313131" d="M 262.5,361.5 C 264.5,361.5 266.5,361.5 268.5,361.5C 268.918,362.222 269.584,362.722 270.5,363C 269.263,363.232 268.263,363.732 267.5,364.5C 265.833,364.5 264.167,364.5 262.5,364.5C 263.833,363.5 263.833,362.5 262.5,361.5 Z"/></g>
<g><path style="opacity:1" fill="#404040" d="M 268.5,361.5 C 271.5,361.5 274.5,361.5 277.5,361.5C 276.833,362.5 276.167,363.5 275.5,364.5C 272.833,364.5 270.167,364.5 267.5,364.5C 268.263,363.732 269.263,363.232 270.5,363C 269.584,362.722 268.918,362.222 268.5,361.5 Z"/></g>
<g><path style="opacity:1" fill="#323232" d="M 277.5,361.5 C 280.167,361.5 282.833,361.5 285.5,361.5C 285.082,362.222 284.416,362.722 283.5,363C 283.833,363.333 284.167,363.667 284.5,364C 281.518,364.498 278.518,364.665 275.5,364.5C 276.167,363.5 276.833,362.5 277.5,361.5 Z"/></g>
<g><path style="opacity:1" fill="#e3e3e3" d="M 303.5,361.5 C 301.562,363.163 299.228,363.829 296.5,363.5C 296.5,363.167 296.5,362.833 296.5,362.5C 298.806,362.007 301.139,361.674 303.5,361.5 Z"/></g>
</svg>
