<?xml version="1.0" encoding="UTF-8"?>
<svg version="1.1" xmlns="http://www.w3.org/2000/svg" width="500" height="500">
<path d="M0 0 C0 0.66 0 1.32 0 2 C-0.56807373 2.07516846 -1.13614746 2.15033691 -1.72143555 2.2277832 C-27.78479308 5.71326001 -53.01843859 11.28556374 -73.5625 28.9375 C-76 31 -76 31 -78 31 C-78 31.66 -78 32.32 -78 33 C-79.43359375 34.375 -79.43359375 34.375 -81.4375 36 C-90.97285867 44.1779526 -101.93306966 55.79920898 -106 68 C-106.66 68 -107.32 68 -108 68 C-108 69.32 -108 70.64 -108 72 C-108.66 72 -109.32 72 -110 72 C-110.0825 72.78375 -110.165 73.5675 -110.25 74.375 C-111.05164487 78.24961686 -112.34264726 81.60489858 -113.8671875 85.2421875 C-116.49822067 91.64739238 -118.64863227 97.91344745 -120.125 104.6875 C-120.29676758 105.47278076 -120.46853516 106.25806152 -120.64550781 107.06713867 C-122.03897412 113.69963244 -122.8008497 120.22023124 -123 127 C-123.03996094 128.01964844 -123.07992187 129.03929687 -123.12109375 130.08984375 C-123.81211688 162.9744151 -112.11110914 194.88430933 -91 220 C-90.30261719 220.89847656 -89.60523438 221.79695312 -88.88671875 222.72265625 C-87.20309926 225.06655501 -87.20309926 225.06655501 -85 226 C-85 226.66 -85 227.32 -85 228 C-84.34 228 -83.68 228 -83 228 C-81.30484964 229.63768764 -79.64268953 231.30969628 -78 233 C-61.74840868 247.32772693 -43.09740091 257.09827147 -22 262 C-21.2056958 262.18546387 -20.4113916 262.37092773 -19.59301758 262.56201172 C-11.5687613 264.23320378 -3.61006216 264.39547121 4.5625 264.375 C5.26732513 264.37545319 5.97215027 264.37590637 6.69833374 264.37637329 C17.93022368 264.35518916 28.22094327 263.23371702 39 260 C41.10409853 259.47889148 43.20825663 258.95802336 45.3125 258.4375 C48.96798589 257.40974181 51.80128169 256.07484431 55 254 C56.134375 253.62875 57.26875 253.2575 58.4375 252.875 C63.51705647 251.09081798 67.81533218 248.0367045 72.25170898 245.04833984 C76.80914661 242 76.80914661 242 79 242 C77.62665647 246.12003058 74.80306656 247.48042061 71.3125 249.75 C70.64130127 250.19102051 69.97010254 250.63204102 69.27856445 251.08642578 C56.5960982 259.2639635 43.03492107 265.35755603 28.3125 268.6875 C27.41466797 268.89955078 26.51683594 269.11160156 25.59179688 269.33007812 C4.56510453 274.21320008 -18.18948396 273.62039498 -39 268 C-40.16917969 267.71125 -41.33835937 267.4225 -42.54296875 267.125 C-51.60866185 264.6515344 -59.76905644 260.44209653 -68 256 C-69.61455078 255.12988281 -69.61455078 255.12988281 -71.26171875 254.2421875 C-77.742344 250.59948311 -83.63077845 246.44955873 -89.50390625 241.91796875 C-91.28793914 240.5471391 -93.12798904 239.24800731 -95 238 C-95 237.34 -95 236.68 -95 236 C-95.66 236 -96.32 236 -97 236 C-97 235.34 -97 234.68 -97 234 C-97.86238281 233.63648438 -97.86238281 233.63648438 -98.7421875 233.265625 C-116.50489711 223.30867359 -129.57296308 193.68704094 -135 175 C-136.60114026 168.72257353 -137.88169965 162.37977451 -139 156 C-139.29197266 154.37191406 -139.29197266 154.37191406 -139.58984375 152.7109375 C-141.34256788 136.85295732 -140.60872354 120.53439643 -137 105 C-136.73316406 103.81921875 -136.46632813 102.6384375 -136.19140625 101.421875 C-128.5624025 71.71962038 -108.84084716 40.34304298 -82.671875 23.5703125 C-81.79015625 23.05210938 -80.9084375 22.53390625 -80 22 C-79.42314453 21.65420898 -78.84628906 21.30841797 -78.25195312 20.95214844 C-60.16517481 10.16434919 -41.92022167 3.25081888 -21.0625 0.3125 C-20.13759766 0.17005859 -19.21269531 0.02761719 -18.25976562 -0.11914062 C-11.97859623 -1.00387437 -6.27425683 -0.92406253 0 0 Z " fill="#1D1D1D" transform="translate(263,100)"/>
<path d="M0 0 C0.66 0.33 1.32 0.66 2 1 C2.52734375 3.58984375 2.52734375 3.58984375 2.9375 6.9375 C4.68455625 19.15355748 8.00876662 30.82268447 18.140625 38.7578125 C21.27365322 40.85088597 24.54437856 42.50933977 28 44 C28.75539063 44.34546875 29.51078125 44.6909375 30.2890625 45.046875 C34.73765659 46.61093402 39.35052538 46.89549672 44.015625 47.4375 C45.00046875 47.623125 45.9853125 47.80875 47 48 C47.33 48.66 47.66 49.32 48 50 C46.74445313 50.23074219 45.48890625 50.46148437 44.1953125 50.69921875 C27.34589775 53.80059681 27.34589775 53.80059681 14 64 C13.175 64.804375 12.35 65.60875 11.5 66.4375 C4.78721851 74.69612706 3.14020843 86.75514216 2 97 C1.01 97 0.02 97 -1 97 C-1.103125 95.9275 -1.20625 94.855 -1.3125 93.75 C-3.11723453 79.61291289 -7.30740899 68.70686778 -18 59 C-26.86471422 53.20280122 -36.70953883 51.58834704 -47 50 C-44.38268 47.38268 -42.90033176 47.65527506 -39.25 47.3125 C-28.40191076 45.79545311 -16.96481124 40.53321567 -10.20703125 31.640625 C-4.84147005 22.44252009 -2.71856523 14.42611455 -1.4296875 3.84375 C-1 1 -1 1 0 0 Z " fill="#151515" transform="translate(265,188)"/>
<path d="M0 0 C-1.37334353 4.12003058 -4.19693344 5.48042061 -7.6875 7.75 C-8.35869873 8.19102051 -9.02989746 8.63204102 -9.72143555 9.08642578 C-22.4039018 17.2639635 -35.96507893 23.35755603 -50.6875 26.6875 C-51.58533203 26.89955078 -52.48316406 27.11160156 -53.40820312 27.33007812 C-63.05900654 29.57132698 -72.29071014 30.25821017 -82.1875 30.3125 C-83.17837616 30.31842163 -83.17837616 30.31842163 -84.18927002 30.32446289 C-95.85699811 30.35695664 -106.72678704 28.97082318 -118 26 C-117.01 25.67 -116.02 25.34 -115 25 C-115 24.21625 -115 23.4325 -115 22.625 C-115 21.08333333 -115 19.54166667 -115 18 C-115.33 17.34 -115.66 16.68 -116 16 C-115.37996094 16.18175781 -114.75992188 16.36351562 -114.12109375 16.55078125 C-100.68620593 20.36417736 -88.17834719 22.56254775 -74.1875 22.4375 C-73.4926651 22.43545563 -72.7978302 22.43341125 -72.0819397 22.43130493 C-60.94150023 22.37809314 -50.68966028 21.20689808 -40 18 C-37.89590147 17.47889148 -35.79174337 16.95802336 -33.6875 16.4375 C-30.03201411 15.40974181 -27.19871831 14.07484431 -24 12 C-22.865625 11.62875 -21.73125 11.2575 -20.5625 10.875 C-15.48294353 9.09081798 -11.18466782 6.0367045 -6.74829102 3.04833984 C-2.19085339 0 -2.19085339 0 0 0 Z " fill="#2C2C2C" transform="translate(342,342)"/>
<path d="M0 0 C0 0.66 0 1.32 0 2 C-0.56807373 2.07516846 -1.13614746 2.15033691 -1.72143555 2.2277832 C-24.82238524 5.31709448 -45.84364047 9.70523397 -65.34375 23.21484375 C-67 24 -67 24 -70 23 C-69.34 21.68 -68.68 20.36 -68 19 C-68.66 18.01 -69.32 17.02 -70 16 C-63.27270385 12.34470614 -56.52134475 9.30181759 -49.3125 6.75 C-48.62486572 6.50427246 -47.93723145 6.25854492 -47.22875977 6.00537109 C-38.69379103 3.05989847 -29.98392814 1.56930077 -21.0625 0.3125 C-19.67514648 0.09883789 -19.67514648 0.09883789 -18.25976562 -0.11914062 C-11.97859623 -1.00387437 -6.27425683 -0.92406253 0 0 Z " fill="#2C2C2C" transform="translate(263,100)"/>
<path d="M0 0 C-1.37334353 4.12003058 -4.19693344 5.48042061 -7.6875 7.75 C-8.35869873 8.19102051 -9.02989746 8.63204102 -9.72143555 9.08642578 C-22.42318525 17.27639729 -36.01962995 23.36052267 -50.75 26.75 C-51.65621094 26.97042969 -52.56242187 27.19085938 -53.49609375 27.41796875 C-58.08406005 28.49630827 -62.25127418 29.28303664 -67 29 C-66.67 27.35 -66.34 25.7 -66 24 C-70.95 24 -75.9 24 -81 24 C-81 23.67 -81 23.34 -81 23 C-80.39752441 22.9906543 -79.79504883 22.98130859 -79.17431641 22.97167969 C-66.35586037 22.72353345 -54.30200517 21.81530353 -41.89501953 18.50537109 C-40.1432614 18.0382055 -38.38243027 17.60542519 -36.62109375 17.17578125 C-31.87817014 15.982156 -28.12696768 14.67695201 -24 12 C-22.865625 11.62875 -21.73125 11.2575 -20.5625 10.875 C-15.48294353 9.09081798 -11.18466782 6.0367045 -6.74829102 3.04833984 C-2.19085339 0 -2.19085339 0 0 0 Z " fill="#555555" transform="translate(342,342)"/>
<path d="M0 0 C5.33159083 0.38509622 9.15551905 1.80525731 13.8125 4.375 C14.93269531 4.98085938 16.05289063 5.58671875 17.20703125 6.2109375 C20 8 20 8 22 11 C21.125 13.6875 21.125 13.6875 20 16 C12.19283197 15.81000255 4.6888917 14.191141 -2 10 C-3.34375 7.328125 -3.34375 7.328125 -4 5 C-3.34 5 -2.68 5 -2 5 C-1.7834375 4.0409375 -1.7834375 4.0409375 -1.5625 3.0625 C-1 1 -1 1 0 0 Z " fill="#212121" transform="translate(207,351)"/>
<path d="M0 0 C0.66 0.268125 1.32 0.53625 2 0.8125 C1.34938905 2.48549959 0.67966676 4.15109237 0 5.8125 C-0.268125 6.493125 -0.53625 7.17375 -0.8125 7.875 C-2.43831193 10.52764052 -4.46868869 12.04058208 -7 13.8125 C-7.66 13.8125 -8.32 13.8125 -9 13.8125 C-9 14.4725 -9 15.1325 -9 15.8125 C-10.96147874 17.20188077 -12.96166576 18.5385411 -15 19.8125 C-15.556875 19.338125 -16.11375 18.86375 -16.6875 18.375 C-19.18346074 16.68854004 -21.0446237 16.22296893 -24 15.8125 C-20.02528347 11.58936369 -15.73271955 8.15683872 -11 4.8125 C-9.95199219 4.05646484 -9.95199219 4.05646484 -8.8828125 3.28515625 C-3.71852204 -0.23240763 -3.71852204 -0.23240763 0 0 Z " fill="#222222" transform="translate(194,117.1875)"/>
<path d="M0 0 C0 0.66 0 1.32 0 2 C-0.56807373 2.07516846 -1.13614746 2.15033691 -1.72143555 2.2277832 C-20.51694859 4.49456519 -20.51694859 4.49456519 -38.625 9.75 C-42 11 -42 11 -45 10 C-44.34 10 -43.68 10 -43 10 C-43 9.34 -43 8.68 -43 8 C-43.99 7.34 -44.98 6.68 -46 6 C-38.19214935 2.4738739 -29.47493085 1.49759609 -21.0625 0.3125 C-19.67514648 0.09883789 -19.67514648 0.09883789 -18.25976562 -0.11914062 C-11.97859623 -1.00387437 -6.27425683 -0.92406253 0 0 Z " fill="#3D3D3D" transform="translate(263,100)"/>
<path d="M0 0 C0.66 0.33 1.32 0.66 2 1 C2.59765625 3.6953125 2.59765625 3.6953125 3.0625 7.125 C3.22363281 8.30191406 3.38476562 9.47882813 3.55078125 10.69140625 C3.69902344 11.78324219 3.84726562 12.87507812 4 14 C4.24858276 15.35442754 4.4981932 16.70866814 4.75 18.0625 C5.01273406 21.14962519 4.72224722 22.4672835 3 25 C1.35 24.01 -0.3 23.02 -2 22 C-2.33 22.66 -2.66 23.32 -3 24 C-3.66 24 -4.32 24 -5 24 C-4.69255859 22.64068359 -4.69255859 22.64068359 -4.37890625 21.25390625 C-2.54528415 13.02668753 -2.54528415 13.02668753 -1.375 4.6875 C-1 1 -1 1 0 0 Z " fill="#333333" transform="translate(265,188)"/>
<path d="M0 0 C-1.37349743 4.12049228 -4.19719476 5.47951092 -7.6875 7.75 C-8.35144775 8.18812012 -9.01539551 8.62624023 -9.69946289 9.07763672 C-16.20309415 13.28428655 -22.98188971 16.73425376 -30 20 C-30.66 19.34 -31.32 18.68 -32 18 C-34.06874034 17.3574765 -34.06874034 17.3574765 -36 17 C-35.34515625 16.78085937 -34.6903125 16.56171875 -34.015625 16.3359375 C-23.27307543 12.60335672 -13.6255293 7.64491962 -4.1796875 1.3203125 C-2 0 -2 0 0 0 Z " fill="#555555" transform="translate(342,342)"/>
<path d="M0 0 C6.4647747 0.70357958 12.80762388 2.02969851 19 4 C15.39587262 6.11845655 11.6202968 6.81281907 7.5625 7.5625 C6.57926758 7.75102539 6.57926758 7.75102539 5.57617188 7.94335938 C3.71815949 8.29930758 1.85910292 8.64979224 0 9 C-1.66717031 9.33080515 -3.33407819 9.6629638 -5 10 C-4.67 8.68 -4.34 7.36 -4 6 C-3.34 6 -2.68 6 -2 6 C-1.855625 5.195625 -1.71125 4.39125 -1.5625 3.5625 C-1 1 -1 1 0 0 Z " fill="#383838" transform="translate(294,233)"/>
<path d="M0 0 C2 3 2 3 1.6875 6.125 C1 9 1 9 0 10 C-2.875 10.3125 -2.875 10.3125 -6 10 C-8 8.375 -8 8.375 -9 6 C-8.3125 2.8125 -8.3125 2.8125 -7 0 C-4.27584084 -1.36207958 -2.87220643 -0.86166193 0 0 Z " fill="#393939" transform="translate(326,127)"/>
<path d="M0 0 C2.5625 0.375 2.5625 0.375 4.4375 2.0625 C5.85114911 4.96833428 5.54420152 6.34808697 4.5625 9.375 C3.5625 10.375 3.5625 10.375 0.125 10.625 C-1.050625 10.5425 -2.22625 10.46 -3.4375 10.375 C-5.4375 7.375 -5.4375 7.375 -5.1875 4.8125 C-4.1927353 1.57951474 -3.3898104 0.52150929 0 0 Z " fill="#373737" transform="translate(350.4375,142.625)"/>
<path d="M0 0 C0.33 0.99 0.66 1.98 1 3 C-5.3327492 6.28874656 -10.87391001 7.70245971 -18 8 C-18 7.34 -18 6.68 -18 6 C-18.66 6 -19.32 6 -20 6 C-20 5.34 -20 4.68 -20 4 C-13.34443923 2.2362764 -6.86036401 0.65965039 0 0 Z " fill="#2E2E2E" transform="translate(310,359)"/>
<path d="M0 0 C0 0.66 0 1.32 0 2 C-3.37398089 2.50704109 -6.74932621 3.00436536 -10.125 3.5 C-11.07632813 3.64308594 -12.02765625 3.78617187 -13.0078125 3.93359375 C-17.71194706 4.61961337 -22.2304257 5.19271007 -27 5 C-27 4.67 -27 4.34 -27 4 C-28.65 3.67 -30.3 3.34 -32 3 C-32 2.67 -32 2.34 -32 2 C-28.54449819 1.45914279 -25.08538186 0.94611839 -21.625 0.4375 C-20.65949219 0.28603516 -19.69398438 0.13457031 -18.69921875 -0.02148438 C-12.25398969 -0.95150065 -6.44075624 -0.97504174 0 0 Z " fill="#4E4E4E" transform="translate(263,100)"/>
<path d="M0 0 C-0.33 0.99 -0.66 1.98 -1 3 C-1.66 3 -2.32 3 -3 3 C-3 3.66 -3 4.32 -3 5 C-10.0547046 9.07877462 -10.0547046 9.07877462 -14 8.75 C-14.66 8.5025 -15.32 8.255 -16 8 C-15.07349738 4.57194031 -14.33885367 3.23397039 -11.375 1.1875 C-7.26791982 -0.25758377 -4.32694386 -0.22380744 0 0 Z " fill="#303030" transform="translate(221,107)"/>
<path d="M0 0 C5.875 0.875 5.875 0.875 7 2 C7.1875 4.9375 7.1875 4.9375 7 8 C5 10 5 10 2.5 10.25 C0 10 0 10 -2 8 C-2.125 4.875 -2.125 4.875 -2 2 C-1.34 2 -0.68 2 0 2 C0 1.34 0 0.68 0 0 Z " fill="#4F4F4F" transform="translate(365,171)"/>
<path d="M0 0 C1.875 0.3125 1.875 0.3125 4 1 C4.66 1.99 5.32 2.98 6 4 C5.125 6.6875 5.125 6.6875 4 9 C0.7 8.67 -2.6 8.34 -6 8 C-5.67 6.35 -5.34 4.7 -5 3 C-3.35 2.67 -1.7 2.34 0 2 C0 1.34 0 0.68 0 0 Z " fill="#1A1A1A" transform="translate(223,358)"/>
<path d="M0 0 C5.445 1.485 5.445 1.485 11 3 C10.67 3.99 10.34 4.98 10 6 C8.35 6.33 6.7 6.66 5 7 C5.33 8.32 5.66 9.64 6 11 C3.36 10.67 0.72 10.34 -2 10 C-1.01 9.67 -0.02 9.34 1 9 C1 8.21625 1 7.4325 1 6.625 C1 5.08333333 1 3.54166667 1 2 C0.67 1.34 0.34 0.68 0 0 Z " fill="#373737" transform="translate(226,358)"/>
<path d="M0 0 C2 0.875 2 0.875 3.25 3.4375 C3.4975 4.241875 3.745 5.04625 4 5.875 C2.8125 7.4375 2.8125 7.4375 1 8.875 C-1.6875 8.5625 -1.6875 8.5625 -4 7.875 C-4.93423645 4.86468256 -5.04449911 4.00849732 -4 0.875 C-2 -0.125 -2 -0.125 0 0 Z " fill="#595959" transform="translate(377,199.125)"/>
<path d="M0 0 C-0.33 1.98 -0.66 3.96 -1 6 C-6.28 5.34 -11.56 4.68 -17 4 C-14.30023247 1.30023247 -12.24912044 1.3975544 -8.5 0.875 C-7.3346875 0.70742187 -6.169375 0.53984375 -4.96875 0.3671875 C-2 0 -2 0 0 0 Z " fill="#4A4A4A" transform="translate(235,234)"/>
<path d="M0 0 C1.65 0 3.3 0 5 0 C4.67 4.29 4.34 8.58 4 13 C3.01 13 2.02 13 1 13 C0.40667939 8.62426048 -0.13827236 4.42471556 0 0 Z " fill="#4C4C4C" transform="translate(263,272)"/>
<path d="M0 0 C2.0625 0.4375 2.0625 0.4375 4 1 C3.814375 1.598125 3.62875 2.19625 3.4375 2.8125 C2.77906313 5.16408762 2.77906313 5.16408762 4 8 C1.03 8.66 -1.94 9.32 -5 10 C-4.67 8.68 -4.34 7.36 -4 6 C-3.34 6 -2.68 6 -2 6 C-1.855625 5.195625 -1.71125 4.39125 -1.5625 3.5625 C-1 1 -1 1 0 0 Z " fill="#343434" transform="translate(294,233)"/>
<path d="M0 0 C0 0.99 0 1.98 0 3 C0.1496644 4.39775858 0.31720487 5.7936871 0.5 7.1875 C0.665 8.445625 0.83 9.70375 1 11 C-0.65 10.67 -2.3 10.34 -4 10 C-4 10.66 -4 11.32 -4 12 C-4.99 12 -5.98 12 -7 12 C-5.44298069 7.32894208 -2.91552627 3.91294315 0 0 Z " fill="#2E2E2E" transform="translate(150,154)"/>
<path d="M0 0 C0.66 0.33 1.32 0.66 2 1 C2.4140625 3.94140625 2.4140625 3.94140625 2.625 7.5625 C2.69976562 8.76003906 2.77453125 9.95757812 2.8515625 11.19140625 C2.90054687 12.11824219 2.94953125 13.04507813 3 14 C1.68 14 0.36 14 -1 14 C-1.94602608 10.9148254 -2.01578237 8.50740993 -1.625 5.3125 C-1.53476562 4.52488281 -1.44453125 3.73726562 -1.3515625 2.92578125 C-1 1 -1 1 0 0 Z " fill="#5E5E5E" transform="translate(265,188)"/>
<path d="M0 0 C-0.165 0.763125 -0.33 1.52625 -0.5 2.3125 C-1.09145396 5.03596236 -1.09145396 5.03596236 -1 8 C-2.65 8.66 -4.3 9.32 -6 10 C-6 8.02 -6 6.04 -6 4 C-6.66 3.67 -7.32 3.34 -8 3 C-2.25 0 -2.25 0 0 0 Z " fill="#4B4B4B" transform="translate(207,110)"/>
<path d="M0 0 C-1.26540052 3.79620155 -2.78218431 4.48678188 -6.0625 6.6875 C-6.98160156 7.31011719 -7.90070313 7.93273437 -8.84765625 8.57421875 C-9.91306641 9.27998047 -9.91306641 9.27998047 -11 10 C-12.32 9.34 -13.64 8.68 -15 8 C-12.8782637 6.66121428 -10.75294812 5.32884524 -8.625 4 C-8.02171875 3.6184375 -7.4184375 3.236875 -6.796875 2.84375 C-2.2265625 0 -2.2265625 0 0 0 Z " fill="#8A8A8A" transform="translate(342,342)"/>
<path d="M0 0 C0.33 1.32 0.66 2.64 1 4 C-2.21451269 5.60725635 -5.43612536 5.05748185 -9 5 C-9 4.01 -9 3.02 -9 2 C-5.62902617 0.50178941 -3.79557881 0 0 0 Z " fill="#0E0E0E" transform="translate(276,366)"/>
<path d="M0 0 C1.65 0.33 3.3 0.66 5 1 C5 1.99 5 2.98 5 4 C4.01 4.33 3.02 4.66 2 5 C2 5.99 2 6.98 2 8 C0.68 8 -0.64 8 -2 8 C-2 6.02 -2 4.04 -2 2 C-1.34 2 -0.68 2 0 2 C0 1.34 0 0.68 0 0 Z " fill="#393939" transform="translate(365,171)"/>
<path d="M0 0 C0 0.66 0 1.32 0 2 C-5.94 2.495 -5.94 2.495 -12 3 C-12 2.67 -12 2.34 -12 2 C-14.31 1.67 -16.62 1.34 -19 1 C-19 0.67 -19 0.34 -19 0 C-12.42150508 -0.95494281 -6.58183362 -0.8931507 0 0 Z " fill="#979797" transform="translate(263,100)"/>
<path d="M0 0 C0 0.66 0 1.32 0 2 C-4.95 4.475 -4.95 4.475 -10 7 C-10 6.34 -10 5.68 -10 5 C-10.66 4.67 -11.32 4.34 -12 4 C-10.56570999 3.32645501 -9.12742943 2.66140299 -7.6875 2 C-6.88699219 1.62875 -6.08648437 1.2575 -5.26171875 0.875 C-3 0 -3 0 0 0 Z " fill="#646464" transform="translate(329,351)"/>
<path d="M0 0 C2.66666667 2.66666667 5.33333333 5.33333333 8 8 C6.02 8.33 4.04 8.66 2 9 C1.34 7.68 0.68 6.36 0 5 C-0.99 5.495 -0.99 5.495 -2 6 C-1.49396008 3.83125748 -1.00016187 2.00032373 0 0 Z " fill="#353535" transform="translate(276,220)"/>
<path d="M0 0 C0.66 0 1.32 0 2 0 C1.25 4.75 1.25 4.75 -1 7 C-3.625 6.625 -3.625 6.625 -6 6 C-4 4 -2 2 0 0 Z " fill="#424242" transform="translate(176,127)"/>
<path d="M0 0 C0.33 0.99 0.66 1.98 1 3 C-2.13498292 4.85776765 -4.37471432 5.20140476 -8 5 C-8.33 4.34 -8.66 3.68 -9 3 C-5.81237635 0.87491756 -3.73487777 0.4979837 0 0 Z " fill="#1F1F1F" transform="translate(310,359)"/>
<path d="M0 0 C1.32 0 2.64 0 4 0 C5 3 5 3 4 6 C1.9375 6.6875 1.9375 6.6875 0 7 C-0.93423645 3.98968256 -1.04449911 3.13349732 0 0 Z " fill="#2F2F2F" transform="translate(373,200)"/>
<path d="M0 0 C0.99 0.33 1.98 0.66 3 1 C3 2.65 3 4.3 3 6 C1.35 6 -0.3 6 -2 6 C-2.33 5.01 -2.66 4.02 -3 3 C-2.01 2.01 -1.02 1.02 0 0 Z " fill="#434343" transform="translate(377,226)"/>
<path d="M0 0 C0.66 0.33 1.32 0.66 2 1 C0.3125 4 0.3125 4 -2 7 C-4.75 7.375 -4.75 7.375 -7 7 C-5.55609075 3.19333016 -3.65047197 1.73397418 0 0 Z " fill="#424242" transform="translate(186,120)"/>
<path d="M0 0 C0.33 0.66 0.66 1.32 1 2 C1.99 2.33 2.98 2.66 4 3 C4 4.32 4 5.64 4 7 C2.35 7.33 0.7 7.66 -1 8 C-0.67 5.36 -0.34 2.72 0 0 Z " fill="#070707" transform="translate(264,199)"/>
<path d="M0 0 C-0.66 0.66 -1.32 1.32 -2 2 C-1.34 2.66 -0.68 3.32 0 4 C-1.6875 4.75 -1.6875 4.75 -4 5 C-6.75 3.0625 -6.75 3.0625 -9 1 C-2.25 -1.125 -2.25 -1.125 0 0 Z " fill="#646464" transform="translate(304,361)"/>
<path d="M0 0 C0.33 0.66 0.66 1.32 1 2 C-2.9813783 3.3271261 -6.85045227 3.06915913 -11 3 C-10 1 -10 1 -8.3125 0.375 C-5.51555886 -0.07855802 -2.82858003 -0.06428591 0 0 Z " fill="#616161" transform="translate(312,236)"/>
<path d="M0 0 C0.66 1.32 1.32 2.64 2 4 C2.66 4 3.32 4 4 4 C3.67 4.99 3.34 5.98 3 7 C0.03 5.35 -2.94 3.7 -6 2 C-6 1.67 -6 1.34 -6 1 C-4.02 0.67 -2.04 0.34 0 0 Z " fill="#474747" transform="translate(245,241)"/>
<path d="M0 0 C1.5 1.1875 1.5 1.1875 3 3 C3.1875 5.6875 3.1875 5.6875 3 8 C2.01 8 1.02 8 0 8 C-0.79953138 4.71303767 -1.09658936 3.28976808 0 0 Z " fill="#767676" transform="translate(264,277)"/>
<path d="M0 0 C0.66 0.99 1.32 1.98 2 3 C1.34 3.66 0.68 4.32 0 5 C0 5.99 0 6.98 0 8 C-1.98 8.99 -1.98 8.99 -4 10 C-2.8905928 6.51329166 -1.73662334 3.22515763 0 0 Z " fill="#4E4E4E" transform="translate(139,171)"/>
<path d="M0 0 C0 0.66 0 1.32 0 2 C0.66 2.33 1.32 2.66 2 3 C0.1875 4.0625 0.1875 4.0625 -2 5 C-2.99 4.67 -3.98 4.34 -5 4 C-4.34 4 -3.68 4 -3 4 C-3 3.34 -3 2.68 -3 2 C-3.99 1.34 -4.98 0.68 -6 0 C-3 -1 -3 -1 0 0 Z " fill="#515151" transform="translate(223,106)"/>
<path d="M0 0 C0.99 0.33 1.98 0.66 3 1 C2.67 1.99 2.34 2.98 2 4 C1.01 3.67 0.02 3.34 -1 3 C-1.33 4.32 -1.66 5.64 -2 7 C-3.32 7.33 -4.64 7.66 -6 8 C-4.02 5.36 -2.04 2.72 0 0 Z " fill="#414141" transform="translate(256,218)"/>
<path d="M0 0 C2.475 0.495 2.475 0.495 5 1 C5 1.99 5 2.98 5 4 C4.01 4 3.02 4 2 4 C1.67 5.32 1.34 6.64 1 8 C0.67 5.36 0.34 2.72 0 0 Z " fill="#0A0A0A" transform="translate(263,268)"/>
<path d="M0 0 C1.32 0.33 2.64 0.66 4 1 C2.515 3.475 2.515 3.475 1 6 C0.01 5.67 -0.98 5.34 -2 5 C-1.34 3.35 -0.68 1.7 0 0 Z " fill="#080808" transform="translate(207,110)"/>
<path d="M0 0 C3.3 0 6.6 0 10 0 C10 0.33 10 0.66 10 1 C8.35 1 6.7 1 5 1 C5 1.66 5 2.32 5 3 C3.68 3 2.36 3 1 3 C0.67 2.01 0.34 1.02 0 0 Z " fill="#242424" transform="translate(231,103)"/>
<path d="M0 0 C1.65 1.65 3.3 3.3 5 5 C3.68 5.33 2.36 5.66 1 6 C0.67 5.01 0.34 4.02 0 3 C-0.66 2.67 -1.32 2.34 -2 2 C-1.34 2 -0.68 2 0 2 C0 1.34 0 0.68 0 0 Z " fill="#393939" transform="translate(166,314)"/>
<path d="M0 0 C0.99 0.33 1.98 0.66 3 1 C2.01 1.495 2.01 1.495 1 2 C1.33 3.65 1.66 5.3 2 7 C1.01 6.67 0.02 6.34 -1 6 C-1.042721 4.33388095 -1.04063832 2.66617115 -1 1 C-0.67 0.67 -0.34 0.34 0 0 Z " fill="#090909" transform="translate(132,276)"/>
<path d="M0 0 C1.98 0.66 3.96 1.32 6 2 C6 3.65 6 5.3 6 7 C1.125 2.25 1.125 2.25 0 0 Z " fill="#6E6E6E" transform="translate(251,250)"/>
<path d="M0 0 C1.65 0 3.3 0 5 0 C5 0.99 5 1.98 5 3 C3.68 3.33 2.36 3.66 1 4 C0.67 2.68 0.34 1.36 0 0 Z " fill="#373737" transform="translate(283,242)"/>
</svg>
