<?xml version="1.0" encoding="UTF-8"?>
<!DOCTYPE svg PUBLIC "-//W3C//DTD SVG 1.1//EN" "http://www.w3.org/Graphics/SVG/1.1/DTD/svg11.dtd">
<svg xmlns="http://www.w3.org/2000/svg" version="1.1" width="500px" height="500px" style="shape-rendering:geometricPrecision; text-rendering:geometricPrecision; image-rendering:optimizeQuality; fill-rule:evenodd; clip-rule:evenodd" xmlns:xlink="http://www.w3.org/1999/xlink">
<g><path style="opacity:1" fill="#464646" d="M 257.5,133.5 C 257.5,133.833 257.5,134.167 257.5,134.5C 255.167,134.5 252.833,134.5 250.5,134.5C 250.5,135.5 250.5,136.5 250.5,137.5C 246.5,137.5 242.5,137.5 238.5,137.5C 237.789,135.799 236.455,134.799 234.5,134.5C 234.5,134.167 234.5,133.833 234.5,133.5C 242.174,132.207 249.841,132.207 257.5,133.5 Z"/></g>
<g><path style="opacity:1" fill="#dadada" d="M 257.5,134.5 C 257.5,134.167 257.5,133.833 257.5,133.5C 260.518,133.335 263.518,133.502 266.5,134C 267.416,134.278 268.082,134.778 268.5,135.5C 267.5,135.5 266.5,135.5 265.5,135.5C 263.052,134.527 260.385,134.194 257.5,134.5 Z"/></g>
<g><path style="opacity:1" fill="#afafaf" d="M 234.5,133.5 C 234.5,133.833 234.5,134.167 234.5,134.5C 231.794,134.575 229.127,134.908 226.5,135.5C 225.833,135.5 225.167,135.5 224.5,135.5C 227.507,133.825 230.84,133.159 234.5,133.5 Z"/></g>
<g><path style="opacity:1" fill="#1e1e1e" d="M 257.5,134.5 C 257.218,135.778 256.551,136.778 255.5,137.5C 253.833,137.5 252.167,137.5 250.5,137.5C 250.5,136.5 250.5,135.5 250.5,134.5C 252.833,134.5 255.167,134.5 257.5,134.5 Z"/></g>
<g><path style="opacity:1" fill="#4c4c4c" d="M 257.5,134.5 C 260.385,134.194 263.052,134.527 265.5,135.5C 259.19,136.547 259.19,137.88 265.5,139.5C 262.615,139.806 259.948,139.473 257.5,138.5C 257.158,137.662 256.492,137.328 255.5,137.5C 256.551,136.778 257.218,135.778 257.5,134.5 Z"/></g>
<g><path style="opacity:1" fill="#202020" d="M 234.5,134.5 C 236.455,134.799 237.789,135.799 238.5,137.5C 235.455,137.508 232.455,137.841 229.5,138.5C 228.306,137.728 227.306,136.728 226.5,135.5C 229.127,134.908 231.794,134.575 234.5,134.5 Z"/></g>
<g><path style="opacity:1" fill="#d0d0d0" d="M 269.5,135.5 C 272.228,135.171 274.562,135.837 276.5,137.5C 273.933,137.279 271.599,136.612 269.5,135.5 Z"/></g>
<g><path style="opacity:1" fill="#828282" d="M 224.5,135.5 C 224.5,136.167 224.167,136.5 223.5,136.5C 221.565,137.15 219.565,137.483 217.5,137.5C 219.438,135.837 221.772,135.171 224.5,135.5 Z"/></g>
<g><path style="opacity:1" fill="#2b2b2b" d="M 223.5,136.5 C 223.389,137.117 223.056,137.617 222.5,138C 223.416,138.278 224.082,138.778 224.5,139.5C 223.005,139.989 221.671,140.655 220.5,141.5C 220.167,141.5 219.833,141.5 219.5,141.5C 218.041,141.433 216.708,141.766 215.5,142.5C 215.539,141.417 215.873,140.417 216.5,139.5C 215.675,138.614 214.675,138.281 213.5,138.5C 214.568,137.566 215.901,137.232 217.5,137.5C 219.565,137.483 221.565,137.15 223.5,136.5 Z"/></g>
<g><path style="opacity:1" fill="#272727" d="M 224.5,135.5 C 225.167,135.5 225.833,135.5 226.5,135.5C 227.306,136.728 228.306,137.728 229.5,138.5C 228.833,138.5 228.5,138.833 228.5,139.5C 227.167,139.5 225.833,139.5 224.5,139.5C 224.082,138.778 223.416,138.278 222.5,138C 223.056,137.617 223.389,137.117 223.5,136.5C 224.167,136.5 224.5,136.167 224.5,135.5 Z"/></g>
<g><path style="opacity:1" fill="#2d2d2d" d="M 268.5,135.5 C 268.833,135.5 269.167,135.5 269.5,135.5C 271.599,136.612 273.933,137.279 276.5,137.5C 276.833,137.5 277.167,137.5 277.5,137.5C 277.5,137.833 277.5,138.167 277.5,138.5C 275.435,138.517 273.435,138.85 271.5,139.5C 269.771,138.764 268.771,137.43 268.5,135.5 Z"/></g>
<g><path style="opacity:1" fill="#c8c8c8" d="M 238.5,137.5 C 242.5,137.5 246.5,137.5 250.5,137.5C 252.167,137.5 253.833,137.5 255.5,137.5C 256.492,137.328 257.158,137.662 257.5,138.5C 247.812,138.38 238.146,138.713 228.5,139.5C 228.5,138.833 228.833,138.5 229.5,138.5C 232.455,137.841 235.455,137.508 238.5,137.5 Z"/></g>
<g><path style="opacity:1" fill="#444444" d="M 265.5,135.5 C 266.5,135.5 267.5,135.5 268.5,135.5C 268.771,137.43 269.771,138.764 271.5,139.5C 272.167,140.167 272.833,140.833 273.5,141.5C 270.572,141.435 267.905,140.768 265.5,139.5C 259.19,137.88 259.19,136.547 265.5,135.5 Z"/></g>
<g><path style="opacity:1" fill="#1d1d1d" d="M 277.5,138.5 C 278.376,138.369 279.043,138.702 279.5,139.5C 279.154,140.696 278.654,140.696 278,139.5C 277.536,140.094 277.369,140.761 277.5,141.5C 276.167,141.5 274.833,141.5 273.5,141.5C 272.833,140.833 272.167,140.167 271.5,139.5C 273.435,138.85 275.435,138.517 277.5,138.5 Z"/></g>
<g><path style="opacity:1" fill="#494949" d="M 277.5,138.5 C 277.5,138.167 277.5,137.833 277.5,137.5C 279.786,137.595 281.786,138.262 283.5,139.5C 283.5,139.833 283.5,140.167 283.5,140.5C 283.833,141.833 284.167,143.167 284.5,144.5C 283.167,144.167 281.833,143.833 280.5,143.5C 280.167,143.5 279.833,143.5 279.5,143.5C 278.833,142.833 278.167,142.167 277.5,141.5C 277.369,140.761 277.536,140.094 278,139.5C 278.654,140.696 279.154,140.696 279.5,139.5C 279.043,138.702 278.376,138.369 277.5,138.5 Z"/></g>
<g><path style="opacity:1" fill="#9d9d9d" d="M 210.5,139.5 C 207.198,141.723 203.532,143.39 199.5,144.5C 202.48,141.513 206.147,139.846 210.5,139.5 Z"/></g>
<g><path style="opacity:1" fill="#202020" d="M 213.5,138.5 C 214.675,138.281 215.675,138.614 216.5,139.5C 215.873,140.417 215.539,141.417 215.5,142.5C 214.508,142.328 213.842,142.662 213.5,143.5C 212.5,143.5 211.5,143.5 210.5,143.5C 211.248,141.668 212.248,140.001 213.5,138.5 Z"/></g>
<g><path style="opacity:1" fill="#e4e4e4" d="M 224.5,139.5 C 225.833,139.5 227.167,139.5 228.5,139.5C 226.095,140.768 223.428,141.435 220.5,141.5C 221.671,140.655 223.005,139.989 224.5,139.5 Z"/></g>
<g><path style="opacity:1" fill="#e4e4e4" d="M 283.5,140.5 C 283.5,140.167 283.5,139.833 283.5,139.5C 286.346,139.552 288.68,140.552 290.5,142.5C 289.391,142.443 288.391,142.11 287.5,141.5C 286.167,141.167 284.833,140.833 283.5,140.5 Z"/></g>
<g><path style="opacity:1" fill="#dfdfdf" d="M 312.5,140.5 C 315.01,140.054 317.01,140.72 318.5,142.5C 318.167,142.5 317.833,142.5 317.5,142.5C 317.167,142.5 316.833,142.5 316.5,142.5C 315.167,141.833 313.833,141.167 312.5,140.5 Z"/></g>
<g><path style="opacity:1" fill="#b8b8b8" d="M 273.5,141.5 C 274.833,141.5 276.167,141.5 277.5,141.5C 278.167,142.167 278.833,142.833 279.5,143.5C 277.214,143.405 275.214,142.738 273.5,141.5 Z"/></g>
<g><path style="opacity:1" fill="#1e1e1e" d="M 283.5,140.5 C 284.833,140.833 286.167,141.167 287.5,141.5C 288.354,143.035 288.354,144.368 287.5,145.5C 286.833,145.5 286.167,145.5 285.5,145.5C 285.5,144.833 285.167,144.5 284.5,144.5C 284.167,143.167 283.833,141.833 283.5,140.5 Z"/></g>
<g><path style="opacity:1" fill="#cdcdcd" d="M 305.5,140.5 C 305.5,140.833 305.5,141.167 305.5,141.5C 304.167,141.833 302.833,142.167 301.5,142.5C 302.287,140.896 303.62,140.229 305.5,140.5 Z"/></g>
<g><path style="opacity:1" fill="#313131" d="M 213.5,138.5 C 212.248,140.001 211.248,141.668 210.5,143.5C 209.833,144.167 209.167,144.833 208.5,145.5C 206.847,145.66 205.514,146.326 204.5,147.5C 203.833,147.5 203.167,147.5 202.5,147.5C 201.329,146.655 199.995,145.989 198.5,145.5C 198.5,145.167 198.5,144.833 198.5,144.5C 198.833,144.5 199.167,144.5 199.5,144.5C 203.532,143.39 207.198,141.723 210.5,139.5C 211.209,138.596 212.209,138.263 213.5,138.5 Z"/></g>
<g><path style="opacity:1" fill="#dcdcdc" d="M 219.5,141.5 C 217.898,143.074 215.898,143.741 213.5,143.5C 213.842,142.662 214.508,142.328 215.5,142.5C 216.708,141.766 218.041,141.433 219.5,141.5 Z"/></g>
<g><path style="opacity:1" fill="#454545" d="M 305.5,141.5 C 305.5,142.5 305.5,143.5 305.5,144.5C 308.059,144.198 310.393,144.532 312.5,145.5C 310.5,145.5 308.5,145.5 306.5,145.5C 305.5,145.5 304.5,145.5 303.5,145.5C 301.733,144.35 300.567,145.017 300,147.5C 299.722,146.584 299.222,145.918 298.5,145.5C 299.694,144.728 300.694,143.728 301.5,142.5C 302.833,142.167 304.167,141.833 305.5,141.5 Z"/></g>
<g><path style="opacity:1" fill="#515151" d="M 312.5,140.5 C 313.833,141.167 315.167,141.833 316.5,142.5C 314.94,142.519 313.44,142.852 312,143.5C 309.953,142.391 307.787,141.724 305.5,141.5C 305.5,141.167 305.5,140.833 305.5,140.5C 307.979,139.377 310.312,139.377 312.5,140.5 Z"/></g>
<g><path style="opacity:1" fill="#202020" d="M 305.5,141.5 C 307.787,141.724 309.953,142.391 312,143.5C 313.44,142.852 314.94,142.519 316.5,142.5C 316.833,142.5 317.167,142.5 317.5,142.5C 316.402,143.397 316.402,144.23 317.5,145C 316.906,145.464 316.239,145.631 315.5,145.5C 314.5,145.5 313.5,145.5 312.5,145.5C 310.393,144.532 308.059,144.198 305.5,144.5C 305.5,143.5 305.5,142.5 305.5,141.5 Z"/></g>
<g><path style="opacity:1" fill="#e3e3e3" d="M 318.5,142.5 C 319.833,142.5 320.5,143.167 320.5,144.5C 319.5,144.167 318.833,143.5 318.5,142.5 Z"/></g>
<g><path style="opacity:1" fill="#e5e5e5" d="M 301.5,142.5 C 300.694,143.728 299.694,144.728 298.5,145.5C 298.167,145.5 297.833,145.5 297.5,145.5C 298.035,143.554 299.368,142.554 301.5,142.5 Z"/></g>
<g><path style="opacity:1" fill="#dedede" d="M 210.5,143.5 C 211.5,143.5 212.5,143.5 213.5,143.5C 212.365,145.213 210.698,145.88 208.5,145.5C 209.167,144.833 209.833,144.167 210.5,143.5 Z"/></g>
<g><path style="opacity:1" fill="#d6d6d6" d="M 280.5,143.5 C 281.833,143.833 283.167,144.167 284.5,144.5C 285.167,144.5 285.5,144.833 285.5,145.5C 283.302,145.88 281.635,145.213 280.5,143.5 Z"/></g>
<g><path style="opacity:1" fill="#434343" d="M 287.5,141.5 C 288.391,142.11 289.391,142.443 290.5,142.5C 292.153,142.66 293.486,143.326 294.5,144.5C 292.856,144.81 291.856,145.81 291.5,147.5C 290.833,147.5 290.167,147.5 289.5,147.5C 288.833,146.833 288.167,146.167 287.5,145.5C 288.354,144.368 288.354,143.035 287.5,141.5 Z"/></g>
<g><path style="opacity:1" fill="#323232" d="M 317.5,142.5 C 317.833,142.5 318.167,142.5 318.5,142.5C 318.833,143.5 319.5,144.167 320.5,144.5C 320.833,145.167 321.167,145.833 321.5,146.5C 320.5,146.833 319.833,147.5 319.5,148.5C 319.167,148.5 318.833,148.5 318.5,148.5C 317.833,148.5 317.5,148.167 317.5,147.5C 316.833,146.833 316.167,146.167 315.5,145.5C 316.239,145.631 316.906,145.464 317.5,145C 316.402,144.23 316.402,143.397 317.5,142.5 Z"/></g>
<g><path style="opacity:1" fill="#d3d3d3" d="M 320.5,144.5 C 321.833,144.5 322.5,145.167 322.5,146.5C 322.167,146.5 321.833,146.5 321.5,146.5C 321.167,145.833 320.833,145.167 320.5,144.5 Z"/></g>
<g><path style="opacity:1" fill="#c1c1c1" d="M 198.5,144.5 C 198.5,144.833 198.5,145.167 198.5,145.5C 197.609,146.11 196.609,146.443 195.5,146.5C 195.973,145.094 196.973,144.427 198.5,144.5 Z"/></g>
<g><path style="opacity:1" fill="#313131" d="M 294.5,144.5 C 295.492,144.328 296.158,144.662 296.5,145.5C 296.918,146.222 297.584,146.722 298.5,147C 297.829,147.986 297.829,149.153 298.5,150.5C 298.5,151.167 298.167,151.5 297.5,151.5C 296.798,150.884 295.798,150.884 294.5,151.5C 294.672,150.508 294.338,149.842 293.5,149.5C 292.833,148.833 292.167,148.167 291.5,147.5C 291.856,145.81 292.856,144.81 294.5,144.5 Z"/></g>
<g><path style="opacity:1" fill="#454545" d="M 303.5,145.5 C 303.167,146.167 302.833,146.833 302.5,147.5C 301.833,148.833 300.833,149.833 299.5,150.5C 299.167,150.5 298.833,150.5 298.5,150.5C 297.829,149.153 297.829,147.986 298.5,147C 297.584,146.722 296.918,146.222 296.5,145.5C 296.833,145.5 297.167,145.5 297.5,145.5C 297.833,145.5 298.167,145.5 298.5,145.5C 299.222,145.918 299.722,146.584 300,147.5C 300.567,145.017 301.733,144.35 303.5,145.5 Z"/></g>
<g><path style="opacity:1" fill="#efefef" d="M 208.5,145.5 C 207.713,147.104 206.38,147.771 204.5,147.5C 205.514,146.326 206.847,145.66 208.5,145.5 Z"/></g>
<g><path style="opacity:1" fill="#e1e1e1" d="M 285.5,145.5 C 286.167,145.5 286.833,145.5 287.5,145.5C 288.167,146.167 288.833,146.833 289.5,147.5C 287.62,147.771 286.287,147.104 285.5,145.5 Z"/></g>
<g><path style="opacity:1" fill="#dedede" d="M 303.5,145.5 C 304.5,145.5 305.5,145.5 306.5,145.5C 305.486,146.674 304.153,147.34 302.5,147.5C 302.833,146.833 303.167,146.167 303.5,145.5 Z"/></g>
<g><path style="opacity:1" fill="#e3e3e3" d="M 312.5,145.5 C 313.5,145.5 314.5,145.5 315.5,145.5C 316.167,146.167 316.833,146.833 317.5,147.5C 315.447,147.598 313.78,146.931 312.5,145.5 Z"/></g>
<g><path style="opacity:1" fill="#252525" d="M 198.5,145.5 C 199.995,145.989 201.329,146.655 202.5,147.5C 201.5,147.833 200.833,148.5 200.5,149.5C 199.041,149.433 197.708,149.766 196.5,150.5C 195.833,150.167 195.167,149.833 194.5,149.5C 194.557,148.391 194.89,147.391 195.5,146.5C 196.609,146.443 197.609,146.11 198.5,145.5 Z"/></g>
<g><path style="opacity:1" fill="#828282" d="M 195.5,146.5 C 194.89,147.391 194.557,148.391 194.5,149.5C 192.435,149.517 190.435,149.85 188.5,150.5C 190.336,148.412 192.669,147.079 195.5,146.5 Z"/></g>
<g><path style="opacity:1" fill="#e6e6e6" d="M 202.5,147.5 C 203.167,147.5 203.833,147.5 204.5,147.5C 203.486,148.674 202.153,149.34 200.5,149.5C 200.833,148.5 201.5,147.833 202.5,147.5 Z"/></g>
<g><path style="opacity:1" fill="#ebebeb" d="M 289.5,147.5 C 290.167,147.5 290.833,147.5 291.5,147.5C 292.167,148.167 292.833,148.833 293.5,149.5C 291.62,149.771 290.287,149.104 289.5,147.5 Z"/></g>
<g><path style="opacity:1" fill="#1e1e1e" d="M 321.5,146.5 C 321.833,146.5 322.167,146.5 322.5,146.5C 322.733,148.062 323.4,149.395 324.5,150.5C 324.5,152.5 323.5,153.5 321.5,153.5C 321.107,151.716 320.441,150.05 319.5,148.5C 319.833,147.5 320.5,146.833 321.5,146.5 Z"/></g>
<g><path style="opacity:1" fill="#a5a5a5" d="M 322.5,146.5 C 324.262,147.262 325.262,148.596 325.5,150.5C 325.167,150.5 324.833,150.5 324.5,150.5C 323.4,149.395 322.733,148.062 322.5,146.5 Z"/></g>
<g><path style="opacity:1" fill="#282828" d="M 194.5,149.5 C 195.167,149.833 195.833,150.167 196.5,150.5C 195.833,151.167 195.167,151.833 194.5,152.5C 192.973,152.427 191.973,153.094 191.5,154.5C 189.973,154.427 188.973,155.094 188.5,156.5C 188.167,156.5 187.833,156.5 187.5,156.5C 187.443,155.391 187.11,154.391 186.5,153.5C 187.167,152.5 187.833,151.5 188.5,150.5C 190.435,149.85 192.435,149.517 194.5,149.5 Z"/></g>
<g><path style="opacity:1" fill="#e2e2e2" d="M 200.5,149.5 C 198.97,151.346 196.97,152.346 194.5,152.5C 195.167,151.833 195.833,151.167 196.5,150.5C 197.708,149.766 199.041,149.433 200.5,149.5 Z"/></g>
<g><path style="opacity:1" fill="#e5e5e5" d="M 318.5,148.5 C 318.833,148.5 319.167,148.5 319.5,148.5C 320.441,150.05 321.107,151.716 321.5,153.5C 321.5,153.833 321.5,154.167 321.5,154.5C 319.992,152.819 318.992,150.819 318.5,148.5 Z"/></g>
<g><path style="opacity:1" fill="#c7c7c7" d="M 188.5,150.5 C 187.833,151.5 187.167,152.5 186.5,153.5C 184.147,154.34 182.147,155.674 180.5,157.5C 179.167,158.167 178.167,159.167 177.5,160.5C 176.391,160.557 175.391,160.89 174.5,161.5C 177.999,156.409 182.666,152.742 188.5,150.5 Z"/></g>
<g><path style="opacity:1" fill="#5e5e5e" d="M 324.5,150.5 C 324.833,150.5 325.167,150.5 325.5,150.5C 327.03,154.029 327.364,157.695 326.5,161.5C 326.167,161.5 325.833,161.5 325.5,161.5C 325.662,159.473 325.495,157.473 325,155.5C 323.97,157.346 322.804,159.013 321.5,160.5C 321.5,158.5 321.5,156.5 321.5,154.5C 321.5,154.167 321.5,153.833 321.5,153.5C 323.5,153.5 324.5,152.5 324.5,150.5 Z"/></g>
<g><path style="opacity:1" fill="#e6e6e6" d="M 194.5,152.5 C 194.027,153.906 193.027,154.573 191.5,154.5C 191.973,153.094 192.973,152.427 194.5,152.5 Z"/></g>
<g><path style="opacity:1" fill="#202020" d="M 297.5,151.5 C 297.326,153.861 296.993,156.194 296.5,158.5C 295.778,157.449 294.778,156.782 293.5,156.5C 293.629,154.784 293.962,153.117 294.5,151.5C 295.798,150.884 296.798,150.884 297.5,151.5 Z"/></g>
<g><path style="opacity:1" fill="#202020" d="M 186.5,153.5 C 187.11,154.391 187.443,155.391 187.5,156.5C 186.167,157.167 185.167,158.167 184.5,159.5C 183.153,158.829 181.986,158.829 181,159.5C 180.536,158.906 180.369,158.239 180.5,157.5C 182.147,155.674 184.147,154.34 186.5,153.5 Z"/></g>
<g><path style="opacity:1" fill="#e6e6e6" d="M 191.5,154.5 C 191.027,155.906 190.027,156.573 188.5,156.5C 188.973,155.094 189.973,154.427 191.5,154.5 Z"/></g>
<g><path style="opacity:1" fill="#cbcbcb" d="M 293.5,149.5 C 294.338,149.842 294.672,150.508 294.5,151.5C 293.962,153.117 293.629,154.784 293.5,156.5C 293.414,160.319 294.081,163.985 295.5,167.5C 294.034,166.653 293.2,165.32 293,163.5C 292.352,158.796 292.519,154.129 293.5,149.5 Z"/></g>
<g><path style="opacity:1" fill="#2a2a2a" d="M 293.5,156.5 C 294.778,156.782 295.778,157.449 296.5,158.5C 296.66,160.153 297.326,161.486 298.5,162.5C 299.338,162.842 299.672,163.508 299.5,164.5C 300.144,167.144 301.811,168.811 304.5,169.5C 304.179,171.048 303.179,171.715 301.5,171.5C 300.833,171.5 300.167,171.5 299.5,171.5C 299.167,170.5 298.5,169.833 297.5,169.5C 297.167,168.5 296.5,167.833 295.5,167.5C 294.081,163.985 293.414,160.319 293.5,156.5 Z"/></g>
<g><path style="opacity:1" fill="#b2b2b2" d="M 298.5,150.5 C 298.833,150.5 299.167,150.5 299.5,150.5C 297.822,154.463 297.489,158.463 298.5,162.5C 297.326,161.486 296.66,160.153 296.5,158.5C 296.993,156.194 297.326,153.861 297.5,151.5C 298.167,151.5 298.5,151.167 298.5,150.5 Z"/></g>
<g><path style="opacity:1" fill="#3e3e3e" d="M 180.5,157.5 C 180.369,158.239 180.536,158.906 181,159.5C 181.986,158.829 183.153,158.829 184.5,159.5C 184.5,160.167 184.167,160.5 183.5,160.5C 181.973,160.427 180.973,161.094 180.5,162.5C 180.5,163.167 180.167,163.5 179.5,163.5C 179.573,161.973 178.906,160.973 177.5,160.5C 178.167,159.167 179.167,158.167 180.5,157.5 Z"/></g>
<g><path style="opacity:1" fill="#e0e0e0" d="M 187.5,156.5 C 187.833,156.5 188.167,156.5 188.5,156.5C 187.738,158.262 186.404,159.262 184.5,159.5C 185.167,158.167 186.167,157.167 187.5,156.5 Z"/></g>
<g><path style="opacity:1" fill="#1f1f1f" d="M 325.5,161.5 C 325.167,162.833 324.833,164.167 324.5,165.5C 323.685,166.429 322.852,167.429 322,168.5C 319.848,166.723 320.015,165.223 322.5,164C 321.748,163.329 321.414,162.496 321.5,161.5C 321.5,161.167 321.5,160.833 321.5,160.5C 322.804,159.013 323.97,157.346 325,155.5C 325.495,157.473 325.662,159.473 325.5,161.5 Z"/></g>
<g><path style="opacity:1" fill="#e3e3e3" d="M 183.5,160.5 C 183.027,161.906 182.027,162.573 180.5,162.5C 180.973,161.094 181.973,160.427 183.5,160.5 Z"/></g>
<g><path style="opacity:1" fill="#e8e8e8" d="M 174.5,161.5 C 174.167,162.5 173.5,163.167 172.5,163.5C 172.5,162.167 173.167,161.5 174.5,161.5 Z"/></g>
<g><path style="opacity:1" fill="#222222" d="M 177.5,160.5 C 178.906,160.973 179.573,161.973 179.5,163.5C 175.147,163.179 172.481,165.179 171.5,169.5C 170.817,169.137 170.15,168.804 169.5,168.5C 169.5,168.167 169.5,167.833 169.5,167.5C 169.833,166.833 170.167,166.167 170.5,165.5C 171.5,165.167 172.167,164.5 172.5,163.5C 173.5,163.167 174.167,162.5 174.5,161.5C 175.391,160.89 176.391,160.557 177.5,160.5 Z"/></g>
<g><path style="opacity:1" fill="#e2e2e2" d="M 325.5,161.5 C 325.833,161.5 326.167,161.5 326.5,161.5C 326.483,163.565 326.15,165.565 325.5,167.5C 324.662,167.158 324.328,166.492 324.5,165.5C 324.833,164.167 325.167,162.833 325.5,161.5 Z"/></g>
<g><path style="opacity:1" fill="#e2e2e2" d="M 172.5,163.5 C 172.167,164.5 171.5,165.167 170.5,165.5C 170.5,164.167 171.167,163.5 172.5,163.5 Z"/></g>
<g><path style="opacity:1" fill="#5b5b5b" d="M 179.5,163.5 C 176.5,167.167 173.167,170.5 169.5,173.5C 168.167,171.833 168.167,170.167 169.5,168.5C 170.15,168.804 170.817,169.137 171.5,169.5C 172.481,165.179 175.147,163.179 179.5,163.5 Z"/></g>
<g><path style="opacity:1" fill="#e2e2e2" d="M 170.5,165.5 C 170.167,166.167 169.833,166.833 169.5,167.5C 168.833,167.833 168.167,168.167 167.5,168.5C 167.5,166.5 168.5,165.5 170.5,165.5 Z"/></g>
<g><path style="opacity:1" fill="#d7d7d7" d="M 319.5,165.5 C 319.167,166.167 318.833,166.833 318.5,167.5C 318.167,167.5 317.833,167.5 317.5,167.5C 317.5,166.167 318.167,165.5 319.5,165.5 Z"/></g>
<g><path style="opacity:1" fill="#3c3c3c" d="M 321.5,161.5 C 321.414,162.496 321.748,163.329 322.5,164C 320.015,165.223 319.848,166.723 322,168.5C 322.852,167.429 323.685,166.429 324.5,165.5C 324.328,166.492 324.662,167.158 325.5,167.5C 325.5,168.167 325.5,168.833 325.5,169.5C 325.662,170.592 325.328,171.925 324.5,173.5C 323.5,173.167 322.833,172.5 322.5,171.5C 322.5,171.167 322.5,170.833 322.5,170.5C 320.924,169.857 319.59,168.857 318.5,167.5C 318.833,166.833 319.167,166.167 319.5,165.5C 319.66,163.847 320.326,162.514 321.5,161.5 Z"/></g>
<g><path style="opacity:1" fill="#eeeeee" d="M 295.5,167.5 C 296.5,167.833 297.167,168.5 297.5,169.5C 296.167,169.5 295.5,168.833 295.5,167.5 Z"/></g>
<g><path style="opacity:1" fill="#cacaca" d="M 299.5,164.5 C 303.953,169.244 309.286,170.577 315.5,168.5C 315.167,169.167 314.833,169.833 314.5,170.5C 311.061,170.747 307.728,170.414 304.5,169.5C 301.811,168.811 300.144,167.144 299.5,164.5 Z"/></g>
<g><path style="opacity:1" fill="#4e4e4e" d="M 317.5,167.5 C 317.833,167.5 318.167,167.5 318.5,167.5C 319.59,168.857 320.924,169.857 322.5,170.5C 320.62,170.229 319.287,170.896 318.5,172.5C 318.158,173.338 317.492,173.672 316.5,173.5C 317.914,171.402 317.248,170.402 314.5,170.5C 314.833,169.833 315.167,169.167 315.5,168.5C 315.842,167.662 316.508,167.328 317.5,167.5 Z"/></g>
<g><path style="opacity:1" fill="#2a2a2a" d="M 169.5,167.5 C 169.5,167.833 169.5,168.167 169.5,168.5C 168.167,170.167 168.167,171.833 169.5,173.5C 169.5,174.167 169.167,174.5 168.5,174.5C 167.833,174.833 167.167,175.167 166.5,175.5C 165.209,175.737 164.209,175.404 163.5,174.5C 165.226,172.772 166.559,170.772 167.5,168.5C 168.167,168.167 168.833,167.833 169.5,167.5 Z"/></g>
<g><path style="opacity:1" fill="#e5e5e5" d="M 297.5,169.5 C 298.5,169.833 299.167,170.5 299.5,171.5C 298.167,171.5 297.5,170.833 297.5,169.5 Z"/></g>
<g><path style="opacity:1" fill="#2d2d2d" d="M 304.5,169.5 C 307.728,170.414 311.061,170.747 314.5,170.5C 317.248,170.402 317.914,171.402 316.5,173.5C 315.791,174.404 314.791,174.737 313.5,174.5C 309.802,174.448 306.135,174.114 302.5,173.5C 302.167,172.833 301.833,172.167 301.5,171.5C 303.179,171.715 304.179,171.048 304.5,169.5 Z"/></g>
<g><path style="opacity:1" fill="#bfbfbf" d="M 167.5,168.5 C 166.559,170.772 165.226,172.772 163.5,174.5C 162.833,174.833 162.167,175.167 161.5,175.5C 162.81,172.527 164.81,170.193 167.5,168.5 Z"/></g>
<g><path style="opacity:1" fill="#eaeaea" d="M 322.5,170.5 C 322.5,170.833 322.5,171.167 322.5,171.5C 321.167,171.833 319.833,172.167 318.5,172.5C 319.287,170.896 320.62,170.229 322.5,170.5 Z"/></g>
<g><path style="opacity:1" fill="#282828" d="M 325.5,169.5 C 327.5,171.167 329.5,172.833 331.5,174.5C 331.5,174.833 331.5,175.167 331.5,175.5C 330.175,176.953 329.342,176.619 329,174.5C 328.517,175.448 328.351,176.448 328.5,177.5C 328.167,177.5 327.833,177.5 327.5,177.5C 327.573,175.973 326.906,174.973 325.5,174.5C 324.833,174.5 324.5,174.167 324.5,173.5C 325.328,171.925 325.662,170.592 325.5,169.5 Z"/></g>
<g><path style="opacity:1" fill="#d0d0d0" d="M 299.5,171.5 C 300.167,171.5 300.833,171.5 301.5,171.5C 301.833,172.167 302.167,172.833 302.5,173.5C 300.973,173.573 299.973,172.906 299.5,171.5 Z"/></g>
<g><path style="opacity:1" fill="#c6c6c6" d="M 325.5,167.5 C 328.243,169.239 330.243,171.573 331.5,174.5C 329.5,172.833 327.5,171.167 325.5,169.5C 325.5,168.833 325.5,168.167 325.5,167.5 Z"/></g>
<g><path style="opacity:1" fill="#e2e2e2" d="M 302.5,173.5 C 306.135,174.114 309.802,174.448 313.5,174.5C 309.71,175.902 306.044,175.569 302.5,173.5 Z"/></g>
<g><path style="opacity:1" fill="#dddddd" d="M 168.5,174.5 C 168.573,176.027 167.906,177.027 166.5,177.5C 166.5,176.833 166.5,176.167 166.5,175.5C 167.167,175.167 167.833,174.833 168.5,174.5 Z"/></g>
<g><path style="opacity:1" fill="#d6d6d6" d="M 325.5,174.5 C 326.906,174.973 327.573,175.973 327.5,177.5C 326.094,177.027 325.427,176.027 325.5,174.5 Z"/></g>
<g><path style="opacity:1" fill="#a7a7a7" d="M 331.5,174.5 C 332.906,174.973 333.573,175.973 333.5,177.5C 332.5,177.167 331.833,176.5 331.5,175.5C 331.5,175.167 331.5,174.833 331.5,174.5 Z"/></g>
<g><path style="opacity:1" fill="#1d1d1d" d="M 331.5,175.5 C 331.833,176.5 332.5,177.167 333.5,177.5C 333.5,177.833 333.5,178.167 333.5,178.5C 332.71,179.401 331.71,180.068 330.5,180.5C 330.068,179.29 329.401,178.29 328.5,177.5C 328.351,176.448 328.517,175.448 329,174.5C 329.342,176.619 330.175,176.953 331.5,175.5 Z"/></g>
<g><path style="opacity:1" fill="#bebebe" d="M 161.5,175.5 C 161.573,177.027 160.906,178.027 159.5,178.5C 159.427,176.973 160.094,175.973 161.5,175.5 Z"/></g>
<g><path style="opacity:1" fill="#ebebeb" d="M 333.5,178.5 C 333.5,178.167 333.5,177.833 333.5,177.5C 334.833,177.5 335.5,178.167 335.5,179.5C 334.833,179.167 334.167,178.833 333.5,178.5 Z"/></g>
<g><path style="opacity:1" fill="#3b3b3b" d="M 163.5,174.5 C 164.209,175.404 165.209,175.737 166.5,175.5C 166.5,176.167 166.5,176.833 166.5,177.5C 165.396,179.389 164.063,181.055 162.5,182.5C 162.167,182.5 161.833,182.5 161.5,182.5C 160.5,182.167 159.833,181.5 159.5,180.5C 159.5,179.833 159.5,179.167 159.5,178.5C 160.906,178.027 161.573,177.027 161.5,175.5C 162.167,175.167 162.833,174.833 163.5,174.5 Z"/></g>
<g><path style="opacity:1" fill="#c5c5c5" d="M 327.5,177.5 C 327.833,177.5 328.167,177.5 328.5,177.5C 329.401,178.29 330.068,179.29 330.5,180.5C 330.5,180.833 330.5,181.167 330.5,181.5C 329.026,180.564 328.026,179.23 327.5,177.5 Z"/></g>
<g><path style="opacity:1" fill="#b6b6b6" d="M 159.5,178.5 C 159.5,179.167 159.5,179.833 159.5,180.5C 158.5,181.167 157.5,181.833 156.5,182.5C 156.738,180.596 157.738,179.262 159.5,178.5 Z"/></g>
<g><path style="opacity:1" fill="#2d2d2d" d="M 333.5,178.5 C 334.167,178.833 334.833,179.167 335.5,179.5C 335.427,181.027 336.094,182.027 337.5,182.5C 337.5,182.833 337.5,183.167 337.5,183.5C 336.167,183.5 334.833,183.5 333.5,183.5C 332.778,182.449 331.778,181.782 330.5,181.5C 330.5,181.167 330.5,180.833 330.5,180.5C 331.71,180.068 332.71,179.401 333.5,178.5 Z"/></g>
<g><path style="opacity:1" fill="#dfdfdf" d="M 335.5,179.5 C 336.906,179.973 337.573,180.973 337.5,182.5C 336.094,182.027 335.427,181.027 335.5,179.5 Z"/></g>
<g><path style="opacity:1" fill="#e1e1e1" d="M 161.5,182.5 C 161.833,182.5 162.167,182.5 162.5,182.5C 162.573,184.027 161.906,185.027 160.5,185.5C 160.557,184.391 160.89,183.391 161.5,182.5 Z"/></g>
<g><path style="opacity:1" fill="#c3c3c3" d="M 330.5,181.5 C 331.778,181.782 332.778,182.449 333.5,183.5C 333.5,184.167 333.5,184.833 333.5,185.5C 332.026,184.564 331.026,183.23 330.5,181.5 Z"/></g>
<g><path style="opacity:1" fill="#212121" d="M 333.5,183.5 C 334.833,183.5 336.167,183.5 337.5,183.5C 337.833,184.5 338.5,185.167 339.5,185.5C 339.923,187.781 339.256,189.448 337.5,190.5C 337.167,189.5 336.5,188.833 335.5,188.5C 335.573,186.973 334.906,185.973 333.5,185.5C 333.5,184.833 333.5,184.167 333.5,183.5 Z"/></g>
<g><path style="opacity:1" fill="#ebebeb" d="M 337.5,182.5 C 338.906,182.973 339.573,183.973 339.5,185.5C 338.5,185.167 337.833,184.5 337.5,183.5C 337.5,183.167 337.5,182.833 337.5,182.5 Z"/></g>
<g><path style="opacity:1" fill="#dedede" d="M 156.5,182.5 C 156.573,184.027 155.906,185.027 154.5,185.5C 154.427,183.973 155.094,182.973 156.5,182.5 Z"/></g>
<g><path style="opacity:1" fill="#2c2c2c" d="M 159.5,180.5 C 159.833,181.5 160.5,182.167 161.5,182.5C 160.89,183.391 160.557,184.391 160.5,185.5C 159.094,185.973 158.427,186.973 158.5,188.5C 157.29,188.932 156.29,189.599 155.5,190.5C 154.21,191.058 153.377,192.058 153,193.5C 152.617,192.944 152.117,192.611 151.5,192.5C 152.11,191.609 152.443,190.609 152.5,189.5C 152.66,187.847 153.326,186.514 154.5,185.5C 155.906,185.027 156.573,184.027 156.5,182.5C 157.5,181.833 158.5,181.167 159.5,180.5 Z"/></g>
<g><path style="opacity:1" fill="#dddddd" d="M 160.5,185.5 C 160.573,187.027 159.906,188.027 158.5,188.5C 158.427,186.973 159.094,185.973 160.5,185.5 Z"/></g>
<g><path style="opacity:1" fill="#d3d3d3" d="M 333.5,185.5 C 334.906,185.973 335.573,186.973 335.5,188.5C 334.094,188.027 333.427,187.027 333.5,185.5 Z"/></g>
<g><path style="opacity:1" fill="#d1d1d1" d="M 335.5,188.5 C 336.5,188.833 337.167,189.5 337.5,190.5C 339.391,193.614 340.724,196.948 341.5,200.5C 338.992,196.818 336.992,192.818 335.5,188.5 Z"/></g>
<g><path style="opacity:1" fill="#c9c9c9" d="M 152.5,189.5 C 152.443,190.609 152.11,191.609 151.5,192.5C 151.167,192.5 150.833,192.5 150.5,192.5C 150.427,190.973 151.094,189.973 152.5,189.5 Z"/></g>
<g><path style="opacity:1" fill="#222222" d="M 155.5,190.5 C 155.371,192.216 155.038,193.883 154.5,195.5C 153.599,196.29 152.932,197.29 152.5,198.5C 152.167,198.5 151.833,198.5 151.5,198.5C 151.082,197.778 150.416,197.278 149.5,197C 150.38,195.644 150.714,194.144 150.5,192.5C 150.833,192.5 151.167,192.5 151.5,192.5C 152.117,192.611 152.617,192.944 153,193.5C 153.377,192.058 154.21,191.058 155.5,190.5 Z"/></g>
<g><path style="opacity:1" fill="#cfcfcf" d="M 341.5,189.5 C 342.906,189.973 343.573,190.973 343.5,192.5C 342.094,192.027 341.427,191.027 341.5,189.5 Z"/></g>
<g><path style="opacity:1" fill="#bfbfbf" d="M 158.5,188.5 C 157.532,191.1 156.199,193.434 154.5,195.5C 155.038,193.883 155.371,192.216 155.5,190.5C 156.29,189.599 157.29,188.932 158.5,188.5 Z"/></g>
<g><path style="opacity:1" fill="#3e3e3e" d="M 339.5,185.5 C 340.674,186.514 341.34,187.847 341.5,189.5C 341.427,191.027 342.094,192.027 343.5,192.5C 344.338,192.842 344.672,193.508 344.5,194.5C 344.5,194.833 344.5,195.167 344.5,195.5C 343.711,195.783 343.044,196.283 342.5,197C 342.966,198.299 342.966,199.799 342.5,201.5C 341.833,201.5 341.5,201.167 341.5,200.5C 340.724,196.948 339.391,193.614 337.5,190.5C 339.256,189.448 339.923,187.781 339.5,185.5 Z"/></g>
<g><path style="opacity:1" fill="#5d5d5d" d="M 150.5,192.5 C 150.714,194.144 150.38,195.644 149.5,197C 150.416,197.278 151.082,197.778 151.5,198.5C 150.069,198.881 149.236,199.881 149,201.5C 148.23,200.402 147.397,200.402 146.5,201.5C 147.042,198.088 148.375,195.088 150.5,192.5 Z"/></g>
<g><path style="opacity:1" fill="#e3e3e3" d="M 154.5,195.5 C 154.771,197.38 154.104,198.713 152.5,199.5C 152.5,199.167 152.5,198.833 152.5,198.5C 152.932,197.29 153.599,196.29 154.5,195.5 Z"/></g>
<g><path style="opacity:1" fill="#a4a4a4" d="M 344.5,194.5 C 345.931,195.78 346.598,197.447 346.5,199.5C 344.896,198.713 344.229,197.38 344.5,195.5C 344.5,195.167 344.5,194.833 344.5,194.5 Z"/></g>
<g><path style="opacity:1" fill="#2d2d2d" d="M 151.5,198.5 C 151.833,198.5 152.167,198.5 152.5,198.5C 152.5,198.833 152.5,199.167 152.5,199.5C 152.737,200.791 152.404,201.791 151.5,202.5C 150.326,203.514 149.66,204.847 149.5,206.5C 148.262,208.214 147.595,210.214 147.5,212.5C 146.833,212.5 146.5,212.833 146.5,213.5C 145.209,213.737 144.209,213.404 143.5,212.5C 144.341,210.621 144.675,208.621 144.5,206.5C 146.213,205.365 146.88,203.698 146.5,201.5C 147.397,200.402 148.23,200.402 149,201.5C 149.236,199.881 150.069,198.881 151.5,198.5 Z"/></g>
<g><path style="opacity:1" fill="#222222" d="M 344.5,195.5 C 344.229,197.38 344.896,198.713 346.5,199.5C 346.923,201.781 346.256,203.448 344.5,204.5C 343.833,203.833 343.167,203.167 342.5,202.5C 342.5,202.167 342.5,201.833 342.5,201.5C 342.966,199.799 342.966,198.299 342.5,197C 343.044,196.283 343.711,195.783 344.5,195.5 Z"/></g>
<g><path style="opacity:1" fill="#e6e6e6" d="M 151.5,202.5 C 151.771,204.38 151.104,205.713 149.5,206.5C 149.66,204.847 150.326,203.514 151.5,202.5 Z"/></g>
<g><path style="opacity:1" fill="#d0d0d0" d="M 342.5,202.5 C 343.167,203.167 343.833,203.833 344.5,204.5C 344.5,205.167 344.5,205.833 344.5,206.5C 342.896,205.713 342.229,204.38 342.5,202.5 Z"/></g>
<g><path style="opacity:1" fill="#656565" d="M 346.5,199.5 C 348.403,202.53 349.737,205.863 350.5,209.5C 348.896,208.713 348.229,207.38 348.5,205.5C 346.821,205.285 345.821,205.952 345.5,207.5C 345.167,207.5 344.833,207.5 344.5,207.5C 344.5,207.167 344.5,206.833 344.5,206.5C 344.5,205.833 344.5,205.167 344.5,204.5C 346.256,203.448 346.923,201.781 346.5,199.5 Z"/></g>
<g><path style="opacity:1" fill="#9a9a9a" d="M 146.5,201.5 C 146.88,203.698 146.213,205.365 144.5,206.5C 144.402,204.447 145.069,202.78 146.5,201.5 Z"/></g>
<g><path style="opacity:1" fill="#d8d8d8" d="M 149.5,206.5 C 149.741,208.898 149.074,210.898 147.5,212.5C 147.595,210.214 148.262,208.214 149.5,206.5 Z"/></g>
<g><path style="opacity:1" fill="#2a2a2a" d="M 350.5,209.5 C 350.5,209.833 350.5,210.167 350.5,210.5C 350.719,214.8 351.719,218.8 353.5,222.5C 354.172,225.942 353.172,228.609 350.5,230.5C 350.768,228.901 350.434,227.568 349.5,226.5C 348.89,225.609 348.557,224.609 348.5,223.5C 348.678,219.878 348.011,216.544 346.5,213.5C 346.5,213.167 346.5,212.833 346.5,212.5C 345.962,210.883 345.629,209.216 345.5,207.5C 345.821,205.952 346.821,205.285 348.5,205.5C 348.229,207.38 348.896,208.713 350.5,209.5 Z"/></g>
<g><path style="opacity:1" fill="#e2e2e2" d="M 344.5,207.5 C 344.833,207.5 345.167,207.5 345.5,207.5C 345.629,209.216 345.962,210.883 346.5,212.5C 344.787,211.365 344.12,209.698 344.5,207.5 Z"/></g>
<g><path style="opacity:1" fill="#9a9a9a" d="M 144.5,206.5 C 144.675,208.621 144.341,210.621 143.5,212.5C 143.167,212.5 142.833,212.5 142.5,212.5C 142.595,210.214 143.262,208.214 144.5,206.5 Z"/></g>
<g><path style="opacity:1" fill="#292929" d="M 142.5,212.5 C 142.833,212.5 143.167,212.5 143.5,212.5C 144.209,213.404 145.209,213.737 146.5,213.5C 146.768,215.099 146.434,216.432 145.5,217.5C 143.484,219.249 141.818,221.249 140.5,223.5C 140.5,222.833 140.5,222.167 140.5,221.5C 141.768,219.095 142.435,216.428 142.5,213.5C 142.5,213.167 142.5,212.833 142.5,212.5 Z"/></g>
<g><path style="opacity:1" fill="#9a9a9a" d="M 350.5,210.5 C 352.416,214.163 353.416,218.163 353.5,222.5C 351.719,218.8 350.719,214.8 350.5,210.5 Z"/></g>
<g><path style="opacity:1" fill="#dfdfdf" d="M 147.5,212.5 C 147.889,215.553 147.223,218.22 145.5,220.5C 145.5,219.5 145.5,218.5 145.5,217.5C 146.434,216.432 146.768,215.099 146.5,213.5C 146.5,212.833 146.833,212.5 147.5,212.5 Z"/></g>
<g><path style="opacity:1" fill="#717171" d="M 239.5,215.5 C 243.833,214.167 248.167,214.167 252.5,215.5C 253.671,216.345 255.005,217.011 256.5,217.5C 256.5,218.833 256.5,220.167 256.5,221.5C 256.167,221.5 255.833,221.5 255.5,221.5C 250.213,220.658 244.88,220.324 239.5,220.5C 243.233,219.023 247.233,218.189 251.5,218C 250.045,215.984 248.045,215.151 245.5,215.5C 243.5,215.5 241.5,215.5 239.5,215.5 Z"/></g>
<g><path style="opacity:1" fill="#dadada" d="M 252.5,215.5 C 254.898,215.259 256.898,215.926 258.5,217.5C 257.833,217.5 257.167,217.5 256.5,217.5C 255.005,217.011 253.671,216.345 252.5,215.5 Z"/></g>
<g><path style="opacity:1" fill="#b5b5b5" d="M 142.5,213.5 C 142.435,216.428 141.768,219.095 140.5,221.5C 140.111,218.447 140.777,215.78 142.5,213.5 Z"/></g>
<g><path style="opacity:1" fill="#434343" d="M 239.5,215.5 C 241.5,215.5 243.5,215.5 245.5,215.5C 244.922,217.443 243.922,217.777 242.5,216.5C 240.116,218.722 237.449,219.056 234.5,217.5C 235.78,216.069 237.447,215.402 239.5,215.5 Z"/></g>
<g><path style="opacity:1" fill="#2b2b2b" d="M 245.5,215.5 C 248.045,215.151 250.045,215.984 251.5,218C 247.233,218.189 243.233,219.023 239.5,220.5C 238.791,221.404 237.791,221.737 236.5,221.5C 234.973,221.427 233.973,222.094 233.5,223.5C 233.167,223.5 232.833,223.5 232.5,223.5C 233.354,221.965 233.354,220.632 232.5,219.5C 232.833,218.833 233.167,218.167 233.5,217.5C 233.833,217.5 234.167,217.5 234.5,217.5C 237.449,219.056 240.116,218.722 242.5,216.5C 243.922,217.777 244.922,217.443 245.5,215.5 Z"/></g>
<g><path style="opacity:1" fill="#bcbcbc" d="M 233.5,217.5 C 233.167,218.167 232.833,218.833 232.5,219.5C 231.833,219.5 231.167,219.5 230.5,219.5C 230.973,218.094 231.973,217.427 233.5,217.5 Z"/></g>
<g><path style="opacity:1" fill="#e0e0e0" d="M 260.5,218.5 C 262.027,218.427 263.027,219.094 263.5,220.5C 263.167,220.5 262.833,220.5 262.5,220.5C 261.5,220.167 260.833,219.5 260.5,218.5 Z"/></g>
<g><path style="opacity:1" fill="#272727" d="M 230.5,219.5 C 231.167,219.5 231.833,219.5 232.5,219.5C 233.354,220.632 233.354,221.965 232.5,223.5C 231.5,223.833 230.833,224.5 230.5,225.5C 230.5,226.167 230.167,226.5 229.5,226.5C 227.413,227.585 226.08,229.251 225.5,231.5C 225.167,231.5 224.833,231.5 224.5,231.5C 223.833,230.833 223.167,230.167 222.5,229.5C 223.5,227.5 224.5,225.5 225.5,223.5C 227.749,222.92 229.415,221.587 230.5,219.5 Z"/></g>
<g><path style="opacity:1" fill="#2e2e2e" d="M 256.5,217.5 C 257.167,217.5 257.833,217.5 258.5,217.5C 259.492,217.328 260.158,217.662 260.5,218.5C 260.833,219.5 261.5,220.167 262.5,220.5C 262.068,221.71 261.401,222.71 260.5,223.5C 259.167,222.833 257.833,222.167 256.5,221.5C 256.5,220.167 256.5,218.833 256.5,217.5 Z"/></g>
<g><path style="opacity:1" fill="#ececec" d="M 346.5,213.5 C 348.011,216.544 348.678,219.878 348.5,223.5C 347.215,220.411 346.549,217.078 346.5,213.5 Z"/></g>
<g><path style="opacity:1" fill="#ebebeb" d="M 264.5,221.5 C 266.833,221.833 268.167,223.167 268.5,225.5C 268.167,225.5 267.833,225.5 267.5,225.5C 267.5,224.833 267.167,224.5 266.5,224.5C 265.833,223.5 265.167,222.5 264.5,221.5 Z"/></g>
<g><path style="opacity:1" fill="#202020" d="M 145.5,217.5 C 145.5,218.5 145.5,219.5 145.5,220.5C 144.343,223.273 143.676,226.273 143.5,229.5C 142.9,228.1 141.9,227.1 140.5,226.5C 140.5,225.5 140.5,224.5 140.5,223.5C 141.818,221.249 143.484,219.249 145.5,217.5 Z"/></g>
<g><path style="opacity:1" fill="#959595" d="M 230.5,219.5 C 229.415,221.587 227.749,222.92 225.5,223.5C 226.585,221.413 228.251,220.08 230.5,219.5 Z"/></g>
<g><path style="opacity:1" fill="#eaeaea" d="M 236.5,221.5 C 236.027,222.906 235.027,223.573 233.5,223.5C 233.973,222.094 234.973,221.427 236.5,221.5 Z"/></g>
<g><path style="opacity:1" fill="#e2e2e2" d="M 255.5,221.5 C 255.833,221.5 256.167,221.5 256.5,221.5C 257.833,222.167 259.167,222.833 260.5,223.5C 260.5,223.833 260.5,224.167 260.5,224.5C 258.326,224.25 256.659,223.25 255.5,221.5 Z"/></g>
<g><path style="opacity:1" fill="#303030" d="M 262.5,220.5 C 262.833,220.5 263.167,220.5 263.5,220.5C 264.167,220.5 264.5,220.833 264.5,221.5C 265.167,222.5 265.833,223.5 266.5,224.5C 265.391,224.557 264.391,224.89 263.5,225.5C 262.609,224.89 261.609,224.557 260.5,224.5C 260.5,224.167 260.5,223.833 260.5,223.5C 261.401,222.71 262.068,221.71 262.5,220.5 Z"/></g>
<g><path style="opacity:1" fill="#d9d9d9" d="M 145.5,220.5 C 145.884,224.489 145.217,228.155 143.5,231.5C 143.5,230.833 143.5,230.167 143.5,229.5C 143.676,226.273 144.343,223.273 145.5,220.5 Z"/></g>
<g><path style="opacity:1" fill="#eaeaea" d="M 232.5,223.5 C 232.5,224.833 231.833,225.5 230.5,225.5C 230.833,224.5 231.5,223.833 232.5,223.5 Z"/></g>
<g><path style="opacity:1" fill="#b5b5b5" d="M 260.5,224.5 C 261.609,224.557 262.609,224.89 263.5,225.5C 264.11,226.391 264.443,227.391 264.5,228.5C 262.833,227.5 261.5,226.167 260.5,224.5 Z"/></g>
<g><path style="opacity:1" fill="#202020" d="M 266.5,224.5 C 267.167,224.5 267.5,224.833 267.5,225.5C 267.421,226.93 267.754,228.264 268.5,229.5C 268.043,230.298 267.376,230.631 266.5,230.5C 266.167,229.5 265.5,228.833 264.5,228.5C 264.443,227.391 264.11,226.391 263.5,225.5C 264.391,224.89 265.391,224.557 266.5,224.5 Z"/></g>
<g><path style="opacity:1" fill="#e6e6e6" d="M 140.5,221.5 C 140.5,222.167 140.5,222.833 140.5,223.5C 140.5,224.5 140.5,225.5 140.5,226.5C 139.549,227.919 139.216,229.585 139.5,231.5C 139.167,231.5 138.833,231.5 138.5,231.5C 137.957,231.44 137.624,231.107 137.5,230.5C 138.365,227.338 139.365,224.338 140.5,221.5 Z"/></g>
<g><path style="opacity:1" fill="#323232" d="M 140.5,226.5 C 141.9,227.1 142.9,228.1 143.5,229.5C 143.5,230.167 143.5,230.833 143.5,231.5C 143.5,232.167 143.5,232.833 143.5,233.5C 143.167,233.5 142.833,233.5 142.5,233.5C 142.179,231.952 141.179,231.285 139.5,231.5C 139.216,229.585 139.549,227.919 140.5,226.5 Z"/></g>
<g><path style="opacity:1" fill="#c6c6c6" d="M 268.5,225.5 C 269.906,225.973 270.573,226.973 270.5,228.5C 269.094,228.027 268.427,227.027 268.5,225.5 Z"/></g>
<g><path style="opacity:1" fill="#e9e9e9" d="M 229.5,226.5 C 228.92,228.749 227.587,230.415 225.5,231.5C 226.08,229.251 227.413,227.585 229.5,226.5 Z"/></g>
<g><path style="opacity:1" fill="#bebebe" d="M 225.5,223.5 C 224.5,225.5 223.5,227.5 222.5,229.5C 221.833,229.833 221.167,230.167 220.5,230.5C 221.01,227.326 222.677,224.992 225.5,223.5 Z"/></g>
<g><path style="opacity:1" fill="#eaeaea" d="M 264.5,228.5 C 265.5,228.833 266.167,229.5 266.5,230.5C 266.5,230.833 266.5,231.167 266.5,231.5C 265.094,231.027 264.427,230.027 264.5,228.5 Z"/></g>
<g><path style="opacity:1" fill="#272727" d="M 222.5,229.5 C 223.167,230.167 223.833,230.833 224.5,231.5C 224.167,232.833 223.833,234.167 223.5,235.5C 221.918,238.876 221.251,242.542 221.5,246.5C 220.504,246.414 219.671,246.748 219,247.5C 218.506,245.866 218.34,244.199 218.5,242.5C 218.616,239.14 218.949,235.807 219.5,232.5C 219.328,231.508 219.662,230.842 220.5,230.5C 221.167,230.167 221.833,229.833 222.5,229.5 Z"/></g>
<g><path style="opacity:1" fill="#2e2e2e" d="M 267.5,225.5 C 267.833,225.5 268.167,225.5 268.5,225.5C 268.427,227.027 269.094,228.027 270.5,228.5C 270.557,229.609 270.89,230.609 271.5,231.5C 269.896,232.287 269.229,233.62 269.5,235.5C 269.167,235.5 268.833,235.5 268.5,235.5C 268.771,233.62 268.104,232.287 266.5,231.5C 266.5,231.167 266.5,230.833 266.5,230.5C 267.376,230.631 268.043,230.298 268.5,229.5C 267.754,228.264 267.421,226.93 267.5,225.5 Z"/></g>
<g><path style="opacity:1" fill="#393939" d="M 353.5,222.5 C 354.468,224.607 354.802,226.941 354.5,229.5C 354.5,232.5 354.5,235.5 354.5,238.5C 353.222,238.782 352.222,239.449 351.5,240.5C 351.54,237.119 351.207,233.786 350.5,230.5C 353.172,228.609 354.172,225.942 353.5,222.5 Z"/></g>
<g><path style="opacity:1" fill="#e9e9e9" d="M 224.5,231.5 C 224.833,231.5 225.167,231.5 225.5,231.5C 225.771,233.38 225.104,234.713 223.5,235.5C 223.833,234.167 224.167,232.833 224.5,231.5 Z"/></g>
<g><path style="opacity:1" fill="#afafaf" d="M 270.5,228.5 C 272.539,229.911 273.539,231.911 273.5,234.5C 272.094,234.027 271.427,233.027 271.5,231.5C 270.89,230.609 270.557,229.609 270.5,228.5 Z"/></g>
<g><path style="opacity:1" fill="#d8d8d8" d="M 266.5,231.5 C 268.104,232.287 268.771,233.62 268.5,235.5C 267.326,234.486 266.66,233.153 266.5,231.5 Z"/></g>
<g><path style="opacity:1" fill="#252525" d="M 271.5,231.5 C 271.427,233.027 272.094,234.027 273.5,234.5C 273.5,235.167 273.5,235.833 273.5,236.5C 271.973,236.427 270.973,237.094 270.5,238.5C 269.596,237.791 269.263,236.791 269.5,235.5C 269.229,233.62 269.896,232.287 271.5,231.5 Z"/></g>
<g><path style="opacity:1" fill="#232323" d="M 139.5,231.5 C 141.179,231.285 142.179,231.952 142.5,233.5C 142.5,238.833 142.5,244.167 142.5,249.5C 141.5,249.5 140.5,249.5 139.5,249.5C 140.204,243.556 140.204,237.556 139.5,231.5 Z"/></g>
<g><path style="opacity:1" fill="#acacac" d="M 219.5,232.5 C 218.949,235.807 218.616,239.14 218.5,242.5C 217.662,242.842 217.328,243.508 217.5,244.5C 216.903,244.265 216.57,243.765 216.5,243C 216.907,239.195 217.907,235.695 219.5,232.5 Z"/></g>
<g><path style="opacity:1" fill="#1d1d1d" d="M 354.5,238.5 C 354.5,239.833 354.5,241.167 354.5,242.5C 353.698,243.952 353.198,245.618 353,247.5C 352.722,246.584 352.222,245.918 351.5,245.5C 351.5,243.833 351.5,242.167 351.5,240.5C 352.222,239.449 353.222,238.782 354.5,238.5 Z"/></g>
<g><path style="opacity:1" fill="#c3c3c3" d="M 349.5,226.5 C 350.434,227.568 350.768,228.901 350.5,230.5C 351.207,233.786 351.54,237.119 351.5,240.5C 351.5,242.167 351.5,243.833 351.5,245.5C 350.92,249.81 350.586,254.143 350.5,258.5C 350.167,258.5 349.833,258.5 349.5,258.5C 350.551,247.845 350.551,237.178 349.5,226.5 Z"/></g>
<g><path style="opacity:1" fill="#aaaaaa" d="M 354.5,229.5 C 357.167,239.167 357.167,248.833 354.5,258.5C 354.5,253.167 354.5,247.833 354.5,242.5C 354.5,241.167 354.5,239.833 354.5,238.5C 354.5,235.5 354.5,232.5 354.5,229.5 Z"/></g>
<g><path style="opacity:1" fill="#5b5b5b" d="M 138.5,231.5 C 138.833,231.5 139.167,231.5 139.5,231.5C 140.204,237.556 140.204,243.556 139.5,249.5C 140.5,249.5 141.5,249.5 142.5,249.5C 142.263,250.791 142.596,251.791 143.5,252.5C 143.5,253.5 143.5,254.5 143.5,255.5C 143.5,255.833 143.5,256.167 143.5,256.5C 142.732,255.737 142.232,254.737 142,253.5C 141.329,254.252 140.496,254.586 139.5,254.5C 139.737,253.209 139.404,252.209 138.5,251.5C 137.368,244.988 137.368,238.321 138.5,231.5 Z"/></g>
<g><path style="opacity:1" fill="#c2c2c2" d="M 268.5,235.5 C 268.833,235.5 269.167,235.5 269.5,235.5C 269.263,236.791 269.596,237.791 270.5,238.5C 270.5,241.833 270.5,245.167 270.5,248.5C 270.167,248.5 269.833,248.5 269.5,248.5C 269.533,244.131 269.2,239.798 268.5,235.5 Z"/></g>
<g><path style="opacity:1" fill="#1e1e1e" d="M 273.5,236.5 C 273.5,241.167 273.5,245.833 273.5,250.5C 271.973,250.573 270.973,249.906 270.5,248.5C 270.5,245.167 270.5,241.833 270.5,238.5C 270.973,237.094 271.973,236.427 273.5,236.5 Z"/></g>
<g><path style="opacity:1" fill="#dfdfdf" d="M 142.5,233.5 C 142.833,233.5 143.167,233.5 143.5,233.5C 143.761,239.673 143.761,246.007 143.5,252.5C 142.596,251.791 142.263,250.791 142.5,249.5C 142.5,244.167 142.5,238.833 142.5,233.5 Z"/></g>
<g><path style="opacity:1" fill="#cbcbcb" d="M 223.5,235.5 C 223.058,239.154 222.724,242.821 222.5,246.5C 222.167,246.5 221.833,246.5 221.5,246.5C 221.251,242.542 221.918,238.876 223.5,235.5 Z"/></g>
<g><path style="opacity:1" fill="#a0a0a0" d="M 273.5,234.5 C 276.095,240.51 276.095,246.51 273.5,252.5C 273.5,251.833 273.5,251.167 273.5,250.5C 273.5,245.833 273.5,241.167 273.5,236.5C 273.5,235.833 273.5,235.167 273.5,234.5 Z"/></g>
<g><path style="opacity:1" fill="#474747" d="M 218.5,242.5 C 218.34,244.199 218.506,245.866 219,247.5C 219.671,246.748 220.504,246.414 221.5,246.5C 221.833,246.5 222.167,246.5 222.5,246.5C 223.461,248.265 223.795,250.265 223.5,252.5C 222.167,251.167 220.833,251.167 219.5,252.5C 219.34,250.847 218.674,249.514 217.5,248.5C 217.5,247.167 217.5,245.833 217.5,244.5C 217.328,243.508 217.662,242.842 218.5,242.5 Z"/></g>
<g><path style="opacity:1" fill="#272727" d="M 354.5,242.5 C 354.5,247.833 354.5,253.167 354.5,258.5C 353.732,259.263 353.232,260.263 353,261.5C 352.302,260.309 351.469,259.309 350.5,258.5C 350.586,254.143 350.92,249.81 351.5,245.5C 352.222,245.918 352.722,246.584 353,247.5C 353.198,245.618 353.698,243.952 354.5,242.5 Z"/></g>
<g><path style="opacity:1" fill="#b6b6b6" d="M 217.5,248.5 C 218.674,249.514 219.34,250.847 219.5,252.5C 219.5,253.167 219.5,253.833 219.5,254.5C 218.262,252.786 217.595,250.786 217.5,248.5 Z"/></g>
<g><path style="opacity:1" fill="#1f1f1f" d="M 223.5,252.5 C 223.5,253.167 223.5,253.833 223.5,254.5C 223.715,256.179 223.048,257.179 221.5,257.5C 221.068,256.29 220.401,255.29 219.5,254.5C 219.5,253.833 219.5,253.167 219.5,252.5C 220.833,251.167 222.167,251.167 223.5,252.5 Z"/></g>
<g><path style="opacity:1" fill="#363636" d="M 269.5,248.5 C 269.833,248.5 270.167,248.5 270.5,248.5C 270.973,249.906 271.973,250.573 273.5,250.5C 273.5,251.167 273.5,251.833 273.5,252.5C 272.5,253.833 271.5,255.167 270.5,256.5C 270.167,255.5 269.5,254.833 268.5,254.5C 268.5,253.5 268.5,252.5 268.5,251.5C 268.263,250.209 268.596,249.209 269.5,248.5 Z"/></g>
<g><path style="opacity:1" fill="#212121" d="M 143.5,256.5 C 143.5,258.167 143.5,259.833 143.5,261.5C 143.5,263.5 142.5,264.5 140.5,264.5C 140.167,261.167 139.833,257.833 139.5,254.5C 140.496,254.586 141.329,254.252 142,253.5C 142.232,254.737 142.732,255.737 143.5,256.5 Z"/></g>
<g><path style="opacity:1" fill="#d1d1d1" d="M 223.5,252.5 C 224.906,252.973 225.573,253.973 225.5,255.5C 224.833,255.167 224.167,254.833 223.5,254.5C 223.5,253.833 223.5,253.167 223.5,252.5 Z"/></g>
<g><path style="opacity:1" fill="#a0a0a0" d="M 268.5,251.5 C 268.5,252.5 268.5,253.5 268.5,254.5C 267.833,255.833 266.833,256.833 265.5,257.5C 266.508,255.456 267.508,253.456 268.5,251.5 Z"/></g>
<g><path style="opacity:1" fill="#292929" d="M 268.5,254.5 C 269.5,254.833 270.167,255.5 270.5,256.5C 270.167,257.833 269.833,259.167 269.5,260.5C 268.833,260.833 268.167,261.167 267.5,261.5C 267.715,259.821 267.048,258.821 265.5,258.5C 265.5,258.167 265.5,257.833 265.5,257.5C 266.833,256.833 267.833,255.833 268.5,254.5 Z"/></g>
<g><path style="opacity:1" fill="#e0e0e0" d="M 219.5,254.5 C 220.401,255.29 221.068,256.29 221.5,257.5C 221.5,257.833 221.5,258.167 221.5,258.5C 219.896,257.713 219.229,256.38 219.5,254.5 Z"/></g>
<g><path style="opacity:1" fill="#dbdbdb" d="M 273.5,252.5 C 273.206,255.754 271.873,258.421 269.5,260.5C 269.833,259.167 270.167,257.833 270.5,256.5C 271.5,255.167 272.5,253.833 273.5,252.5 Z"/></g>
<g><path style="opacity:1" fill="#d4d4d4" d="M 138.5,251.5 C 139.404,252.209 139.737,253.209 139.5,254.5C 139.833,257.833 140.167,261.167 140.5,264.5C 140.5,265.167 140.5,265.833 140.5,266.5C 137.736,261.841 137.069,256.841 138.5,251.5 Z"/></g>
<g><path style="opacity:1" fill="#363636" d="M 223.5,254.5 C 224.167,254.833 224.833,255.167 225.5,255.5C 225.5,255.833 225.5,256.167 225.5,256.5C 225.833,257.5 226.5,258.167 227.5,258.5C 227.5,258.833 227.5,259.167 227.5,259.5C 225.952,259.821 225.285,260.821 225.5,262.5C 225.167,262.5 224.833,262.5 224.5,262.5C 223.833,262.5 223.5,262.167 223.5,261.5C 223.573,259.973 222.906,258.973 221.5,258.5C 221.5,258.167 221.5,257.833 221.5,257.5C 223.048,257.179 223.715,256.179 223.5,254.5 Z"/></g>
<g><path style="opacity:1" fill="#ededed" d="M 225.5,256.5 C 226.833,256.5 227.5,257.167 227.5,258.5C 226.5,258.167 225.833,257.5 225.5,256.5 Z"/></g>
<g><path style="opacity:1" fill="#e7e7e7" d="M 143.5,255.5 C 145.011,258.544 145.678,261.878 145.5,265.5C 144.833,264.167 144.167,262.833 143.5,261.5C 143.5,259.833 143.5,258.167 143.5,256.5C 143.5,256.167 143.5,255.833 143.5,255.5 Z"/></g>
<g><path style="opacity:1" fill="#b6b6b6" d="M 227.5,258.5 C 229.167,259.5 230.5,260.833 231.5,262.5C 231.167,262.5 230.833,262.5 230.5,262.5C 229.167,261.833 228.167,260.833 227.5,259.5C 227.5,259.167 227.5,258.833 227.5,258.5 Z"/></g>
<g><path style="opacity:1" fill="#dadada" d="M 221.5,258.5 C 222.906,258.973 223.573,259.973 223.5,261.5C 222.094,261.027 221.427,260.027 221.5,258.5 Z"/></g>
<g><path style="opacity:1" fill="#212121" d="M 265.5,258.5 C 267.048,258.821 267.715,259.821 267.5,261.5C 266.5,263.167 265.167,264.5 263.5,265.5C 262.596,264.791 262.263,263.791 262.5,262.5C 263.5,261.167 264.5,259.833 265.5,258.5 Z"/></g>
<g><path style="opacity:1" fill="#535353" d="M 349.5,258.5 C 349.833,258.5 350.167,258.5 350.5,258.5C 351.469,259.309 352.302,260.309 353,261.5C 353.232,260.263 353.732,259.263 354.5,258.5C 354.749,262.458 354.082,266.124 352.5,269.5C 352.167,269.5 351.833,269.5 351.5,269.5C 351.123,267.176 350.123,266.509 348.5,267.5C 349.15,265.565 349.483,263.565 349.5,261.5C 349.5,260.5 349.5,259.5 349.5,258.5 Z"/></g>
<g><path style="opacity:1" fill="#202020" d="M 227.5,259.5 C 228.167,260.833 229.167,261.833 230.5,262.5C 230.5,263.833 230.5,265.167 230.5,266.5C 229.833,266.5 229.167,266.5 228.5,266.5C 228.167,265.5 227.5,264.833 226.5,264.5C 226.167,263.833 225.833,263.167 225.5,262.5C 225.285,260.821 225.952,259.821 227.5,259.5 Z"/></g>
<g><path style="opacity:1" fill="#bfbfbf" d="M 265.5,257.5 C 265.5,257.833 265.5,258.167 265.5,258.5C 264.5,259.833 263.5,261.167 262.5,262.5C 261.609,263.11 260.609,263.443 259.5,263.5C 261.167,261.167 263.167,259.167 265.5,257.5 Z"/></g>
<g><path style="opacity:1" fill="#e5e5e5" d="M 224.5,262.5 C 224.833,262.5 225.167,262.5 225.5,262.5C 225.833,263.167 226.167,263.833 226.5,264.5C 225.167,264.5 224.5,263.833 224.5,262.5 Z"/></g>
<g><path style="opacity:1" fill="#292929" d="M 262.5,262.5 C 262.263,263.791 262.596,264.791 263.5,265.5C 263.167,266.167 262.833,266.833 262.5,267.5C 260.5,268.167 258.5,268.833 256.5,269.5C 255.094,269.027 254.427,268.027 254.5,266.5C 256.933,266.727 258.599,265.727 259.5,263.5C 260.609,263.443 261.609,263.11 262.5,262.5 Z"/></g>
<g><path style="opacity:1" fill="#e7e7e7" d="M 269.5,260.5 C 268.167,263.833 265.833,266.167 262.5,267.5C 262.833,266.833 263.167,266.167 263.5,265.5C 265.167,264.5 266.5,263.167 267.5,261.5C 268.167,261.167 268.833,260.833 269.5,260.5 Z"/></g>
<g><path style="opacity:1" fill="#cccccc" d="M 349.5,261.5 C 349.483,263.565 349.15,265.565 348.5,267.5C 348.672,268.492 348.338,269.158 347.5,269.5C 347.294,266.505 347.96,263.838 349.5,261.5 Z"/></g>
<g><path style="opacity:1" fill="#ebebeb" d="M 226.5,264.5 C 227.5,264.833 228.167,265.5 228.5,266.5C 227.167,266.5 226.5,265.833 226.5,264.5 Z"/></g>
<g><path style="opacity:1" fill="#3b3b3b" d="M 230.5,262.5 C 230.833,262.5 231.167,262.5 231.5,262.5C 232.71,262.932 233.71,263.599 234.5,264.5C 234.833,265.167 235.167,265.833 235.5,266.5C 234.596,267.209 234.263,268.209 234.5,269.5C 233.609,268.89 232.609,268.557 231.5,268.5C 231.167,267.833 230.833,267.167 230.5,266.5C 230.5,265.167 230.5,263.833 230.5,262.5 Z"/></g>
<g><path style="opacity:1" fill="#a0a0a0" d="M 259.5,263.5 C 258.599,265.727 256.933,266.727 254.5,266.5C 254.167,266.5 253.833,266.5 253.5,266.5C 255.181,264.992 257.181,263.992 259.5,263.5 Z"/></g>
<g><path style="opacity:1" fill="#2d2d2d" d="M 143.5,261.5 C 144.167,262.833 144.833,264.167 145.5,265.5C 145.5,266.167 145.5,266.833 145.5,267.5C 145.5,267.833 145.5,268.167 145.5,268.5C 144.728,269.694 143.728,270.694 142.5,271.5C 142.204,269.597 141.537,267.93 140.5,266.5C 140.5,265.833 140.5,265.167 140.5,264.5C 142.5,264.5 143.5,263.5 143.5,261.5 Z"/></g>
<g><path style="opacity:1" fill="#212121" d="M 235.5,266.5 C 237.216,266.629 238.883,266.962 240.5,267.5C 239.89,268.391 239.557,269.391 239.5,270.5C 238.167,270.5 236.833,270.5 235.5,270.5C 235.5,269.833 235.167,269.5 234.5,269.5C 234.263,268.209 234.596,267.209 235.5,266.5 Z"/></g>
<g><path style="opacity:1" fill="#d3d3d3" d="M 228.5,266.5 C 229.167,266.5 229.833,266.5 230.5,266.5C 230.833,267.167 231.167,267.833 231.5,268.5C 229.973,268.573 228.973,267.906 228.5,266.5 Z"/></g>
<g><path style="opacity:1" fill="#b5b5b5" d="M 234.5,264.5 C 238.098,265.698 241.764,266.698 245.5,267.5C 248.14,266.905 250.807,266.572 253.5,266.5C 252.167,267.167 250.833,267.833 249.5,268.5C 246.391,268.736 243.391,268.403 240.5,267.5C 238.883,266.962 237.216,266.629 235.5,266.5C 235.167,265.833 234.833,265.167 234.5,264.5 Z"/></g>
<g><path style="opacity:1" fill="#2d2d2d" d="M 253.5,266.5 C 253.833,266.5 254.167,266.5 254.5,266.5C 254.427,268.027 255.094,269.027 256.5,269.5C 255.07,270.537 253.403,271.204 251.5,271.5C 250.5,271.5 249.5,271.5 248.5,271.5C 249.11,270.609 249.443,269.609 249.5,268.5C 250.833,267.833 252.167,267.167 253.5,266.5 Z"/></g>
<g><path style="opacity:1" fill="#e4e4e4" d="M 262.5,267.5 C 259.519,270.488 255.852,272.154 251.5,272.5C 251.5,272.167 251.5,271.833 251.5,271.5C 253.403,271.204 255.07,270.537 256.5,269.5C 258.5,268.833 260.5,268.167 262.5,267.5 Z"/></g>
<g><path style="opacity:1" fill="#dedede" d="M 231.5,268.5 C 232.609,268.557 233.609,268.89 234.5,269.5C 235.167,269.5 235.5,269.833 235.5,270.5C 233.62,270.771 232.287,270.104 231.5,268.5 Z"/></g>
<g><path style="opacity:1" fill="#242424" d="M 240.5,267.5 C 243.391,268.403 246.391,268.736 249.5,268.5C 249.443,269.609 249.11,270.609 248.5,271.5C 245.287,271.81 242.287,271.477 239.5,270.5C 239.557,269.391 239.89,268.391 240.5,267.5 Z"/></g>
<g><path style="opacity:1" fill="#b5b5b5" d="M 145.5,267.5 C 147.074,269.102 147.741,271.102 147.5,273.5C 147.167,273.5 146.833,273.5 146.5,273.5C 145.962,271.883 145.629,270.216 145.5,268.5C 145.5,268.167 145.5,267.833 145.5,267.5 Z"/></g>
<g><path style="opacity:1" fill="#a4a4a4" d="M 235.5,270.5 C 236.833,270.5 238.167,270.5 239.5,270.5C 242.287,271.477 245.287,271.81 248.5,271.5C 249.5,271.5 250.5,271.5 251.5,271.5C 251.5,271.833 251.5,272.167 251.5,272.5C 249.801,272.62 248.135,272.954 246.5,273.5C 242.518,273.139 238.851,272.139 235.5,270.5 Z"/></g>
<g><path style="opacity:1" fill="#d4d4d4" d="M 140.5,266.5 C 141.537,267.93 142.204,269.597 142.5,271.5C 142.5,272.5 142.5,273.5 142.5,274.5C 140.96,272.162 140.294,269.495 140.5,266.5 Z"/></g>
<g><path style="opacity:1" fill="#cbcbcb" d="M 347.5,269.5 C 347.768,271.099 347.434,272.432 346.5,273.5C 346.062,273.565 345.728,273.399 345.5,273C 346.085,271.698 346.751,270.531 347.5,269.5 Z"/></g>
<g><path style="opacity:1" fill="#d1d1d1" d="M 351.5,269.5 C 351.833,269.5 352.167,269.5 352.5,269.5C 352.829,272.228 352.163,274.562 350.5,276.5C 350.674,274.139 351.007,271.806 351.5,269.5 Z"/></g>
<g><path style="opacity:1" fill="#222222" d="M 145.5,268.5 C 145.629,270.216 145.962,271.883 146.5,273.5C 146.573,275.027 145.906,276.027 144.5,276.5C 143.833,275.833 143.167,275.167 142.5,274.5C 142.5,273.5 142.5,272.5 142.5,271.5C 143.728,270.694 144.728,269.694 145.5,268.5 Z"/></g>
<g><path style="opacity:1" fill="#282828" d="M 351.5,269.5 C 351.007,271.806 350.674,274.139 350.5,276.5C 349.833,277.5 349.167,278.5 348.5,279.5C 348.44,278.957 348.107,278.624 347.5,278.5C 346.859,279.993 345.859,280.993 344.5,281.5C 344.5,281.167 344.5,280.833 344.5,280.5C 344.5,279.833 344.5,279.167 344.5,278.5C 345.674,277.486 346.34,276.153 346.5,274.5C 346.5,274.167 346.5,273.833 346.5,273.5C 347.434,272.432 347.768,271.099 347.5,269.5C 348.338,269.158 348.672,268.492 348.5,267.5C 350.123,266.509 351.123,267.176 351.5,269.5 Z"/></g>
<g><path style="opacity:1" fill="#dadada" d="M 346.5,274.5 C 346.34,276.153 345.674,277.486 344.5,278.5C 344.229,276.62 344.896,275.287 346.5,274.5 Z"/></g>
<g><path style="opacity:1" fill="#bcbcbc" d="M 142.5,274.5 C 143.167,275.167 143.833,275.833 144.5,276.5C 144.5,277.833 144.5,279.167 144.5,280.5C 143.262,278.786 142.595,276.786 142.5,274.5 Z"/></g>
<g><path style="opacity:1" fill="#a5a5a5" d="M 147.5,274.5 C 148.931,275.78 149.598,277.447 149.5,279.5C 147.787,278.365 147.12,276.698 147.5,274.5 Z"/></g>
<g><path style="opacity:1" fill="#333333" d="M 146.5,273.5 C 146.833,273.5 147.167,273.5 147.5,273.5C 147.5,273.833 147.5,274.167 147.5,274.5C 147.12,276.698 147.787,278.365 149.5,279.5C 150.11,280.391 150.443,281.391 150.5,282.5C 150.5,283.167 150.5,283.833 150.5,284.5C 149.501,282.682 148.168,281.015 146.5,279.5C 145.893,279.624 145.56,279.957 145.5,280.5C 145.167,280.5 144.833,280.5 144.5,280.5C 144.5,279.167 144.5,277.833 144.5,276.5C 145.906,276.027 146.573,275.027 146.5,273.5 Z"/></g>
<g><path style="opacity:1" fill="#353535" d="M 348.5,279.5 C 348.5,280.5 348.5,281.5 348.5,282.5C 348.598,284.553 347.931,286.22 346.5,287.5C 345.069,288.78 344.402,290.447 344.5,292.5C 344.34,294.153 343.674,295.486 342.5,296.5C 341.026,297.436 340.026,298.77 339.5,300.5C 336.402,300.587 336.068,300.087 338.5,299C 337.944,298.617 337.611,298.117 337.5,297.5C 339.167,293.5 340.833,289.5 342.5,285.5C 342.5,285.167 342.5,284.833 342.5,284.5C 343.401,283.71 344.068,282.71 344.5,281.5C 345.859,280.993 346.859,279.993 347.5,278.5C 348.107,278.624 348.44,278.957 348.5,279.5 Z"/></g>
<g><path style="opacity:1" fill="#d7d7d7" d="M 350.5,276.5 C 350.741,278.898 350.074,280.898 348.5,282.5C 348.5,281.5 348.5,280.5 348.5,279.5C 349.167,278.5 349.833,277.5 350.5,276.5 Z"/></g>
<g><path style="opacity:1" fill="#cfcfcf" d="M 344.5,280.5 C 344.5,280.833 344.5,281.167 344.5,281.5C 344.068,282.71 343.401,283.71 342.5,284.5C 342.229,282.62 342.896,281.287 344.5,280.5 Z"/></g>
<g><path style="opacity:1" fill="#c6c6c6" d="M 144.5,280.5 C 144.833,280.5 145.167,280.5 145.5,280.5C 146.038,282.117 146.371,283.784 146.5,285.5C 145.069,284.22 144.402,282.553 144.5,280.5 Z"/></g>
<g><path style="opacity:1" fill="#1f1f1f" d="M 150.5,284.5 C 150.833,285.167 151.167,285.833 151.5,286.5C 150.033,289.258 149.367,288.925 149.5,285.5C 148.5,285.5 147.5,285.5 146.5,285.5C 146.371,283.784 146.038,282.117 145.5,280.5C 145.56,279.957 145.893,279.624 146.5,279.5C 148.168,281.015 149.501,282.682 150.5,284.5 Z"/></g>
<g><path style="opacity:1" fill="#d5d5d5" d="M 150.5,282.5 C 151.931,283.78 152.598,285.447 152.5,287.5C 151.833,287.5 151.5,287.167 151.5,286.5C 151.167,285.833 150.833,285.167 150.5,284.5C 150.5,283.833 150.5,283.167 150.5,282.5 Z"/></g>
<g><path style="opacity:1" fill="#525252" d="M 146.5,285.5 C 147.5,285.5 148.5,285.5 149.5,285.5C 149.367,288.925 150.033,289.258 151.5,286.5C 151.5,287.167 151.833,287.5 152.5,287.5C 152.66,289.153 153.326,290.486 154.5,291.5C 154.5,291.833 154.5,292.167 154.5,292.5C 152.128,290.852 150.794,291.519 150.5,294.5C 148.375,291.912 147.042,288.912 146.5,285.5 Z"/></g>
<g><path style="opacity:1" fill="#e7e7e7" d="M 152.5,287.5 C 154.104,288.287 154.771,289.62 154.5,291.5C 153.326,290.486 152.66,289.153 152.5,287.5 Z"/></g>
<g><path style="opacity:1" fill="#d2d2d2" d="M 346.5,287.5 C 346.598,289.553 345.931,291.22 344.5,292.5C 344.402,290.447 345.069,288.78 346.5,287.5 Z"/></g>
<g><path style="opacity:1" fill="#474747" d="M 154.5,292.5 C 154.833,293.167 155.167,293.833 155.5,294.5C 153.824,295.183 153.157,296.517 153.5,298.5C 153.167,298.5 152.833,298.5 152.5,298.5C 151.326,297.486 150.66,296.153 150.5,294.5C 150.794,291.519 152.128,290.852 154.5,292.5 Z"/></g>
<g><path style="opacity:1" fill="#d6d6d6" d="M 342.5,285.5 C 340.833,289.5 339.167,293.5 337.5,297.5C 336.833,297.833 336.167,298.167 335.5,298.5C 337.074,293.68 339.407,289.347 342.5,285.5 Z"/></g>
<g><path style="opacity:1" fill="#e0e0e0" d="M 154.5,291.5 C 156.104,292.287 156.771,293.62 156.5,295.5C 155.833,295.5 155.5,295.167 155.5,294.5C 155.167,293.833 154.833,293.167 154.5,292.5C 154.5,292.167 154.5,291.833 154.5,291.5 Z"/></g>
<g><path style="opacity:1" fill="#1d1d1d" d="M 155.5,294.5 C 155.5,295.167 155.833,295.5 156.5,295.5C 156.557,296.609 156.89,297.609 157.5,298.5C 157.5,300.5 156.5,301.5 154.5,301.5C 154.443,300.391 154.11,299.391 153.5,298.5C 153.157,296.517 153.824,295.183 155.5,294.5 Z"/></g>
<g><path style="opacity:1" fill="#dcdcdc" d="M 156.5,295.5 C 157.906,295.973 158.573,296.973 158.5,298.5C 158.167,298.5 157.833,298.5 157.5,298.5C 156.89,297.609 156.557,296.609 156.5,295.5 Z"/></g>
<g><path style="opacity:1" fill="#d2d2d2" d="M 342.5,296.5 C 342.25,298.674 341.25,300.341 339.5,301.5C 339.5,301.167 339.5,300.833 339.5,300.5C 340.026,298.77 341.026,297.436 342.5,296.5 Z"/></g>
<g><path style="opacity:1" fill="#dddddd" d="M 152.5,298.5 C 152.833,298.5 153.167,298.5 153.5,298.5C 154.11,299.391 154.443,300.391 154.5,301.5C 153.094,301.027 152.427,300.027 152.5,298.5 Z"/></g>
<g><path style="opacity:1" fill="#3b3b3b" d="M 337.5,297.5 C 337.611,298.117 337.944,298.617 338.5,299C 336.068,300.087 336.402,300.587 339.5,300.5C 339.5,300.833 339.5,301.167 339.5,301.5C 339.672,302.492 339.338,303.158 338.5,303.5C 337.094,303.973 336.427,304.973 336.5,306.5C 336.5,307.167 336.167,307.5 335.5,307.5C 335.167,307.5 334.833,307.5 334.5,307.5C 333.71,306.599 332.71,305.932 331.5,305.5C 331.5,305.167 331.5,304.833 331.5,304.5C 331.932,303.29 332.599,302.29 333.5,301.5C 334.906,301.027 335.573,300.027 335.5,298.5C 336.167,298.167 336.833,297.833 337.5,297.5 Z"/></g>
<g><path style="opacity:1" fill="#353535" d="M 157.5,298.5 C 157.833,298.5 158.167,298.5 158.5,298.5C 158.75,300.674 159.75,302.341 161.5,303.5C 161.5,304.167 161.5,304.833 161.5,305.5C 161.5,306.833 160.833,307.5 159.5,307.5C 158.833,307.167 158.167,306.833 157.5,306.5C 157.573,304.973 156.906,303.973 155.5,303.5C 154.662,303.158 154.328,302.492 154.5,301.5C 156.5,301.5 157.5,300.5 157.5,298.5 Z"/></g>
<g><path style="opacity:1" fill="#e0e0e0" d="M 158.5,298.5 C 160.25,299.659 161.25,301.326 161.5,303.5C 159.75,302.341 158.75,300.674 158.5,298.5 Z"/></g>
<g><path style="opacity:1" fill="#dedede" d="M 335.5,298.5 C 335.573,300.027 334.906,301.027 333.5,301.5C 333.427,299.973 334.094,298.973 335.5,298.5 Z"/></g>
<g><path style="opacity:1" fill="#e5e5e5" d="M 155.5,303.5 C 156.906,303.973 157.573,304.973 157.5,306.5C 156.094,306.027 155.427,305.027 155.5,303.5 Z"/></g>
<g><path style="opacity:1" fill="#ebebeb" d="M 338.5,303.5 C 338.573,305.027 337.906,306.027 336.5,306.5C 336.427,304.973 337.094,303.973 338.5,303.5 Z"/></g>
<g><path style="opacity:1" fill="#d4d4d4" d="M 161.5,303.5 C 163.262,304.262 164.262,305.596 164.5,307.5C 163.5,306.833 162.5,306.167 161.5,305.5C 161.5,304.833 161.5,304.167 161.5,303.5 Z"/></g>
<g><path style="opacity:1" fill="#d4d4d4" d="M 331.5,304.5 C 331.5,304.833 331.5,305.167 331.5,305.5C 330.248,307.001 329.248,308.668 328.5,310.5C 328.167,310.5 327.833,310.5 327.5,310.5C 327.845,307.802 329.178,305.802 331.5,304.5 Z"/></g>
<g><path style="opacity:1" fill="#d9d9d9" d="M 157.5,306.5 C 158.167,306.833 158.833,307.167 159.5,307.5C 160.11,308.391 160.443,309.391 160.5,310.5C 158.738,309.738 157.738,308.404 157.5,306.5 Z"/></g>
<g><path style="opacity:1" fill="#2b2b2b" d="M 161.5,305.5 C 162.5,306.167 163.5,306.833 164.5,307.5C 164.427,309.027 165.094,310.027 166.5,310.5C 168.264,314.353 167.264,315.686 163.5,314.5C 163.573,312.973 162.906,311.973 161.5,311.5C 160.833,311.5 160.5,311.167 160.5,310.5C 160.443,309.391 160.11,308.391 159.5,307.5C 160.833,307.5 161.5,306.833 161.5,305.5 Z"/></g>
<g><path style="opacity:1" fill="#c9c9c9" d="M 164.5,307.5 C 165.906,307.973 166.573,308.973 166.5,310.5C 165.094,310.027 164.427,309.027 164.5,307.5 Z"/></g>
<g><path style="opacity:1" fill="#252525" d="M 331.5,305.5 C 332.71,305.932 333.71,306.599 334.5,307.5C 333.89,308.391 333.557,309.391 333.5,310.5C 332.5,311.167 331.5,311.833 330.5,312.5C 329.167,312.5 328.5,311.833 328.5,310.5C 329.248,308.668 330.248,307.001 331.5,305.5 Z"/></g>
<g><path style="opacity:1" fill="#d9d9d9" d="M 334.5,307.5 C 334.833,307.5 335.167,307.5 335.5,307.5C 335.573,309.027 334.906,310.027 333.5,310.5C 333.557,309.391 333.89,308.391 334.5,307.5 Z"/></g>
<g><path style="opacity:1" fill="#e9e9e9" d="M 327.5,310.5 C 327.167,311.5 326.5,312.167 325.5,312.5C 325.5,311.167 326.167,310.5 327.5,310.5 Z"/></g>
<g><path style="opacity:1" fill="#d8d8d8" d="M 161.5,311.5 C 162.906,311.973 163.573,312.973 163.5,314.5C 162.094,314.027 161.427,313.027 161.5,311.5 Z"/></g>
<g><path style="opacity:1" fill="#2f2f2f" d="M 327.5,310.5 C 327.833,310.5 328.167,310.5 328.5,310.5C 328.5,311.833 329.167,312.5 330.5,312.5C 329.89,313.391 329.557,314.391 329.5,315.5C 329.5,316.167 329.167,316.5 328.5,316.5C 327.5,316.833 326.833,317.5 326.5,318.5C 325.5,318.833 324.833,319.5 324.5,320.5C 323.833,320.833 323.167,321.167 322.5,321.5C 322.5,320.167 321.833,319.5 320.5,319.5C 321.925,318.078 322.925,316.411 323.5,314.5C 323.833,313.5 324.5,312.833 325.5,312.5C 326.5,312.167 327.167,311.5 327.5,310.5 Z"/></g>
<g><path style="opacity:1" fill="#e6e6e6" d="M 333.5,310.5 C 332.92,312.749 331.587,314.415 329.5,315.5C 329.557,314.391 329.89,313.391 330.5,312.5C 331.5,311.833 332.5,311.167 333.5,310.5 Z"/></g>
<g><path style="opacity:1" fill="#585858" d="M 166.5,310.5 C 168.914,311.911 170.581,313.911 171.5,316.5C 170.883,316.389 170.383,316.056 170,315.5C 169.51,316.793 169.343,318.127 169.5,319.5C 168.167,318.5 166.833,317.5 165.5,316.5C 164.5,316.167 163.833,315.5 163.5,314.5C 167.264,315.686 168.264,314.353 166.5,310.5 Z"/></g>
<g><path style="opacity:1" fill="#1b1b1b" d="M 171.5,316.5 C 171.833,317.5 172.5,318.167 173.5,318.5C 173.5,318.833 173.5,319.167 173.5,319.5C 173.167,320.5 172.5,321.167 171.5,321.5C 170.5,321.167 169.833,320.5 169.5,319.5C 169.343,318.127 169.51,316.793 170,315.5C 170.383,316.056 170.883,316.389 171.5,316.5 Z"/></g>
<g><path style="opacity:1" fill="#cdcdcd" d="M 171.5,316.5 C 172.833,316.5 173.5,317.167 173.5,318.5C 172.5,318.167 171.833,317.5 171.5,316.5 Z"/></g>
<g><path style="opacity:1" fill="#dadada" d="M 165.5,316.5 C 166.833,317.5 168.167,318.5 169.5,319.5C 169.833,320.5 170.5,321.167 171.5,321.5C 172.5,323.167 173.833,324.5 175.5,325.5C 175.5,325.833 175.5,326.167 175.5,326.5C 171.167,324.167 167.833,320.833 165.5,316.5 Z"/></g>
<g><path style="opacity:1" fill="#f0f0f0" d="M 328.5,316.5 C 328.5,317.833 327.833,318.5 326.5,318.5C 326.833,317.5 327.5,316.833 328.5,316.5 Z"/></g>
<g><path style="opacity:1" fill="#d2d2d2" d="M 173.5,319.5 C 173.5,319.167 173.5,318.833 173.5,318.5C 176.089,319.419 178.089,321.086 179.5,323.5C 179.167,323.5 178.833,323.5 178.5,323.5C 176.833,322.167 175.167,320.833 173.5,319.5 Z"/></g>
<g><path style="opacity:1" fill="#a9a9a9" d="M 323.5,314.5 C 322.925,316.411 321.925,318.078 320.5,319.5C 318.098,321.909 315.431,323.909 312.5,325.5C 315.833,321.5 319.5,317.833 323.5,314.5 Z"/></g>
<g><path style="opacity:1" fill="#232323" d="M 173.5,319.5 C 175.167,320.833 176.833,322.167 178.5,323.5C 178.179,325.048 177.179,325.715 175.5,325.5C 173.833,324.5 172.5,323.167 171.5,321.5C 172.5,321.167 173.167,320.5 173.5,319.5 Z"/></g>
<g><path style="opacity:1" fill="#eaeaea" d="M 326.5,318.5 C 326.5,319.833 325.833,320.5 324.5,320.5C 324.833,319.5 325.5,318.833 326.5,318.5 Z"/></g>
<g><path style="opacity:1" fill="#dddddd" d="M 324.5,320.5 C 324.5,321.833 323.833,322.5 322.5,322.5C 322.5,322.167 322.5,321.833 322.5,321.5C 323.167,321.167 323.833,320.833 324.5,320.5 Z"/></g>
<g><path style="opacity:1" fill="#232323" d="M 320.5,319.5 C 321.833,319.5 322.5,320.167 322.5,321.5C 322.5,321.833 322.5,322.167 322.5,322.5C 321.5,322.833 320.833,323.5 320.5,324.5C 319.5,324.833 318.833,325.5 318.5,326.5C 317.5,326.833 316.833,327.5 316.5,328.5C 314.938,328.733 313.605,329.4 312.5,330.5C 311.209,330.737 310.209,330.404 309.5,329.5C 310.5,328.167 311.5,326.833 312.5,325.5C 315.431,323.909 318.098,321.909 320.5,319.5 Z"/></g>
<g><path style="opacity:1" fill="#dedede" d="M 322.5,322.5 C 322.5,323.833 321.833,324.5 320.5,324.5C 320.833,323.5 321.5,322.833 322.5,322.5 Z"/></g>
<g><path style="opacity:1" fill="#414141" d="M 178.5,323.5 C 178.833,323.5 179.167,323.5 179.5,323.5C 180.833,324.167 181.833,325.167 182.5,326.5C 182.5,326.833 182.5,327.167 182.5,327.5C 181.365,328.103 180.365,328.436 179.5,328.5C 178.833,328.5 178.167,328.5 177.5,328.5C 177.167,327.5 176.5,326.833 175.5,326.5C 175.5,326.167 175.5,325.833 175.5,325.5C 177.179,325.715 178.179,325.048 178.5,323.5 Z"/></g>
<g><path style="opacity:1" fill="#e5e5e5" d="M 320.5,324.5 C 320.5,325.833 319.833,326.5 318.5,326.5C 318.833,325.5 319.5,324.833 320.5,324.5 Z"/></g>
<g><path style="opacity:1" fill="#cfcfcf" d="M 182.5,327.5 C 182.5,327.167 182.5,326.833 182.5,326.5C 184.027,326.427 185.027,327.094 185.5,328.5C 185.167,328.5 184.833,328.5 184.5,328.5C 183.833,328.167 183.167,327.833 182.5,327.5 Z"/></g>
<g><path style="opacity:1" fill="#c0c0c0" d="M 312.5,325.5 C 311.5,326.833 310.5,328.167 309.5,329.5C 308.833,329.5 308.167,329.5 307.5,329.5C 308.585,327.413 310.251,326.08 312.5,325.5 Z"/></g>
<g><path style="opacity:1" fill="#ededed" d="M 175.5,326.5 C 176.5,326.833 177.167,327.5 177.5,328.5C 176.167,328.5 175.5,327.833 175.5,326.5 Z"/></g>
<g><path style="opacity:1" fill="#1b1b1b" d="M 182.5,327.5 C 183.167,327.833 183.833,328.167 184.5,328.5C 184.414,329.496 184.748,330.329 185.5,331C 184.552,331.483 183.552,331.649 182.5,331.5C 181.167,330.833 180.167,329.833 179.5,328.5C 180.365,328.436 181.365,328.103 182.5,327.5 Z"/></g>
<g><path style="opacity:1" fill="#f0f0f0" d="M 318.5,326.5 C 318.5,327.833 317.833,328.5 316.5,328.5C 316.833,327.5 317.5,326.833 318.5,326.5 Z"/></g>
<g><path style="opacity:1" fill="#e2e2e2" d="M 186.5,329.5 C 188.027,329.427 189.027,330.094 189.5,331.5C 187.973,331.573 186.973,330.906 186.5,329.5 Z"/></g>
<g><path style="opacity:1" fill="#e1e1e1" d="M 316.5,328.5 C 315.415,330.587 313.749,331.92 311.5,332.5C 311.833,331.833 312.167,331.167 312.5,330.5C 313.605,329.4 314.938,328.733 316.5,328.5 Z"/></g>
<g><path style="opacity:1" fill="#bebebe" d="M 307.5,329.5 C 307.027,330.906 306.027,331.573 304.5,331.5C 304.973,330.094 305.973,329.427 307.5,329.5 Z"/></g>
<g><path style="opacity:1" fill="#d3d3d3" d="M 177.5,328.5 C 178.167,328.5 178.833,328.5 179.5,328.5C 180.167,329.833 181.167,330.833 182.5,331.5C 182.5,331.833 182.5,332.167 182.5,332.5C 180.251,331.92 178.585,330.587 177.5,328.5 Z"/></g>
<g><path style="opacity:1" fill="#333333" d="M 184.5,328.5 C 184.833,328.5 185.167,328.5 185.5,328.5C 186.167,328.5 186.5,328.833 186.5,329.5C 186.973,330.906 187.973,331.573 189.5,331.5C 189.5,331.833 189.5,332.167 189.5,332.5C 188.599,333.29 187.932,334.29 187.5,335.5C 187.167,335.5 186.833,335.5 186.5,335.5C 185.738,333.738 184.404,332.738 182.5,332.5C 182.5,332.167 182.5,331.833 182.5,331.5C 183.552,331.649 184.552,331.483 185.5,331C 184.748,330.329 184.414,329.496 184.5,328.5 Z"/></g>
<g><path style="opacity:1" fill="#dbdbdb" d="M 189.5,332.5 C 189.5,332.167 189.5,331.833 189.5,331.5C 191.027,331.427 192.027,332.094 192.5,333.5C 191.391,333.443 190.391,333.11 189.5,332.5 Z"/></g>
<g><path style="opacity:1" fill="#c9c9c9" d="M 304.5,331.5 C 304.5,331.833 304.5,332.167 304.5,332.5C 303.609,333.11 302.609,333.443 301.5,333.5C 301.973,332.094 302.973,331.427 304.5,331.5 Z"/></g>
<g><path style="opacity:1" fill="#2b2b2b" d="M 307.5,329.5 C 308.167,329.5 308.833,329.5 309.5,329.5C 310.209,330.404 311.209,330.737 312.5,330.5C 312.167,331.167 311.833,331.833 311.5,332.5C 311.158,333.338 310.492,333.672 309.5,333.5C 308.5,333.833 307.833,334.5 307.5,335.5C 306.833,335.5 306.167,335.5 305.5,335.5C 304.89,334.609 304.557,333.609 304.5,332.5C 304.5,332.167 304.5,331.833 304.5,331.5C 306.027,331.573 307.027,330.906 307.5,329.5 Z"/></g>
<g><path style="opacity:1" fill="#dbdbdb" d="M 182.5,332.5 C 184.404,332.738 185.738,333.738 186.5,335.5C 184.596,335.262 183.262,334.262 182.5,332.5 Z"/></g>
<g><path style="opacity:1" fill="#212121" d="M 189.5,332.5 C 190.391,333.11 191.391,333.443 192.5,333.5C 192.833,334.5 193.5,335.167 194.5,335.5C 194.715,337.179 194.048,338.179 192.5,338.5C 191.609,337.89 190.609,337.557 189.5,337.5C 189.167,336.5 188.5,335.833 187.5,335.5C 187.932,334.29 188.599,333.29 189.5,332.5 Z"/></g>
<g><path style="opacity:1" fill="#d4d4d4" d="M 192.5,333.5 C 194.674,333.75 196.341,334.75 197.5,336.5C 196.391,336.443 195.391,336.11 194.5,335.5C 193.5,335.167 192.833,334.5 192.5,333.5 Z"/></g>
<g><path style="opacity:1" fill="#3d3d3d" d="M 304.5,332.5 C 304.557,333.609 304.89,334.609 305.5,335.5C 305.167,336.167 304.833,336.833 304.5,337.5C 303.833,337.5 303.167,337.5 302.5,337.5C 302.027,336.094 301.027,335.427 299.5,335.5C 299.5,335.167 299.5,334.833 299.5,334.5C 299.842,333.662 300.508,333.328 301.5,333.5C 302.609,333.443 303.609,333.11 304.5,332.5 Z"/></g>
<g><path style="opacity:1" fill="#e2e2e2" d="M 309.5,333.5 C 309.5,334.833 308.833,335.5 307.5,335.5C 307.833,334.5 308.5,333.833 309.5,333.5 Z"/></g>
<g><path style="opacity:1" fill="#cbcbcb" d="M 299.5,334.5 C 299.5,334.833 299.5,335.167 299.5,335.5C 298.833,335.833 298.167,336.167 297.5,336.5C 297.167,336.5 296.833,336.5 296.5,336.5C 296.973,335.094 297.973,334.427 299.5,334.5 Z"/></g>
<g><path style="opacity:1" fill="#d7d7d7" d="M 186.5,335.5 C 186.833,335.5 187.167,335.5 187.5,335.5C 188.5,335.833 189.167,336.5 189.5,337.5C 187.973,337.573 186.973,336.906 186.5,335.5 Z"/></g>
<g><path style="opacity:1" fill="#ececec" d="M 305.5,335.5 C 306.167,335.5 306.833,335.5 307.5,335.5C 307.027,336.906 306.027,337.573 304.5,337.5C 304.833,336.833 305.167,336.167 305.5,335.5 Z"/></g>
<g><path style="opacity:1" fill="#3e3e3e" d="M 299.5,335.5 C 301.027,335.427 302.027,336.094 302.5,337.5C 302.167,338.167 301.833,338.833 301.5,339.5C 300.486,340.674 299.153,341.34 297.5,341.5C 296.167,339.833 296.167,338.167 297.5,336.5C 298.167,336.167 298.833,335.833 299.5,335.5 Z"/></g>
<g><path style="opacity:1" fill="#e0e0e0" d="M 189.5,337.5 C 190.609,337.557 191.609,337.89 192.5,338.5C 192.5,338.833 192.5,339.167 192.5,339.5C 190.973,339.573 189.973,338.906 189.5,337.5 Z"/></g>
<g><path style="opacity:1" fill="#494949" d="M 194.5,335.5 C 195.391,336.11 196.391,336.443 197.5,336.5C 199.153,336.66 200.486,337.326 201.5,338.5C 201.5,339.167 201.833,339.5 202.5,339.5C 201.737,340.268 200.737,340.768 199.5,341C 200.167,341.333 200.833,341.667 201.5,342C 201.272,342.399 200.938,342.565 200.5,342.5C 199.167,342.167 197.833,341.833 196.5,341.5C 194.847,341.34 193.514,340.674 192.5,339.5C 192.5,339.167 192.5,338.833 192.5,338.5C 194.048,338.179 194.715,337.179 194.5,335.5 Z"/></g>
<g><path style="opacity:1" fill="#f1f1f1" d="M 302.5,337.5 C 303.167,337.5 303.833,337.5 304.5,337.5C 304.027,338.906 303.027,339.573 301.5,339.5C 301.833,338.833 302.167,338.167 302.5,337.5 Z"/></g>
<g><path style="opacity:1" fill="#d7d7d7" d="M 292.5,338.5 C 291.486,339.674 290.153,340.34 288.5,340.5C 289.287,338.896 290.62,338.229 292.5,338.5 Z"/></g>
<g><path style="opacity:1" fill="#292929" d="M 202.5,339.5 C 204.5,340.5 206.5,341.5 208.5,342.5C 208.539,343.756 208.039,344.756 207,345.5C 205.644,344.62 204.144,344.286 202.5,344.5C 201.833,343.833 201.167,343.167 200.5,342.5C 200.938,342.565 201.272,342.399 201.5,342C 200.833,341.667 200.167,341.333 199.5,341C 200.737,340.768 201.737,340.268 202.5,339.5 Z"/></g>
<g><path style="opacity:1" fill="#d4d4d4" d="M 201.5,338.5 C 204.754,338.794 207.421,340.127 209.5,342.5C 209.167,342.5 208.833,342.5 208.5,342.5C 206.5,341.5 204.5,340.5 202.5,339.5C 201.833,339.5 201.5,339.167 201.5,338.5 Z"/></g>
<g><path style="opacity:1" fill="#373737" d="M 296.5,336.5 C 296.833,336.5 297.167,336.5 297.5,336.5C 296.167,338.167 296.167,339.833 297.5,341.5C 295.847,341.66 294.514,342.326 293.5,343.5C 293.158,344.338 292.492,344.672 291.5,344.5C 289.447,344.402 287.78,345.069 286.5,346.5C 284.784,346.629 283.117,346.962 281.5,347.5C 280.167,347.5 279.5,346.833 279.5,345.5C 279.833,344.833 280.167,344.167 280.5,343.5C 281.568,342.566 282.901,342.232 284.5,342.5C 286.153,342.34 287.486,341.674 288.5,340.5C 290.153,340.34 291.486,339.674 292.5,338.5C 293.514,337.326 294.847,336.66 296.5,336.5 Z"/></g>
<g><path style="opacity:1" fill="#b7b7b7" d="M 288.5,340.5 C 287.486,341.674 286.153,342.34 284.5,342.5C 285.287,340.896 286.62,340.229 288.5,340.5 Z"/></g>
<g><path style="opacity:1" fill="#e5e5e5" d="M 196.5,341.5 C 197.833,341.833 199.167,342.167 200.5,342.5C 201.167,343.167 201.833,343.833 202.5,344.5C 199.911,344.539 197.911,343.539 196.5,341.5 Z"/></g>
<g><path style="opacity:1" fill="#e9e9e9" d="M 297.5,341.5 C 296.713,343.104 295.38,343.771 293.5,343.5C 294.514,342.326 295.847,341.66 297.5,341.5 Z"/></g>
<g><path style="opacity:1" fill="#656565" d="M 208.5,342.5 C 208.833,342.5 209.167,342.5 209.5,342.5C 211.898,342.259 213.898,342.926 215.5,344.5C 212.046,344.267 211.046,345.6 212.5,348.5C 208.863,347.737 205.53,346.403 202.5,344.5C 204.144,344.286 205.644,344.62 207,345.5C 208.039,344.756 208.539,343.756 208.5,342.5 Z"/></g>
<g><path style="opacity:1" fill="#232323" d="M 215.5,344.5 C 217.302,345.458 219.302,346.125 221.5,346.5C 220.22,347.931 218.553,348.598 216.5,348.5C 215.167,348.5 213.833,348.5 212.5,348.5C 211.046,345.6 212.046,344.267 215.5,344.5 Z"/></g>
<g><path style="opacity:1" fill="#d7d7d7" d="M 215.5,344.5 C 218.228,344.171 220.562,344.837 222.5,346.5C 222.167,346.5 221.833,346.5 221.5,346.5C 219.302,346.125 217.302,345.458 215.5,344.5 Z"/></g>
<g><path style="opacity:1" fill="#969696" d="M 280.5,343.5 C 280.167,344.167 279.833,344.833 279.5,345.5C 277.901,345.232 276.568,345.566 275.5,346.5C 274.167,346.5 272.833,346.5 271.5,346.5C 274.189,344.883 277.189,343.883 280.5,343.5 Z"/></g>
<g><path style="opacity:1" fill="#2a2a2a" d="M 279.5,345.5 C 279.5,346.833 280.167,347.5 281.5,347.5C 281.5,347.833 281.5,348.167 281.5,348.5C 279.435,348.517 277.435,348.85 275.5,349.5C 275.5,348.5 275.5,347.5 275.5,346.5C 276.568,345.566 277.901,345.232 279.5,345.5 Z"/></g>
<g><path style="opacity:1" fill="#d6d6d6" d="M 291.5,344.5 C 290.22,345.931 288.553,346.598 286.5,346.5C 287.78,345.069 289.447,344.402 291.5,344.5 Z"/></g>
<g><path style="opacity:1" fill="#d9d9d9" d="M 257.5,348.5 C 257.5,348.833 257.5,349.167 257.5,349.5C 256.833,349.5 256.167,349.5 255.5,349.5C 253.833,349.5 252.167,349.5 250.5,349.5C 247.833,349.5 245.167,349.5 242.5,349.5C 239.167,349.5 235.833,349.5 232.5,349.5C 230.095,348.232 227.428,347.565 224.5,347.5C 223.833,347.5 223.5,347.167 223.5,346.5C 223.435,346.062 223.601,345.728 224,345.5C 234.976,348.043 246.143,349.043 257.5,348.5 Z"/></g>
<g><path style="opacity:1" fill="#e0e0e0" d="M 270.5,346.5 C 268.833,347.167 267.167,347.833 265.5,348.5C 262.833,348.5 260.167,348.5 257.5,348.5C 261.618,347.291 265.951,346.624 270.5,346.5 Z"/></g>
<g><path style="opacity:1" fill="#2d2d2d" d="M 221.5,346.5 C 221.833,346.5 222.167,346.5 222.5,346.5C 222.833,346.5 223.167,346.5 223.5,346.5C 223.5,347.167 223.833,347.5 224.5,347.5C 223.167,348.5 223.167,349.5 224.5,350.5C 222.833,350.5 221.167,350.5 219.5,350.5C 219.167,350.5 218.833,350.5 218.5,350.5C 217.833,349.833 217.167,349.167 216.5,348.5C 218.553,348.598 220.22,347.931 221.5,346.5 Z"/></g>
<g><path style="opacity:1" fill="#dedede" d="M 286.5,346.5 C 285.22,347.931 283.553,348.598 281.5,348.5C 281.5,348.167 281.5,347.833 281.5,347.5C 283.117,346.962 284.784,346.629 286.5,346.5 Z"/></g>
<g><path style="opacity:1" fill="#bcbcbc" d="M 212.5,348.5 C 213.833,348.5 215.167,348.5 216.5,348.5C 217.167,349.167 217.833,349.833 218.5,350.5C 216.214,350.405 214.214,349.738 212.5,348.5 Z"/></g>
<g><path style="opacity:1" fill="#2c2c2c" d="M 224.5,347.5 C 227.428,347.565 230.095,348.232 232.5,349.5C 230.176,349.877 229.509,350.877 230.5,352.5C 230.167,352.5 229.833,352.5 229.5,352.5C 228.5,352.5 227.5,352.5 226.5,352.5C 225.833,351.833 225.167,351.167 224.5,350.5C 223.167,349.5 223.167,348.5 224.5,347.5 Z"/></g>
<g><path style="opacity:1" fill="#222222" d="M 232.5,349.5 C 235.833,349.5 239.167,349.5 242.5,349.5C 242.804,350.15 243.137,350.817 243.5,351.5C 245.631,352.169 247.631,352.835 249.5,353.5C 243.155,353.347 236.822,353.014 230.5,352.5C 229.509,350.877 230.176,349.877 232.5,349.5 Z"/></g>
<g><path style="opacity:1" fill="#1f1f1f" d="M 250.5,349.5 C 252.167,349.5 253.833,349.5 255.5,349.5C 255.557,350.609 255.89,351.609 256.5,352.5C 254.473,352.662 252.473,352.495 250.5,352C 249.402,351.23 249.402,350.397 250.5,349.5 Z"/></g>
<g><path style="opacity:1" fill="#313131" d="M 270.5,346.5 C 270.833,346.5 271.167,346.5 271.5,346.5C 272.833,346.5 274.167,346.5 275.5,346.5C 275.5,347.5 275.5,348.5 275.5,349.5C 274.833,349.5 274.5,349.833 274.5,350.5C 273.791,351.404 272.791,351.737 271.5,351.5C 269.801,351.66 268.134,351.494 266.5,351C 265.748,350.329 265.414,349.496 265.5,348.5C 267.167,347.833 268.833,347.167 270.5,346.5 Z"/></g>
<g><path style="opacity:1" fill="#e2e2e2" d="M 281.5,348.5 C 279.485,349.924 277.152,350.59 274.5,350.5C 274.5,349.833 274.833,349.5 275.5,349.5C 277.435,348.85 279.435,348.517 281.5,348.5 Z"/></g>
<g><path style="opacity:1" fill="#343434" d="M 242.5,349.5 C 245.167,349.5 247.833,349.5 250.5,349.5C 249.402,350.397 249.402,351.23 250.5,352C 252.473,352.495 254.473,352.662 256.5,352.5C 257.833,352.5 259.167,352.5 260.5,352.5C 260.5,352.833 260.5,353.167 260.5,353.5C 260.167,353.5 259.833,353.5 259.5,353.5C 256.167,353.5 252.833,353.5 249.5,353.5C 247.631,352.835 245.631,352.169 243.5,351.5C 243.137,350.817 242.804,350.15 242.5,349.5 Z"/></g>
<g><path style="opacity:1" fill="#636363" d="M 257.5,349.5 C 257.5,349.167 257.5,348.833 257.5,348.5C 260.167,348.5 262.833,348.5 265.5,348.5C 265.414,349.496 265.748,350.329 266.5,351C 268.134,351.494 269.801,351.66 271.5,351.5C 268.026,352.525 264.36,353.192 260.5,353.5C 260.5,353.167 260.5,352.833 260.5,352.5C 262.028,352.483 262.528,351.816 262,350.5C 260.644,349.62 259.144,349.286 257.5,349.5 Z"/></g>
<g><path style="opacity:1" fill="#d3d3d3" d="M 219.5,350.5 C 221.167,350.5 222.833,350.5 224.5,350.5C 225.167,351.167 225.833,351.833 226.5,352.5C 223.848,352.59 221.515,351.924 219.5,350.5 Z"/></g>
<g><path style="opacity:1" fill="#252525" d="M 255.5,349.5 C 256.167,349.5 256.833,349.5 257.5,349.5C 259.144,349.286 260.644,349.62 262,350.5C 262.528,351.816 262.028,352.483 260.5,352.5C 259.167,352.5 257.833,352.5 256.5,352.5C 255.89,351.609 255.557,350.609 255.5,349.5 Z"/></g>
<g><path style="opacity:1" fill="#d3d3d3" d="M 229.5,352.5 C 229.833,352.5 230.167,352.5 230.5,352.5C 236.822,353.014 243.155,353.347 249.5,353.5C 252.833,353.5 256.167,353.5 259.5,353.5C 255.681,354.166 251.681,354.499 247.5,354.5C 241.26,354.667 235.26,354 229.5,352.5 Z"/></g>
</svg>
