<?xml version="1.0" encoding="UTF-8"?>
<!DOCTYPE svg PUBLIC "-//W3C//DTD SVG 1.1//EN" "http://www.w3.org/Graphics/SVG/1.1/DTD/svg11.dtd">
<svg xmlns="http://www.w3.org/2000/svg" version="1.1" width="500px" height="500px" style="shape-rendering:geometricPrecision; text-rendering:geometricPrecision; image-rendering:optimizeQuality; fill-rule:evenodd; clip-rule:evenodd" xmlns:xlink="http://www.w3.org/1999/xlink">
<g><path style="opacity:1" fill="#e4e2de" d="M 250.5,145.5 C 249.833,146.167 249.167,146.833 248.5,147.5C 247.219,145.016 247.553,142.682 249.5,140.5C 251.424,141.965 251.757,143.632 250.5,145.5 Z"/></g>
<g><path style="opacity:1" fill="#d9d3bd" d="M 250.5,145.5 C 251.414,148.728 251.747,152.061 251.5,155.5C 251.167,155.5 250.833,155.5 250.5,155.5C 249.833,150.167 249.167,150.167 248.5,155.5C 248.167,155.5 247.833,155.5 247.5,155.5C 247.194,152.615 247.527,149.948 248.5,147.5C 249.167,146.833 249.833,146.167 250.5,145.5 Z"/></g>
<g><path style="opacity:1" fill="#ad9a71" d="M 250.5,155.5 C 250.771,157.38 250.104,158.713 248.5,159.5C 248.5,158.167 248.5,156.833 248.5,155.5C 249.167,150.167 249.833,150.167 250.5,155.5 Z"/></g>
<g><path style="opacity:1" fill="#c5b385" d="M 250.5,155.5 C 250.833,155.5 251.167,155.5 251.5,155.5C 251.5,157.167 251.5,158.833 251.5,160.5C 251.5,161.833 251.5,163.167 251.5,164.5C 251.737,165.791 251.404,166.791 250.5,167.5C 250.5,167.167 250.5,166.833 250.5,166.5C 250.843,164.517 250.176,163.183 248.5,162.5C 248.5,161.5 248.5,160.5 248.5,159.5C 250.104,158.713 250.771,157.38 250.5,155.5 Z"/></g>
<g><path style="opacity:1" fill="#ab9f78" d="M 247.5,155.5 C 247.833,155.5 248.167,155.5 248.5,155.5C 248.5,156.833 248.5,158.167 248.5,159.5C 248.5,160.5 248.5,161.5 248.5,162.5C 248.5,163.833 248.5,165.167 248.5,166.5C 247.735,169.096 247.401,171.763 247.5,174.5C 246.983,176.51 246.316,177.843 245.5,178.5C 245.5,176.833 245.5,175.167 245.5,173.5C 245.5,173.167 245.5,172.833 245.5,172.5C 247.145,167.766 247.811,162.766 247.5,157.5C 247.5,156.833 247.5,156.167 247.5,155.5 Z"/></g>
<g><path style="opacity:1" fill="#ede0b0" d="M 248.5,162.5 C 250.176,163.183 250.843,164.517 250.5,166.5C 249.833,166.5 249.167,166.5 248.5,166.5C 248.5,165.167 248.5,163.833 248.5,162.5 Z"/></g>
<g><path style="opacity:1" fill="#edebda" d="M 251.5,160.5 C 252.222,160.918 252.722,161.584 253,162.5C 253.498,165.817 253.665,169.15 253.5,172.5C 252.596,171.791 252.263,170.791 252.5,169.5C 252.784,167.585 252.451,165.919 251.5,164.5C 251.5,163.167 251.5,161.833 251.5,160.5 Z"/></g>
<g><path style="opacity:1" fill="#d4d0b9" d="M 251.5,164.5 C 252.451,165.919 252.784,167.585 252.5,169.5C 251.532,171.607 251.198,173.941 251.5,176.5C 250.523,173.713 250.19,170.713 250.5,167.5C 251.404,166.791 251.737,165.791 251.5,164.5 Z"/></g>
<g><path style="opacity:1" fill="#ece9d3" d="M 247.5,157.5 C 247.811,162.766 247.145,167.766 245.5,172.5C 245.608,167.29 246.275,162.29 247.5,157.5 Z"/></g>
<g><path style="opacity:1" fill="#f2efe5" d="M 248.5,166.5 C 249.167,166.5 249.833,166.5 250.5,166.5C 250.5,166.833 250.5,167.167 250.5,167.5C 249.046,170.353 248.046,173.353 247.5,176.5C 247.5,175.833 247.5,175.167 247.5,174.5C 247.401,171.763 247.735,169.096 248.5,166.5 Z"/></g>
<g><path style="opacity:1" fill="#cabe9c" d="M 252.5,169.5 C 252.263,170.791 252.596,171.791 253.5,172.5C 254.301,174.042 254.634,175.708 254.5,177.5C 253.883,177.389 253.383,177.056 253,176.5C 252.51,177.793 252.343,179.127 252.5,180.5C 251.566,179.432 251.232,178.099 251.5,176.5C 251.198,173.941 251.532,171.607 252.5,169.5 Z"/></g>
<g><path style="opacity:1" fill="#cec3aa" d="M 254.5,177.5 C 255.451,178.919 255.784,180.585 255.5,182.5C 254.778,182.082 254.278,181.416 254,180.5C 253.505,182.473 253.338,184.473 253.5,186.5C 252.539,184.735 252.205,182.735 252.5,180.5C 252.343,179.127 252.51,177.793 253,176.5C 253.383,177.056 253.883,177.389 254.5,177.5 Z"/></g>
<g><path style="opacity:1" fill="#f2ecdd" d="M 245.5,173.5 C 245.5,175.167 245.5,176.833 245.5,178.5C 244.662,178.842 244.328,179.508 244.5,180.5C 244.5,181.167 244.167,181.5 243.5,181.5C 243.294,178.505 243.96,175.838 245.5,173.5 Z"/></g>
<g><path style="opacity:1" fill="#d3c5a7" d="M 247.5,174.5 C 247.5,175.167 247.5,175.833 247.5,176.5C 247.324,179.727 246.657,182.727 245.5,185.5C 245.784,183.585 245.451,181.919 244.5,180.5C 244.328,179.508 244.662,178.842 245.5,178.5C 246.316,177.843 246.983,176.51 247.5,174.5 Z"/></g>
<g><path style="opacity:1" fill="#ae9b6c" d="M 255.5,182.5 C 255.662,184.527 255.495,186.527 255,188.5C 254.722,187.584 254.222,186.918 253.5,186.5C 253.338,184.473 253.505,182.473 254,180.5C 254.278,181.416 254.778,182.082 255.5,182.5 Z"/></g>
<g><path style="opacity:1" fill="#baa67c" d="M 244.5,180.5 C 245.451,181.919 245.784,183.585 245.5,185.5C 245.768,187.099 245.434,188.432 244.5,189.5C 244.672,188.508 244.338,187.842 243.5,187.5C 243.5,186.167 243.5,184.833 243.5,183.5C 243.5,182.833 243.5,182.167 243.5,181.5C 244.167,181.5 244.5,181.167 244.5,180.5 Z"/></g>
<g><path style="opacity:1" fill="#e7dac5" d="M 243.5,183.5 C 243.5,184.833 243.5,186.167 243.5,187.5C 242.833,188.5 242.167,189.5 241.5,190.5C 241.171,187.772 241.837,185.438 243.5,183.5 Z"/></g>
<g><path style="opacity:1" fill="#a3926d" d="M 243.5,187.5 C 244.338,187.842 244.672,188.508 244.5,189.5C 243.662,189.842 243.328,190.508 243.5,191.5C 242.833,191.5 242.167,191.5 241.5,191.5C 241.5,191.167 241.5,190.833 241.5,190.5C 242.167,189.5 242.833,188.5 243.5,187.5 Z"/></g>
<g><path style="opacity:1" fill="#d6ceb4" d="M 255.5,182.5 C 256.924,184.515 257.59,186.848 257.5,189.5C 256.167,189.5 255.5,190.167 255.5,191.5C 255.167,191.5 254.833,191.5 254.5,191.5C 253.962,189.883 253.629,188.216 253.5,186.5C 254.222,186.918 254.722,187.584 255,188.5C 255.495,186.527 255.662,184.527 255.5,182.5 Z"/></g>
<g><path style="opacity:1" fill="#ad9a6b" d="M 257.5,189.5 C 257.5,189.833 257.5,190.167 257.5,190.5C 257.366,192.292 257.699,193.958 258.5,195.5C 257.833,195.5 257.5,195.833 257.5,196.5C 256.463,195.07 255.796,193.403 255.5,191.5C 255.5,190.167 256.167,189.5 257.5,189.5 Z"/></g>
<g><path style="opacity:1" fill="#ebe6ce" d="M 244.5,189.5 C 244.829,192.228 244.163,194.562 242.5,196.5C 242.629,194.784 242.962,193.117 243.5,191.5C 243.328,190.508 243.662,189.842 244.5,189.5 Z"/></g>
<g><path style="opacity:1" fill="#dccfb9" d="M 241.5,190.5 C 241.5,190.833 241.5,191.167 241.5,191.5C 241.771,193.38 241.104,194.713 239.5,195.5C 239.402,193.447 240.069,191.78 241.5,190.5 Z"/></g>
<g><path style="opacity:1" fill="#d6d2b0" d="M 257.5,190.5 C 258.931,191.78 259.598,193.447 259.5,195.5C 259.167,195.5 258.833,195.5 258.5,195.5C 257.699,193.958 257.366,192.292 257.5,190.5 Z"/></g>
<g><path style="opacity:1" fill="#a59568" d="M 241.5,191.5 C 242.167,191.5 242.833,191.5 243.5,191.5C 242.962,193.117 242.629,194.784 242.5,196.5C 242.167,196.5 241.833,196.5 241.5,196.5C 240.833,196.833 240.167,197.167 239.5,197.5C 239.5,196.833 239.5,196.167 239.5,195.5C 241.104,194.713 241.771,193.38 241.5,191.5 Z"/></g>
<g><path style="opacity:1" fill="#f3ede1" d="M 254.5,191.5 C 254.833,191.5 255.167,191.5 255.5,191.5C 255.796,193.403 256.463,195.07 257.5,196.5C 257.5,197.833 257.5,199.167 257.5,200.5C 255.69,197.855 254.69,194.855 254.5,191.5 Z"/></g>
<g><path style="opacity:1" fill="#dbd3b3" d="M 239.5,195.5 C 239.5,196.167 239.5,196.833 239.5,197.5C 238.962,199.117 238.629,200.784 238.5,202.5C 237.833,202.833 237.167,203.167 236.5,203.5C 236.733,200.458 237.733,197.792 239.5,195.5 Z"/></g>
<g><path style="opacity:1" fill="#c1af80" d="M 258.5,195.5 C 258.833,195.5 259.167,195.5 259.5,195.5C 259.5,196.167 259.5,196.833 259.5,197.5C 258.549,198.919 258.216,200.585 258.5,202.5C 257.662,202.158 257.328,201.492 257.5,200.5C 257.5,199.167 257.5,197.833 257.5,196.5C 257.5,195.833 257.833,195.5 258.5,195.5 Z"/></g>
<g><path style="opacity:1" fill="#e6ddc1" d="M 259.5,195.5 C 260.931,196.78 261.598,198.447 261.5,200.5C 260.094,200.027 259.427,199.027 259.5,197.5C 259.5,196.833 259.5,196.167 259.5,195.5 Z"/></g>
<g><path style="opacity:1" fill="#a19559" d="M 241.5,196.5 C 241.167,198.5 240.833,200.5 240.5,202.5C 240.167,202.5 239.833,202.5 239.5,202.5C 239.167,202.5 238.833,202.5 238.5,202.5C 238.629,200.784 238.962,199.117 239.5,197.5C 240.167,197.167 240.833,196.833 241.5,196.5 Z"/></g>
<g><path style="opacity:1" fill="#ebe3d1" d="M 241.5,196.5 C 241.833,196.5 242.167,196.5 242.5,196.5C 242.741,198.898 242.074,200.898 240.5,202.5C 240.833,200.5 241.167,198.5 241.5,196.5 Z"/></g>
<g><path style="opacity:1" fill="#bfad7e" d="M 259.5,197.5 C 259.427,199.027 260.094,200.027 261.5,200.5C 261.366,202.292 261.699,203.958 262.5,205.5C 262.167,206.833 261.833,208.167 261.5,209.5C 259.707,207.574 258.707,205.241 258.5,202.5C 258.216,200.585 258.549,198.919 259.5,197.5 Z"/></g>
<g><path style="opacity:1" fill="#e0d1b2" d="M 261.5,200.5 C 262.912,202.604 263.912,204.937 264.5,207.5C 263.833,206.833 263.167,206.167 262.5,205.5C 261.699,203.958 261.366,202.292 261.5,200.5 Z"/></g>
<g><path style="opacity:1" fill="#a18b57" d="M 238.5,202.5 C 238.833,202.5 239.167,202.5 239.5,202.5C 238.962,204.117 238.629,205.784 238.5,207.5C 238.167,207.5 237.833,207.5 237.5,207.5C 237.672,206.508 237.338,205.842 236.5,205.5C 236.5,204.833 236.5,204.167 236.5,203.5C 237.167,203.167 237.833,202.833 238.5,202.5 Z"/></g>
<g><path style="opacity:1" fill="#f1ecd3" d="M 236.5,203.5 C 236.5,204.167 236.5,204.833 236.5,205.5C 235.662,205.842 235.328,206.508 235.5,207.5C 235.167,207.5 234.833,207.5 234.5,207.5C 234.229,205.62 234.896,204.287 236.5,203.5 Z"/></g>
<g><path style="opacity:1" fill="#ebdec7" d="M 239.5,202.5 C 239.833,202.5 240.167,202.5 240.5,202.5C 240.598,204.553 239.931,206.22 238.5,207.5C 238.629,205.784 238.962,204.117 239.5,202.5 Z"/></g>
<g><path style="opacity:1" fill="#a1914f" d="M 236.5,205.5 C 237.338,205.842 237.672,206.508 237.5,207.5C 237.167,208.167 236.833,208.833 236.5,209.5C 235.662,209.158 235.328,208.492 235.5,207.5C 235.328,206.508 235.662,205.842 236.5,205.5 Z"/></g>
<g><path style="opacity:1" fill="#c7b188" d="M 262.5,205.5 C 263.167,206.167 263.833,206.833 264.5,207.5C 264.5,207.833 264.5,208.167 264.5,208.5C 263.549,209.919 263.216,211.585 263.5,213.5C 262.326,212.486 261.66,211.153 261.5,209.5C 261.833,208.167 262.167,206.833 262.5,205.5 Z"/></g>
<g><path style="opacity:1" fill="#e4ddc9" d="M 234.5,207.5 C 234.573,209.027 233.906,210.027 232.5,210.5C 232.427,208.973 233.094,207.973 234.5,207.5 Z"/></g>
<g><path style="opacity:1" fill="#e7ddc4" d="M 237.5,207.5 C 237.833,207.5 238.167,207.5 238.5,207.5C 238.34,209.153 237.674,210.486 236.5,211.5C 236.5,210.833 236.5,210.167 236.5,209.5C 236.833,208.833 237.167,208.167 237.5,207.5 Z"/></g>
<g><path style="opacity:1" fill="#f0e6c4" d="M 264.5,207.5 C 265.906,207.973 266.573,208.973 266.5,210.5C 265.5,210.167 264.833,209.5 264.5,208.5C 264.5,208.167 264.5,207.833 264.5,207.5 Z"/></g>
<g><path style="opacity:1" fill="#ab985e" d="M 264.5,208.5 C 264.833,209.5 265.5,210.167 266.5,210.5C 266.5,211.167 266.5,211.833 266.5,212.5C 265.833,212.5 265.5,212.833 265.5,213.5C 264.833,213.5 264.167,213.5 263.5,213.5C 263.216,211.585 263.549,209.919 264.5,208.5 Z"/></g>
<g><path style="opacity:1" fill="#b09b69" d="M 234.5,207.5 C 234.833,207.5 235.167,207.5 235.5,207.5C 235.328,208.492 235.662,209.158 236.5,209.5C 236.5,210.167 236.5,210.833 236.5,211.5C 236.672,212.492 236.338,213.158 235.5,213.5C 235.167,213.5 234.833,213.5 234.5,213.5C 233.833,213.167 233.167,212.833 232.5,212.5C 232.5,211.833 232.5,211.167 232.5,210.5C 233.906,210.027 234.573,209.027 234.5,207.5 Z"/></g>
<g><path style="opacity:1" fill="#b9a46b" d="M 231.5,213.5 C 231.5,212.833 231.833,212.5 232.5,212.5C 233.167,212.833 233.833,213.167 234.5,213.5C 233.89,214.391 233.557,215.391 233.5,216.5C 233.5,217.167 233.167,217.5 232.5,217.5C 232.768,215.901 232.434,214.568 231.5,213.5 Z"/></g>
<g><path style="opacity:1" fill="#f8eadf" d="M 266.5,210.5 C 267.906,210.973 268.573,211.973 268.5,213.5C 267.833,213.167 267.167,212.833 266.5,212.5C 266.5,211.833 266.5,211.167 266.5,210.5 Z"/></g>
<g><path style="opacity:1" fill="#f4efe0" d="M 234.5,213.5 C 234.833,213.5 235.167,213.5 235.5,213.5C 235.573,215.027 234.906,216.027 233.5,216.5C 233.557,215.391 233.89,214.391 234.5,213.5 Z"/></g>
<g><path style="opacity:1" fill="#b3975c" d="M 266.5,212.5 C 267.167,212.833 267.833,213.167 268.5,213.5C 268.5,214.167 268.5,214.833 268.5,215.5C 267.833,215.5 267.167,215.5 266.5,215.5C 265.662,215.158 265.328,214.492 265.5,213.5C 265.5,212.833 265.833,212.5 266.5,212.5 Z"/></g>
<g><path style="opacity:1" fill="#f6ead3" d="M 232.5,210.5 C 232.5,211.167 232.5,211.833 232.5,212.5C 231.833,212.5 231.5,212.833 231.5,213.5C 230.833,214.5 230.167,215.5 229.5,216.5C 229.167,216.5 228.833,216.5 228.5,216.5C 229.34,214.147 230.674,212.147 232.5,210.5 Z"/></g>
<g><path style="opacity:1" fill="#a4894e" d="M 231.5,213.5 C 232.434,214.568 232.768,215.901 232.5,217.5C 231.833,217.833 231.167,218.167 230.5,218.5C 230.5,217.833 230.167,217.5 229.5,217.5C 229.5,217.167 229.5,216.833 229.5,216.5C 230.167,215.5 230.833,214.5 231.5,213.5 Z"/></g>
<g><path style="opacity:1" fill="#af9c57" d="M 266.5,215.5 C 267.167,215.5 267.833,215.5 268.5,215.5C 269.167,215.5 269.5,215.833 269.5,216.5C 269.5,217.833 268.833,218.5 267.5,218.5C 266.89,217.609 266.557,216.609 266.5,215.5 Z"/></g>
<g><path style="opacity:1" fill="#f6e8ce" d="M 268.5,213.5 C 269.906,213.973 270.573,214.973 270.5,216.5C 270.167,216.5 269.833,216.5 269.5,216.5C 269.5,215.833 269.167,215.5 268.5,215.5C 268.5,214.833 268.5,214.167 268.5,213.5 Z"/></g>
<g><path style="opacity:1" fill="#ad9560" d="M 229.5,217.5 C 230.167,217.5 230.5,217.833 230.5,218.5C 230.5,219.167 230.5,219.833 230.5,220.5C 230.5,221.167 230.167,221.5 229.5,221.5C 229.167,221.5 228.833,221.5 228.5,221.5C 228.5,220.5 228.5,219.5 228.5,218.5C 228.5,217.833 228.833,217.5 229.5,217.5 Z"/></g>
<g><path style="opacity:1" fill="#ece5d3" d="M 263.5,213.5 C 264.167,213.5 264.833,213.5 265.5,213.5C 265.328,214.492 265.662,215.158 266.5,215.5C 266.557,216.609 266.89,217.609 267.5,218.5C 267.5,218.833 267.5,219.167 267.5,219.5C 265.684,217.882 264.351,215.882 263.5,213.5 Z"/></g>
<g><path style="opacity:1" fill="#af9e67" d="M 269.5,216.5 C 269.833,216.5 270.167,216.5 270.5,216.5C 270.557,217.609 270.89,218.609 271.5,219.5C 271.5,219.833 271.5,220.167 271.5,220.5C 270.167,220.167 268.833,219.833 267.5,219.5C 267.5,219.167 267.5,218.833 267.5,218.5C 268.833,218.5 269.5,217.833 269.5,216.5 Z"/></g>
<g><path style="opacity:1" fill="#ece2cc" d="M 270.5,216.5 C 273.833,219.167 276.833,222.167 279.5,225.5C 278.833,225.5 278.167,225.5 277.5,225.5C 277.167,224.5 276.5,223.833 275.5,223.5C 274.5,221.833 273.167,220.5 271.5,219.5C 270.89,218.609 270.557,217.609 270.5,216.5 Z"/></g>
<g><path style="opacity:1" fill="#e1d5b8" d="M 228.5,216.5 C 228.833,216.5 229.167,216.5 229.5,216.5C 229.5,216.833 229.5,217.167 229.5,217.5C 228.833,217.5 228.5,217.833 228.5,218.5C 227.167,219.167 226.167,220.167 225.5,221.5C 225.167,221.5 224.833,221.5 224.5,221.5C 225.08,219.251 226.413,217.585 228.5,216.5 Z"/></g>
<g><path style="opacity:1" fill="#f0e9dc" d="M 232.5,217.5 C 232.573,219.027 231.906,220.027 230.5,220.5C 230.5,219.833 230.5,219.167 230.5,218.5C 231.167,218.167 231.833,217.833 232.5,217.5 Z"/></g>
<g><path style="opacity:1" fill="#a38a4f" d="M 228.5,218.5 C 228.5,219.5 228.5,220.5 228.5,221.5C 228.167,222.167 227.833,222.833 227.5,223.5C 227.167,223.5 226.833,223.5 226.5,223.5C 225.662,223.158 225.328,222.492 225.5,221.5C 226.167,220.167 227.167,219.167 228.5,218.5 Z"/></g>
<g><path style="opacity:1" fill="#d1c3a1" d="M 267.5,219.5 C 268.833,219.833 270.167,220.167 271.5,220.5C 271.5,221.5 271.5,222.5 271.5,223.5C 269.736,222.674 268.402,221.341 267.5,219.5 Z"/></g>
<g><path style="opacity:1" fill="#faf3e5" d="M 228.5,221.5 C 228.833,221.5 229.167,221.5 229.5,221.5C 229.5,222.833 228.833,223.5 227.5,223.5C 227.833,222.833 228.167,222.167 228.5,221.5 Z"/></g>
<g><path style="opacity:1" fill="#b09964" d="M 271.5,219.5 C 273.167,220.5 274.5,221.833 275.5,223.5C 274.5,223.5 273.5,223.5 272.5,223.5C 272.167,223.5 271.833,223.5 271.5,223.5C 271.5,222.5 271.5,221.5 271.5,220.5C 271.5,220.167 271.5,219.833 271.5,219.5 Z"/></g>
<g><path style="opacity:1" fill="#988957" d="M 224.5,221.5 C 224.833,221.5 225.167,221.5 225.5,221.5C 225.328,222.492 225.662,223.158 226.5,223.5C 226.167,224.167 225.833,224.833 225.5,225.5C 224.039,226.686 222.705,226.686 221.5,225.5C 222.5,224.167 223.5,222.833 224.5,221.5 Z"/></g>
<g><path style="opacity:1" fill="#ac9460" d="M 272.5,223.5 C 273.5,223.5 274.5,223.5 275.5,223.5C 276.5,223.833 277.167,224.5 277.5,225.5C 276.833,225.833 276.167,226.167 275.5,226.5C 274.167,225.833 273.167,224.833 272.5,223.5 Z"/></g>
<g><path style="opacity:1" fill="#e4d8be" d="M 224.5,221.5 C 223.5,222.833 222.5,224.167 221.5,225.5C 220.833,225.5 220.167,225.5 219.5,225.5C 220.585,223.413 222.251,222.08 224.5,221.5 Z"/></g>
<g><path style="opacity:1" fill="#f5f0dd" d="M 226.5,223.5 C 226.833,223.5 227.167,223.5 227.5,223.5C 227.5,224.833 226.833,225.5 225.5,225.5C 225.833,224.833 226.167,224.167 226.5,223.5 Z"/></g>
<g><path style="opacity:1" fill="#f9f4e6" d="M 271.5,223.5 C 271.833,223.5 272.167,223.5 272.5,223.5C 273.167,224.833 274.167,225.833 275.5,226.5C 275.5,226.833 275.5,227.167 275.5,227.5C 273.167,227.167 271.833,225.833 271.5,223.5 Z"/></g>
<g><path style="opacity:1" fill="#c9b382" d="M 277.5,225.5 C 278.167,225.5 278.833,225.5 279.5,225.5C 280.5,225.833 281.167,226.5 281.5,227.5C 279.952,227.821 279.285,228.821 279.5,230.5C 277.596,230.262 276.262,229.262 275.5,227.5C 275.5,227.167 275.5,226.833 275.5,226.5C 276.167,226.167 276.833,225.833 277.5,225.5 Z"/></g>
<g><path style="opacity:1" fill="#c5b492" d="M 219.5,225.5 C 220.167,225.5 220.833,225.5 221.5,225.5C 222.705,226.686 224.039,226.686 225.5,225.5C 224.135,227.86 222.135,229.527 219.5,230.5C 220.914,228.402 220.248,227.402 217.5,227.5C 217.833,226.5 218.5,225.833 219.5,225.5 Z"/></g>
<g><path style="opacity:1" fill="#f2e9d8" d="M 281.5,227.5 C 283.027,227.427 284.027,228.094 284.5,229.5C 282.973,229.573 281.973,228.906 281.5,227.5 Z"/></g>
<g><path style="opacity:1" fill="#e8dac3" d="M 217.5,227.5 C 217.167,228.167 216.833,228.833 216.5,229.5C 215.833,229.5 215.167,229.5 214.5,229.5C 214.973,228.094 215.973,227.427 217.5,227.5 Z"/></g>
<g><path style="opacity:1" fill="#b79d73" d="M 217.5,227.5 C 220.248,227.402 220.914,228.402 219.5,230.5C 219.027,231.906 218.027,232.573 216.5,232.5C 216.5,231.5 216.5,230.5 216.5,229.5C 216.833,228.833 217.167,228.167 217.5,227.5 Z"/></g>
<g><path style="opacity:1" fill="#b2995d" d="M 281.5,227.5 C 281.973,228.906 282.973,229.573 284.5,229.5C 285.85,230.824 285.683,231.824 284,232.5C 282.594,231.586 281.094,230.92 279.5,230.5C 279.285,228.821 279.952,227.821 281.5,227.5 Z"/></g>
<g><path style="opacity:1" fill="#f4ecd4" d="M 214.5,229.5 C 214.167,230.167 213.833,230.833 213.5,231.5C 212.508,231.328 211.842,231.662 211.5,232.5C 210.833,232.5 210.167,232.5 209.5,232.5C 210.659,230.75 212.326,229.75 214.5,229.5 Z"/></g>
<g><path style="opacity:1" fill="#9d8848" d="M 214.5,229.5 C 215.167,229.5 215.833,229.5 216.5,229.5C 216.5,230.5 216.5,231.5 216.5,232.5C 215.209,232.737 214.209,232.404 213.5,231.5C 213.833,230.833 214.167,230.167 214.5,229.5 Z"/></g>
<g><path style="opacity:1" fill="#f3ecdf" d="M 286.5,230.5 C 288.434,231.11 290.101,232.11 291.5,233.5C 291.167,233.5 290.833,233.5 290.5,233.5C 288.596,233.262 287.262,232.262 286.5,230.5 Z"/></g>
<g><path style="opacity:1" fill="#c5b087" d="M 213.5,231.5 C 214.209,232.404 215.209,232.737 216.5,232.5C 215.341,234.25 213.674,235.25 211.5,235.5C 212.833,234.5 212.833,233.5 211.5,232.5C 211.842,231.662 212.508,231.328 213.5,231.5 Z"/></g>
<g><path style="opacity:1" fill="#cfbc94" d="M 284.5,229.5 C 285.492,229.328 286.158,229.662 286.5,230.5C 287.262,232.262 288.596,233.262 290.5,233.5C 290.179,235.048 289.179,235.715 287.5,235.5C 284.151,234.831 281.484,233.164 279.5,230.5C 281.094,230.92 282.594,231.586 284,232.5C 285.683,231.824 285.85,230.824 284.5,229.5 Z"/></g>
<g><path style="opacity:1" fill="#bca986" d="M 209.5,232.5 C 210.167,232.5 210.833,232.5 211.5,232.5C 212.833,233.5 212.833,234.5 211.5,235.5C 211.158,236.338 210.492,236.672 209.5,236.5C 209.611,235.883 209.944,235.383 210.5,235C 209.207,234.51 207.873,234.343 206.5,234.5C 206.973,233.094 207.973,232.427 209.5,232.5 Z"/></g>
<g><path style="opacity:1" fill="#f5f0e3" d="M 205.5,234.5 C 204.71,235.401 203.71,236.068 202.5,236.5C 201.833,236.5 201.167,236.5 200.5,236.5C 201.78,235.069 203.447,234.402 205.5,234.5 Z"/></g>
<g><path style="opacity:1" fill="#d2c2a1" d="M 290.5,233.5 C 290.833,233.5 291.167,233.5 291.5,233.5C 292.995,233.989 294.329,234.655 295.5,235.5C 293.517,235.157 292.183,235.824 291.5,237.5C 289.847,237.34 288.514,236.674 287.5,235.5C 289.179,235.715 290.179,235.048 290.5,233.5 Z"/></g>
<g><path style="opacity:1" fill="#b4a274" d="M 205.5,234.5 C 205.833,234.5 206.167,234.5 206.5,234.5C 207.873,234.343 209.207,234.51 210.5,235C 209.944,235.383 209.611,235.883 209.5,236.5C 208.22,237.931 206.553,238.598 204.5,238.5C 203.833,237.833 203.167,237.167 202.5,236.5C 203.71,236.068 204.71,235.401 205.5,234.5 Z"/></g>
<g><path style="opacity:1" fill="#c4ba8a" d="M 295.5,235.5 C 296.492,235.328 297.158,235.662 297.5,236.5C 295.204,236.804 294.871,237.804 296.5,239.5C 294.597,239.204 292.93,238.537 291.5,237.5C 292.183,235.824 293.517,235.157 295.5,235.5 Z"/></g>
<g><path style="opacity:1" fill="#f7f3e6" d="M 297.5,236.5 C 299.898,236.259 301.898,236.926 303.5,238.5C 302.833,238.5 302.167,238.5 301.5,238.5C 300.005,238.011 298.671,237.345 297.5,236.5 Z"/></g>
<g><path style="opacity:1" fill="#a18a63" d="M 200.5,236.5 C 201.167,236.5 201.833,236.5 202.5,236.5C 203.167,237.167 203.833,237.833 204.5,238.5C 202.447,238.402 200.78,239.069 199.5,240.5C 199.167,240.5 198.833,240.5 198.5,240.5C 196.901,240.768 195.568,240.434 194.5,239.5C 196.97,239.346 198.97,238.346 200.5,236.5 Z"/></g>
<g><path style="opacity:1" fill="#aa9961" d="M 297.5,236.5 C 298.671,237.345 300.005,238.011 301.5,238.5C 300.081,239.451 298.415,239.784 296.5,239.5C 294.871,237.804 295.204,236.804 297.5,236.5 Z"/></g>
<g><path style="opacity:1" fill="#d7ccb0" d="M 200.5,236.5 C 198.97,238.346 196.97,239.346 194.5,239.5C 193.833,239.5 193.167,239.5 192.5,239.5C 194.89,237.98 197.557,236.98 200.5,236.5 Z"/></g>
<g><path style="opacity:1" fill="#b7a780" d="M 192.5,239.5 C 193.167,239.5 193.833,239.5 194.5,239.5C 195.568,240.434 196.901,240.768 198.5,240.5C 197.791,241.404 196.791,241.737 195.5,241.5C 193.901,241.768 192.568,241.434 191.5,240.5C 192.167,240.5 192.5,240.167 192.5,239.5 Z"/></g>
<g><path style="opacity:1" fill="#f7eede" d="M 204.5,238.5 C 203.22,239.931 201.553,240.598 199.5,240.5C 200.78,239.069 202.447,238.402 204.5,238.5 Z"/></g>
<g><path style="opacity:1" fill="#d9ccb1" d="M 301.5,238.5 C 302.167,238.5 302.833,238.5 303.5,238.5C 304.791,238.263 305.791,238.596 306.5,239.5C 305.127,239.343 303.793,239.51 302.5,240C 303.056,240.383 303.389,240.883 303.5,241.5C 300.933,241.279 298.599,240.612 296.5,239.5C 298.415,239.784 300.081,239.451 301.5,238.5 Z"/></g>
<g><path style="opacity:1" fill="#f3ead8" d="M 306.5,239.5 C 309.152,239.41 311.485,240.076 313.5,241.5C 313.167,241.5 312.833,241.5 312.5,241.5C 310.214,241.405 308.214,240.738 306.5,239.5 Z"/></g>
<g><path style="opacity:1" fill="#f4eedd" d="M 192.5,239.5 C 192.5,240.167 192.167,240.5 191.5,240.5C 190.209,240.263 189.209,240.596 188.5,241.5C 187.5,241.5 186.5,241.5 185.5,241.5C 187.438,239.837 189.772,239.171 192.5,239.5 Z"/></g>
<g><path style="opacity:1" fill="#b1a274" d="M 306.5,239.5 C 308.214,240.738 310.214,241.405 312.5,241.5C 312.158,242.338 311.492,242.672 310.5,242.5C 308.194,242.007 305.861,241.674 303.5,241.5C 303.389,240.883 303.056,240.383 302.5,240C 303.793,239.51 305.127,239.343 306.5,239.5 Z"/></g>
<g><path style="opacity:1" fill="#cbc1a6" d="M 191.5,240.5 C 192.568,241.434 193.901,241.768 195.5,241.5C 191.761,243.102 187.761,244.102 183.5,244.5C 183.5,244.167 183.5,243.833 183.5,243.5C 185.553,243.598 187.22,242.931 188.5,241.5C 189.209,240.596 190.209,240.263 191.5,240.5 Z"/></g>
<g><path style="opacity:1" fill="#e8e3cf" d="M 303.5,241.5 C 305.861,241.674 308.194,242.007 310.5,242.5C 310.5,242.833 310.5,243.167 310.5,243.5C 307.848,243.59 305.515,242.924 303.5,241.5 Z"/></g>
<g><path style="opacity:1" fill="#e5e1ca" d="M 184.5,241.5 C 184.158,242.338 183.492,242.672 182.5,242.5C 180.621,243.341 178.621,243.675 176.5,243.5C 178.838,241.96 181.505,241.294 184.5,241.5 Z"/></g>
<g><path style="opacity:1" fill="#978e5c" d="M 184.5,241.5 C 184.833,241.5 185.167,241.5 185.5,241.5C 186.5,241.5 187.5,241.5 188.5,241.5C 187.22,242.931 185.553,243.598 183.5,243.5C 182.833,243.5 182.5,243.167 182.5,242.5C 183.492,242.672 184.158,242.338 184.5,241.5 Z"/></g>
<g><path style="opacity:1" fill="#d6caab" d="M 312.5,241.5 C 312.833,241.5 313.167,241.5 313.5,241.5C 315.5,242.167 317.5,242.833 319.5,243.5C 318.448,243.351 317.448,243.517 316.5,244C 318.058,244.21 319.391,244.71 320.5,245.5C 317.012,245.46 313.679,244.793 310.5,243.5C 310.5,243.167 310.5,242.833 310.5,242.5C 311.492,242.672 312.158,242.338 312.5,241.5 Z"/></g>
<g><path style="opacity:1" fill="#f6f3e8" d="M 313.5,241.5 C 321.389,242.272 329.056,243.605 336.5,245.5C 334.5,245.5 332.5,245.5 330.5,245.5C 329.791,244.596 328.791,244.263 327.5,244.5C 324.833,244.167 322.167,243.833 319.5,243.5C 317.5,242.833 315.5,242.167 313.5,241.5 Z"/></g>
<g><path style="opacity:1" fill="#f7efe8" d="M 174.5,243.5 C 174.5,243.833 174.5,244.167 174.5,244.5C 171.941,244.198 169.607,244.532 167.5,245.5C 164.833,245.5 162.167,245.5 159.5,245.5C 164.269,244.111 169.269,243.444 174.5,243.5 Z"/></g>
<g><path style="opacity:1" fill="#999067" d="M 182.5,242.5 C 182.5,243.167 182.833,243.5 183.5,243.5C 183.5,243.833 183.5,244.167 183.5,244.5C 180.941,244.802 178.607,244.468 176.5,243.5C 178.621,243.675 180.621,243.341 182.5,242.5 Z"/></g>
<g><path style="opacity:1" fill="#ab9984" d="M 167.5,245.5 C 169.607,244.532 171.941,244.198 174.5,244.5C 173.5,245.167 172.5,245.833 171.5,246.5C 171.167,246.5 170.833,246.5 170.5,246.5C 170.167,246.5 169.833,246.5 169.5,246.5C 169.158,245.662 168.492,245.328 167.5,245.5 Z"/></g>
<g><path style="opacity:1" fill="#d9cdb6" d="M 174.5,243.5 C 175.167,243.5 175.833,243.5 176.5,243.5C 178.607,244.468 180.941,244.802 183.5,244.5C 179.705,245.617 175.705,246.283 171.5,246.5C 172.5,245.833 173.5,245.167 174.5,244.5C 174.5,244.167 174.5,243.833 174.5,243.5 Z"/></g>
<g><path style="opacity:1" fill="#beac89" d="M 319.5,243.5 C 322.167,243.833 324.833,244.167 327.5,244.5C 325.735,245.461 323.735,245.795 321.5,245.5C 321.167,245.5 320.833,245.5 320.5,245.5C 319.391,244.71 318.058,244.21 316.5,244C 317.448,243.517 318.448,243.351 319.5,243.5 Z"/></g>
<g><path style="opacity:1" fill="#b59f6f" d="M 159.5,246.5 C 159.5,246.167 159.5,245.833 159.5,245.5C 162.167,245.5 164.833,245.5 167.5,245.5C 168.492,245.328 169.158,245.662 169.5,246.5C 168.833,246.5 168.5,246.833 168.5,247.5C 165.482,247.296 162.482,246.963 159.5,246.5 Z"/></g>
<g><path style="opacity:1" fill="#dbd4c0" d="M 327.5,244.5 C 328.791,244.263 329.791,244.596 330.5,245.5C 329.494,245.938 329.494,246.604 330.5,247.5C 330.167,247.5 329.833,247.5 329.5,247.5C 328.833,247.5 328.167,247.5 327.5,247.5C 325.5,246.833 323.5,246.167 321.5,245.5C 323.735,245.795 325.735,245.461 327.5,244.5 Z"/></g>
<g><path style="opacity:1" fill="#bfb27b" d="M 330.5,245.5 C 332.5,245.5 334.5,245.5 336.5,245.5C 337.167,245.5 337.833,245.5 338.5,245.5C 338.5,245.833 338.5,246.167 338.5,246.5C 335.833,246.833 333.167,247.167 330.5,247.5C 329.494,246.604 329.494,245.938 330.5,245.5 Z"/></g>
<g><path style="opacity:1" fill="#f6f2e5" d="M 338.5,246.5 C 338.5,246.167 338.5,245.833 338.5,245.5C 342.048,245.095 345.381,245.595 348.5,247C 345.381,248.405 342.048,248.905 338.5,248.5C 340.631,247.686 342.964,247.186 345.5,247C 343.19,246.503 340.857,246.337 338.5,246.5 Z"/></g>
<g><path style="opacity:1" fill="#a79e83" d="M 159.5,246.5 C 160.5,247.167 161.5,247.833 162.5,248.5C 160.833,248.5 159.167,248.5 157.5,248.5C 156.048,247.698 154.382,247.198 152.5,247C 154.81,246.503 157.143,246.337 159.5,246.5 Z"/></g>
<g><path style="opacity:1" fill="#98804e" d="M 159.5,246.5 C 162.482,246.963 165.482,247.296 168.5,247.5C 167.341,248.513 165.341,248.847 162.5,248.5C 161.5,247.833 160.5,247.167 159.5,246.5 Z"/></g>
<g><path style="opacity:1" fill="#b4a578" d="M 338.5,246.5 C 340.857,246.337 343.19,246.503 345.5,247C 342.964,247.186 340.631,247.686 338.5,248.5C 337.833,248.5 337.167,248.5 336.5,248.5C 333.941,248.802 331.607,248.468 329.5,247.5C 329.833,247.5 330.167,247.5 330.5,247.5C 333.167,247.167 335.833,246.833 338.5,246.5 Z"/></g>
<g><path style="opacity:1" fill="#f3f0e7" d="M 159.5,245.5 C 159.5,245.833 159.5,246.167 159.5,246.5C 157.143,246.337 154.81,246.503 152.5,247C 154.382,247.198 156.048,247.698 157.5,248.5C 154.927,248.852 152.594,248.352 150.5,247C 153.278,245.608 156.278,245.108 159.5,245.5 Z"/></g>
<g><path style="opacity:1" fill="#f5f2e3" d="M 171.5,248.5 C 171.5,248.167 171.5,247.833 171.5,247.5C 175.79,247.198 179.79,247.864 183.5,249.5C 181.833,249.5 180.167,249.5 178.5,249.5C 176.393,248.532 174.059,248.198 171.5,248.5 Z"/></g>
<g><path style="opacity:1" fill="#d6cba9" d="M 168.5,247.5 C 168.5,246.833 168.833,246.5 169.5,246.5C 169.833,246.5 170.167,246.5 170.5,246.5C 170.5,247.167 170.833,247.5 171.5,247.5C 171.5,247.833 171.5,248.167 171.5,248.5C 170.833,248.5 170.5,248.833 170.5,249.5C 167.615,249.806 164.948,249.473 162.5,248.5C 165.341,248.847 167.341,248.513 168.5,247.5 Z"/></g>
<g><path style="opacity:1" fill="#c7bfa9" d="M 170.5,249.5 C 170.5,248.833 170.833,248.5 171.5,248.5C 174.059,248.198 176.393,248.532 178.5,249.5C 178.062,249.435 177.728,249.601 177.5,250C 178.737,250.232 179.737,250.732 180.5,251.5C 177.012,251.46 173.679,250.793 170.5,249.5 Z"/></g>
<g><path style="opacity:1" fill="#cabf97" d="M 327.5,247.5 C 328.167,247.5 328.833,247.5 329.5,247.5C 331.607,248.468 333.941,248.802 336.5,248.5C 334.052,249.473 331.385,249.806 328.5,249.5C 326.801,249.66 325.134,249.494 323.5,249C 325.058,248.79 326.391,248.29 327.5,247.5 Z"/></g>
<g><path style="opacity:1" fill="#cdbb9f" d="M 310.5,250.5 C 311.919,249.549 313.585,249.216 315.5,249.5C 317.527,249.338 319.527,249.505 321.5,250C 319.942,250.21 318.609,250.71 317.5,251.5C 316.432,252.434 315.099,252.768 313.5,252.5C 313.611,251.883 313.944,251.383 314.5,251C 313.207,250.51 311.873,250.343 310.5,250.5 Z"/></g>
<g><path style="opacity:1" fill="#e7e3d4" d="M 327.5,247.5 C 326.391,248.29 325.058,248.79 323.5,249C 325.134,249.494 326.801,249.66 328.5,249.5C 325.091,250.903 321.425,251.57 317.5,251.5C 318.609,250.71 319.942,250.21 321.5,250C 319.527,249.505 317.527,249.338 315.5,249.5C 319.267,248.205 323.267,247.539 327.5,247.5 Z"/></g>
<g><path style="opacity:1" fill="#c4baa1" d="M 178.5,249.5 C 180.167,249.5 181.833,249.5 183.5,249.5C 187.078,249.549 190.411,250.215 193.5,251.5C 191.473,251.338 189.473,251.505 187.5,252C 188.416,252.278 189.082,252.778 189.5,253.5C 186.417,253.084 183.417,252.417 180.5,251.5C 179.737,250.732 178.737,250.232 177.5,250C 177.728,249.601 178.062,249.435 178.5,249.5 Z"/></g>
<g><path style="opacity:1" fill="#ede5c6" d="M 310.5,250.5 C 309.167,251.167 307.833,251.833 306.5,252.5C 305.5,252.5 304.5,252.5 303.5,252.5C 303.167,252.5 302.833,252.5 302.5,252.5C 304.838,250.96 307.505,250.294 310.5,250.5 Z"/></g>
<g><path style="opacity:1" fill="#bbaf8d" d="M 310.5,250.5 C 311.873,250.343 313.207,250.51 314.5,251C 313.944,251.383 313.611,251.883 313.5,252.5C 312.081,253.451 310.415,253.784 308.5,253.5C 308.158,252.662 307.492,252.328 306.5,252.5C 307.833,251.833 309.167,251.167 310.5,250.5 Z"/></g>
<g><path style="opacity:1" fill="#9b8a62" d="M 193.5,251.5 C 193.611,252.117 193.944,252.617 194.5,253C 193.207,253.49 191.873,253.657 190.5,253.5C 190.167,253.5 189.833,253.5 189.5,253.5C 189.082,252.778 188.416,252.278 187.5,252C 189.473,251.505 191.473,251.338 193.5,251.5 Z"/></g>
<g><path style="opacity:1" fill="#a08d63" d="M 303.5,252.5 C 304.5,252.5 305.5,252.5 306.5,252.5C 307.492,252.328 308.158,252.662 308.5,253.5C 306.784,253.629 305.117,253.962 303.5,254.5C 303.5,254.167 303.5,253.833 303.5,253.5C 303.5,253.167 303.5,252.833 303.5,252.5 Z"/></g>
<g><path style="opacity:1" fill="#cebfa6" d="M 193.5,251.5 C 194.609,251.557 195.609,251.89 196.5,252.5C 196.5,252.833 196.5,253.167 196.5,253.5C 195.494,253.938 195.494,254.604 196.5,255.5C 194.102,255.741 192.102,255.074 190.5,253.5C 191.873,253.657 193.207,253.49 194.5,253C 193.944,252.617 193.611,252.117 193.5,251.5 Z"/></g>
<g><path style="opacity:1" fill="#e7dfc5" d="M 196.5,253.5 C 196.5,253.167 196.5,252.833 196.5,252.5C 198.786,252.595 200.786,253.262 202.5,254.5C 201.833,254.5 201.167,254.5 200.5,254.5C 199.167,254.167 197.833,253.833 196.5,253.5 Z"/></g>
<g><path style="opacity:1" fill="#9b8b5a" d="M 196.5,253.5 C 197.833,253.833 199.167,254.167 200.5,254.5C 200.158,255.338 199.492,255.672 198.5,255.5C 197.833,255.5 197.167,255.5 196.5,255.5C 195.494,254.604 195.494,253.938 196.5,253.5 Z"/></g>
<g><path style="opacity:1" fill="#dacbaf" d="M 302.5,252.5 C 302.833,252.5 303.167,252.5 303.5,252.5C 303.5,252.833 303.5,253.167 303.5,253.5C 300.458,253.733 297.792,254.733 295.5,256.5C 294.167,256.5 292.833,256.5 291.5,256.5C 294.797,254.399 298.463,253.065 302.5,252.5 Z"/></g>
<g><path style="opacity:1" fill="#bba783" d="M 303.5,253.5 C 303.5,253.833 303.5,254.167 303.5,254.5C 302.833,254.5 302.5,254.833 302.5,255.5C 301.22,256.931 299.553,257.598 297.5,257.5C 297.167,257.5 296.833,257.5 296.5,257.5C 296.5,256.833 296.167,256.5 295.5,256.5C 297.792,254.733 300.458,253.733 303.5,253.5 Z"/></g>
<g><path style="opacity:1" fill="#f4ede2" d="M 308.5,253.5 C 306.898,255.074 304.898,255.741 302.5,255.5C 302.5,254.833 302.833,254.5 303.5,254.5C 305.117,253.962 306.784,253.629 308.5,253.5 Z"/></g>
<g><path style="opacity:1" fill="#b1a380" d="M 200.5,254.5 C 201.167,254.5 201.833,254.5 202.5,254.5C 202.5,254.833 202.5,255.167 202.5,255.5C 202.062,255.435 201.728,255.601 201.5,256C 203.319,256.74 204.652,257.907 205.5,259.5C 203.716,259.107 202.05,258.441 200.5,257.5C 199.833,256.833 199.167,256.167 198.5,255.5C 199.492,255.672 200.158,255.338 200.5,254.5 Z"/></g>
<g><path style="opacity:1" fill="#eedfc0" d="M 202.5,255.5 C 202.5,255.167 202.5,254.833 202.5,254.5C 204.38,254.229 205.713,254.896 206.5,256.5C 205.167,256.167 203.833,255.833 202.5,255.5 Z"/></g>
<g><path style="opacity:1" fill="#f6f3ec" d="M 196.5,255.5 C 197.167,255.5 197.833,255.5 198.5,255.5C 199.167,256.167 199.833,256.833 200.5,257.5C 198.62,257.771 197.287,257.104 196.5,255.5 Z"/></g>
<g><path style="opacity:1" fill="#b6a27e" d="M 202.5,255.5 C 203.833,255.833 205.167,256.167 206.5,256.5C 208.553,256.402 210.22,257.069 211.5,258.5C 208.993,258.632 208.326,259.632 209.5,261.5C 207.847,261.34 206.514,260.674 205.5,259.5C 204.652,257.907 203.319,256.74 201.5,256C 201.728,255.601 202.062,255.435 202.5,255.5 Z"/></g>
<g><path style="opacity:1" fill="#988357" d="M 291.5,256.5 C 292.833,256.5 294.167,256.5 295.5,256.5C 296.167,256.5 296.5,256.833 296.5,257.5C 294.716,257.893 293.05,258.559 291.5,259.5C 291.5,258.833 291.5,258.167 291.5,257.5C 291.5,257.167 291.5,256.833 291.5,256.5 Z"/></g>
<g><path style="opacity:1" fill="#e7dbbe" d="M 291.5,256.5 C 291.5,256.833 291.5,257.167 291.5,257.5C 290.167,257.833 288.833,258.167 287.5,258.5C 288.287,256.896 289.62,256.229 291.5,256.5 Z"/></g>
<g><path style="opacity:1" fill="#b0996d" d="M 291.5,257.5 C 291.5,258.167 291.5,258.833 291.5,259.5C 290.5,259.833 289.833,260.5 289.5,261.5C 289.158,262.338 288.492,262.672 287.5,262.5C 286.448,262.649 285.448,262.483 284.5,262C 285.252,261.329 285.586,260.496 285.5,259.5C 285.842,258.662 286.508,258.328 287.5,258.5C 288.833,258.167 290.167,257.833 291.5,257.5 Z"/></g>
<g><path style="opacity:1" fill="#937e53" d="M 211.5,258.5 C 212.914,260.598 212.248,261.598 209.5,261.5C 208.326,259.632 208.993,258.632 211.5,258.5 Z"/></g>
<g><path style="opacity:1" fill="#f1e6d5" d="M 296.5,257.5 C 296.833,257.5 297.167,257.5 297.5,257.5C 295.151,259.341 292.485,260.674 289.5,261.5C 289.833,260.5 290.5,259.833 291.5,259.5C 293.05,258.559 294.716,257.893 296.5,257.5 Z"/></g>
<g><path style="opacity:1" fill="#f2efe3" d="M 215.5,261.5 C 215.5,261.167 215.5,260.833 215.5,260.5C 217.027,260.427 218.027,261.094 218.5,262.5C 217.391,262.443 216.391,262.11 215.5,261.5 Z"/></g>
<g><path style="opacity:1" fill="#c2ad86" d="M 211.5,258.5 C 213.153,258.66 214.486,259.326 215.5,260.5C 215.5,260.833 215.5,261.167 215.5,261.5C 215.5,262.5 215.5,263.5 215.5,264.5C 215.167,264.5 214.833,264.5 214.5,264.5C 214.027,263.094 213.027,262.427 211.5,262.5C 210.508,262.672 209.842,262.338 209.5,261.5C 212.248,261.598 212.914,260.598 211.5,258.5 Z"/></g>
<g><path style="opacity:1" fill="#cfc2a2" d="M 285.5,259.5 C 285.586,260.496 285.252,261.329 284.5,262C 285.448,262.483 286.448,262.649 287.5,262.5C 286.564,263.974 285.23,264.974 283.5,265.5C 283.5,264.5 283.5,263.5 283.5,262.5C 282.5,262.5 281.5,262.5 280.5,262.5C 281.659,260.75 283.326,259.75 285.5,259.5 Z"/></g>
<g><path style="opacity:1" fill="#ede6dc" d="M 218.5,262.5 C 220.027,262.427 221.027,263.094 221.5,264.5C 219.973,264.573 218.973,263.906 218.5,262.5 Z"/></g>
<g><path style="opacity:1" fill="#f1e0d2" d="M 211.5,262.5 C 213.027,262.427 214.027,263.094 214.5,264.5C 212.973,264.573 211.973,263.906 211.5,262.5 Z"/></g>
<g><path style="opacity:1" fill="#ece1cb" d="M 280.5,262.5 C 280.167,263.167 279.833,263.833 279.5,264.5C 278.833,264.5 278.5,264.833 278.5,265.5C 277.391,265.557 276.391,265.89 275.5,266.5C 276.539,264.469 278.205,263.136 280.5,262.5 Z"/></g>
<g><path style="opacity:1" fill="#a39059" d="M 280.5,262.5 C 281.5,262.5 282.5,262.5 283.5,262.5C 283.5,263.5 283.5,264.5 283.5,265.5C 282.833,265.5 282.167,265.5 281.5,265.5C 280.508,265.672 279.842,265.338 279.5,264.5C 279.833,263.833 280.167,263.167 280.5,262.5 Z"/></g>
<g><path style="opacity:1" fill="#997e54" d="M 215.5,261.5 C 216.391,262.11 217.391,262.443 218.5,262.5C 218.973,263.906 219.973,264.573 221.5,264.5C 221.737,265.791 221.404,266.791 220.5,267.5C 219.609,266.89 218.609,266.557 217.5,266.5C 217.167,265.5 216.5,264.833 215.5,264.5C 215.5,263.5 215.5,262.5 215.5,261.5 Z"/></g>
<g><path style="opacity:1" fill="#f1e2d6" d="M 215.5,264.5 C 216.5,264.833 217.167,265.5 217.5,266.5C 216.167,266.5 215.5,265.833 215.5,264.5 Z"/></g>
<g><path style="opacity:1" fill="#ad9a71" d="M 279.5,264.5 C 279.842,265.338 280.508,265.672 281.5,265.5C 281.167,266.167 280.833,266.833 280.5,267.5C 280.5,268.167 280.167,268.5 279.5,268.5C 279.167,268.5 278.833,268.5 278.5,268.5C 278.5,267.5 278.5,266.5 278.5,265.5C 278.5,264.833 278.833,264.5 279.5,264.5 Z"/></g>
<g><path style="opacity:1" fill="#f8f5ed" d="M 281.5,265.5 C 282.167,265.5 282.833,265.5 283.5,265.5C 283.027,266.906 282.027,267.573 280.5,267.5C 280.833,266.833 281.167,266.167 281.5,265.5 Z"/></g>
<g><path style="opacity:1" fill="#ece3d2" d="M 217.5,266.5 C 218.609,266.557 219.609,266.89 220.5,267.5C 220.5,268.167 220.833,268.5 221.5,268.5C 222.833,270.5 224.5,272.167 226.5,273.5C 227.167,274.5 227.833,275.5 228.5,276.5C 228.5,276.833 228.5,277.167 228.5,277.5C 224.5,274.167 220.833,270.5 217.5,266.5 Z"/></g>
<g><path style="opacity:1" fill="#ab9963" d="M 221.5,264.5 C 222.5,264.833 223.167,265.5 223.5,266.5C 223.833,267.167 224.167,267.833 224.5,268.5C 223.5,268.5 222.5,268.5 221.5,268.5C 220.833,268.5 220.5,268.167 220.5,267.5C 221.404,266.791 221.737,265.791 221.5,264.5 Z"/></g>
<g><path style="opacity:1" fill="#a2915a" d="M 278.5,265.5 C 278.5,266.5 278.5,267.5 278.5,268.5C 277.5,269.167 276.5,269.833 275.5,270.5C 274.662,270.158 274.328,269.492 274.5,268.5C 274.833,267.833 275.167,267.167 275.5,266.5C 276.391,265.89 277.391,265.557 278.5,265.5 Z"/></g>
<g><path style="opacity:1" fill="#9a7f4f" d="M 221.5,268.5 C 222.5,268.5 223.5,268.5 224.5,268.5C 226.167,269.5 227.5,270.833 228.5,272.5C 228.158,273.338 227.492,273.672 226.5,273.5C 224.5,272.167 222.833,270.5 221.5,268.5 Z"/></g>
<g><path style="opacity:1" fill="#f1e8d2" d="M 223.5,266.5 C 226.833,267.833 229.167,270.167 230.5,273.5C 230.167,273.5 229.833,273.5 229.5,273.5C 229.5,272.833 229.167,272.5 228.5,272.5C 227.5,270.833 226.167,269.5 224.5,268.5C 224.167,267.833 223.833,267.167 223.5,266.5 Z"/></g>
<g><path style="opacity:1" fill="#f4e9d8" d="M 275.5,266.5 C 275.167,267.167 274.833,267.833 274.5,268.5C 272.5,270.167 270.5,271.833 268.5,273.5C 269.833,270.167 272.167,267.833 275.5,266.5 Z"/></g>
<g><path style="opacity:1" fill="#998252" d="M 274.5,268.5 C 274.328,269.492 274.662,270.158 275.5,270.5C 274.833,271.833 273.833,272.833 272.5,273.5C 271.167,273.833 269.833,274.167 268.5,274.5C 268.5,274.167 268.5,273.833 268.5,273.5C 270.5,271.833 272.5,270.167 274.5,268.5 Z"/></g>
<g><path style="opacity:1" fill="#f3f1e5" d="M 278.5,268.5 C 278.833,268.5 279.167,268.5 279.5,268.5C 277.167,271.5 274.5,274.167 271.5,276.5C 271.557,275.391 271.89,274.391 272.5,273.5C 273.833,272.833 274.833,271.833 275.5,270.5C 276.5,269.833 277.5,269.167 278.5,268.5 Z"/></g>
<g><path style="opacity:1" fill="#997f52" d="M 228.5,272.5 C 229.167,272.5 229.5,272.833 229.5,273.5C 229.737,274.791 229.404,275.791 228.5,276.5C 227.833,275.5 227.167,274.5 226.5,273.5C 227.492,273.672 228.158,273.338 228.5,272.5 Z"/></g>
<g><path style="opacity:1" fill="#e4dac0" d="M 230.5,273.5 C 232.262,274.262 233.262,275.596 233.5,277.5C 232.833,277.167 232.167,276.833 231.5,276.5C 230.89,275.609 230.557,274.609 230.5,273.5 Z"/></g>
<g><path style="opacity:1" fill="#9b8957" d="M 272.5,273.5 C 271.89,274.391 271.557,275.391 271.5,276.5C 270.391,276.443 269.391,276.11 268.5,275.5C 268.5,275.167 268.5,274.833 268.5,274.5C 269.833,274.167 271.167,273.833 272.5,273.5 Z"/></g>
<g><path style="opacity:1" fill="#a88c5f" d="M 229.5,273.5 C 229.833,273.5 230.167,273.5 230.5,273.5C 230.557,274.609 230.89,275.609 231.5,276.5C 230.662,276.842 230.328,277.508 230.5,278.5C 229.833,278.167 229.167,277.833 228.5,277.5C 228.5,277.167 228.5,276.833 228.5,276.5C 229.404,275.791 229.737,274.791 229.5,273.5 Z"/></g>
<g><path style="opacity:1" fill="#e6dac6" d="M 268.5,273.5 C 268.5,273.833 268.5,274.167 268.5,274.5C 268.5,274.833 268.5,275.167 268.5,275.5C 267.5,276.167 266.5,276.833 265.5,277.5C 265.738,275.596 266.738,274.262 268.5,273.5 Z"/></g>
<g><path style="opacity:1" fill="#b29d6e" d="M 268.5,275.5 C 269.391,276.11 270.391,276.443 271.5,276.5C 271.5,277.167 271.167,277.5 270.5,277.5C 269.094,277.973 268.427,278.973 268.5,280.5C 268.5,281.167 268.167,281.5 267.5,281.5C 267.715,279.821 267.048,278.821 265.5,278.5C 265.5,278.167 265.5,277.833 265.5,277.5C 266.5,276.833 267.5,276.167 268.5,275.5 Z"/></g>
<g><path style="opacity:1" fill="#f6efe2" d="M 228.5,277.5 C 229.167,277.833 229.833,278.167 230.5,278.5C 231.11,279.391 231.443,280.391 231.5,281.5C 229.738,280.738 228.738,279.404 228.5,277.5 Z"/></g>
<g><path style="opacity:1" fill="#faf4e6" d="M 270.5,277.5 C 270.573,279.027 269.906,280.027 268.5,280.5C 268.427,278.973 269.094,277.973 270.5,277.5 Z"/></g>
<g><path style="opacity:1" fill="#987b43" d="M 231.5,276.5 C 232.167,276.833 232.833,277.167 233.5,277.5C 233.557,278.609 233.89,279.609 234.5,280.5C 234.672,281.492 234.338,282.158 233.5,282.5C 232.833,282.167 232.167,281.833 231.5,281.5C 231.443,280.391 231.11,279.391 230.5,278.5C 230.328,277.508 230.662,276.842 231.5,276.5 Z"/></g>
<g><path style="opacity:1" fill="#e8dbca" d="M 233.5,277.5 C 234.906,277.973 235.573,278.973 235.5,280.5C 235.167,280.5 234.833,280.5 234.5,280.5C 233.89,279.609 233.557,278.609 233.5,277.5 Z"/></g>
<g><path style="opacity:1" fill="#e4dbc3" d="M 265.5,277.5 C 265.5,277.833 265.5,278.167 265.5,278.5C 265.167,279.5 264.5,280.167 263.5,280.5C 263.427,278.973 264.094,277.973 265.5,277.5 Z"/></g>
<g><path style="opacity:1" fill="#9c864c" d="M 265.5,278.5 C 267.048,278.821 267.715,279.821 267.5,281.5C 266.288,282.23 265.288,283.23 264.5,284.5C 263.571,283.311 263.238,281.978 263.5,280.5C 264.5,280.167 265.167,279.5 265.5,278.5 Z"/></g>
<g><path style="opacity:1" fill="#ae9b69" d="M 234.5,280.5 C 234.833,280.5 235.167,280.5 235.5,280.5C 236.674,281.514 237.34,282.847 237.5,284.5C 237.598,287.248 236.598,287.914 234.5,286.5C 234.167,285.167 233.833,283.833 233.5,282.5C 234.338,282.158 234.672,281.492 234.5,280.5 Z"/></g>
<g><path style="opacity:1" fill="#f3e7d9" d="M 231.5,281.5 C 232.167,281.833 232.833,282.167 233.5,282.5C 233.833,283.833 234.167,285.167 234.5,286.5C 232.75,285.341 231.75,283.674 231.5,281.5 Z"/></g>
<g><path style="opacity:1" fill="#d0c5a8" d="M 263.5,280.5 C 263.238,281.978 263.571,283.311 264.5,284.5C 265.288,283.23 266.288,282.23 267.5,281.5C 266.921,284.331 265.588,286.664 263.5,288.5C 263.598,285.752 262.598,285.086 260.5,286.5C 260.654,284.03 261.654,282.03 263.5,280.5 Z"/></g>
<g><path style="opacity:1" fill="#c1aa87" d="M 263.5,288.5 C 263.672,289.492 263.338,290.158 262.5,290.5C 262.598,287.752 261.598,287.086 259.5,288.5C 259.328,287.508 259.662,286.842 260.5,286.5C 262.598,285.086 263.598,285.752 263.5,288.5 Z"/></g>
<g><path style="opacity:1" fill="#cfbd9f" d="M 237.5,284.5 C 238.674,285.514 239.34,286.847 239.5,288.5C 237.824,289.183 237.157,290.517 237.5,292.5C 235.992,290.819 234.992,288.819 234.5,286.5C 236.598,287.914 237.598,287.248 237.5,284.5 Z"/></g>
<g><path style="opacity:1" fill="#998055" d="M 262.5,290.5 C 261.833,290.5 261.5,290.833 261.5,291.5C 259.952,291.179 259.285,290.179 259.5,288.5C 261.598,287.086 262.598,287.752 262.5,290.5 Z"/></g>
<g><path style="opacity:1" fill="#978154" d="M 239.5,288.5 C 239.5,289.833 239.5,291.167 239.5,292.5C 239.5,293.167 239.5,293.833 239.5,294.5C 238.833,293.833 238.167,293.167 237.5,292.5C 237.157,290.517 237.824,289.183 239.5,288.5 Z"/></g>
<g><path style="opacity:1" fill="#d4c9a7" d="M 239.5,288.5 C 241.4,291.518 242.733,294.851 243.5,298.5C 243.167,298.5 242.833,298.5 242.5,298.5C 241.87,296.25 240.87,294.25 239.5,292.5C 239.5,291.167 239.5,289.833 239.5,288.5 Z"/></g>
<g><path style="opacity:1" fill="#a99872" d="M 259.5,288.5 C 259.285,290.179 259.952,291.179 261.5,291.5C 261.068,292.71 260.401,293.71 259.5,294.5C 259.591,292.302 258.925,291.969 257.5,293.5C 257.796,291.597 258.463,289.93 259.5,288.5 Z"/></g>
<g><path style="opacity:1" fill="#f2edda" d="M 262.5,290.5 C 262.293,293.241 261.293,295.574 259.5,297.5C 259.5,296.5 259.5,295.5 259.5,294.5C 260.401,293.71 261.068,292.71 261.5,291.5C 261.5,290.833 261.833,290.5 262.5,290.5 Z"/></g>
<g><path style="opacity:1" fill="#f3e9d7" d="M 237.5,292.5 C 238.167,293.167 238.833,293.833 239.5,294.5C 239.5,295.5 239.5,296.5 239.5,297.5C 238.069,296.22 237.402,294.553 237.5,292.5 Z"/></g>
<g><path style="opacity:1" fill="#9f8458" d="M 259.5,294.5 C 259.5,295.5 259.5,296.5 259.5,297.5C 258.069,298.78 257.402,300.447 257.5,302.5C 257.5,302.833 257.5,303.167 257.5,303.5C 257.167,303.5 256.833,303.5 256.5,303.5C 255.833,303.5 255.5,303.167 255.5,302.5C 256.578,299.598 257.244,296.598 257.5,293.5C 258.925,291.969 259.591,292.302 259.5,294.5 Z"/></g>
<g><path style="opacity:1" fill="#ddcfb7" d="M 257.5,293.5 C 257.244,296.598 256.578,299.598 255.5,302.5C 255.167,302.5 254.833,302.5 254.5,302.5C 254.928,299.215 255.928,296.215 257.5,293.5 Z"/></g>
<g><path style="opacity:1" fill="#9d8552" d="M 239.5,292.5 C 240.87,294.25 241.87,296.25 242.5,298.5C 242.737,299.791 242.404,300.791 241.5,301.5C 241.34,299.847 240.674,298.514 239.5,297.5C 239.5,296.5 239.5,295.5 239.5,294.5C 239.5,293.833 239.5,293.167 239.5,292.5 Z"/></g>
<g><path style="opacity:1" fill="#f1eadb" d="M 239.5,297.5 C 240.674,298.514 241.34,299.847 241.5,301.5C 241.5,301.833 241.5,302.167 241.5,302.5C 239.787,301.365 239.12,299.698 239.5,297.5 Z"/></g>
<g><path style="opacity:1" fill="#f0ebdc" d="M 259.5,297.5 C 259.88,299.698 259.213,301.365 257.5,302.5C 257.402,300.447 258.069,298.78 259.5,297.5 Z"/></g>
<g><path style="opacity:1" fill="#b8a87d" d="M 242.5,298.5 C 242.833,298.5 243.167,298.5 243.5,298.5C 244.301,300.042 244.634,301.708 244.5,303.5C 243.833,303.5 243.167,303.5 242.5,303.5C 242.167,303.5 241.833,303.5 241.5,303.5C 241.5,303.167 241.5,302.833 241.5,302.5C 241.5,302.167 241.5,301.833 241.5,301.5C 242.404,300.791 242.737,299.791 242.5,298.5 Z"/></g>
<g><path style="opacity:1" fill="#f1eddf" d="M 241.5,303.5 C 241.833,303.5 242.167,303.5 242.5,303.5C 242.833,305.5 243.167,307.5 243.5,309.5C 244.926,314.048 245.926,318.714 246.5,323.5C 246.5,324.5 246.5,325.5 246.5,326.5C 244.471,319.033 242.805,311.366 241.5,303.5 Z"/></g>
<g><path style="opacity:1" fill="#8d7e5d" d="M 242.5,303.5 C 243.167,303.5 243.833,303.5 244.5,303.5C 244.795,305.735 244.461,307.735 243.5,309.5C 243.167,307.5 242.833,305.5 242.5,303.5 Z"/></g>
<g><path style="opacity:1" fill="#baab89" d="M 254.5,302.5 C 254.833,302.5 255.167,302.5 255.5,302.5C 255.5,303.167 255.833,303.5 256.5,303.5C 256.279,306.067 255.612,308.401 254.5,310.5C 254.565,310.062 254.399,309.728 254,309.5C 253.722,310.416 253.222,311.082 252.5,311.5C 252.7,308.37 253.366,305.37 254.5,302.5 Z"/></g>
<g><path style="opacity:1" fill="#f1ecdf" d="M 256.5,303.5 C 256.833,303.5 257.167,303.5 257.5,303.5C 256.249,311.699 254.582,319.699 252.5,327.5C 252.5,324.833 252.5,322.167 252.5,319.5C 253.913,316.781 254.58,313.781 254.5,310.5C 255.612,308.401 256.279,306.067 256.5,303.5 Z"/></g>
<g><path style="opacity:1" fill="#b0a383" d="M 244.5,303.5 C 246.023,307.596 247.023,311.929 247.5,316.5C 247.802,319.059 247.468,321.393 246.5,323.5C 245.926,318.714 244.926,314.048 243.5,309.5C 244.461,307.735 244.795,305.735 244.5,303.5 Z"/></g>
<g><path style="opacity:1" fill="#f3efe6" d="M 252.5,311.5 C 252.5,313.167 252.5,314.833 252.5,316.5C 251.833,318.833 251.167,321.167 250.5,323.5C 250.083,319.183 250.75,315.183 252.5,311.5 Z"/></g>
<g><path style="opacity:1" fill="#988963" d="M 254.5,310.5 C 254.58,313.781 253.913,316.781 252.5,319.5C 252.5,318.5 252.5,317.5 252.5,316.5C 252.5,314.833 252.5,313.167 252.5,311.5C 253.222,311.082 253.722,310.416 254,309.5C 254.399,309.728 254.565,310.062 254.5,310.5 Z"/></g>
<g><path style="opacity:1" fill="#a49475" d="M 252.5,316.5 C 252.5,317.5 252.5,318.5 252.5,319.5C 252.5,322.167 252.5,324.833 252.5,327.5C 251.833,329.5 251.167,331.5 250.5,333.5C 250.5,332.5 250.5,331.5 250.5,330.5C 250.5,328.833 250.5,327.167 250.5,325.5C 250.5,324.833 250.5,324.167 250.5,323.5C 251.167,321.167 251.833,318.833 252.5,316.5 Z"/></g>
<g><path style="opacity:1" fill="#d8d2bf" d="M 247.5,316.5 C 248.477,319.287 248.81,322.287 248.5,325.5C 247.532,327.607 247.198,329.941 247.5,332.5C 246.539,330.735 246.205,328.735 246.5,326.5C 246.5,325.5 246.5,324.5 246.5,323.5C 247.468,321.393 247.802,319.059 247.5,316.5 Z"/></g>
<g><path style="opacity:1" fill="#f3e5c6" d="M 248.5,325.5 C 249.167,325.5 249.833,325.5 250.5,325.5C 250.5,327.167 250.5,328.833 250.5,330.5C 248.744,329.448 248.077,327.781 248.5,325.5 Z"/></g>
<g><path style="opacity:1" fill="#f0ebe1" d="M 252.5,327.5 C 252.283,333.36 251.617,339.027 250.5,344.5C 250.5,342.833 250.5,341.167 250.5,339.5C 250.5,337.5 250.5,335.5 250.5,333.5C 251.167,331.5 251.833,329.5 252.5,327.5 Z"/></g>
<g><path style="opacity:1" fill="#b9a77a" d="M 248.5,325.5 C 248.077,327.781 248.744,329.448 250.5,330.5C 250.5,331.5 250.5,332.5 250.5,333.5C 249.508,333.328 248.842,333.662 248.5,334.5C 248.167,334.5 247.833,334.5 247.5,334.5C 247.5,333.833 247.5,333.167 247.5,332.5C 247.198,329.941 247.532,327.607 248.5,325.5 Z"/></g>
<g><path style="opacity:1" fill="#9c8c64" d="M 250.5,333.5 C 250.5,335.5 250.5,337.5 250.5,339.5C 248.787,338.365 248.12,336.698 248.5,334.5C 248.842,333.662 249.508,333.328 250.5,333.5 Z"/></g>
<g><path style="opacity:1" fill="#cbc4b0" d="M 247.5,334.5 C 247.833,334.5 248.167,334.5 248.5,334.5C 248.12,336.698 248.787,338.365 250.5,339.5C 250.5,341.167 250.5,342.833 250.5,344.5C 249.833,344.5 249.167,344.5 248.5,344.5C 247.521,341.375 247.187,338.042 247.5,334.5 Z"/></g>
<g><path style="opacity:1" fill="#efefea" d="M 248.5,344.5 C 249.167,344.5 249.833,344.5 250.5,344.5C 249.833,351.167 249.167,351.167 248.5,344.5 Z"/></g>
</svg>
