<?xml version="1.0" encoding="UTF-8"?>
<!DOCTYPE svg PUBLIC "-//W3C//DTD SVG 1.1//EN" "http://www.w3.org/Graphics/SVG/1.1/DTD/svg11.dtd">
<svg xmlns="http://www.w3.org/2000/svg" version="1.1" width="500px" height="500px" style="shape-rendering:geometricPrecision; text-rendering:geometricPrecision; image-rendering:optimizeQuality; fill-rule:evenodd; clip-rule:evenodd" xmlns:xlink="http://www.w3.org/1999/xlink">
<g><path style="opacity:1" fill="#292929" d="M 176.5,182.5 C 176.64,180.876 175.973,179.71 174.5,179C 174.966,177.701 174.966,176.201 174.5,174.5C 172.678,174.831 171.011,175.498 169.5,176.5C 183.099,155.392 201.766,140.892 225.5,133C 234.142,130.726 242.809,128.56 251.5,126.5C 254.475,127.139 257.475,127.639 260.5,128C 260.957,128.414 261.291,128.914 261.5,129.5C 224.493,133.174 196.16,150.841 176.5,182.5 Z"/></g>
<g><path style="opacity:1" fill="#2c2c2c" d="M 281.5,151.5 C 288.632,151.789 290.298,154.956 286.5,161C 280.019,162.357 277.519,159.857 279,153.5C 279.995,152.934 280.828,152.267 281.5,151.5 Z"/></g>
<g><path style="opacity:1" fill="#272727" d="M 309.5,170.5 C 315.068,170.015 317.068,172.348 315.5,177.5C 309.079,178.752 307.079,176.419 309.5,170.5 Z"/></g>
<g><path style="opacity:1" fill="#1a1a1a" d="M 176.5,182.5 C 170.356,194.268 166.023,206.602 163.5,219.5C 163.565,213.052 162.732,213.052 161,219.5C 160.561,216.701 159.228,215.701 157,216.5C 156.5,215.333 155.667,214.5 154.5,214C 155.712,212.893 155.379,212.393 153.5,212.5C 156.714,199.417 162.048,187.417 169.5,176.5C 171.011,175.498 172.678,174.831 174.5,174.5C 174.966,176.201 174.966,177.701 174.5,179C 175.973,179.71 176.64,180.876 176.5,182.5 Z"/></g>
<g><path style="opacity:1" fill="#272727" d="M 330.5,193.5 C 332.167,193.5 333.833,193.5 335.5,193.5C 337.408,199.09 335.575,200.756 330,198.5C 329.36,196.735 329.527,195.068 330.5,193.5 Z"/></g>
<g><path style="opacity:1" fill="#212121" d="M 258.5,243.5 C 259.001,247.75 259.001,251.916 258.5,256C 256.19,256.497 253.857,256.663 251.5,256.5C 246.151,252.14 246.318,247.806 252,243.5C 252.295,230.865 252.128,218.365 251.5,206C 255.263,201.039 257.596,201.705 258.5,208C 257.413,219.955 257.413,231.788 258.5,243.5 Z"/></g>
<g><path style="opacity:1" fill="#343434" d="M 342.5,219.5 C 343.833,219.5 345.167,219.5 346.5,219.5C 346.5,221.5 346.5,223.5 346.5,225.5C 342.143,225.444 340.809,223.444 342.5,219.5 Z"/></g>
<g><path style="opacity:1" fill="#171717" d="M 153.5,212.5 C 155.379,212.393 155.712,212.893 154.5,214C 155.667,214.5 156.5,215.333 157,216.5C 159.228,215.701 160.561,216.701 161,219.5C 162.732,213.052 163.565,213.052 163.5,219.5C 162.206,229.503 162.206,239.503 163.5,249.5C 163.762,250.978 163.429,252.311 162.5,253.5C 160.414,255.883 158.414,258.383 156.5,261C 157.711,261.893 157.711,262.726 156.5,263.5C 155.358,262.174 154.024,261.174 152.5,260.5C 149.607,244.396 149.941,228.396 153.5,212.5 Z"/></g>
<g><path style="opacity:1" fill="#4a4a4a" d="M 344.5,247.5 C 348.961,248.048 349.461,249.715 346,252.5C 344.731,251.095 344.231,249.429 344.5,247.5 Z"/></g>
<g><path style="opacity:1" fill="#1c1c1b" d="M 163.5,249.5 C 165.561,259.055 168.561,268.389 172.5,277.5C 170.073,277.523 167.74,278.023 165.5,279C 166.328,279.915 167.328,280.581 168.5,281C 166.5,281 164.5,281 162.5,281C 163.167,281.333 163.833,281.667 164.5,282C 162.881,282.236 161.881,283.069 161.5,284.5C 157.334,277.009 154.334,269.009 152.5,260.5C 154.024,261.174 155.358,262.174 156.5,263.5C 157.711,262.726 157.711,261.893 156.5,261C 158.414,258.383 160.414,255.883 162.5,253.5C 163.429,252.311 163.762,250.978 163.5,249.5 Z"/></g>
<g><path style="opacity:1" fill="#767676" d="M 262.5,258.5 C 264.027,258.427 265.027,259.094 265.5,260.5C 263.973,260.573 262.973,259.906 262.5,258.5 Z"/></g>
<g><path style="opacity:1" fill="#272727" d="M 258.5,243.5 C 261.562,245.623 263.062,248.623 263,252.5C 271.412,258.623 279.912,264.623 288.5,270.5C 289.452,272.045 289.785,273.712 289.5,275.5C 287.345,275.628 285.345,275.128 283.5,274C 277.253,269.723 271.253,265.223 265.5,260.5C 265.027,259.094 264.027,258.427 262.5,258.5C 258.727,257.897 255.061,257.23 251.5,256.5C 253.857,256.663 256.19,256.497 258.5,256C 259.001,251.916 259.001,247.75 258.5,243.5 Z"/></g>
<g><path style="opacity:1" fill="#191919" d="M 172.5,277.5 C 186.195,305.525 207.862,324.525 237.5,334.5C 233.667,335.563 233.667,336.396 237.5,337C 236.128,337.631 234.795,338.298 233.5,339C 233.989,340.138 234.322,341.305 234.5,342.5C 205.904,335.76 183.404,320.093 167,295.5C 164.628,292.09 162.795,288.423 161.5,284.5C 161.881,283.069 162.881,282.236 164.5,282C 163.833,281.667 163.167,281.333 162.5,281C 164.5,281 166.5,281 168.5,281C 167.328,280.581 166.328,279.915 165.5,279C 167.74,278.023 170.073,277.523 172.5,277.5 Z"/></g>
<g><path style="opacity:1" fill="#4b4b4b" d="M 315.5,329.5 C 315.715,327.821 315.048,326.821 313.5,326.5C 322.118,322.065 329.785,316.232 336.5,309C 337.5,308.333 338.5,308.333 339.5,309C 332.56,317.109 324.56,323.942 315.5,329.5 Z"/></g>
<g><path style="opacity:1" fill="#2b2b2b" d="M 313.5,326.5 C 315.048,326.821 315.715,327.821 315.5,329.5C 306.05,335.719 295.717,340.052 284.5,342.5C 283.781,340.683 282.781,340.016 281.5,340.5C 282.592,339.169 283.926,338.336 285.5,338C 284.207,337.51 282.873,337.343 281.5,337.5C 292.482,335.022 303.149,331.355 313.5,326.5 Z"/></g>
<g><path style="opacity:1" fill="#1e1e1e" d="M 237.5,334.5 C 244.329,335.634 250.996,336.968 257.5,338.5C 259.292,339.309 261.292,339.809 263.5,340C 262.939,341.566 263.606,342.899 265.5,344C 258.842,344.5 252.175,344.666 245.5,344.5C 241.575,344.57 237.909,343.903 234.5,342.5C 234.322,341.305 233.989,340.138 233.5,339C 234.795,338.298 236.128,337.631 237.5,337C 233.667,336.396 233.667,335.563 237.5,334.5 Z"/></g>
<g><path style="opacity:1" fill="#323232" d="M 257.5,338.5 C 263.167,338.5 268.833,338.5 274.5,338.5C 272.097,339.131 269.764,340.131 267.5,341.5C 268.421,343.756 270.088,344.756 272.5,344.5C 270.444,345.216 268.277,345.883 266,346.5C 259.068,345.85 252.234,345.183 245.5,344.5C 252.175,344.666 258.842,344.5 265.5,344C 263.606,342.899 262.939,341.566 263.5,340C 261.292,339.809 259.292,339.309 257.5,338.5 Z"/></g>
<g><path style="opacity:1" fill="#1d1d1d" d="M 281.5,337.5 C 282.873,337.343 284.207,337.51 285.5,338C 283.926,338.336 282.592,339.169 281.5,340.5C 282.781,340.016 283.781,340.683 284.5,342.5C 280.64,343.804 276.64,344.471 272.5,344.5C 270.088,344.756 268.421,343.756 267.5,341.5C 269.764,340.131 272.097,339.131 274.5,338.5C 276.607,337.532 278.941,337.198 281.5,337.5 Z"/></g>
</svg>
